<!-- Generated by IcoMoon.io -->
<svg version="1.1" xmlns="http://www.w3.org/2000/svg" width="37" height="32" viewBox="0 0 37 32">
<title>address-card-o</title>
<path d="M18.281 20.188q0 1.156-0.656 1.906t-1.625 0.75h-9.156q-0.938 0-1.625-0.75-0.656-0.75-0.656-1.906 0-1.125 0.156-2.094 0.188-0.938 0.531-1.844 0.375-0.875 1.094-1.375 0.719-0.531 1.719-0.531 0.125 0.094 0.531 0.344 0.438 0.25 0.688 0.375l0.625 0.313q0.406 0.188 0.781 0.25 0.375 0.094 0.75 0.094t0.75-0.094q0.375-0.063 0.75-0.25 0.406-0.188 0.656-0.313l0.656-0.375t0.531-0.344q1.031 0 1.75 0.531 0.688 0.5 1.063 1.375 0.375 0.906 0.531 1.844 0.156 0.969 0.156 2.094v0zM15.469 10.906q0 1.688-1.188 2.875t-2.844 1.188q-1.688 0-2.875-1.188t-1.188-2.875 1.188-2.875 2.875-1.188q1.656 0 2.844 1.188t1.188 2.875zM32 18.844v1.156q0 0.25-0.156 0.406t-0.406 0.156h-10.281q-0.25 0-0.438-0.156-0.156-0.156-0.156-0.406v-1.156q0-0.25 0.156-0.406 0.188-0.156 0.438-0.156h10.281q0.25 0 0.406 0.156t0.156 0.406zM32 14.344v1q0 0.281-0.188 0.469t-0.469 0.188h-10.125q-0.281 0-0.469-0.188t-0.188-0.469v-1q0-0.25 0.188-0.438t0.469-0.188h10.125q0.281 0 0.469 0.188t0.188 0.438zM32 9.719v1.125q0 0.25-0.156 0.438-0.156 0.156-0.406 0.156h-10.281q-0.25 0-0.438-0.156-0.156-0.188-0.156-0.438v-1.125q0-0.25 0.156-0.406 0.188-0.156 0.438-0.156h10.281q0.25 0 0.406 0.156t0.156 0.406zM34.281 26.844v-21.688q0-0.25-0.156-0.406-0.188-0.188-0.406-0.188h-30.875q-0.219 0-0.375 0.188-0.188 0.156-0.188 0.406v21.688q0 0.25 0.188 0.406 0.156 0.188 0.375 0.188h6.313v-1.719q0-0.25 0.156-0.406t0.406-0.156h1.125q0.25 0 0.438 0.156 0.156 0.156 0.156 0.406v1.719h13.719v-1.719q0-0.25 0.156-0.406t0.406-0.156h1.125q0.25 0 0.438 0.156 0.156 0.156 0.156 0.406v1.719h6.281q0.219 0 0.406-0.188 0.156-0.156 0.156-0.406v0zM36.563 5.156v21.688q0 1.188-0.844 2.031-0.813 0.844-2 0.844h-30.875q-1.156 0-2-0.844t-0.844-2.031v-21.688q0-1.188 0.844-2.031t2-0.844h30.875q1.188 0 2 0.844 0.844 0.844 0.844 2.031z"></path>
</svg>
