<!-- Generated by IcoMoon.io -->
<svg version="1.1" xmlns="http://www.w3.org/2000/svg" width="32" height="32" viewBox="0 0 32 32">
<title>align-justify</title>
<path d="M32 24v2.281q0 0.469-0.344 0.813t-0.813 0.344h-29.688q-0.469 0-0.813-0.344t-0.344-0.813v-2.281q0-0.469 0.344-0.813t0.813-0.344h29.688q0.469 0 0.813 0.344t0.344 0.813zM32 17.156v2.281q0 0.469-0.344 0.781-0.344 0.344-0.813 0.344h-29.688q-0.469 0-0.813-0.344-0.344-0.313-0.344-0.781v-2.281q0-0.469 0.344-0.813t0.813-0.344h29.688q0.469 0 0.813 0.344t0.344 0.813v0zM32 10.281v2.281q0 0.469-0.344 0.813t-0.813 0.344h-29.688q-0.469 0-0.813-0.344t-0.344-0.813v-2.281q0-0.469 0.344-0.813 0.344-0.313 0.813-0.313h29.688q0.469 0 0.813 0.313 0.344 0.344 0.344 0.813zM32 3.438v2.281q0 0.469-0.344 0.813-0.344 0.313-0.813 0.313h-29.688q-0.469 0-0.813-0.313-0.344-0.344-0.344-0.813v-2.281q0-0.469 0.344-0.813t0.813-0.344h29.688q0.469 0 0.813 0.344t0.344 0.813z"></path>
</svg>
