<!-- Generated by IcoMoon.io -->
<svg version="1.1" xmlns="http://www.w3.org/2000/svg" width="32" height="32" viewBox="0 0 32 32">
<title>align-center</title>
<path d="M32 24v2.281q0 0.469-0.344 0.813t-0.813 0.344h-29.688q-0.469 0-0.813-0.344t-0.344-0.813v-2.281q0-0.469 0.344-0.813t0.813-0.344h29.688q0.469 0 0.813 0.344t0.344 0.813zM25.156 17.156v2.281q0 0.469-0.344 0.781-0.344 0.344-0.813 0.344h-16q-0.469 0-0.813-0.344-0.344-0.313-0.344-0.781v-2.281q0-0.469 0.344-0.813t0.813-0.344h16q0.469 0 0.813 0.344t0.344 0.813v0zM29.719 10.281v2.281q0 0.469-0.344 0.813t-0.813 0.344h-25.125q-0.469 0-0.813-0.344t-0.344-0.813v-2.281q0-0.469 0.344-0.813 0.344-0.313 0.813-0.313h25.125q0.469 0 0.813 0.313 0.344 0.344 0.344 0.813zM22.844 3.438v2.281q0 0.469-0.313 0.813-0.344 0.313-0.813 0.313h-11.438q-0.469 0-0.813-0.313-0.313-0.344-0.313-0.813v-2.281q0-0.469 0.313-0.813 0.344-0.344 0.813-0.344h11.438q0.469 0 0.813 0.344 0.313 0.344 0.313 0.813v0z"></path>
</svg>
