<!-- Generated by IcoMoon.io -->
<svg version="1.1" xmlns="http://www.w3.org/2000/svg" width="32" height="32" viewBox="0 0 32 32">
<title>angle-double-down</title>
<path d="M24.906 15.438q0 0.219-0.188 0.406l-8.313 8.313q-0.188 0.188-0.406 0.188t-0.406-0.188l-8.313-8.313q-0.188-0.188-0.188-0.406 0-0.25 0.188-0.406l0.875-0.906q0.188-0.188 0.406-0.188 0.25 0 0.406 0.188l7.031 7.031 7.031-7.031q0.156-0.188 0.406-0.188 0.219 0 0.406 0.188l0.875 0.906q0.188 0.156 0.188 0.406v0zM24.906 8.563q0 0.25-0.188 0.406l-8.313 8.344q-0.188 0.156-0.406 0.156t-0.406-0.156l-8.313-8.344q-0.188-0.156-0.188-0.406 0-0.219 0.188-0.406l0.875-0.875q0.188-0.188 0.406-0.188 0.25 0 0.406 0.188l7.031 7 7.031-7q0.156-0.188 0.406-0.188 0.219 0 0.406 0.188l0.875 0.875q0.188 0.188 0.188 0.406v0z"></path>
</svg>
