<!-- Generated by IcoMoon.io -->
<svg version="1.1" xmlns="http://www.w3.org/2000/svg" width="32" height="32" viewBox="0 0 32 32">
<title>angle-double-right</title>
<path d="M17.469 17.156q0 0.219-0.156 0.406l-8.344 8.313q-0.156 0.188-0.406 0.188-0.219 0-0.406-0.188l-0.875-0.906q-0.188-0.156-0.188-0.406 0-0.219 0.188-0.406l7-7-7-7.031q-0.188-0.188-0.188-0.406 0-0.25 0.188-0.406l0.875-0.906q0.188-0.188 0.406-0.188 0.25 0 0.406 0.188l8.344 8.313q0.156 0.188 0.156 0.438v0zM24.344 17.156q0 0.219-0.188 0.406l-8.313 8.313q-0.188 0.188-0.406 0.188-0.25 0-0.406-0.188l-0.906-0.906q-0.188-0.156-0.188-0.406 0-0.219 0.188-0.406l7.031-7-7.031-7.031q-0.188-0.188-0.188-0.406 0-0.25 0.188-0.406l0.906-0.906q0.156-0.188 0.406-0.188 0.219 0 0.406 0.188l8.313 8.313q0.188 0.188 0.188 0.438v0z"></path>
</svg>
