<!-- Generated by IcoMoon.io -->
<svg version="1.1" xmlns="http://www.w3.org/2000/svg" width="32" height="32" viewBox="0 0 32 32">
<title>angle-double-up</title>
<path d="M24.906 23.438q0 0.219-0.188 0.406l-0.875 0.875q-0.188 0.188-0.406 0.188-0.25 0-0.406-0.188l-7.031-7-7.031 7q-0.156 0.188-0.406 0.188-0.219 0-0.406-0.188l-0.875-0.875q-0.188-0.188-0.188-0.406 0-0.25 0.188-0.406l8.313-8.344q0.188-0.156 0.406-0.156t0.406 0.156l8.313 8.344q0.188 0.156 0.188 0.406v0zM24.906 16.563q0 0.25-0.188 0.406l-0.875 0.906q-0.188 0.188-0.406 0.188-0.25 0-0.406-0.188l-7.031-7.031-7.031 7.031q-0.156 0.188-0.406 0.188-0.219 0-0.406-0.188l-0.875-0.906q-0.188-0.156-0.188-0.406 0-0.219 0.188-0.406l8.313-8.313q0.188-0.188 0.406-0.188t0.406 0.188l8.313 8.313q0.188 0.188 0.188 0.406v0z"></path>
</svg>
