<!-- Generated by IcoMoon.io -->
<svg version="1.1" xmlns="http://www.w3.org/2000/svg" width="32" height="32" viewBox="0 0 32 32">
<title>apple</title>
<path d="M19.813 24.5q0.219 0.188 0.453 0.266t0.484 0.078q0.281 0 0.531-0.094t0.469-0.313q0.813-0.875 1.344-2 0.5-1.156 0.703-2.375t0.078-2.438-0.625-2.219q-0.188-0.344-0.5-0.547t-0.719-0.203q-0.563 0-0.953 0.406t-0.391 0.969q0 0.156 0.031 0.297t0.094 0.297v0q0.563 1.094 0.328 2.922t-1.359 3.016q-0.188 0.188-0.281 0.438t-0.094 0.5q0 0.281 0.109 0.547t0.297 0.453v0 0zM20.75 9.344h-0.438q0.813-1.813 0.641-3.875t-1.422-3.688q-0.188-0.25-0.469-0.391t-0.625-0.141h-0.125q-0.031 0-0.063-0.016t-0.063-0.016q-1.406 0-2.594 0.563t-2.031 1.625q-1 1.281-1.297 3.047t0.141 3.703q0.125 0.438 0.484 0.734t0.859 0.297h0.141t0.172-0.031v0q0.438-0.125 0.734-0.484t0.297-0.828q0-0.094-0.016-0.172t-0.016-0.141v0q-0.313-1.344-0.156-2.5t0.781-1.938q0.375-0.469 0.891-0.75t1.141-0.344q0.813 1.469 0.453 3.25t-1.734 2.844q-0.25 0.188-0.391 0.469t-0.141 0.594v0.219q0 0.563 0.391 0.953t0.953 0.391q0.281 0 0.531-0.109t0.438-0.297v0l0.703-0.141t1.828-0.109q0.063 0 0.938 0.094 0.844 0.094 1.844 0.672t1.813 1.828q0.813 1.219 0.813 3.5 0 2.938-0.906 4.906-0.875 2-2.094 3.203t-2.469 1.734-1.969 0.531q-0.281 0-0.406-0.047t-0.344-0.141q-0.313-0.156-0.766-0.313t-1.172-0.156q-0.75 0-1.188 0.172t-0.719 0.297q-0.188 0.094-0.313 0.141t-0.344 0.047q-0.656 0-1.844-0.531-1.156-0.531-2.297-1.766t-1.953-3.234q-0.844-2.031-0.844-5 0-1.938 1.141-2.922t1.984-0.984q0.688 0 1.172 0.25t0.984 0.594q0.531 0.375 1.234 0.75t1.703 0.375q0.563 0 0.953-0.391t0.391-0.953-0.391-0.969-0.953-0.406v0q-0.344 0-0.641-0.156t-0.766-0.469q-0.594-0.438-1.469-0.891t-2.219-0.453q-1.063 0-2.094 0.5-1.031 0.469-1.859 1.344t-1.359 2.094-0.531 2.688q0 3.5 1.031 6.031 1.063 2.5 2.547 4.094t3.141 2.344q1.688 0.75 2.938 0.75 0.719 0 1.172-0.156t0.734-0.313q0.188-0.094 0.297-0.141t0.359-0.047 0.391 0.047 0.359 0.141q0.313 0.156 0.75 0.313t1.188 0.156q1.313 0 3.063-0.719 1.75-0.75 3.328-2.344t2.672-4.063q1.063-2.469 1.063-5.938 0-2.438-0.813-4.094-0.813-1.688-2.016-2.734t-2.641-1.516q-1.406-0.469-2.625-0.469v0z"></path>
</svg>
