<!-- Generated by IcoMoon.io -->
<svg version="1.1" xmlns="http://www.w3.org/2000/svg" width="32" height="32" viewBox="0 0 32 32">
<title>arhive</title>
<path d="M19.438 14.844q0-0.438-0.344-0.781t-0.813-0.344h-4.563q-0.469 0-0.813 0.344t-0.344 0.781q0 0.469 0.344 0.813t0.813 0.344h4.563q0.469 0 0.813-0.344t0.344-0.813v0zM29.719 11.438v17.125q0 0.469-0.344 0.813t-0.813 0.344h-25.125q-0.469 0-0.813-0.344t-0.344-0.813v-17.125q0-0.469 0.344-0.813t0.813-0.344h25.125q0.469 0 0.813 0.344t0.344 0.813zM30.844 3.438v4.563q0 0.469-0.313 0.813-0.344 0.344-0.813 0.344h-27.438q-0.469 0-0.813-0.344-0.313-0.344-0.313-0.813v-4.563q0-0.469 0.313-0.813 0.344-0.344 0.813-0.344h27.438q0.469 0 0.813 0.344 0.313 0.344 0.313 0.813v0z"></path>
</svg>
