<!-- Generated by IcoMoon.io -->
<svg version="1.1" xmlns="http://www.w3.org/2000/svg" width="32" height="32" viewBox="0 0 32 32">
<title>arrow-circle-o-right</title>
<path d="M22.844 16q0 0.25-0.156 0.406l-5.719 5.719q-0.156 0.156-0.406 0.156-0.219 0-0.406-0.156-0.156-0.188-0.156-0.406v-3.438h-6.281q-0.25 0-0.406-0.156-0.156-0.188-0.156-0.406v-3.438q0-0.219 0.156-0.406 0.156-0.156 0.406-0.156h6.281v-3.438q0-0.25 0.156-0.406t0.406-0.156q0.219 0 0.438 0.188l5.688 5.688q0.156 0.156 0.156 0.406v0zM25.719 16q0-2.656-1.313-4.875t-3.531-3.531-4.875-1.313-4.875 1.313-3.531 3.531-1.313 4.875 1.313 4.875 3.531 3.531 4.875 1.313 4.875-1.313 3.531-3.531 1.313-4.875zM29.719 16q0 3.719-1.844 6.875t-5 5-6.875 1.844-6.875-1.844-5-5-1.844-6.875 1.844-6.875 5-5 6.875-1.844 6.875 1.844 5 5 1.844 6.875z"></path>
</svg>
