<!-- Generated by IcoMoon.io -->
<svg version="1.1" xmlns="http://www.w3.org/2000/svg" width="32" height="32" viewBox="0 0 32 32">
<title>arrow-right</title>
<path d="M28.563 17.156q0 0.938-0.656 1.625l-11.625 11.625q-0.688 0.656-1.625 0.656-0.906 0-1.594-0.656l-1.344-1.344q-0.688-0.688-0.688-1.625 0-0.969 0.688-1.625l5.219-5.25h-12.563q-0.938 0-1.5-0.656-0.594-0.688-0.594-1.625v-2.281q0-0.938 0.594-1.625 0.563-0.656 1.5-0.656h12.563l-5.219-5.25q-0.688-0.656-0.688-1.625 0-0.938 0.688-1.594l1.344-1.344q0.656-0.688 1.594-0.688t1.625 0.688l11.625 11.625q0.656 0.625 0.656 1.625v0z"></path>
</svg>
