<!-- Generated by IcoMoon.io -->
<svg version="1.1" xmlns="http://www.w3.org/2000/svg" width="32" height="32" viewBox="0 0 32 32">
<title>arrow-circle-up</title>
<path d="M25.219 15.969q0-0.469-0.313-0.781l-8.094-8.094q-0.344-0.313-0.813-0.313t-0.813 0.313l-8.094 8.094q-0.313 0.313-0.313 0.781 0 0.5 0.313 0.813l1.625 1.625q0.344 0.313 0.813 0.313 0.5 0 0.813-0.313l3.375-3.375v8.969q0 0.469 0.344 0.813t0.781 0.344h2.313q0.438 0 0.781-0.344t0.344-0.813v-8.969l3.375 3.375q0.344 0.344 0.813 0.344t0.813-0.344l1.625-1.625q0.313-0.313 0.313-0.813v0zM29.719 16q0 3.719-1.844 6.875t-5 5-6.875 1.844-6.875-1.844-5-5-1.844-6.875 1.844-6.875 5-5 6.875-1.844 6.875 1.844 5 5 1.844 6.875z"></path>
</svg>
