<!-- Generated by IcoMoon.io -->
<svg version="1.1" xmlns="http://www.w3.org/2000/svg" width="32" height="32" viewBox="0 0 32 32">
<title>arrows-alt</title>
<path d="M25.188 9.656l-6.344 6.344 6.344 6.344 2.594-2.563q0.5-0.563 1.25-0.25 0.688 0.281 0.688 1.031v8q0 0.469-0.344 0.813t-0.813 0.344h-8q-0.75 0-1.031-0.719-0.313-0.688 0.25-1.219l2.563-2.594-6.344-6.344-6.344 6.344 2.563 2.594q0.563 0.531 0.25 1.219-0.281 0.719-1.031 0.719h-8q-0.469 0-0.813-0.344t-0.344-0.813v-8q0-0.75 0.719-1.031 0.688-0.313 1.219 0.25l2.594 2.563 6.344-6.344-6.344-6.344-2.594 2.563q-0.313 0.344-0.781 0.344-0.219 0-0.438-0.094-0.719-0.281-0.719-1.031v-8q0-0.469 0.344-0.813t0.813-0.344h8q0.75 0 1.031 0.719 0.313 0.688-0.25 1.219l-2.563 2.594 6.344 6.344 6.344-6.344-2.563-2.594q-0.563-0.531-0.25-1.219 0.281-0.719 1.031-0.719h8q0.469 0 0.813 0.344t0.344 0.813v8q0 0.75-0.688 1.031-0.25 0.094-0.469 0.094-0.469 0-0.781-0.344z"></path>
</svg>
