<!-- Generated by IcoMoon.io -->
<svg version="1.1" xmlns="http://www.w3.org/2000/svg" width="32" height="32" viewBox="0 0 32 32">
<title>arrow-left</title>
<path d="M29.719 16v2.281q0 0.938-0.594 1.625-0.563 0.656-1.5 0.656h-12.563l5.219 5.25q0.688 0.656 0.688 1.625t-0.688 1.594l-1.344 1.375q-0.656 0.656-1.594 0.656t-1.625-0.656l-11.625-11.656q-0.656-0.656-0.656-1.594t0.656-1.625l11.625-11.625q0.688-0.688 1.625-0.688t1.594 0.688l1.344 1.313q0.688 0.688 0.688 1.625 0 0.969-0.688 1.625l-5.219 5.25h12.563q0.938 0 1.5 0.656 0.594 0.688 0.594 1.625v0z"></path>
</svg>
