<!-- Generated by IcoMoon.io -->
<svg version="1.1" xmlns="http://www.w3.org/2000/svg" width="32" height="32" viewBox="0 0 32 32">
<title>arrows-h</title>
<path d="M32 16q0 0.469-0.344 0.813l-4.563 4.563q-0.344 0.344-0.813 0.344t-0.813-0.344q-0.313-0.344-0.313-0.813v-2.281h-18.313v2.281q0 0.469-0.313 0.813-0.344 0.344-0.813 0.344t-0.813-0.344l-4.563-4.563q-0.344-0.344-0.344-0.813t0.344-0.813l4.563-4.563q0.344-0.344 0.813-0.344t0.813 0.344q0.313 0.344 0.313 0.813v2.281h18.313v-2.281q0-0.469 0.313-0.813 0.344-0.344 0.813-0.344t0.813 0.344l4.563 4.563q0.344 0.344 0.344 0.813v0z"></path>
</svg>
