<!-- Generated by IcoMoon.io -->
<svg version="1.1" xmlns="http://www.w3.org/2000/svg" width="32" height="32" viewBox="0 0 32 32">
<title>arrows-v</title>
<path d="M21.719 5.719q0 0.469-0.344 0.813-0.344 0.313-0.813 0.313h-2.281v18.313h2.281q0.469 0 0.813 0.313 0.344 0.344 0.344 0.813t-0.344 0.813l-4.563 4.563q-0.344 0.344-0.813 0.344t-0.813-0.344l-4.563-4.563q-0.344-0.344-0.344-0.813t0.344-0.813q0.344-0.313 0.813-0.313h2.281v-18.313h-2.281q-0.469 0-0.813-0.313-0.344-0.344-0.344-0.813t0.344-0.813l4.563-4.563q0.344-0.344 0.813-0.344t0.813 0.344l4.563 4.563q0.344 0.344 0.344 0.813v0z"></path>
</svg>
