<!-- Generated by IcoMoon.io -->
<svg version="1.1" xmlns="http://www.w3.org/2000/svg" width="32" height="32" viewBox="0 0 32 32">
<title>arrow-up</title>
<path d="M29.906 17.344q0 0.906-0.656 1.594l-1.344 1.344q-0.688 0.688-1.625 0.688-0.969 0-1.594-0.688l-5.25-5.219v12.563q0 0.938-0.688 1.5-0.656 0.594-1.594 0.594h-2.313q-0.938 0-1.594-0.594-0.688-0.563-0.688-1.5v-12.563l-5.25 5.219q-0.625 0.688-1.594 0.688t-1.625-0.688l-1.313-1.344q-0.688-0.656-0.688-1.594t0.688-1.625l11.625-11.625q0.625-0.656 1.594-0.656t1.625 0.656l11.625 11.625q0.656 0.688 0.656 1.625v0z"></path>
</svg>
