<!-- Generated by IcoMoon.io -->
<svg version="1.1" xmlns="http://www.w3.org/2000/svg" width="32" height="32" viewBox="0 0 32 32">
<title>arrow-circle-o-down</title>
<path d="M22.281 16.563q0 0.219-0.188 0.438l-5.688 5.688q-0.188 0.156-0.406 0.156t-0.406-0.156l-5.719-5.719q-0.281-0.281-0.125-0.625t0.531-0.344h3.438v-6.281q0-0.25 0.156-0.406t0.406-0.156h3.438q0.25 0 0.406 0.156t0.156 0.406v6.281h3.438q0.25 0 0.406 0.156t0.156 0.406v0zM16 6.281q-2.656 0-4.875 1.313t-3.531 3.531-1.313 4.875 1.313 4.875 3.531 3.531 4.875 1.313 4.875-1.313 3.531-3.531 1.313-4.875-1.313-4.875-3.531-3.531-4.875-1.313zM29.719 16q0 3.719-1.844 6.875t-5 5-6.875 1.844-6.875-1.844-5-5-1.844-6.875 1.844-6.875 5-5 6.875-1.844 6.875 1.844 5 5 1.844 6.875z"></path>
</svg>
