<!-- Generated by IcoMoon.io -->
<svg version="1.1" xmlns="http://www.w3.org/2000/svg" width="32" height="32" viewBox="0 0 32 32">
<title>arrow-circle-o-left</title>
<path d="M22.844 14.281v3.438q0 0.219-0.156 0.406-0.156 0.156-0.406 0.156h-6.281v3.438q0 0.25-0.156 0.406t-0.406 0.156q-0.219 0-0.438-0.188l-5.688-5.688q-0.156-0.156-0.156-0.406t0.156-0.406l5.719-5.719q0.156-0.156 0.406-0.156 0.219 0 0.406 0.156 0.156 0.188 0.156 0.406v3.438h6.281q0.25 0 0.406 0.156 0.156 0.188 0.156 0.406v0zM25.719 16q0-2.656-1.313-4.875t-3.531-3.531-4.875-1.313-4.875 1.313-3.531 3.531-1.313 4.875 1.313 4.875 3.531 3.531 4.875 1.313 4.875-1.313 3.531-3.531 1.313-4.875zM29.719 16q0 3.719-1.844 6.875t-5 5-6.875 1.844-6.875-1.844-5-5-1.844-6.875 1.844-6.875 5-5 6.875-1.844 6.875 1.844 5 5 1.844 6.875z"></path>
</svg>
