<!-- Generated by IcoMoon.io -->
<svg version="1.1" xmlns="http://www.w3.org/2000/svg" width="32" height="32" viewBox="0 0 32 32">
<title>arrow-circle-o-up</title>
<path d="M22.25 15.656q-0.156 0.344-0.531 0.344h-3.438v6.281q0 0.25-0.156 0.406t-0.406 0.156h-3.438q-0.25 0-0.406-0.156t-0.156-0.406v-6.281h-3.438q-0.25 0-0.406-0.156t-0.156-0.406q0-0.219 0.188-0.438l5.688-5.688q0.188-0.156 0.406-0.156t0.406 0.156l5.719 5.719q0.281 0.281 0.125 0.625zM16 6.281q-2.656 0-4.875 1.313t-3.531 3.531-1.313 4.875 1.313 4.875 3.531 3.531 4.875 1.313 4.875-1.313 3.531-3.531 1.313-4.875-1.313-4.875-3.531-3.531-4.875-1.313zM29.719 16q0 3.719-1.844 6.875t-5 5-6.875 1.844-6.875-1.844-5-5-1.844-6.875 1.844-6.875 5-5 6.875-1.844 6.875 1.844 5 5 1.844 6.875z"></path>
</svg>
