<!-- Generated by IcoMoon.io -->
<svg version="1.1" xmlns="http://www.w3.org/2000/svg" width="32" height="32" viewBox="0 0 32 32">
<title>arrow-circle-left</title>
<path d="M25.156 17.156v-2.313q0-0.438-0.344-0.781t-0.813-0.344h-8.969l3.375-3.375q0.344-0.344 0.344-0.813t-0.344-0.813l-1.625-1.625q-0.313-0.313-0.813-0.313-0.469 0-0.781 0.313l-8.094 8.094q-0.313 0.344-0.313 0.813t0.313 0.813l8.094 8.094q0.313 0.313 0.781 0.313 0.5 0 0.813-0.313l1.625-1.625q0.313-0.344 0.313-0.813 0-0.5-0.313-0.813l-3.375-3.375h8.969q0.469 0 0.813-0.344t0.344-0.781v0zM29.719 16q0 3.719-1.844 6.875t-5 5-6.875 1.844-6.875-1.844-5-5-1.844-6.875 1.844-6.875 5-5 6.875-1.844 6.875 1.844 5 5 1.844 6.875z"></path>
</svg>
