<!-- Generated by IcoMoon.io -->
<svg version="1.1" xmlns="http://www.w3.org/2000/svg" width="32" height="32" viewBox="0 0 32 32">
<title>arrow-down</title>
<path d="M29.906 14.844q0 0.969-0.656 1.625l-11.625 11.625q-0.688 0.688-1.625 0.688t-1.594-0.688l-11.625-11.625q-0.688-0.656-0.688-1.625 0-0.938 0.688-1.625l1.313-1.313q0.688-0.688 1.625-0.688t1.594 0.688l5.25 5.25v-12.594q0-0.906 0.688-1.594t1.594-0.688h2.313q0.906 0 1.594 0.688t0.688 1.594v12.594l5.25-5.25q0.656-0.688 1.594-0.688t1.625 0.688l1.344 1.313q0.656 0.719 0.656 1.625v0z"></path>
</svg>
