<!-- Generated by IcoMoon.io -->
<svg version="1.1" xmlns="http://www.w3.org/2000/svg" width="32" height="32" viewBox="0 0 32 32">
<title>auction-gov</title>
<path d="M0.094 4.719l2.469-0.625q2.469-0.656 5.453-1.453t5.453-1.422l2.5-0.656 2.5 0.656q2.469 0.688 5.469 1.484t5.5 1.484l2.5 0.656-0.469 1.844-2.438-0.656q-2.438-0.625-5.359-1.406t-5.359-1.438-2.438-0.688q0 0.031-2.375 0.656-2.406 0.656-5.281 1.422t-5.25 1.391q-2.406 0.656-2.406 0.625 0 0.031-0.234-0.922l-0.234-0.953zM0.125 29.938l-0.063 2h31.844q0-0.563-0.016-1.219l-0.016-0.656h-4.969q-4.938-0.031-10.891-0.047t-10.922-0.047l-4.969-0.031zM8.094 8.406l1.313 0.344t2.891 0.75 2.891 0.75l1.313 0.344-1.281 4.875 15.313 3.563-0.438 2.156-15.438-3.594q-0.625 2.063-0.953 3.469l-0.328 1.406-8.5-2.156 3.219-11.938q0.406 0.719 0.813 1.422l0.406 0.703-0.375 1.313q-0.344 1.313-0.766 2.891t-0.766 2.891l-0.344 1.344 0.781 0.219t1.719 0.5 1.75 0.5l0.781 0.219 0.344-1.344q0.375-1.344 0.797-2.953t0.766-2.984l0.375-1.344-5.063-1.25-1.219-2.094z"></path>
</svg>
