<!-- Generated by IcoMoon.io -->
<svg version="1.1" xmlns="http://www.w3.org/2000/svg" width="32" height="32" viewBox="0 0 32 32">
<title>bag</title>
<path d="M28.094 28.969h-3.438v-9.469l0.344-0.063q0.594-0.125 0.984-0.609t0.391-1.109v-0.156t-0.031-0.188v0q-0.125-0.594-0.594-0.984t-1.094-0.391q-0.094 0-0.188 0.016t-0.156 0.016v0l-8.313 1.656-12.094-2.25v-2.906h24.188v16.438zM21.188 28.969h-10.375v-8.719l4.875 0.906q0.063 0.031 0.141 0.031h0.344t0.141-0.031h0.031l4.844-0.969v8.781zM7.344 28.969h-3.438v-10.031l3.438 0.656v9.375zM29.844 9.094h-19.031v-3.469q0-0.719 0.5-1.219t1.219-0.5h6.938q0.719 0 1.219 0.5t0.5 1.219 0.5 1.219 1.219 0.5 1.234-0.5 0.516-1.219v0q0-2.156-1.531-3.672t-3.656-1.516h-6.938q-2.125 0-3.656 1.516t-1.531 3.672v3.469h-5.188q-0.719 0-1.219 0.5t-0.5 1.219v0 19.875q0 0.719 0.5 1.234t1.219 0.516v0h27.688q0.719 0 1.219-0.516t0.5-1.234v0-19.875q0-0.719-0.5-1.219t-1.219-0.5v0 0z"></path>
</svg>
