<!-- Generated by IcoMoon.io -->
<svg version="1.1" xmlns="http://www.w3.org/2000/svg" width="41" height="32" viewBox="0 0 41 32">
<title>balance-scale</title>
<path d="M30.857 8l-6.857 12.571h13.714zM8 8l-6.857 12.571h13.714zM22.661 4.571q-0.25 0.714-0.813 1.277t-1.277 0.813v23.054h10.857q0.25 0 0.411 0.161t0.161 0.411v1.143q0 0.25-0.161 0.411t-0.411 0.161h-24q-0.25 0-0.411-0.161t-0.161-0.411v-1.143q0-0.25 0.161-0.411t0.411-0.161h10.857v-23.054q-0.714-0.25-1.277-0.813t-0.813-1.277h-8.768q-0.25 0-0.411-0.161t-0.161-0.411v-1.143q0-0.25 0.161-0.411t0.411-0.161h8.768q0.375-1.018 1.25-1.652t1.982-0.634 1.982 0.634 1.25 1.652h8.768q0.25 0 0.411 0.161t0.161 0.411v1.143q0 0.25-0.161 0.411t-0.411 0.161h-8.768zM19.429 4.857q0.589 0 1.009-0.42t0.42-1.009-0.42-1.009-1.009-0.42-1.009 0.42-0.42 1.009 0.42 1.009 1.009 0.42zM38.857 20.571q0 1.304-0.83 2.339t-2.098 1.625-2.58 0.884-2.491 0.295-2.491-0.295-2.58-0.884-2.098-1.625-0.83-2.339q0-0.196 0.625-1.446t1.643-3.116 1.911-3.491 1.821-3.286 1-1.786q0.321-0.589 1-0.589t1 0.589q0.071 0.125 1 1.786t1.821 3.286 1.911 3.491 1.643 3.116 0.625 1.446zM16 20.571q0 1.304-0.83 2.339t-2.098 1.625-2.58 0.884-2.491 0.295-2.491-0.295-2.58-0.884-2.098-1.625-0.83-2.339q0-0.196 0.625-1.446t1.643-3.116 1.911-3.491 1.821-3.286 1-1.786q0.321-0.589 1-0.589t1 0.589q0.071 0.125 1 1.786t1.821 3.286 1.911 3.491 1.643 3.116 0.625 1.446z"></path>
</svg>
