<!-- Generated by IcoMoon.io -->
<svg version="1.1" xmlns="http://www.w3.org/2000/svg" width="32" height="32" viewBox="0 0 32 32">
<title>ban</title>
<path d="M25.719 15.938q0-2.875-1.563-5.25l-13.469 13.438q2.469 1.594 5.313 1.594 1.969 0 3.781-0.781 1.781-0.781 3.094-2.094 1.313-1.281 2.063-3.094 0.781-1.813 0.781-3.813v0zM7.875 21.281l13.469-13.469q-2.406-1.625-5.344-1.625-2.656 0-4.875 1.313t-3.531 3.563-1.313 4.875q0 2.906 1.594 5.344v0zM29.719 15.938q0 2.813-1.094 5.375-1.094 2.531-2.906 4.375-1.844 1.844-4.375 2.938-2.563 1.094-5.344 1.094t-5.344-1.094q-2.531-1.094-4.375-2.938-1.813-1.844-2.906-4.375-1.094-2.563-1.094-5.375 0-2.781 1.094-5.344 1.094-2.531 2.906-4.375 1.844-1.844 4.375-2.938 2.563-1.094 5.344-1.094t5.344 1.094q2.531 1.094 4.375 2.938 1.813 1.844 2.906 4.375 1.094 2.563 1.094 5.344v0z"></path>
</svg>
