<!-- Generated by IcoMoon.io -->
<svg version="1.1" xmlns="http://www.w3.org/2000/svg" width="32" height="32" viewBox="0 0 32 32">
<title>bars</title>
<path d="M29.719 24v2.281q0 0.469-0.344 0.813t-0.813 0.344h-25.125q-0.469 0-0.813-0.344t-0.344-0.813v-2.281q0-0.469 0.344-0.813t0.813-0.344h25.125q0.469 0 0.813 0.344t0.344 0.813zM29.719 14.844v2.313q0 0.438-0.344 0.781t-0.813 0.344h-25.125q-0.469 0-0.813-0.344t-0.344-0.781v-2.313q0-0.438 0.344-0.781t0.813-0.344h25.125q0.469 0 0.813 0.344t0.344 0.781v0zM29.719 5.719v2.281q0 0.469-0.344 0.813t-0.813 0.344h-25.125q-0.469 0-0.813-0.344t-0.344-0.813v-2.281q0-0.469 0.344-0.813t0.813-0.344h25.125q0.469 0 0.813 0.344t0.344 0.813v0z"></path>
</svg>
