<!-- Generated by IcoMoon.io -->
<svg version="1.1" xmlns="http://www.w3.org/2000/svg" width="32" height="32" viewBox="0 0 32 32">
<title>beaker</title>
<path d="M15.969 17.438q0.406 0.188 0.875 0.297t0.969 0.109q0.156 0 0.313-0.016t0.313-0.016v0 9.031q0 1.156-0.5 1.797t-1.375 0.641-1.375-0.641-0.5-1.797v-9.5q0.406-0.063 0.688-0.078t0.594 0.172v0zM20.688 9.906q0.531 0 0.922-0.391t0.391-0.953q0-0.531-0.391-0.922t-0.922-0.391v0h-8.688q-0.563 0-0.953 0.391t-0.391 0.922q0 0.563 0.391 0.953t0.953 0.391v0h0.031v16.938q0 2.25 1.266 3.688t3.266 1.438 3.266-1.438 1.266-3.688v-13.156q0-0.531-0.391-0.922t-0.953-0.391q-0.531 0-0.922 0.391t-0.391 0.922v0 1.406q-0.406 0.094-0.688 0.094t-0.594-0.156q-0.719-0.375-1.344-0.422t-1.125 0.016v-4.719h6zM18.5 2.625q0.563 0 0.953-0.391t0.391-0.922q0-0.563-0.391-0.953t-0.953-0.391v0 0 0q-0.563 0-0.953 0.391t-0.391 0.953q0 0.531 0.391 0.922t0.953 0.391v0 0 0zM14.938 6.063q0.531 0 0.922-0.391t0.391-0.953q0-0.531-0.391-0.938t-0.953-0.406v0 0 0q-0.531 0.031-0.922 0.422t-0.391 0.922q0 0.563 0.391 0.953t0.922 0.391h0.031z"></path>
</svg>
