<!-- Generated by IcoMoon.io -->
<svg version="1.1" xmlns="http://www.w3.org/2000/svg" width="37" height="32" viewBox="0 0 37 32">
<title>bell-slash</title>
<path d="M27.813 15.219q1.094 6.344 5.344 9.938 0 0.906-0.688 1.594t-1.625 0.688h-8q0 1.875-1.313 3.219-1.344 1.344-3.25 1.344-1.875 0-3.219-1.344-1.344-1.313-1.344-3.219zM18.281 30.563q0.281 0 0.281-0.281t-0.281-0.281q-1.063 0-1.813-0.75-0.75-0.781-0.75-1.813 0-0.281-0.281-0.281t-0.281 0.281q0 1.281 0.906 2.219 0.906 0.906 2.219 0.906zM36.188 2q0.125 0.188 0.125 0.406 0 0.25-0.188 0.406l-33.438 28.969q-0.156 0.156-0.406 0.125-0.25 0-0.375-0.188l-1.5-1.719q-0.156-0.188-0.156-0.406 0.031-0.25 0.188-0.406l3.344-2.875q-0.344-0.563-0.344-1.156 0.875-0.75 1.625-1.594 0.719-0.813 1.5-2.125t1.344-2.844q0.531-1.5 0.875-3.656 0.375-2.156 0.375-4.656 0-2.719 2.063-5.031 2.094-2.344 5.5-2.844-0.156-0.344-0.156-0.688 0-0.719 0.5-1.219t1.219-0.5 1.219 0.5 0.5 1.219q0 0.344-0.156 0.688 2.219 0.313 3.938 1.469 1.688 1.156 2.625 2.813l7.469-6.469q0.188-0.156 0.406-0.125 0.25 0 0.406 0.188z"></path>
</svg>
