<!-- Generated by IcoMoon.io -->
<svg version="1.1" xmlns="http://www.w3.org/2000/svg" width="32" height="32" viewBox="0 0 32 32">
<title>bell-o</title>
<path d="M16.281 30.281q0-0.281-0.281-0.281-1.063 0-1.813-0.75-0.75-0.781-0.75-1.813 0-0.281-0.281-0.281-0.313 0-0.313 0.281 0 1.281 0.938 2.219 0.906 0.906 2.219 0.906 0.281 0 0.281-0.281v0zM4.406 25.156h23.188q-4.75-5.375-4.75-14.875 0-0.906-0.406-1.875-0.438-0.969-1.25-1.844-0.781-0.875-2.156-1.438t-3.031-0.563-3.031 0.563-2.156 1.438q-0.813 0.875-1.25 1.844-0.406 0.969-0.406 1.875 0 9.5-4.75 14.875v0zM30.844 25.156q0 0.906-0.656 1.594-0.688 0.688-1.625 0.688h-8q0 1.875-1.344 3.219-1.313 1.344-3.219 1.344t-3.219-1.344q-1.344-1.344-1.344-3.219h-8q-0.938 0-1.625-0.688-0.656-0.688-0.656-1.594 0.875-0.75 1.625-1.594 0.719-0.813 1.5-2.125t1.344-2.844q0.531-1.5 0.875-3.656t0.344-4.656q0-2.719 2.094-5.031 2.094-2.344 5.5-2.844-0.156-0.344-0.156-0.688 0-0.719 0.5-1.219t1.219-0.5 1.219 0.5 0.5 1.219q0 0.344-0.156 0.688 3.406 0.5 5.5 2.844 2.094 2.313 2.094 5.031 0 2.5 0.344 4.656t0.875 3.656q0.563 1.531 1.344 2.844t1.5 2.125q0.75 0.844 1.625 1.594v0z"></path>
</svg>
