<!-- Generated by IcoMoon.io -->
<svg version="1.1" xmlns="http://www.w3.org/2000/svg" width="32" height="32" viewBox="0 0 32 32">
<title>bookmark</title>
<path d="M25.344 2.281q0.438 0 0.813 0.156 0.563 0.25 0.938 0.75 0.344 0.5 0.344 1.094v23.031q0 0.594-0.344 1.094-0.375 0.5-0.938 0.75-0.344 0.125-0.813 0.125-0.844 0-1.469-0.563l-7.875-7.563-7.875 7.563q-0.656 0.594-1.469 0.594-0.438 0-0.813-0.156-0.563-0.25-0.938-0.75-0.344-0.5-0.344-1.094v-23.031q0-0.594 0.344-1.094 0.375-0.5 0.938-0.75 0.375-0.156 0.813-0.156h18.688z"></path>
</svg>
