<!-- Generated by IcoMoon.io -->
<svg version="1.1" xmlns="http://www.w3.org/2000/svg" width="32" height="32" viewBox="0 0 32 32">
<title>book</title>
<path d="M30.406 8.531q0.719 1.031 0.313 2.313l-4.906 16.188q-0.344 1.125-1.344 1.906-1.031 0.781-2.188 0.781h-16.5q-1.375 0-2.656-0.969-1.281-0.938-1.781-2.344-0.406-1.188-0.031-2.25 0-0.094 0.063-0.5t0.063-0.656q0.031-0.156-0.031-0.375-0.094-0.25-0.063-0.344 0.031-0.219 0.125-0.375 0.125-0.188 0.313-0.438t0.281-0.406q0.406-0.688 0.813-1.656 0.406-0.938 0.531-1.625 0.063-0.188 0-0.531-0.031-0.344 0-0.5 0.063-0.188 0.313-0.5t0.313-0.406q0.375-0.656 0.75-1.656t0.438-1.594q0-0.156-0.063-0.563-0.063-0.438 0.031-0.5 0.063-0.25 0.375-0.563 0.344-0.313 0.406-0.406 0.344-0.469 0.75-1.5 0.438-1.031 0.5-1.719 0-0.156-0.063-0.469t-0.031-0.469q0.031-0.125 0.156-0.313t0.313-0.406q0.219-0.25 0.313-0.375 0.156-0.219 0.313-0.563l0.25-0.625q0.125-0.281 0.281-0.625 0.188-0.344 0.344-0.594 0.188-0.219 0.5-0.406 0.281-0.188 0.625-0.219 0.344 0 0.844 0.125v0.031q0.656-0.156 0.906-0.156h13.594q1.313 0 2.031 1t0.313 2.313l-4.875 16.188q-0.656 2.125-1.281 2.75-0.656 0.625-2.313 0.625h-15.5q-0.5 0-0.688 0.25-0.188 0.281-0.031 0.781 0.438 1.25 2.594 1.25h16.469q0.531 0 1-0.281 0.5-0.281 0.625-0.75l5.375-17.625q0.125-0.375 0.063-1 0.688 0.25 1.063 0.75v0zM11.406 8.563q-0.063 0.25 0.031 0.406 0.125 0.188 0.375 0.188h10.844q0.25 0 0.469-0.188 0.219-0.156 0.281-0.406l0.375-1.125q0.063-0.25-0.031-0.406-0.094-0.188-0.344-0.188h-10.875q-0.219 0-0.438 0.188-0.25 0.156-0.313 0.406zM9.938 13.156q-0.094 0.219 0.031 0.375 0.094 0.188 0.344 0.188h10.875q0.219 0 0.438-0.188 0.219-0.156 0.313-0.375l0.375-1.156q0.063-0.219-0.031-0.406-0.125-0.156-0.375-0.156h-10.844q-0.25 0-0.469 0.156-0.219 0.188-0.281 0.406z"></path>
</svg>
