<!-- Generated by IcoMoon.io -->
<svg version="1.1" xmlns="http://www.w3.org/2000/svg" width="32" height="32" viewBox="0 0 32 32">
<title>briefcase</title>
<path d="M11.438 4.563h9.125v-2.281h-9.125v2.281zM32 16v8.563q0 1.188-0.844 2.031t-2 0.844h-26.313q-1.156 0-2-0.844t-0.844-2.031v-8.563h12v2.844q0 0.469 0.344 0.813t0.813 0.344h5.688q0.469 0 0.813-0.344t0.344-0.813v-2.844h12zM18.281 16v2.281h-4.563v-2.281h4.563zM32 7.438v6.844h-32v-6.844q0-1.188 0.844-2.031t2-0.844h6.313v-2.844q0-0.719 0.5-1.219t1.188-0.5h10.313q0.688 0 1.188 0.5t0.5 1.219v2.844h6.313q1.156 0 2 0.844t0.844 2.031v0z"></path>
</svg>
