<!-- Generated by IcoMoon.io -->
<svg version="1.1" xmlns="http://www.w3.org/2000/svg" width="32" height="32" viewBox="0 0 32 32">
<title>building</title>
<path d="M20.344 29.5q0.594 0 1.016 0.422t0.422 1.016-0.422 1.031-1.016 0.438v0h-11.281q-0.625 0-1.047-0.438t-0.422-1.031v0-19.031q0-0.594 0.422-1.016t1.047-0.422q0.594 0 1.016 0.422t0.422 1.016v0 17.594h9.844zM14.156 21.469q-0.625 0-1.047-0.422t-0.422-1.016 0.422-1.031 1.047-0.438v0 0 0q0.594 0 1.016 0.438t0.422 1.031-0.422 1.016-1.016 0.422v0 0 0zM14.156 27.281q-0.625 0-1.047-0.422t-0.422-1.016 0.422-1.031 1.047-0.438v0 0 0q0.594 0 1.016 0.438t0.422 1.031-0.422 1.016-1.016 0.422v0 0 0zM21.406 25.844q0 0.594-0.422 1.016t-1.016 0.422q-0.625 0-1.047-0.422t-0.422-1.016v0 0 0q0-0.594 0.422-1.031t1.047-0.438q0.594 0 1.016 0.438t0.422 1.031v0 0 0 0zM25.031 0.406q0.625 0 1.047 0.422t0.422 1.016v0 29.094q0 0.594-0.422 1.031t-1.047 0.438q-0.594 0-1.016-0.438t-0.422-1.031v0-27.625h-2.188v2.719q0 0.594-0.422 1.016t-1.016 0.422q-0.625 0-1.047-0.422t-0.422-1.016v0-2.719h-2.906v10.906q0 0.594-0.422 1.016t-1.016 0.422q-0.625 0-1.047-0.422t-0.422-1.016v0-10.906h-3.625q-0.625 0-1.047-0.438t-0.422-1.031 0.422-1.016 1.047-0.422v0h15.969z"></path>
</svg>
