<!-- Generated by IcoMoon.io -->
<svg version="1.1" xmlns="http://www.w3.org/2000/svg" width="32" height="32" viewBox="0 0 32 32">
<title>calendar-check-o</title>
<path d="M23.281 17.219l-9.156 9.125q-0.188 0.188-0.406 0.188-0.25 0-0.406-0.188l-5.156-5.125q-0.156-0.188-0.156-0.406 0-0.25 0.156-0.406l0.813-0.813q0.188-0.156 0.406-0.156t0.406 0.156l3.938 3.938 7.938-7.938q0.156-0.156 0.406-0.156 0.219 0 0.375 0.156l0.844 0.813q0.156 0.156 0.156 0.406 0 0.219-0.156 0.406v0zM2.281 29.719h25.156v-18.281h-25.156v18.281zM9.156 8v-5.156q0-0.25-0.188-0.406-0.156-0.156-0.406-0.156h-1.125q-0.25 0-0.406 0.156-0.188 0.156-0.188 0.406v5.156q0 0.25 0.188 0.406 0.156 0.156 0.406 0.156h1.125q0.25 0 0.406-0.156 0.188-0.156 0.188-0.406v0zM22.844 8v-5.156q0-0.25-0.156-0.406t-0.406-0.156h-1.125q-0.25 0-0.438 0.156-0.156 0.156-0.156 0.406v5.156q0 0.25 0.156 0.406 0.188 0.156 0.438 0.156h1.125q0.25 0 0.406-0.156t0.156-0.406zM29.719 6.844v22.875q0 0.938-0.688 1.594-0.688 0.688-1.594 0.688h-25.156q-0.938 0-1.594-0.688-0.688-0.656-0.688-1.594v-22.875q0-0.906 0.688-1.594 0.656-0.688 1.594-0.688h2.281v-1.719q0-1.156 0.844-2t2.031-0.844h1.125q1.188 0 2.031 0.844t0.844 2v1.719h6.844v-1.719q0-1.156 0.844-2t2.031-0.844h1.125q1.188 0 2.031 0.844t0.844 2v1.719h2.281q0.906 0 1.594 0.688t0.688 1.594v0z"></path>
</svg>
