<!-- Generated by IcoMoon.io -->
<svg version="1.1" xmlns="http://www.w3.org/2000/svg" width="32" height="32" viewBox="0 0 32 32">
<title>calendar-p</title>
<path d="M29.656 7.375v20.5q0 1.313-0.891 2.25t-2.109 0.938h-21q-1.25 0-2.125-0.938t-0.875-2.25v-20.5q0-1.125 0.844-1.922t2.031-0.797h2.906v-2.906q0-0.281 0.203-0.484t0.516-0.203h2.406q0.313 0 0.516 0.203t0.203 0.484v2.906h7.719v-2.906q0-0.281 0.219-0.484t0.5-0.203h2.406q0.313 0 0.531 0.203t0.219 0.484v2.906h2.875q1.188 0 2.047 0.797t0.859 1.922v0zM26.656 28.063v-16.5h-21v16.5h21zM17.656 19.063h7.5v6h-7.5v-6z"></path>
</svg>
