<!-- Generated by IcoMoon.io -->
<svg version="1.1" xmlns="http://www.w3.org/2000/svg" width="32" height="32" viewBox="0 0 32 32">
<title>calendar-o</title>
<path d="M3.438 29.719h25.125v-18.281h-25.125v18.281zM10.281 8v-5.156q0-0.25-0.156-0.406t-0.406-0.156h-1.156q-0.25 0-0.406 0.156t-0.156 0.406v5.156q0 0.25 0.156 0.406t0.406 0.156h1.156q0.25 0 0.406-0.156t0.156-0.406zM24 8v-5.156q0-0.25-0.156-0.406t-0.406-0.156h-1.156q-0.25 0-0.406 0.156t-0.156 0.406v5.156q0 0.25 0.156 0.406t0.406 0.156h1.156q0.25 0 0.406-0.156t0.156-0.406zM30.844 6.844v22.875q0 0.938-0.656 1.594-0.688 0.688-1.625 0.688h-25.125q-0.938 0-1.625-0.688-0.656-0.656-0.656-1.594v-22.875q0-0.906 0.656-1.594 0.688-0.688 1.625-0.688h2.281v-1.719q0-1.156 0.844-2t2-0.844h1.156q1.188 0 2 0.844 0.844 0.844 0.844 2v1.719h6.875v-1.719q0-1.156 0.844-2 0.813-0.844 2-0.844h1.156q1.156 0 2 0.844t0.844 2v1.719h2.281q0.938 0 1.625 0.688 0.656 0.688 0.656 1.594v0z"></path>
</svg>
