<!-- Generated by IcoMoon.io -->
<svg version="1.1" xmlns="http://www.w3.org/2000/svg" width="32" height="32" viewBox="0 0 32 32">
<title>calendar</title>
<path d="M3.438 29.719h5.125v-5.156h-5.125v5.156zM9.719 29.719h5.719v-5.156h-5.719v5.156zM3.438 23.438h5.125v-5.719h-5.125v5.719zM9.719 23.438h5.719v-5.719h-5.719v5.719zM3.438 16.563h5.125v-5.125h-5.125v5.125zM16.563 29.719h5.719v-5.156h-5.719v5.156zM9.719 16.563h5.719v-5.125h-5.719v5.125zM23.438 29.719h5.125v-5.156h-5.125v5.156zM16.563 23.438h5.719v-5.719h-5.719v5.719zM10.281 8v-5.156q0-0.219-0.156-0.375-0.188-0.188-0.406-0.188h-1.156q-0.219 0-0.406 0.188-0.156 0.156-0.156 0.375v5.156q0 0.219 0.156 0.406 0.188 0.156 0.406 0.156h1.156q0.219 0 0.406-0.156 0.156-0.188 0.156-0.406v0zM23.438 23.438h5.125v-5.719h-5.125v5.719zM16.563 16.563h5.719v-5.125h-5.719v5.125zM23.438 16.563h5.125v-5.125h-5.125v5.125zM24 8v-5.156q0-0.219-0.156-0.375-0.188-0.188-0.406-0.188h-1.156q-0.219 0-0.406 0.188-0.156 0.156-0.156 0.375v5.156q0 0.219 0.156 0.406 0.188 0.156 0.406 0.156h1.156q0.219 0 0.406-0.156 0.156-0.188 0.156-0.406zM30.844 6.844v22.875q0 0.938-0.656 1.594-0.688 0.688-1.625 0.688h-25.125q-0.938 0-1.625-0.688-0.656-0.656-0.656-1.594v-22.875q0-0.906 0.656-1.594 0.688-0.688 1.625-0.688h2.281v-1.719q0-1.156 0.844-2t2-0.844h1.156q1.188 0 2 0.844 0.844 0.844 0.844 2v1.719h6.875v-1.719q0-1.156 0.844-2 0.813-0.844 2-0.844h1.156q1.156 0 2 0.844t0.844 2v1.719h2.281q0.938 0 1.625 0.688 0.656 0.688 0.656 1.594v0z"></path>
</svg>
