<!-- Generated by IcoMoon.io -->
<svg version="1.1" xmlns="http://www.w3.org/2000/svg" width="32" height="32" viewBox="0 0 32 32">
<title>calendar-plus-o</title>
<path d="M27.438 4.563q0.906 0 1.594 0.688t0.688 1.594v22.875q0 0.938-0.688 1.594-0.688 0.688-1.594 0.688h-25.156q-0.938 0-1.594-0.688-0.688-0.656-0.688-1.594v-22.875q0-0.906 0.688-1.594 0.656-0.688 1.594-0.688h2.281v-1.719q0-1.156 0.844-2t2.031-0.844h1.125q1.188 0 2.031 0.844t0.844 2v1.719h6.844v-1.719q0-1.156 0.844-2t2.031-0.844h1.125q1.188 0 2.031 0.844t0.844 2v1.719h2.281zM20.563 2.844v5.156q0 0.25 0.156 0.406 0.188 0.156 0.438 0.156h1.125q0.25 0 0.406-0.156t0.156-0.406v-5.156q0-0.25-0.156-0.406t-0.406-0.156h-1.125q-0.25 0-0.438 0.156-0.156 0.156-0.156 0.406zM6.844 2.844v5.156q0 0.25 0.188 0.406 0.156 0.156 0.406 0.156h1.125q0.25 0 0.406-0.156 0.188-0.156 0.188-0.406v-5.156q0-0.25-0.188-0.406-0.156-0.156-0.406-0.156h-1.125q-0.25 0-0.406 0.156-0.188 0.156-0.188 0.406v0zM27.438 29.719v-18.281h-25.156v18.281h25.156zM16 19.438h4q0.25 0 0.406 0.156t0.156 0.406v1.156q0 0.25-0.156 0.406t-0.406 0.156h-4v4q0 0.25-0.156 0.406t-0.406 0.156h-1.156q-0.25 0-0.406-0.156t-0.156-0.406v-4h-4q-0.25 0-0.406-0.156t-0.156-0.406v-1.156q0-0.25 0.156-0.406t0.406-0.156h4v-4q0-0.25 0.156-0.406 0.156-0.188 0.406-0.188h1.156q0.25 0 0.406 0.188 0.156 0.156 0.156 0.406v4z"></path>
</svg>
