<!-- Generated by IcoMoon.io -->
<svg version="1.1" xmlns="http://www.w3.org/2000/svg" width="37" height="32" viewBox="0 0 37 32">
<title>camera</title>
<path d="M18.281 12q2.125 0 3.625 1.5 1.531 1.531 1.531 3.656t-1.531 3.625q-1.5 1.5-3.625 1.5t-3.625-1.5-1.5-3.625 1.5-3.656q1.5-1.5 3.625-1.5v0zM30.844 4.563q1.906 0 3.25 1.344t1.344 3.25v16q0 1.875-1.344 3.219t-3.25 1.344h-25.125q-1.906 0-3.25-1.344-1.313-1.344-1.313-3.219v-16q0-1.906 1.313-3.25 1.344-1.344 3.25-1.344h4l0.906-2.406q0.344-0.875 1.25-1.531 0.906-0.625 1.844-0.625h9.125q0.969 0 1.875 0.625 0.875 0.656 1.219 1.531l0.906 2.406h4zM18.281 25.156q3.313 0 5.656-2.375 2.344-2.344 2.344-5.625 0-3.313-2.344-5.656t-5.656-2.344-5.656 2.344-2.344 5.656q0 3.281 2.344 5.625 2.344 2.375 5.656 2.375z"></path>
</svg>
