<!-- Generated by IcoMoon.io -->
<svg version="1.1" xmlns="http://www.w3.org/2000/svg" width="32" height="32" viewBox="0 0 32 32">
<title>caret-square-o-right</title>
<path d="M21.719 16q0 0.594-0.5 0.938l-8 5.719q-0.531 0.406-1.156 0.063-0.625-0.281-0.625-1v-11.438q0-0.719 0.625-1 0.625-0.344 1.156 0.063l8 5.719q0.5 0.344 0.5 0.938v0zM25.156 24.563v-17.125q0-0.25-0.188-0.406-0.156-0.188-0.406-0.188h-17.125q-0.25 0-0.406 0.188-0.188 0.156-0.188 0.406v17.125q0 0.25 0.188 0.406 0.156 0.188 0.406 0.188h17.125q0.25 0 0.406-0.188 0.188-0.156 0.188-0.406zM29.719 7.438v17.125q0 2.125-1.5 3.656-1.531 1.5-3.656 1.5h-17.125q-2.125 0-3.656-1.5-1.5-1.531-1.5-3.656v-17.125q0-2.125 1.5-3.656 1.531-1.5 3.656-1.5h17.125q2.125 0 3.656 1.5 1.5 1.531 1.5 3.656v0z"></path>
</svg>
