<!-- Generated by IcoMoon.io -->
<svg version="1.1" xmlns="http://www.w3.org/2000/svg" width="41" height="32" viewBox="0 0 41 32">
<title>cc-mastercard</title>
<path d="M19.969 6.094q-2.281-1.531-5-1.531-1.844 0-3.531 0.719-1.688 0.75-2.906 1.938-1.219 1.219-1.938 2.906t-0.719 3.531 0.719 3.531q0.719 1.656 1.938 2.875t2.906 1.938q1.656 0.719 3.531 0.719 2.719 0 5-1.5-2.313-1.906-3.156-4.75-0.844-2.813 0-5.656 0.844-2.813 3.156-4.719v0zM20.563 6.531q-2.25 1.75-3.063 4.438t0 5.375 3.063 4.438q2.281-1.75 3.094-4.438t0-5.375q-0.844-2.688-3.094-4.438v0zM21.156 6.094q2.313 1.906 3.188 4.75 0.844 2.813 0 5.656-0.844 2.813-3.188 4.719 2.281 1.5 5.031 1.5 1.844 0 3.531-0.719t2.875-1.938q1.219-1.219 1.938-2.875 0.75-1.688 0.75-3.531t-0.75-3.531q-0.719-1.688-1.938-2.906-1.188-1.188-2.875-1.938-1.688-0.719-3.531-0.719-2.75 0-5.031 1.531v0zM34.406 18.969h0.125v-0.031h-0.313v0.031h0.125v0.313h0.063v-0.313zM34.906 19.281h0.063v-0.344h-0.063l-0.125 0.219-0.094-0.219h-0.094v0.344h0.063v-0.25l0.094 0.219h0.063l0.094-0.219v0.25zM34.781 27.156v0.031h-0.094v-0.063h0.094v0.031zM34.781 27.313h0.031l-0.063-0.094h0.031l0.031-0.031v-0.094l-0.031-0.031h-0.156v0.25h0.063v-0.094zM12.219 26.094q0-0.344 0.219-0.563 0.188-0.219 0.531-0.219 0.313 0 0.5 0.219 0.219 0.25 0.219 0.563 0 0.344-0.219 0.563-0.188 0.188-0.5 0.188-0.344 0-0.531-0.188-0.219-0.219-0.219-0.563v0zM20.688 25.313q0.531 0 0.625 0.563h-1.25q0.094-0.563 0.625-0.563v0zM27.031 26.094q0-0.344 0.188-0.563 0.219-0.219 0.531-0.219t0.531 0.219q0.188 0.25 0.188 0.563 0 0.344-0.188 0.563-0.188 0.188-0.531 0.188-0.313 0-0.531-0.188-0.188-0.219-0.188-0.563v0zM31.906 26.094q0-0.313 0.188-0.563 0.219-0.219 0.531-0.219t0.531 0.219q0.188 0.25 0.188 0.563 0 0.344-0.188 0.563-0.219 0.188-0.531 0.188t-0.531-0.219q-0.188-0.219-0.188-0.531v0zM34.719 27.375q-0.031 0-0.063-0.031-0.031 0-0.063-0.031l-0.031-0.031q-0.031-0.063-0.031-0.094t0.031-0.063q0-0.031 0.031-0.063v-0.031h0.063q0.031-0.031 0.063-0.031 0.063 0 0.063 0.031l0.063 0.031 0.063 0.063v0.156h-0.031l-0.031 0.031q-0.031 0.031-0.063 0.031 0 0.031-0.063 0.031v0zM10.688 27.313h0.531v-1.531q0-0.438-0.25-0.688t-0.688-0.281q-0.594 0-0.844 0.438-0.25-0.438-0.813-0.438-0.438 0-0.688 0.375v-0.281h-0.531v2.406h0.531v-1.344q0-0.656 0.594-0.656 0.531 0 0.531 0.656v1.344h0.5v-1.344q0-0.656 0.594-0.656 0.531 0 0.531 0.656v1.344zM13.656 27.313h0.531v-2.406h-0.531v0.281q-0.313-0.375-0.75-0.375-0.531 0-0.875 0.375-0.344 0.344-0.344 0.906t0.344 0.906 0.875 0.344q0.5 0 0.75-0.344v0.313zM16.844 26.563q0-0.594-0.844-0.719l-0.25-0.031q-0.406-0.063-0.406-0.25 0-0.25 0.438-0.25 0.406 0 0.781 0.188l0.219-0.438q-0.406-0.25-1-0.25-0.469 0-0.719 0.219-0.281 0.219-0.281 0.563 0 0.594 0.844 0.719l0.219 0.031q0.438 0.063 0.438 0.25 0 0.313-0.563 0.313-0.438 0-0.781-0.25l-0.25 0.406q0.469 0.281 1.031 0.281 0.531 0 0.813-0.188 0.313-0.219 0.313-0.594v0zM19.156 27.188l-0.125-0.469q-0.25 0.125-0.469 0.125-0.344 0-0.344-0.375v-1.094h0.844v-0.469h-0.844v-0.75h-0.531v0.75h-0.5v0.469h0.5v1.094q0 0.875 0.844 0.875 0.375 0 0.625-0.156zM20.688 24.813q-0.5 0-0.844 0.375-0.344 0.344-0.344 0.906t0.344 0.906 0.875 0.344q0.594 0 1-0.313l-0.25-0.406q-0.313 0.281-0.688 0.281-0.625 0-0.75-0.594h1.813v-0.219q0-0.563-0.313-0.938-0.344-0.344-0.844-0.344v0zM23.531 24.813q-0.406 0-0.625 0.375v-0.281h-0.531v2.406h0.531v-1.375q0-0.625 0.531-0.625 0.156 0 0.313 0.094l0.156-0.5q-0.156-0.094-0.375-0.094zM24.063 26.094q0 0.563 0.344 0.906 0.375 0.344 0.938 0.344 0.531 0 0.875-0.281l-0.25-0.406q-0.313 0.219-0.625 0.188-0.313 0-0.531-0.188-0.219-0.219-0.219-0.563t0.219-0.563 0.531-0.219q0.344 0 0.625 0.219l0.25-0.438q-0.375-0.281-0.875-0.281-0.563 0-0.938 0.375-0.344 0.344-0.344 0.906v0zM28.438 27.313h0.531v-2.406h-0.531v0.281q-0.25-0.375-0.75-0.375t-0.844 0.375q-0.375 0.344-0.375 0.906t0.375 0.906q0.344 0.344 0.844 0.344t0.75-0.344v0.313zM30.813 24.813q-0.406 0-0.625 0.375v-0.281h-0.5v2.406h0.5v-1.375q0-0.625 0.531-0.625 0.188 0 0.313 0.094l0.156-0.5q-0.125-0.094-0.375-0.094zM33.313 27.313h0.531v-3.406h-0.531v1.281q-0.25-0.375-0.75-0.375t-0.844 0.375q-0.375 0.375-0.375 0.906t0.375 0.906q0.344 0.344 0.844 0.344t0.75-0.344v0.313zM34.719 26.938l-0.031 0.031h-0.063q-0.031 0-0.063 0.063-0.063 0-0.063 0.063-0.031 0.031-0.031 0.094t0.031 0.094q0 0.031 0.063 0.063 0.031 0.063 0.063 0.063 0.031 0.031 0.094 0.031t0.094-0.031l0.031-0.031 0.063-0.031 0.031-0.063q0.031-0.031 0.031-0.094t-0.031-0.094q0-0.031-0.031-0.063 0-0.031-0.063-0.063h-0.063l-0.063-0.031zM41.156 4.563v22.875q0 0.906-0.688 1.594t-1.625 0.688h-36.563q-0.938 0-1.594-0.688-0.688-0.688-0.688-1.594v-22.875q0-0.906 0.688-1.594 0.656-0.688 1.594-0.688h36.563q0.938 0 1.625 0.688t0.688 1.594z"></path>
</svg>
