<!-- Generated by IcoMoon.io -->
<svg version="1.1" xmlns="http://www.w3.org/2000/svg" width="41" height="32" viewBox="0 0 41 32">
<title>cc-visa</title>
<path d="M35.281 17.688h-2.469q0.25-0.656 1.156-3.219l0.25-0.625q0.094-0.281 0.156-0.438l0.219 0.969zM9.469 16.531l-1.031-5.281q-0.188-0.969-1.344-0.969h-4.781l-0.031 0.25q5.563 1.406 7.188 6v0zM12.688 10.281l-2.906 7.813-0.313-1.563q-0.438-1.25-1.5-2.313t-2.344-1.594l2.406 9.094h3.125l4.656-11.438h-3.125zM15.156 21.75h2.969l1.844-11.469h-2.938zM28.875 10.563q-1.219-0.469-2.656-0.469-2.188 0-3.594 1.063-1.406 1.031-1.406 2.719-0.031 1.813 2.594 3.094 0.844 0.438 1.188 0.75t0.344 0.688q0 0.531-0.531 0.813-0.531 0.313-1.25 0.313-1.531 0-2.781-0.594l-0.375-0.219-0.438 2.594q1.344 0.594 3.313 0.594 2.313 0.031 3.719-1.063 1.406-1.063 1.438-2.844 0-1.906-2.5-3.094-0.875-0.469-1.25-0.75-0.406-0.313-0.406-0.688 0-0.406 0.438-0.688 0.438-0.313 1.25-0.313 1.25 0 2.219 0.438l0.281 0.156zM36.469 10.281h-2.281q-1.156 0-1.563 0.969l-4.406 10.5h3.125l0.625-1.719h3.781q0.094 0.406 0.344 1.719h2.75zM41.156 4.563v22.875q0 0.906-0.688 1.594t-1.625 0.688h-36.563q-0.938 0-1.594-0.688-0.688-0.688-0.688-1.594v-22.875q0-0.906 0.688-1.594 0.656-0.688 1.594-0.688h36.563q0.938 0 1.625 0.688t0.688 1.594z"></path>
</svg>
