<!-- Generated by IcoMoon.io -->
<svg version="1.1" xmlns="http://www.w3.org/2000/svg" width="32" height="32" viewBox="0 0 32 32">
<title>certificate</title>
<path d="M26.844 16l2.469 2.406q0.531 0.5 0.375 1.25-0.219 0.75-0.938 0.906l-3.344 0.875 0.938 3.313q0.219 0.719-0.344 1.25-0.531 0.563-1.25 0.344l-3.313-0.938-0.875 3.344q-0.156 0.719-0.906 0.938-0.219 0.031-0.344 0.031-0.531 0-0.906-0.406l-2.406-2.469-2.406 2.469q-0.5 0.531-1.25 0.375-0.75-0.219-0.906-0.938l-0.875-3.344-3.313 0.938q-0.719 0.219-1.25-0.344-0.563-0.531-0.344-1.25l0.938-3.313-3.344-0.875q-0.719-0.156-0.938-0.906-0.156-0.75 0.375-1.25l2.469-2.406-2.469-2.406q-0.531-0.5-0.375-1.25 0.219-0.75 0.938-0.906l3.344-0.875-0.938-3.313q-0.219-0.719 0.344-1.25 0.531-0.563 1.25-0.344l3.313 0.938 0.875-3.344q0.156-0.719 0.906-0.906 0.719-0.219 1.25 0.344l2.406 2.469 2.406-2.469q0.531-0.531 1.25-0.344 0.75 0.188 0.906 0.906l0.875 3.344 3.313-0.938q0.719-0.219 1.25 0.344 0.563 0.531 0.344 1.25l-0.938 3.313 3.344 0.875q0.719 0.156 0.938 0.906 0.156 0.75-0.375 1.25z"></path>
</svg>
