<!-- Generated by IcoMoon.io -->
<svg version="1.1" xmlns="http://www.w3.org/2000/svg" width="32" height="32" viewBox="0 0 32 32">
<title>chain</title>
<path d="M27.156 21.719q0-0.719-0.5-1.219l-3.719-3.719q-0.5-0.5-1.219-0.5-0.75 0-1.281 0.563 0.031 0.063 0.344 0.344l0.375 0.375q0.094 0.125 0.25 0.344 0.188 0.25 0.25 0.469t0.063 0.469q0 0.719-0.5 1.219t-1.219 0.5q-0.281 0-0.5-0.063t-0.438-0.219q-0.25-0.188-0.344-0.281-0.125-0.094-0.375-0.375l-0.344-0.344q-0.594 0.563-0.594 1.313 0 0.719 0.5 1.219l3.688 3.688q0.469 0.469 1.219 0.469 0.719 0 1.219-0.438l2.625-2.625q0.5-0.5 0.5-1.188v0zM14.594 9.125q0-0.719-0.5-1.219l-3.688-3.688q-0.5-0.5-1.219-0.5-0.688 0-1.219 0.469l-2.625 2.625q-0.5 0.5-0.5 1.188 0 0.719 0.5 1.219l3.719 3.719q0.5 0.469 1.219 0.469 0.75 0 1.281-0.563-0.031-0.031-0.344-0.313l-0.375-0.375q-0.094-0.125-0.25-0.344-0.188-0.25-0.25-0.469t-0.063-0.5q0-0.688 0.5-1.188t1.219-0.5q0.281 0 0.5 0.063t0.438 0.219q0.25 0.156 0.344 0.281 0.125 0.094 0.375 0.375l0.344 0.344q0.594-0.563 0.594-1.313v0zM30.563 21.719q0 2.125-1.5 3.625l-2.625 2.594q-1.5 1.5-3.625 1.5-2.156 0-3.656-1.531l-3.688-3.688q-1.469-1.5-1.469-3.625 0-2.188 1.563-3.75l-1.563-1.563q-1.531 1.563-3.719 1.563-2.125 0-3.625-1.5l-3.719-3.688q-1.5-1.5-1.5-3.656t1.5-3.625l2.625-2.594q1.5-1.5 3.625-1.5 2.156 0 3.656 1.531l3.688 3.688q1.469 1.469 1.469 3.625 0 2.188-1.563 3.719l1.563 1.594q1.531-1.594 3.719-1.594 2.125 0 3.625 1.5l3.719 3.719q1.5 1.5 1.5 3.656z"></path>
</svg>
