<!-- Generated by IcoMoon.io -->
<svg version="1.1" xmlns="http://www.w3.org/2000/svg" width="32" height="32" viewBox="0 0 32 32">
<title>chain-broken</title>
<path d="M8.969 22.688l-4.563 4.594q-0.188 0.156-0.406 0.156t-0.406-0.156q-0.156-0.188-0.156-0.438 0-0.219 0.156-0.406l4.563-4.563q0.188-0.156 0.406-0.156 0.25 0 0.406 0.156 0.188 0.188 0.188 0.406 0 0.25-0.188 0.406v0zM12 23.438v5.719q0 0.25-0.156 0.406t-0.406 0.156-0.406-0.156q-0.188-0.156-0.188-0.406v-5.719q0-0.25 0.188-0.406 0.156-0.188 0.406-0.188t0.406 0.188q0.156 0.156 0.156 0.406v0zM8 19.438q0 0.25-0.156 0.406t-0.406 0.156h-5.719q-0.25 0-0.406-0.156t-0.156-0.406 0.156-0.406q0.156-0.188 0.406-0.188h5.719q0.25 0 0.406 0.188 0.156 0.156 0.156 0.406zM30.563 21.719q0 2.125-1.5 3.625l-2.625 2.594q-1.5 1.5-3.625 1.5-2.156 0-3.656-1.531l-5.969-5.969q-0.375-0.375-0.75-1l4.281-0.344 4.875 4.906q0.469 0.469 1.219 0.5 0.719 0 1.219-0.469l2.625-2.625q0.5-0.5 0.5-1.188 0-0.719-0.5-1.219l-4.906-4.906 0.313-4.281q0.625 0.375 1 0.75l6 6q1.5 1.531 1.5 3.656v0zM19.563 8.781l-4.281 0.313-4.875-4.875q-0.5-0.5-1.219-0.5-0.688 0-1.219 0.469l-2.625 2.625q-0.5 0.5-0.5 1.188 0 0.719 0.5 1.219l4.906 4.875-0.313 4.313q-0.625-0.375-1-0.75l-6-6q-1.5-1.563-1.5-3.656 0-2.156 1.5-3.625l2.625-2.594q1.5-1.5 3.625-1.5 2.156 0 3.656 1.531l5.969 5.969q0.375 0.375 0.75 1v0zM30.844 10.281q0 0.25-0.156 0.406t-0.406 0.156h-5.719q-0.25 0-0.406-0.156t-0.156-0.406 0.156-0.406 0.406-0.156h5.719q0.25 0 0.406 0.156t0.156 0.406v0zM21.156 0.563v5.719q0 0.25-0.188 0.406-0.156 0.156-0.406 0.156t-0.406-0.156-0.156-0.406v-5.719q0-0.25 0.156-0.406t0.406-0.156 0.406 0.156q0.188 0.156 0.188 0.406zM28.406 3.281l-4.563 4.563q-0.188 0.156-0.406 0.156t-0.406-0.156q-0.188-0.188-0.188-0.406 0-0.25 0.188-0.406l4.563-4.594q0.188-0.156 0.406-0.156t0.406 0.156q0.156 0.188 0.156 0.406 0 0.25-0.156 0.438z"></path>
</svg>
