<!-- Generated by IcoMoon.io -->
<svg version="1.1" xmlns="http://www.w3.org/2000/svg" width="32" height="32" viewBox="0 0 32 32">
<title>chair</title>
<path d="M25.969 1.25q0.125 0.188 0.203 0.391t0.078 0.453q0 0.375-0.172 0.688t-0.453 0.5v0q-0.063 0.063-0.781 0.719-0.719 0.688-1.547 2.125t-1.484 3.688q-0.688 2.25-0.688 5.469 0 0.594-0.438 1.016t-1.031 0.422-1.031-0.422-0.438-1.016v0q0-3.813 0.875-6.5 0.875-2.719 1.922-4.438t1.953-2.563q0.906-0.813 1-0.875 0.156-0.125 0.375-0.203t0.469-0.078q0.375 0 0.688 0.172t0.5 0.453v0 0zM22.375 21.75l2.344 6.969q0.031 0.094 0.047 0.203t0.016 0.234q0 0.625-0.438 1.047t-1.031 0.422q-0.469 0-0.844-0.281t-0.531-0.688v-0.031l-2.594-7.781h-8.156l-2.594 7.781q-0.125 0.438-0.516 0.719t-0.859 0.281q-0.594 0-1.031-0.422t-0.438-1.047q0-0.125 0.016-0.234t0.078-0.234v0.031l2.313-6.969q-0.406-0.156-0.672-0.531t-0.266-0.844q0-0.594 0.422-1.016t1.047-0.422v0 0h13.156q0.125-0.063 0.266-0.078t0.266-0.016q0.625 0 1.047 0.422t0.422 1.016q0 0.625-0.422 1.047t-1.047 0.422v0 0z"></path>
</svg>
