<!-- Generated by IcoMoon.io -->
<svg version="1.1" xmlns="http://www.w3.org/2000/svg" width="32" height="32" viewBox="0 0 32 32">
<title>check-circle-o</title>
<path d="M23.188 14.531l-7.531 7.531q-0.344 0.344-0.813 0.344-0.438 0-0.781-0.344l-5.25-5.25q-0.344-0.344-0.344-0.813t0.344-0.813l1.813-1.813q0.344-0.344 0.813-0.344t0.781 0.344l2.625 2.625 4.938-4.906q0.313-0.344 0.781-0.344t0.813 0.344l1.813 1.813q0.344 0.344 0.344 0.813t-0.344 0.813v0zM25.719 16q0-2.656-1.313-4.875t-3.531-3.531-4.875-1.313-4.875 1.313-3.531 3.531-1.313 4.875 1.313 4.875 3.531 3.531 4.875 1.313 4.875-1.313 3.531-3.531 1.313-4.875zM29.719 16q0 3.719-1.844 6.875t-5 5-6.875 1.844-6.875-1.844-5-5-1.844-6.875 1.844-6.875 5-5 6.875-1.844 6.875 1.844 5 5 1.844 6.875z"></path>
</svg>
