<!-- Generated by IcoMoon.io -->
<svg version="1.1" xmlns="http://www.w3.org/2000/svg" width="32" height="32" viewBox="0 0 32 32">
<title>check-square-o</title>
<path d="M26.281 16.594v5.688q0 2.125-1.5 3.625-1.5 1.531-3.625 1.531h-14.875q-2.125 0-3.625-1.531-1.5-1.5-1.5-3.625v-14.844q0-2.125 1.5-3.656 1.5-1.5 3.625-1.5h14.875q1.125 0 2.063 0.438 0.281 0.125 0.344 0.438 0.031 0.281-0.156 0.5l-0.875 0.875q-0.188 0.188-0.438 0.188-0.031 0-0.156-0.031-0.406-0.125-0.781-0.125h-14.875q-1.188 0-2 0.844-0.844 0.844-0.844 2.031v14.844q0 1.188 0.844 2.031 0.813 0.844 2 0.844h14.875q1.156 0 2-0.844t0.844-2.031v-4.531q0-0.219 0.156-0.406l1.156-1.125q0.156-0.188 0.406-0.188 0.094 0 0.219 0.063 0.344 0.125 0.344 0.5v0zM30.406 7.875l-14.531 14.531q-0.438 0.438-1.031 0.438-0.563 0-1-0.438l-7.688-7.688q-0.438-0.406-0.438-1t0.438-1.031l1.969-1.969q0.438-0.406 1.031-0.406 0.563 0 1 0.406l4.688 4.719 11.563-11.563q0.438-0.438 1.031-0.438t1 0.438l1.969 1.969q0.438 0.438 0.438 1 0 0.594-0.438 1.031v0z"></path>
</svg>
