<!-- Generated by IcoMoon.io -->
<svg version="1.1" xmlns="http://www.w3.org/2000/svg" width="32" height="32" viewBox="0 0 32 32">
<title>check-square</title>
<path d="M14.531 23.188l10.938-10.969q0.344-0.313 0.344-0.781t-0.344-0.813l-1.813-1.813q-0.344-0.344-0.813-0.344-0.438 0-0.781 0.344l-8.344 8.344-3.781-3.781q-0.344-0.344-0.781-0.344-0.469 0-0.813 0.344l-1.813 1.813q-0.344 0.344-0.344 0.813t0.344 0.813l6.375 6.375q0.344 0.344 0.813 0.344t0.813-0.344v0zM29.719 7.438v17.125q0 2.125-1.5 3.656-1.531 1.5-3.656 1.5h-17.125q-2.125 0-3.656-1.5-1.5-1.531-1.5-3.656v-17.125q0-2.125 1.5-3.656 1.531-1.5 3.656-1.5h17.125q2.125 0 3.656 1.5 1.5 1.531 1.5 3.656v0z"></path>
</svg>
