<!-- Generated by IcoMoon.io -->
<svg version="1.1" xmlns="http://www.w3.org/2000/svg" width="32" height="32" viewBox="0 0 32 32">
<title>check-circle</title>
<path d="M25.219 13.094q0-0.5-0.313-0.813l-1.625-1.594q-0.344-0.344-0.813-0.344t-0.813 0.344l-7.281 7.25-4.031-4.031q-0.344-0.344-0.813-0.344t-0.813 0.344l-1.625 1.625q-0.313 0.313-0.313 0.813 0 0.469 0.313 0.813l6.469 6.438q0.344 0.344 0.813 0.344t0.813-0.344l9.719-9.688q0.313-0.313 0.313-0.813v0zM29.719 16q0 3.719-1.844 6.875t-5 5-6.875 1.844-6.875-1.844-5-5-1.844-6.875 1.844-6.875 5-5 6.875-1.844 6.875 1.844 5 5 1.844 6.875z"></path>
</svg>
