<!-- Generated by IcoMoon.io -->
<svg version="1.1" xmlns="http://www.w3.org/2000/svg" width="34" height="32" viewBox="0 0 34 32">
<title>check-box</title>
<path d="M29.098 0.089c-1.104 0.226-2.124 0.88-2.77 1.903l-12.018 18.554-6.88-7.13c-1.694-1.752-4.508-1.742-6.174-0.009-1.67 1.737-1.676 4.511-0.013 6.255l0.004 0.004 10.637 11.026c1.907 1.992 5.244 1.658 6.719-0.67l0.004-0.005 14.976-23.12c1.315-2.031 0.793-4.779-1.193-6.147-0.996-0.687-2.189-0.887-3.293-0.661zM29.554 2.314c0.511-0.105 1.063-0.005 1.537 0.322 0.956 0.659 1.224 2.013 0.572 3.020l-14.989 23.138c-0.708 1.126-2.218 1.279-3.136 0.317l-0.004-0.005-10.637-11.026c-0.83-0.875-0.827-2.218 0.009-3.087 0.809-0.841 2.037-0.86 2.882 0.013l8.877 9.199 13.6-20.994c0.307-0.487 0.78-0.793 1.291-0.898z"></path>
</svg>
