<!-- Generated by IcoMoon.io -->
<svg version="1.1" xmlns="http://www.w3.org/2000/svg" width="32" height="32" viewBox="0 0 32 32">
<title>check-box-selected</title>
<path d="M5.897 13.187c-0.548-0.575-1.32-0.933-2.175-0.933-0.85 0-1.618 0.353-2.164 0.921l-0.001 0.001c-0.559 0.581-0.903 1.372-0.903 2.244 0 0.867 0.341 1.655 0.896 2.236l10.193 10.566c0.55 0.575 1.323 0.933 2.179 0.933 1.069 0 2.008-0.557 2.542-1.396l0.007-0.012 14.358-22.165c0.942-1.455 0.563-3.422-0.846-4.394-0.478-0.333-1.071-0.532-1.71-0.532-1.067 0-2.006 0.556-2.54 1.393l-0.007 0.012-12.278 18.951-7.551-7.827z"></path>
</svg>
