<!-- Generated by IcoMoon.io -->
<svg version="1.1" xmlns="http://www.w3.org/2000/svg" width="32" height="32" viewBox="0 0 32 32">
<title>chevron-circle-left</title>
<path d="M18.531 24.906l1.813-1.813q0.344-0.344 0.344-0.813t-0.344-0.813l-5.5-5.469 5.5-5.469q0.344-0.344 0.344-0.813t-0.344-0.813l-1.813-1.813q-0.344-0.344-0.813-0.344t-0.813 0.344l-8.094 8.094q-0.344 0.344-0.344 0.813t0.344 0.813l8.094 8.094q0.344 0.344 0.813 0.344t0.813-0.344v0zM29.719 16q0 3.719-1.844 6.875t-5 5-6.875 1.844-6.875-1.844-5-5-1.844-6.875 1.844-6.875 5-5 6.875-1.844 6.875 1.844 5 5 1.844 6.875z"></path>
</svg>
