<!-- Generated by IcoMoon.io -->
<svg version="1.1" xmlns="http://www.w3.org/2000/svg" width="32" height="32" viewBox="0 0 32 32">
<title>chevron-circle-up</title>
<path d="M23.094 20.344l1.813-1.813q0.344-0.344 0.344-0.813t-0.344-0.813l-8.094-8.094q-0.344-0.344-0.813-0.344t-0.813 0.344l-8.094 8.094q-0.344 0.344-0.344 0.813t0.344 0.813l1.813 1.813q0.344 0.344 0.813 0.344t0.813-0.344l5.469-5.5 5.469 5.5q0.344 0.344 0.813 0.344t0.813-0.344zM29.719 16q0 3.719-1.844 6.875t-5 5-6.875 1.844-6.875-1.844-5-5-1.844-6.875 1.844-6.875 5-5 6.875-1.844 6.875 1.844 5 5 1.844 6.875z"></path>
</svg>
