<!-- Generated by IcoMoon.io -->
<svg version="1.1" xmlns="http://www.w3.org/2000/svg" width="32" height="32" viewBox="0 0 32 32">
<title>circle-thin</title>
<path d="M16 4.563q-2.313 0-4.438 0.906-2.125 0.938-3.656 2.438-1.5 1.531-2.438 3.656-0.906 2.125-0.906 4.438t0.906 4.438q0.938 2.125 2.438 3.656 1.531 1.5 3.656 2.438 2.125 0.906 4.438 0.906t4.438-0.906q2.125-0.938 3.656-2.438 1.5-1.531 2.438-3.656 0.906-2.125 0.906-4.438t-0.906-4.438q-0.938-2.125-2.438-3.656-1.531-1.5-3.656-2.438-2.125-0.906-4.438-0.906zM29.719 16q0 3.719-1.844 6.875t-5 5-6.875 1.844-6.875-1.844-5-5-1.844-6.875 1.844-6.875 5-5 6.875-1.844 6.875 1.844 5 5 1.844 6.875z"></path>
</svg>
