<!-- Generated by IcoMoon.io -->
<svg version="1.1" xmlns="http://www.w3.org/2000/svg" width="32" height="32" viewBox="0 0 32 32">
<title>circle-o-notch</title>
<path d="M31.438 16q0 3.156-1.219 6-1.25 2.844-3.313 4.906t-4.906 3.313q-2.844 1.219-6 1.219t-6-1.219q-2.844-1.25-4.906-3.313t-3.313-4.906q-1.219-2.844-1.219-6 0-3.813 1.75-7.125 1.719-3.313 4.719-5.438 3-2.156 6.688-2.719v4.094q-3.938 0.781-6.563 3.938-2.594 3.156-2.594 7.25 0 2.313 0.906 4.438 0.938 2.125 2.438 3.656 1.531 1.5 3.656 2.438 2.125 0.906 4.438 0.906t4.438-0.906q2.125-0.938 3.656-2.438 1.5-1.531 2.438-3.656 0.906-2.125 0.906-4.438 0-4.094-2.594-7.25-2.625-3.156-6.563-3.938v-4.094q3.688 0.563 6.688 2.719 3 2.125 4.719 5.438 1.75 3.313 1.75 7.125v0z"></path>
</svg>
