<!-- Generated by IcoMoon.io -->
<svg version="1.1" xmlns="http://www.w3.org/2000/svg" width="32" height="32" viewBox="0 0 32 32">
<title>clipboard</title>
<path d="M13.719 29.719h16v-11.438h-7.438q-0.719 0-1.219-0.5t-0.5-1.219v-7.406h-6.844v20.563zM18.281 4v-1.156q0-0.219-0.156-0.375-0.188-0.188-0.406-0.188h-12.563q-0.25 0-0.406 0.188-0.188 0.156-0.188 0.375v1.156q0 0.219 0.188 0.406 0.156 0.156 0.406 0.156h12.563q0.219 0 0.406-0.156 0.156-0.188 0.156-0.406zM22.844 16h5.344l-5.344-5.344v5.344zM32 18.281v12q0 0.719-0.5 1.219t-1.219 0.5h-17.125q-0.719 0-1.219-0.5t-0.5-1.219v-2.844h-9.719q-0.719 0-1.219-0.5t-0.5-1.219v-24q0-0.719 0.5-1.219t1.219-0.5h19.438q0.688 0 1.188 0.5t0.5 1.219v5.844q0.375 0.25 0.656 0.5l7.281 7.281q0.5 0.5 0.875 1.375 0.344 0.844 0.344 1.563v0z"></path>
</svg>
