<!-- Generated by IcoMoon.io -->
<svg version="1.1" xmlns="http://www.w3.org/2000/svg" width="32" height="32" viewBox="0 0 32 32">
<title>clock</title>
<path d="M16.188 2.5h-0.094q-1.375 0-2.672 0.281t-2.484 0.781l0.094-0.031q-1.25 0.531-2.297 1.25t-1.922 1.594v0q-0.906 0.875-1.609 1.922t-1.203 2.203l-0.031 0.094q-0.5 1.125-0.766 2.406t-0.266 2.656v0.094q0 1.375 0.266 2.656t0.766 2.5q0.531 1.219 1.234 2.266t1.609 1.953q0.875 0.875 1.922 1.578t2.203 1.203l0.094 0.031q1.094 0.5 2.391 0.766t2.672 0.266h0.156q1.375 0 2.672-0.266t2.484-0.797l-0.063 0.031q1.219-0.5 2.266-1.219t1.953-1.594h-0.031q0.906-0.906 1.609-1.938t1.203-2.188l0.031-0.094q0.5-1.125 0.766-2.406t0.266-2.656v-0.188q0-1.375-0.281-2.672t-0.781-2.484l0.031 0.094q-0.531-1.25-1.234-2.297t-1.609-1.922h0.031q-0.906-0.875-1.938-1.594t-2.219-1.219l-0.063-0.031q-1.125-0.469-2.422-0.75t-2.672-0.281h-0.063zM16.188 0.75h0.063q1.563 0 3.047 0.313t2.828 0.906l-0.094-0.063q1.344 0.594 2.547 1.391t2.203 1.828q1 1 1.813 2.172t1.375 2.516l0.031 0.094q0.563 1.25 0.875 2.719t0.313 3.031v0.188q0 1.563-0.328 3.031t-0.891 2.813l0.031-0.094q-0.594 1.375-1.406 2.578t-1.813 2.203v0q-1 1-2.172 1.797t-2.484 1.359l-0.094 0.031q-1.281 0.563-2.75 0.875t-3.031 0.313h-0.156q-1.563 0-3.047-0.313t-2.828-0.906l0.094 0.031q-1.375-0.594-2.563-1.391t-2.188-1.797v0q-1-1-1.813-2.188t-1.375-2.5l-0.031-0.094q-0.563-1.281-0.859-2.734t-0.297-3.016v-0.188q0-1.563 0.313-3.031t0.875-2.813l-0.031 0.094q0.594-1.406 1.406-2.594t1.813-2.188v0q1-1 2.172-1.797t2.484-1.359l0.094-0.063q1.281-0.531 2.75-0.844t3.031-0.313h0.094zM21.781 19.125q0.281 0.25 0.422 0.547t0.141 0.641v0.031q0 0.344-0.141 0.641t-0.391 0.516v0q-0.219 0.188-0.531 0.313t-0.656 0.125h-0.063q-0.344 0-0.625-0.109t-0.531-0.297v0l-4.688-3.875v-0.063q-0.156-0.188-0.234-0.422t-0.078-0.484v0 0 0-7.281q0-0.344 0.156-0.656t0.438-0.531q0.219-0.188 0.516-0.297t0.641-0.109v0h0.031q0.313 0 0.609 0.094t0.547 0.313q0.281 0.219 0.438 0.531t0.156 0.656v6.563l3.844 3.156z"></path>
</svg>
