<!-- Generated by IcoMoon.io -->
<svg version="1.1" xmlns="http://www.w3.org/2000/svg" width="32" height="32" viewBox="0 0 32 32">
<title>clock-o</title>
<path d="M15.981 7.537c-0.358 0.015-0.672 0.040-1.239 0.46-0.308 0.268-0.558 0.549-0.624 1.212 0.096 4.368 0.028 5.256 0.011 7.798 0.018 0.42 0.078 0.634 0.313 1.045 2.637 2.168 2.934 2.4 5.010 4.090 0.623 0.38 0.749 0.479 1.253 0.475 0.587-0.036 0.926-0.152 1.35-0.525 0.412-0.385 0.484-0.816 0.527-1.191-0.019-0.449-0.159-0.855-0.601-1.283-1.792-1.459-2.635-2.132-4.1-3.378-0.012-1.501-0.006-4.494 0.004-6.997-0.034-0.576-0.284-0.93-0.612-1.255-0.409-0.312-0.788-0.452-1.293-0.452zM16 0c2.143-0.013 4.266 0.413 6.238 1.252 1.942 0.832 3.64 1.972 5.090 3.42 1.456 1.461 2.618 3.189 3.42 5.090 0.839 1.972 1.265 4.095 1.252 6.238 0.013 2.143-0.413 4.266-1.252 6.238-0.802 1.901-1.963 3.629-3.42 5.090-1.461 1.456-3.189 2.618-5.090 3.42-1.972 0.839-4.095 1.265-6.238 1.252-2.143 0.013-4.266-0.413-6.238-1.252-1.901-0.802-3.629-1.963-5.090-3.42-1.456-1.461-2.618-3.189-3.42-5.090-0.839-1.972-1.265-4.095-1.252-6.238-0.013-2.143 0.413-4.266 1.252-6.238 0.802-1.901 1.963-3.629 3.42-5.090 1.461-1.456 3.189-2.618 5.090-3.42 1.972-0.839 4.095-1.265 6.238-1.252z"></path>
</svg>
