<!-- Generated by IcoMoon.io -->
<svg version="1.1" xmlns="http://www.w3.org/2000/svg" width="32" height="32" viewBox="0 0 32 32">
<title>clone</title>
<path d="M29.719 29.156v-19.438q0-0.25-0.188-0.406-0.156-0.156-0.375-0.156h-19.438q-0.25 0-0.406 0.156t-0.156 0.406v19.438q0 0.219 0.156 0.375 0.156 0.188 0.406 0.188h19.438q0.219 0 0.375-0.188 0.188-0.156 0.188-0.375zM32 9.719v19.438q0 1.156-0.844 2t-2 0.844h-19.438q-1.188 0-2.031-0.844t-0.844-2v-19.438q0-1.188 0.844-2.031t2.031-0.844h19.438q1.156 0 2 0.844t0.844 2.031v0zM25.156 2.844v2.875h-2.313v-2.875q0-0.219-0.156-0.375-0.156-0.188-0.406-0.188h-19.438q-0.219 0-0.375 0.188-0.188 0.156-0.188 0.375v19.438q0 0.25 0.188 0.406 0.156 0.156 0.375 0.156h2.875v2.313h-2.875q-1.156 0-2-0.844t-0.844-2.031v-19.438q0-1.156 0.844-2t2-0.844h19.438q1.188 0 2.031 0.844t0.844 2v0z"></path>
</svg>
