<!-- Generated by IcoMoon.io -->
<svg version="1.1" xmlns="http://www.w3.org/2000/svg" width="37" height="32" viewBox="0 0 37 32">
<title>cloud-download</title>
<path d="M24 16.563q0-0.25-0.156-0.406t-0.406-0.156h-4v-6.281q0-0.25-0.188-0.406-0.156-0.156-0.406-0.156h-3.406q-0.25 0-0.406 0.156-0.188 0.156-0.188 0.406v6.281h-4q-0.219 0-0.375 0.156-0.188 0.188-0.188 0.406 0 0.25 0.156 0.406l6.281 6.313q0.188 0.156 0.438 0.156t0.406-0.156l6.25-6.281q0.188-0.219 0.188-0.438v0zM35.438 20.563q0 2.844-2.031 4.844-2 2.031-4.844 2.031h-19.406q-3.313 0-5.656-2.344-2.344-2.375-2.344-5.656 0-2.344 1.25-4.281 1.25-1.969 3.344-2.969-0.031-0.531-0.031-0.75 0-3.781 2.688-6.469 2.656-2.688 6.438-2.688 2.813 0 5.125 1.563t3.344 4.125q1.281-1.125 2.969-1.125 1.906 0 3.25 1.344 1.313 1.344 1.313 3.25 0 1.344-0.719 2.469 2.313 0.531 3.813 2.406t1.5 4.25v0z"></path>
</svg>
