<!-- Generated by IcoMoon.io -->
<svg version="1.1" xmlns="http://www.w3.org/2000/svg" width="32" height="32" viewBox="0 0 32 32">
<title>cog</title>
<path d="M20.563 16q0-1.906-1.344-3.219-1.313-1.344-3.219-1.344t-3.219 1.344q-1.344 1.313-1.344 3.219t1.344 3.219q1.313 1.344 3.219 1.344t3.219-1.344q1.344-1.313 1.344-3.219zM29.719 14.063v3.969q0 0.188-0.156 0.406-0.125 0.188-0.344 0.219l-3.313 0.5q-0.344 0.969-0.688 1.625 0.625 0.906 1.906 2.469 0.188 0.219 0.188 0.438 0 0.25-0.156 0.406-0.5 0.688-1.781 1.938-1.281 1.281-1.688 1.281-0.219 0-0.469-0.156l-2.438-1.938q-0.813 0.406-1.625 0.688-0.313 2.406-0.531 3.313-0.125 0.5-0.656 0.5h-3.938q-0.25 0-0.438-0.156t-0.219-0.375l-0.5-3.281q-0.875-0.313-1.594-0.688l-2.531 1.938q-0.188 0.156-0.438 0.156t-0.469-0.219q-2.25-2.031-2.938-3-0.125-0.156-0.125-0.406 0-0.219 0.156-0.406 0.25-0.375 0.906-1.188 0.625-0.813 0.969-1.25-0.5-0.906-0.75-1.781l-3.25-0.469q-0.25-0.031-0.375-0.219-0.156-0.188-0.156-0.438v-3.969q0-0.188 0.156-0.406 0.125-0.188 0.344-0.219l3.313-0.5q0.25-0.813 0.688-1.656-0.719-1-1.906-2.469-0.188-0.188-0.188-0.406 0-0.188 0.156-0.406 0.469-0.656 1.781-1.938 1.281-1.281 1.688-1.281 0.219 0 0.469 0.188l2.438 1.906q0.813-0.406 1.625-0.688 0.313-2.406 0.531-3.313 0.125-0.5 0.656-0.5h3.938q0.25 0 0.438 0.156t0.219 0.375l0.5 3.281q0.875 0.313 1.594 0.688l2.563-1.938q0.156-0.156 0.406-0.156t0.469 0.188q2.281 2.125 2.938 3.031 0.125 0.156 0.125 0.406 0 0.219-0.156 0.406-0.25 0.375-0.906 1.188-0.625 0.813-0.969 1.25 0.469 0.906 0.75 1.75l3.25 0.5q0.25 0.031 0.375 0.219 0.156 0.188 0.156 0.438v0z"></path>
</svg>
