<!-- Generated by IcoMoon.io -->
<svg version="1.1" xmlns="http://www.w3.org/2000/svg" width="32" height="32" viewBox="0 0 32 32">
<title>cog_1</title>
<path d="M27.455 17.568l3.376 2.64c0.304 0.24 0.384 0.672 0.192 1.024l-3.2 5.536c-0.192 0.352-0.608 0.496-0.976 0.352l-3.984-1.6c-0.832 0.624-1.728 1.168-2.704 1.568l-0.608 4.24c-0.048 0.384-0.384 0.672-0.784 0.672h-6.4c-0.4 0-0.736-0.288-0.784-0.672l-0.608-4.24c-0.976-0.4-1.872-0.928-2.704-1.568l-3.984 1.6c-0.352 0.128-0.784 0-0.976-0.352l-3.2-5.536c-0.192-0.352-0.112-0.784 0.192-1.024l3.376-2.64c-0.064-0.512-0.112-1.040-0.112-1.568s0.048-1.056 0.112-1.568l-3.376-2.64c-0.304-0.24-0.4-0.672-0.192-1.024l3.2-5.536c0.192-0.352 0.608-0.496 0.976-0.352l3.984 1.6c0.832-0.624 1.728-1.168 2.704-1.568l0.608-4.24c0.048-0.384 0.384-0.672 0.784-0.672h6.4c0.4 0 0.736 0.288 0.784 0.672l0.608 4.24c0.976 0.4 1.872 0.928 2.704 1.568l3.984-1.6c0.352-0.128 0.784 0 0.976 0.352l3.2 5.536c0.192 0.352 0.112 0.784-0.192 1.024l-3.376 2.64c0.064 0.512 0.112 1.024 0.112 1.568s-0.048 1.056-0.112 1.568zM15.567 24.4c4.632 0 8.4-3.768 8.4-8.4s-3.768-8.4-8.4-8.4c-4.632 0-8.4 3.768-8.4 8.4s3.768 8.4 8.4 8.4z"></path>
</svg>
