<!-- Generated by IcoMoon.io -->
<svg version="1.1" xmlns="http://www.w3.org/2000/svg" width="37" height="32" viewBox="0 0 37 32">
<title>cogs</title>
<path d="M17.156 16q0-1.906-1.344-3.219-1.344-1.344-3.25-1.344-1.875 0-3.219 1.344-1.344 1.313-1.344 3.219t1.344 3.219q1.344 1.344 3.219 1.344 1.906 0 3.25-1.344 1.344-1.313 1.344-3.219zM30.844 25.156q0-0.938-0.656-1.625-0.688-0.688-1.625-0.688-0.906 0-1.594 0.688t-0.688 1.625 0.688 1.594q0.656 0.688 1.594 0.688 0.969 0 1.625-0.688 0.656-0.656 0.656-1.594v0zM30.844 6.844q0-0.906-0.656-1.594-0.688-0.688-1.625-0.688-0.906 0-1.594 0.688t-0.688 1.594q0 0.969 0.688 1.625 0.656 0.688 1.594 0.688 0.969 0 1.625-0.688 0.656-0.656 0.656-1.625v0zM24 14.375v3.313q0 0.156-0.125 0.344-0.125 0.156-0.281 0.188l-2.781 0.438q-0.188 0.625-0.563 1.344 0.594 0.844 1.594 2.063 0.125 0.188 0.125 0.344 0 0.219-0.125 0.344-0.406 0.531-1.469 1.594t-1.406 1.063q-0.188 0-0.375-0.125l-2.031-1.594q-0.656 0.344-1.375 0.531-0.219 1.938-0.406 2.781-0.125 0.438-0.563 0.438h-3.313q-0.188 0-0.344-0.156-0.156-0.125-0.188-0.313l-0.406-2.719q-0.625-0.188-1.344-0.563l-2.094 1.594q-0.125 0.125-0.375 0.125-0.188 0-0.375-0.125-2.563-2.375-2.563-2.875 0-0.156 0.125-0.344 0.188-0.25 0.719-0.938 0.563-0.688 0.844-1.094-0.406-0.781-0.625-1.469l-2.719-0.406q-0.156-0.031-0.281-0.188t-0.125-0.344v-3.313q0-0.156 0.125-0.344 0.125-0.156 0.281-0.188l2.75-0.438q0.219-0.625 0.594-1.344-0.625-0.844-1.625-2.063-0.125-0.188-0.125-0.344 0-0.219 0.125-0.375 0.406-0.531 1.469-1.563 1.063-1.063 1.406-1.063 0.188 0 0.375 0.125l2.063 1.594q0.594-0.313 1.375-0.563 0.188-1.938 0.406-2.75 0.125-0.438 0.531-0.438h3.313q0.219 0 0.375 0.156 0.156 0.125 0.188 0.313l0.406 2.719q0.594 0.188 1.344 0.563l2.094-1.594q0.156-0.125 0.344-0.125 0.219 0 0.375 0.125 2.594 2.375 2.594 2.875 0 0.125-0.125 0.344-0.219 0.281-0.75 0.969-0.531 0.656-0.813 1.063 0.406 0.844 0.594 1.469l2.719 0.406q0.188 0.031 0.313 0.188t0.125 0.344v0zM35.438 23.906v2.5q0 0.281-2.656 0.531-0.219 0.5-0.563 0.938 0.938 2.031 0.938 2.469 0 0.063-0.094 0.125-2.156 1.25-2.219 1.25-0.125 0-0.813-0.813-0.688-0.844-0.938-1.219-0.344 0.031-0.531 0.031-0.156 0-0.531-0.031-0.25 0.375-0.938 1.219-0.656 0.813-0.813 0.813-0.031 0-2.219-1.25-0.063-0.063-0.063-0.125 0-0.438 0.906-2.469-0.313-0.438-0.531-0.938-2.656-0.25-2.656-0.531v-2.5q0-0.313 2.656-0.563 0.219-0.531 0.531-0.938-0.906-2-0.906-2.469 0-0.063 0.063-0.125 0.094-0.031 0.625-0.344 0.563-0.313 1.063-0.625 0.5-0.281 0.531-0.281 0.156 0 0.813 0.844 0.688 0.813 0.938 1.188 0.375-0.031 0.531-0.031 0.188 0 0.531 0.031 0.938-1.25 1.656-2l0.094-0.031q0.094 0 2.219 1.25 0.094 0.063 0.094 0.125 0 0.469-0.938 2.469 0.313 0.406 0.563 0.938 2.656 0.25 2.656 0.563v0zM35.438 5.594v2.5q0 0.313-2.656 0.563-0.219 0.5-0.563 0.938 0.938 2 0.938 2.469 0 0.063-0.094 0.125-2.156 1.25-2.219 1.25-0.125 0-0.813-0.844-0.688-0.813-0.938-1.188-0.344 0.031-0.531 0.031-0.156 0-0.531-0.031-0.25 0.375-0.938 1.188-0.656 0.844-0.813 0.844-0.031 0-2.219-1.25-0.063-0.063-0.063-0.125 0-0.469 0.906-2.469-0.313-0.438-0.531-0.938-2.656-0.25-2.656-0.563v-2.5q0-0.281 2.656-0.531 0.219-0.531 0.531-0.938-0.906-2.031-0.906-2.469 0-0.063 0.063-0.125 0.094-0.031 0.625-0.344 0.563-0.344 1.063-0.625t0.531-0.281q0.156 0 0.813 0.844 0.688 0.813 0.938 1.188 0.375-0.031 0.531-0.031 0.188 0 0.531 0.031 0.938-1.25 1.656-2l0.094-0.031q0.094 0 2.219 1.25 0.094 0.063 0.094 0.125 0 0.438-0.938 2.469 0.313 0.406 0.563 0.938 2.656 0.25 2.656 0.531v0z"></path>
</svg>
