<!-- Generated by IcoMoon.io -->
<svg version="1.1" xmlns="http://www.w3.org/2000/svg" width="32" height="32" viewBox="0 0 32 32">
<title>columns</title>
<path d="M4 27.438h10.844v-20.594h-11.406v20q0 0.25 0.156 0.406 0.188 0.188 0.406 0.188v0zM28.563 26.844v-20h-11.406v20.594h10.844q0.219 0 0.406-0.188 0.156-0.156 0.156-0.406v0zM30.844 5.156v21.688q0 1.188-0.813 2.031-0.844 0.844-2.031 0.844h-24q-1.188 0-2.031-0.844-0.813-0.844-0.813-2.031v-21.688q0-1.188 0.813-2.031 0.844-0.844 2.031-0.844h24q1.188 0 2.031 0.844 0.813 0.844 0.813 2.031z"></path>
</svg>
