<!-- Generated by IcoMoon.io -->
<svg version="1.1" xmlns="http://www.w3.org/2000/svg" width="32" height="32" viewBox="0 0 32 32">
<title>comment</title>
<path d="M32 16q0 3.094-2.156 5.75-2.125 2.625-5.813 4.156t-8.031 1.531q-1.25 0-2.594-0.156-3.531 3.125-8.219 4.313-0.875 0.25-2.031 0.406-0.313 0.031-0.531-0.156-0.25-0.188-0.313-0.531v0q-0.063-0.094-0.031-0.219 0.063-0.156 0.063-0.188-0.031-0.031 0.063-0.156l0.375-0.469q0.125-0.156 0.563-0.625t0.625-0.688q0.188-0.188 0.531-0.688 0.375-0.5 0.594-0.938 0.219-0.406 0.469-1.031 0.281-0.656 0.469-1.375-2.813-1.594-4.406-3.906-1.625-2.344-1.625-5.031 0-2.313 1.281-4.438 1.25-2.125 3.406-3.656 2.125-1.531 5.094-2.438t6.219-0.906q4.344 0 8.031 1.531t5.813 4.156q2.156 2.656 2.156 5.75v0z"></path>
</svg>
