<!-- Generated by IcoMoon.io -->
<svg version="1.1" xmlns="http://www.w3.org/2000/svg" width="32" height="32" viewBox="0 0 32 32">
<title>comments-o</title>
<path d="M12.563 6.844q-2.719 0-5.094 0.938t-3.781 2.531-1.406 3.406q0 1.469 0.938 2.813 0.969 1.375 2.688 2.375l1.719 1-0.625 1.5q0.594-0.375 1.094-0.719l0.813-0.531 0.938 0.156q1.375 0.25 2.719 0.25 2.75 0 5.125-0.906 2.375-0.938 3.781-2.531 1.375-1.594 1.375-3.406t-1.375-3.406q-1.406-1.594-3.781-2.531t-5.125-0.938v0zM12.563 4.563q3.406 0 6.313 1.219 2.906 1.25 4.594 3.344t1.688 4.594q0 2.469-1.688 4.594-1.688 2.094-4.594 3.313t-6.313 1.219q-1.531 0-3.125-0.281-2.219 1.594-4.969 2.281-0.656 0.188-1.531 0.313h-0.063q-0.188 0-0.375-0.156-0.156-0.156-0.188-0.375-0.031-0.063-0.031-0.125v-0.094l0.063-0.125 0.031-0.094 0.125-0.188 0.156-0.156q0.094-0.125 0.406-0.438 0.344-0.344 0.469-0.531 0.156-0.188 0.406-0.531 0.25-0.313 0.438-0.688 0.188-0.344 0.375-0.781-2.219-1.281-3.469-3.156-1.281-1.875-1.281-4 0-2.5 1.688-4.594 1.656-2.094 4.563-3.344 2.906-1.219 6.313-1.219v0zM27.25 25.438q0.188 0.438 0.375 0.781 0.188 0.375 0.438 0.688 0.25 0.344 0.406 0.531 0.125 0.188 0.469 0.531 0.313 0.344 0.406 0.438 0 0.031 0.063 0.094l0.094 0.094q0.031 0 0.063 0.063l0.156 0.313v0.125l-0.031 0.094q-0.031 0.25-0.219 0.406-0.188 0.125-0.406 0.125-0.875-0.125-1.531-0.281-2.75-0.719-4.969-2.281-1.594 0.281-3.125 0.281-4.844 0-8.438-2.375 1.031 0.094 1.563 0.094 2.875 0 5.531-0.813 2.625-0.813 4.719-2.313 2.219-1.625 3.406-3.781 1.219-2.156 1.219-4.531 0-1.375-0.406-2.719 2.281 1.281 3.625 3.188t1.344 4.094q0 2.156-1.281 4-1.25 1.875-3.469 3.156v0z"></path>
</svg>
