<!-- Generated by IcoMoon.io -->
<svg version="1.1" xmlns="http://www.w3.org/2000/svg" width="32" height="32" viewBox="0 0 32 32">
<title>comments</title>
<path d="M25.156 13.719q0 2.469-1.688 4.594-1.688 2.094-4.594 3.313t-6.313 1.219q-1.531 0-3.125-0.281-2.219 1.594-4.969 2.281-0.656 0.188-1.531 0.313h-0.063q-0.188 0-0.375-0.156-0.156-0.156-0.188-0.375-0.031-0.063-0.031-0.125v-0.094l0.063-0.125 0.031-0.094 0.125-0.188 0.156-0.156q0.094-0.125 0.406-0.438 0.344-0.344 0.469-0.531 0.156-0.188 0.406-0.531 0.25-0.313 0.438-0.688 0.188-0.344 0.375-0.781-2.219-1.281-3.469-3.156-1.281-1.875-1.281-4 0-2.5 1.688-4.594 1.656-2.094 4.563-3.344 2.906-1.219 6.313-1.219t6.313 1.219q2.906 1.25 4.594 3.344t1.688 4.594v0zM32 18.281q0 2.156-1.281 4-1.25 1.875-3.469 3.156 0.188 0.438 0.375 0.781 0.188 0.375 0.438 0.688 0.25 0.344 0.406 0.531 0.125 0.188 0.469 0.531 0.313 0.344 0.406 0.438 0 0.031 0.063 0.094l0.094 0.094q0.031 0 0.063 0.063l0.156 0.313v0.125l-0.031 0.094q-0.031 0.25-0.219 0.406-0.188 0.125-0.406 0.125-0.875-0.125-1.531-0.281-2.75-0.719-4.969-2.281-1.594 0.281-3.125 0.281-4.844 0-8.438-2.375 1.031 0.094 1.563 0.094 2.875 0 5.531-0.813 2.625-0.813 4.719-2.313 2.219-1.625 3.406-3.781 1.219-2.156 1.219-4.531 0-1.375-0.406-2.719 2.281 1.281 3.625 3.188t1.344 4.094v0z"></path>
</svg>
