<!-- Generated by IcoMoon.io -->
<svg version="1.1" xmlns="http://www.w3.org/2000/svg" width="32" height="32" viewBox="0 0 32 32">
<title>commenting-o</title>
<path d="M11.438 16q0 0.938-0.688 1.625-0.656 0.656-1.594 0.656-0.969 0-1.625-0.656-0.688-0.688-0.688-1.625t0.688-1.625q0.656-0.656 1.625-0.656 0.938 0 1.594 0.656 0.688 0.688 0.688 1.625v0zM18.281 16q0 0.938-0.656 1.625-0.688 0.656-1.625 0.656t-1.625-0.656q-0.656-0.688-0.656-1.625t0.656-1.625q0.688-0.656 1.625-0.656t1.625 0.656q0.656 0.688 0.656 1.625v0zM25.156 16q0 0.938-0.688 1.625-0.656 0.656-1.625 0.656-0.938 0-1.594-0.656-0.688-0.688-0.688-1.625t0.688-1.625q0.656-0.656 1.594-0.656 0.969 0 1.625 0.656 0.688 0.688 0.688 1.625v0zM16 6.844q-3.656 0-6.813 1.25t-5.031 3.344q-1.875 2.125-1.875 4.563 0 2 1.281 3.813t3.594 3.125l1.563 0.906-0.5 1.719q-0.406 1.625-1.25 3.063 2.719-1.125 4.938-3.063l0.75-0.656 1.031 0.094q1.219 0.156 2.313 0.156 3.656 0 6.813-1.25t5.031-3.344q1.875-2.125 1.875-4.563t-1.875-4.563q-1.875-2.094-5.031-3.344t-6.813-1.25v0zM32 16q0 3.094-2.156 5.75-2.125 2.625-5.813 4.156t-8.031 1.531q-1.25 0-2.594-0.156-3.531 3.125-8.219 4.313-0.875 0.25-2.031 0.406h-0.094q-0.25 0-0.469-0.188t-0.281-0.5v0q-0.063-0.094-0.031-0.219 0.063-0.156 0.063-0.188-0.031-0.031 0.063-0.156l0.375-0.469q0.125-0.156 0.563-0.625t0.625-0.688q0.188-0.188 0.531-0.688 0.375-0.5 0.594-0.938 0.219-0.406 0.469-1.031 0.281-0.656 0.469-1.375-2.813-1.594-4.406-3.906-1.625-2.344-1.625-5.031 0-2.313 1.281-4.438 1.25-2.125 3.406-3.656 2.125-1.531 5.094-2.438t6.219-0.906 6.219 0.906 5.094 2.438q2.156 1.531 3.406 3.656 1.281 2.125 1.281 4.438v0z"></path>
</svg>
