<!-- Generated by IcoMoon.io -->
<svg version="1.1" xmlns="http://www.w3.org/2000/svg" width="32" height="32" viewBox="0 0 32 32">
<title>commenting</title>
<path d="M11.438 16q0-0.938-0.688-1.625-0.656-0.656-1.594-0.656-0.969 0-1.625 0.656-0.688 0.688-0.688 1.625t0.688 1.625q0.656 0.656 1.625 0.656 0.938 0 1.594-0.656 0.688-0.688 0.688-1.625v0zM18.281 16q0-0.938-0.656-1.625-0.688-0.656-1.625-0.656t-1.625 0.656q-0.656 0.688-0.656 1.625t0.656 1.625q0.688 0.656 1.625 0.656t1.625-0.656q0.656-0.688 0.656-1.625v0zM25.156 16q0-0.938-0.688-1.625-0.656-0.656-1.625-0.656-0.938 0-1.594 0.656-0.688 0.688-0.688 1.625t0.688 1.625q0.656 0.656 1.594 0.656 0.969 0 1.625-0.656 0.688-0.688 0.688-1.625v0zM32 16q0 3.094-2.156 5.75-2.125 2.625-5.813 4.156t-8.031 1.531q-1.969 0-3.781-0.344-3.063 3.094-7.75 4.094-0.938 0.188-1.531 0.25-0.219 0-0.406-0.125t-0.219-0.313q-0.094-0.281 0.344-0.656 0.094-0.094 0.438-0.375l0.875-0.875q0.281-0.344 0.406-0.563 0.156-0.25 0.375-0.688 0.219-0.406 0.344-0.844t0.281-1.031q0.125-0.594 0.219-1.281-2.625-1.625-4.094-3.875-1.5-2.25-1.5-4.813 0-3.094 2.156-5.75 2.125-2.625 5.813-4.156t8.031-1.531 8.031 1.531 5.813 4.156q2.156 2.656 2.156 5.75v0z"></path>
</svg>
