<!-- Generated by IcoMoon.io -->
<svg version="1.1" xmlns="http://www.w3.org/2000/svg" width="32" height="32" viewBox="0 0 32 32">
<title>compress</title>
<path d="M16 17.156v8q0 0.438-0.344 0.781t-0.813 0.344q-0.438 0-0.781-0.344l-2.594-2.563-5.906 5.938q-0.188 0.156-0.406 0.156-0.25 0-0.438-0.156l-2.031-2.031q-0.156-0.188-0.156-0.438 0-0.219 0.156-0.406l5.938-5.906-2.563-2.594q-0.344-0.344-0.344-0.781 0-0.469 0.344-0.813t0.781-0.344h8q0.469 0 0.813 0.344t0.344 0.813v0zM29.469 5.156q0 0.219-0.156 0.406l-5.938 5.906 2.563 2.594q0.344 0.344 0.344 0.781 0 0.469-0.344 0.813t-0.781 0.344h-8q-0.469 0-0.813-0.344t-0.344-0.813v-8q0-0.438 0.344-0.781t0.813-0.344q0.438 0 0.781 0.344l2.594 2.563 5.906-5.938q0.188-0.156 0.406-0.156 0.25 0 0.438 0.156l2.031 2.031q0.156 0.188 0.156 0.438v0z"></path>
</svg>
