<!-- Generated by IcoMoon.io -->
<svg version="1.1" xmlns="http://www.w3.org/2000/svg" width="32" height="32" viewBox="0 0 32 32">
<title>copyright</title>
<path d="M22.813 19.188v1.938q0 0.906-0.656 1.594-0.625 0.688-1.656 1.063-1.031 0.406-2.125 0.594-1.063 0.188-2.094 0.188-3.656 0-6.125-2.469-2.438-2.5-2.438-6.188 0-3.625 2.438-6.063 2.406-2.406 6.031-2.406 0.625 0 1.344 0.063 0.75 0.094 1.688 0.344 0.906 0.219 1.625 0.594 0.75 0.375 1.25 1 0.5 0.656 0.5 1.469v1.938q0 0.281-0.281 0.281h-2.125q-0.281 0-0.281-0.281v-1.25q0-0.781-1.156-1.219-1.188-0.438-2.469-0.438-2.5 0-4.063 1.656-1.594 1.625-1.594 4.219 0 2.719 1.625 4.469 1.656 1.75 4.188 1.75 1.219 0 2.469-0.438 1.25-0.406 1.25-1.156v-1.25q0-0.125 0.063-0.219 0.094-0.063 0.188-0.063h2.125q0.125 0 0.188 0.063 0.094 0.094 0.094 0.219v0zM16 4.563q-2.313 0-4.438 0.906-2.125 0.938-3.656 2.438-1.5 1.531-2.438 3.656-0.906 2.125-0.906 4.438t0.906 4.438q0.938 2.125 2.438 3.656 1.531 1.5 3.656 2.438 2.125 0.906 4.438 0.906t4.438-0.906q2.125-0.938 3.656-2.438 1.5-1.531 2.438-3.656 0.906-2.125 0.906-4.438t-0.906-4.438q-0.938-2.125-2.438-3.656-1.531-1.5-3.656-2.438-2.125-0.906-4.438-0.906zM29.719 16q0 3.719-1.844 6.875t-5 5-6.875 1.844-6.875-1.844-5-5-1.844-6.875 1.844-6.875 5-5 6.875-1.844 6.875 1.844 5 5 1.844 6.875z"></path>
</svg>
