<!-- Generated by IcoMoon.io -->
<svg version="1.1" xmlns="http://www.w3.org/2000/svg" width="37" height="32" viewBox="0 0 37 32">
<title>credit-card</title>
<path d="M32.563 2.281q1.188 0 2.031 0.844t0.844 2.031v21.688q0 1.188-0.844 2.031t-2.031 0.844h-28.563q-1.188 0-2.031-0.844-0.813-0.844-0.813-2.031v-21.688q0-1.188 0.813-2.031 0.844-0.844 2.031-0.844h28.563zM4 4.563q-0.219 0-0.406 0.188-0.156 0.156-0.156 0.406v4h29.719v-4q0-0.25-0.188-0.406-0.156-0.188-0.406-0.188h-28.563zM32.563 27.438q0.25 0 0.406-0.188 0.188-0.156 0.188-0.406v-10.844h-29.719v10.844q0 0.25 0.156 0.406 0.188 0.188 0.406 0.188h28.563zM5.719 25.156v-2.313h4.563v2.313h-4.563zM12.563 25.156v-2.313h6.875v2.313h-6.875z"></path>
</svg>
