<!-- Generated by IcoMoon.io -->
<svg version="1.1" xmlns="http://www.w3.org/2000/svg" width="32" height="32" viewBox="0 0 32 32">
<title>crop</title>
<path d="M11.094 22.844h10.625v-10.625zM10.281 22.063l10.625-10.625h-10.625v10.625zM30.844 23.438v3.406q0 0.25-0.156 0.438-0.156 0.156-0.406 0.156h-4v4q0 0.25-0.156 0.406t-0.406 0.156h-3.438q-0.25 0-0.406-0.156t-0.156-0.406v-4h-15.438q-0.25 0-0.406-0.156-0.156-0.188-0.156-0.438v-15.406h-4q-0.25 0-0.406-0.156-0.156-0.188-0.156-0.438v-3.406q0-0.25 0.156-0.406 0.156-0.188 0.406-0.188h4v-4q0-0.25 0.156-0.406t0.406-0.156h3.438q0.25 0 0.406 0.156t0.156 0.406v4h15.188l4.406-4.406q0.188-0.156 0.406-0.156 0.25 0 0.406 0.156 0.156 0.188 0.156 0.406 0 0.25-0.156 0.438l-4.406 4.375v15.188h4q0.25 0 0.406 0.188 0.156 0.156 0.156 0.406v0z"></path>
</svg>
