<!-- Generated by IcoMoon.io -->
<svg version="1.1" xmlns="http://www.w3.org/2000/svg" width="32" height="32" viewBox="0 0 32 32">
<title>cross</title>
<path d="M29.5 10h-9q-0.625 0-1.063 0.438t-0.438 1.063 0.438 1.063 1.063 0.438v0h7.5v6h-7.5q-0.625 0-1.063 0.438t-0.438 1.063v0 7.5h-6v-7.5q0-0.625-0.438-1.063t-1.063-0.438v0h-7.5v-6h7.5q0.625 0 1.063-0.438t0.438-1.063v0-7.5h6v1.5q0 0.625 0.438 1.063t1.063 0.438 1.063-0.438 0.438-1.063v0-3q0-0.625-0.438-1.063t-1.063-0.438v0h-9q-0.625 0-1.063 0.438t-0.438 1.063v0 7.5h-7.5q-0.625 0-1.063 0.438t-0.438 1.063v0 9q0 0.625 0.438 1.063t1.063 0.438v0h7.5v7.5q0 0.625 0.438 1.063t1.063 0.438v0h9q0.625 0 1.063-0.438t0.438-1.063v0-7.5h7.5q0.625 0 1.063-0.438t0.438-1.063v0-9q0-0.625-0.438-1.063t-1.063-0.438v0 0z"></path>
</svg>
