<!-- Generated by IcoMoon.io -->
<svg version="1.1" xmlns="http://www.w3.org/2000/svg" width="32" height="32" viewBox="0 0 32 32">
<title>cube</title>
<path d="M16 29.094l11.438-6.25v-11.344l-11.438 4.156v13.438zM14.844 13.656l12.469-4.563-12.469-4.531-12.438 4.531zM29.719 9.156v13.688q0 0.625-0.313 1.188-0.344 0.531-0.875 0.813l-12.594 6.875q-0.5 0.281-1.094 0.281-0.563 0-1.063-0.281l-12.594-6.875q-0.531-0.281-0.875-0.813-0.313-0.563-0.313-1.188v-13.688q0-0.719 0.406-1.313t1.094-0.844l12.563-4.563q0.406-0.156 0.781-0.156 0.406 0 0.813 0.156l12.563 4.563q0.688 0.25 1.094 0.844t0.406 1.313v0z"></path>
</svg>
