<!-- Generated by IcoMoon.io -->
<svg version="1.1" xmlns="http://www.w3.org/2000/svg" width="41" height="32" viewBox="0 0 41 32">
<title>cubes</title>
<path d="M11.438 29.156l6.844-3.438v-5.625l-6.844 2.938v6.125zM10.281 21.031l7.219-3.094-7.219-3.094-7.219 3.094zM29.719 29.156l6.844-3.438v-5.625l-6.844 2.938v6.125zM28.563 21.031l7.219-3.094-7.219-3.094-7.219 3.094zM20.563 15.813l6.875-2.969v-4.75l-6.875 2.938v4.781zM19.438 9.031l7.875-3.375-7.875-3.375-7.875 3.375zM38.844 18.281v7.438q0 0.625-0.313 1.188-0.344 0.563-0.938 0.844l-8 4q-0.438 0.25-1.031 0.25-0.563 0-1-0.25l-8-4q-0.094-0.031-0.125-0.063-0.031 0.031-0.125 0.063l-8 4q-0.469 0.25-1.031 0.25t-1-0.25l-8-4q-0.594-0.281-0.938-0.844t-0.344-1.188v-7.438q0-0.688 0.375-1.25 0.406-0.563 1.031-0.844l7.75-3.344v-7.125q0-0.688 0.375-1.25t1-0.875l8-3.406q0.406-0.188 0.906-0.188 0.469 0 0.875 0.188l8 3.406q0.625 0.313 1.031 0.875 0.375 0.563 0.375 1.25v7.125l7.75 3.344q0.625 0.281 1 0.844t0.375 1.25v0z"></path>
</svg>
