<!-- Generated by IcoMoon.io -->
<svg version="1.1" xmlns="http://www.w3.org/2000/svg" width="32" height="32" viewBox="0 0 32 32">
<title>dedent</title>
<path d="M6.844 9.719v10.281q0 0.219-0.156 0.406-0.156 0.156-0.406 0.156t-0.406-0.156l-5.156-5.125q-0.156-0.188-0.156-0.438t0.156-0.406l5.156-5.125q0.156-0.156 0.406-0.156t0.406 0.156 0.156 0.406v0zM32 23.438v3.406q0 0.25-0.156 0.406-0.188 0.188-0.406 0.188h-30.875q-0.219 0-0.406-0.188-0.156-0.156-0.156-0.406v-3.406q0-0.25 0.156-0.406 0.188-0.188 0.406-0.188h30.875q0.219 0 0.406 0.188 0.156 0.156 0.156 0.406v0zM32 16.563v3.438q0 0.219-0.156 0.406-0.188 0.156-0.406 0.156h-19.438q-0.219 0-0.406-0.156-0.156-0.188-0.156-0.406v-3.438q0-0.219 0.156-0.406 0.188-0.156 0.406-0.156h19.438q0.219 0 0.406 0.156 0.156 0.188 0.156 0.406v0zM32 9.719v3.438q0 0.219-0.156 0.375-0.188 0.188-0.406 0.188h-19.438q-0.219 0-0.406-0.188-0.156-0.156-0.156-0.375v-3.438q0-0.25 0.156-0.406 0.188-0.156 0.406-0.156h19.438q0.219 0 0.406 0.156 0.156 0.156 0.156 0.406zM32 2.844v3.438q0 0.25-0.156 0.406-0.188 0.156-0.406 0.156h-30.875q-0.219 0-0.406-0.156-0.156-0.156-0.156-0.406v-3.438q0-0.219 0.156-0.375 0.188-0.188 0.406-0.188h30.875q0.219 0 0.406 0.188 0.156 0.156 0.156 0.375z"></path>
</svg>
