<!-- Generated by IcoMoon.io -->
<svg version="1.1" xmlns="http://www.w3.org/2000/svg" width="32" height="32" viewBox="0 0 32 32">
<title>dollar</title>
<path d="M24.313 21.156q0 2.75-1.781 4.719-1.75 1.969-4.594 2.438v3.125q0 0.25-0.156 0.406-0.188 0.156-0.438 0.156h-2.406q-0.219 0-0.406-0.156-0.156-0.188-0.156-0.406v-3.125q-1.188-0.156-2.281-0.563t-1.813-0.781q-0.719-0.406-1.313-0.875-0.625-0.438-0.844-0.656t-0.313-0.344q-0.281-0.375-0.031-0.719l1.844-2.406q0.125-0.188 0.406-0.219t0.438 0.156l0.031 0.031q2.031 1.781 4.344 2.25 0.656 0.125 1.313 0.125 1.438 0 2.563-0.75 1.094-0.781 1.094-2.188 0-0.5-0.281-0.938-0.25-0.469-0.594-0.75-0.344-0.313-1.031-0.688-0.719-0.344-1.188-0.563t-1.438-0.594q-0.688-0.281-1.094-0.438t-1.094-0.469-1.125-0.563q-0.406-0.219-1-0.625t-0.969-0.75q-0.344-0.375-0.781-0.875-0.406-0.531-0.625-1.031-0.219-0.531-0.375-1.188-0.156-0.688-0.156-1.406 0-2.469 1.75-4.313 1.75-1.875 4.563-2.406v-3.219q0-0.219 0.156-0.406 0.188-0.156 0.406-0.156h2.406q0.25 0 0.438 0.156 0.156 0.156 0.156 0.406v3.156q1 0.094 1.969 0.406 0.938 0.313 1.563 0.594 0.594 0.313 1.125 0.688t0.688 0.5q0.156 0.156 0.281 0.25 0.281 0.313 0.094 0.688l-1.469 2.594q-0.125 0.281-0.406 0.281-0.25 0.063-0.469-0.125-0.063-0.031-0.281-0.188-0.188-0.188-0.688-0.5t-1.031-0.563q-0.563-0.25-1.344-0.469-0.781-0.188-1.531-0.188-1.688 0-2.75 0.75-1.094 0.781-1.094 2 0 0.469 0.156 0.844 0.156 0.406 0.531 0.75t0.719 0.594q0.313 0.219 1 0.531 0.656 0.313 1.063 0.5 0.406 0.156 1.25 0.5 0.969 0.344 1.469 0.563 0.5 0.188 1.344 0.625 0.844 0.406 1.344 0.75t1.125 0.875q0.594 0.563 0.938 1.156 0.313 0.563 0.563 1.344 0.219 0.813 0.219 1.688v0z"></path>
</svg>
