<!-- Generated by IcoMoon.io -->
<svg version="1.1" xmlns="http://www.w3.org/2000/svg" width="32" height="32" viewBox="0 0 32 32">
<title>download</title>
<path d="M24 24q0-0.469-0.344-0.813t-0.813-0.344q-0.438 0-0.781 0.344t-0.344 0.813 0.344 0.813 0.781 0.344q0.469 0 0.813-0.344t0.344-0.813zM28.563 24q0-0.469-0.344-0.813-0.313-0.344-0.781-0.344t-0.813 0.344-0.344 0.813 0.344 0.813 0.813 0.344 0.781-0.344q0.344-0.344 0.344-0.813v0zM30.844 20v5.719q0 0.719-0.5 1.219t-1.188 0.5h-26.313q-0.688 0-1.188-0.5t-0.5-1.219v-5.719q0-0.719 0.5-1.219t1.188-0.5h8.313l2.406 2.438q1.031 1 2.438 1t2.438-1l2.406-2.438h8.313q0.688 0 1.188 0.5t0.5 1.219v0zM25.063 9.844q0.281 0.719-0.25 1.25l-8 8q-0.344 0.344-0.813 0.344t-0.813-0.344l-8-8q-0.531-0.531-0.25-1.25 0.313-0.688 1.063-0.688h4.563v-8q0-0.469 0.344-0.813t0.813-0.344h4.563q0.469 0 0.813 0.344t0.344 0.813v8h4.563q0.75 0 1.063 0.688v0z"></path>
</svg>
