<!-- Generated by IcoMoon.io -->
<svg version="1.1" xmlns="http://www.w3.org/2000/svg" width="37" height="32" viewBox="0 0 37 32">
<title>drivers-license</title>
<path d="M16 21.656q0-0.969-0.125-1.813-0.156-0.813-0.438-1.594-0.313-0.781-0.906-1.219-0.625-0.469-1.469-0.469-1.125 1.156-2.781 1.156-1.625 0-2.781-1.156-0.844 0-1.438 0.469-0.625 0.438-0.906 1.219-0.313 0.781-0.438 1.594-0.156 0.844-0.156 1.813t0.563 1.656 1.344 0.688h7.625q0.781 0 1.344-0.688t0.563-1.656v0zM13.719 13.719q0-1.438-1-2.438t-2.438-1-2.438 1-1 2.438 1 2.438 2.438 1 2.438-1 1-2.438zM32 22.281v-1.125q0-0.25-0.156-0.438-0.156-0.156-0.406-0.156h-12.594q-0.25 0-0.406 0.156-0.156 0.188-0.156 0.438v1.125q0 0.25 0.156 0.406t0.406 0.156h12.594q0.25 0 0.406-0.156t0.156-0.406zM25.156 17.719v-1.156q0-0.25-0.188-0.406-0.156-0.156-0.406-0.156h-5.719q-0.25 0-0.406 0.156t-0.156 0.406v1.156q0 0.25 0.156 0.406t0.406 0.156h5.719q0.25 0 0.406-0.156 0.188-0.156 0.188-0.406zM32 17.719v-1.156q0-0.25-0.156-0.406t-0.406-0.156h-3.438q-0.25 0-0.406 0.156t-0.156 0.406v1.156q0 0.25 0.156 0.406t0.406 0.156h3.438q0.25 0 0.406-0.156t0.156-0.406zM32 13.156v-1.156q0-0.25-0.156-0.406t-0.406-0.156h-12.594q-0.25 0-0.406 0.156t-0.156 0.406v1.156q0 0.25 0.156 0.406t0.406 0.156h12.594q0.25 0 0.406-0.156t0.156-0.406zM2.281 6.844h32v-1.688q0-0.25-0.156-0.438-0.156-0.156-0.406-0.156h-30.875q-0.25 0-0.406 0.156-0.156 0.188-0.156 0.438v1.688zM36.563 5.156v21.688q0 1.188-0.844 2.031-0.813 0.844-2 0.844h-30.875q-1.156 0-2-0.844t-0.844-2.031v-21.688q0-1.188 0.844-2.031t2-0.844h30.875q1.188 0 2 0.844 0.844 0.844 0.844 2.031z"></path>
</svg>
