<!-- Generated by IcoMoon.io -->
<svg version="1.1" xmlns="http://www.w3.org/2000/svg" width="32" height="32" viewBox="0 0 32 32">
<title>drop</title>
<path d="M25.094 19.031q-0.625 0-1.078 0.438t-0.453 1.094v0q0 1.563-0.594 2.938t-1.625 2.406-2.406 1.625-2.938 0.594-2.938-0.594-2.406-1.625-1.625-2.406-0.594-2.938q0-2.219 0.844-4.563 0.875-2.344 2.078-4.5t2.484-3.969q1.313-1.781 2.188-2.875 0.469 0.563 0.938 1.156t0.906 1.219l0.094 0.125-6.25 9.781h6.688l-2.781 3.969q-0.25 0.344-0.391 0.797t-0.141 0.922q0 0.781 0.344 1.422t0.938 1.078v0l7.844-11.219h-6.969l3.813-6q0.031-0.063 0.078-0.125t0.047-0.125l0.031-0.031q0.125-0.344 0.078-0.703t-0.266-0.672q-1.531-2.25-2.719-3.563t-1.219-1.375q-0.219-0.219-0.531-0.344t-0.594-0.125q-0.313 0-0.594 0.141t-0.5 0.359v0q-0.156 0.156-1.656 1.969-1.5 1.781-3.234 4.531t-3.172 6.094q-1.406 3.375-1.406 6.625 0 2.188 0.813 4.125 0.844 1.906 2.281 3.359t3.375 2.266q1.938 0.844 4.125 0.844t4.125-0.844q1.938-0.813 3.375-2.266t2.281-3.359q0.813-1.938 0.813-4.125 0-0.656-0.438-1.094t-1.063-0.438v0 0z"></path>
</svg>
