<!-- Generated by IcoMoon.io -->
<svg version="1.1" xmlns="http://www.w3.org/2000/svg" width="29" height="32" viewBox="0 0 29 32">
<title>e-catalog</title>
<path d="M-0.001-0.001v27.17l13.589 4.137v0.694l1.128-0.343 1.137 0.343v-0.694l13.581-4.137v-27.17l-1.463 0.443-13.255 4.045zM2.264 3.058l11.324 3.452v22.44l-11.324-3.452zM27.169 3.058v22.439l-11.316 3.452v-22.44zM4.888 7.981l-0.719 2.148 6.795 2.265 0.719-2.148zM24.553 7.981l-6.795 2.265 0.71 2.148 6.795-2.265zM4.888 13.647l-0.719 2.148 6.795 2.265 0.719-2.148zM24.553 13.647l-6.795 2.265 0.71 2.148 6.795-2.265zM4.888 19.305l-0.719 2.148 6.795 2.265 0.719-2.148zM24.553 19.305l-6.795 2.265 0.71 2.148 6.795-2.265z"></path>
</svg>
