<!-- Generated by IcoMoon.io -->
<svg version="1.1" xmlns="http://www.w3.org/2000/svg" width="32" height="32" viewBox="0 0 32 32">
<title>ellipsis-v</title>
<path d="M19.438 22.281v3.438q0 0.719-0.5 1.219t-1.219 0.5h-3.438q-0.719 0-1.219-0.5t-0.5-1.219v-3.438q0-0.719 0.5-1.219t1.219-0.5h3.438q0.719 0 1.219 0.5t0.5 1.219v0zM19.438 13.156v3.406q0 0.719-0.5 1.219t-1.219 0.5h-3.438q-0.719 0-1.219-0.5t-0.5-1.219v-3.406q0-0.719 0.5-1.219t1.219-0.5h3.438q0.719 0 1.219 0.5t0.5 1.219v0zM19.438 4v3.438q0 0.719-0.5 1.219t-1.219 0.5h-3.438q-0.719 0-1.219-0.5t-0.5-1.219v-3.438q0-0.719 0.5-1.219t1.219-0.5h3.438q0.719 0 1.219 0.5t0.5 1.219v0z"></path>
</svg>
