<!-- Generated by IcoMoon.io -->
<svg version="1.1" xmlns="http://www.w3.org/2000/svg" width="32" height="32" viewBox="0 0 32 32">
<title>envelope-open</title>
<path d="M32 11.688v17.469q0 1.156-0.844 2t-2 0.844h-26.313q-1.156 0-2-0.844t-0.844-2v-17.469q0-0.281 0.188-0.438 0.156-0.125 0.719-0.625 0.531-0.469 0.719-0.625t0.813-0.688q0.625-0.5 1.25-0.969 0.625-0.5 1.719-1.313 1.094-0.844 2.563-1.906 1.469-1.094 3.438-2.531 0.094-0.063 0.938-0.688 0.844-0.656 1.281-0.938 0.438-0.313 1.156-0.625 0.688-0.344 1.219-0.344t1.219 0.344q0.719 0.313 1.188 0.625 0.438 0.313 1.25 0.938t0.938 0.688q1.969 1.438 3.438 2.531 1.469 1.063 2.563 1.906 1.094 0.813 1.719 1.313 0.625 0.469 1.25 0.969 0.625 0.531 0.813 0.688t0.719 0.625q0.563 0.5 0.719 0.625 0.188 0.156 0.188 0.438v0zM21.938 22.125q4.688-3.406 6.156-4.5 0.188-0.156 0.219-0.375t-0.125-0.406l-0.656-0.938q-0.156-0.188-0.375-0.219-0.25-0.031-0.438 0.125-4.125 3-6.125 4.469-0.094 0.031-0.938 0.688-0.844 0.625-1.281 0.938-0.438 0.281-1.156 0.625-0.688 0.313-1.219 0.313t-1.219-0.313q-0.719-0.344-1.156-0.625-0.438-0.313-1.281-0.938-0.844-0.656-0.938-0.688-3.313-2.406-6.125-4.469-0.188-0.156-0.438-0.125-0.219 0.031-0.375 0.219l-0.656 0.938q-0.156 0.188-0.125 0.406t0.219 0.375q1.469 1.094 6.156 4.5 0.188 0.156 0.906 0.688t1.156 0.844q0.438 0.281 1.156 0.688 0.688 0.406 1.375 0.594 0.688 0.219 1.344 0.219t1.344-0.219q0.688-0.188 1.406-0.594 0.719-0.438 1.156-0.719t1.156-0.844l0.875-0.656z"></path>
</svg>
