<!-- Generated by IcoMoon.io -->
<svg version="1.1" xmlns="http://www.w3.org/2000/svg" width="32" height="32" viewBox="0 0 32 32">
<title>envelope-open-o</title>
<path d="M26.313 16.313l0.719 0.906q0.125 0.188 0.094 0.406t-0.188 0.375q-0.781 0.594-2.281 1.75-1.469 1.156-2.594 2.031t-1.219 0.906q-0.688 0.594-1.063 0.875t-1.063 0.719q-0.719 0.438-1.375 0.656t-1.313 0.219h-0.063q-0.656 0-1.313-0.219t-1.344-0.656q-0.719-0.438-1.094-0.75-0.406-0.281-1.063-0.844-0.094-0.063-1.188-0.906-1.063-0.813-2.563-1.969-1.469-1.156-2.188-1.688-0.188-0.156-0.219-0.375t0.125-0.406l0.656-0.938q0.156-0.188 0.375-0.219 0.25-0.031 0.438 0.125 1.688 1.281 5.469 4.219 0.094 0.063 0.781 0.625 0.688 0.531 1.094 0.813 0.375 0.281 1 0.594 0.625 0.281 1.031 0.281h0.063q0.406 0 1.031-0.281 0.625-0.313 1-0.594 0.406-0.281 1.094-0.813 0.688-0.563 0.781-0.625 4.594-3.563 5.594-4.344 0.188-0.125 0.406-0.094 0.25 0 0.375 0.219v0zM29.719 29.156v-16.594q-1.625-1.469-2.844-2.469-1.625-1.313-6.938-5.438-0.063-0.031-0.781-0.625t-1.094-0.844q-0.375-0.281-1-0.594t-1.031-0.313h-0.063q-0.406 0-1.031 0.313t-1 0.594q-0.375 0.25-1.094 0.844t-0.781 0.625q-3.844 2.969-5.625 4.375-1.781 1.438-2.313 1.875t-1.469 1.313q-0.25 0.219-0.375 0.344v16.594q0 0.219 0.188 0.375 0.156 0.188 0.375 0.188h26.313q0.219 0 0.375-0.188 0.188-0.156 0.188-0.375v0zM32 12.563v16.594q0 1.156-0.844 2t-2 0.844h-26.313q-1.156 0-2-0.844t-0.844-2v-16.594q0-1 0.719-1.656 2.219-2.063 6.25-5.188 4.063-3.156 4.188-3.25 0.625-0.531 1.031-0.844t1.094-0.75 1.375-0.656q0.656-0.219 1.313-0.219h0.063q0.656 0 1.313 0.219 0.688 0.219 1.375 0.656t1.094 0.75 1.031 0.844q0.781 0.625 2.813 2.188 2 1.531 4.031 3.156 2 1.625 3.594 3.094 0.719 0.656 0.719 1.656v0z"></path>
</svg>
