<!-- Generated by IcoMoon.io -->
<svg version="1.1" xmlns="http://www.w3.org/2000/svg" width="32" height="32" viewBox="0 0 32 32">
<title>envelope</title>
<path d="M32 12.688v14.156q0 1.188-0.844 2.031t-2 0.844h-26.313q-1.156 0-2-0.844t-0.844-2.031v-14.156q0.781 0.875 1.813 1.531 6.469 4.406 8.875 6.188 1 0.75 1.656 1.156 0.625 0.406 1.688 0.844 1.031 0.438 1.938 0.438h0.063q0.906 0 1.938-0.438 1.063-0.438 1.688-0.844 0.656-0.406 1.656-1.156 3.031-2.219 8.906-6.188 1-0.688 1.781-1.531zM32 7.438q0 1.406-0.875 2.688t-2.188 2.188q-6.719 4.656-8.344 5.813-0.188 0.125-0.75 0.531-0.594 0.438-0.969 0.688-0.406 0.25-0.938 0.594-0.531 0.313-1.031 0.469-0.469 0.156-0.875 0.156h-0.063q-0.406 0-0.875-0.156-0.5-0.156-1.031-0.469-0.531-0.344-0.938-0.594-0.375-0.25-0.969-0.688-0.563-0.406-0.75-0.531-1.625-1.156-4.688-3.25-3.031-2.125-3.656-2.563-1.094-0.75-2.094-2.063-0.969-1.313-0.969-2.438 0-1.375 0.75-2.313 0.719-0.938 2.094-0.938h26.313q1.156 0 2 0.844t0.844 2.031v0z"></path>
</svg>
