<!-- Generated by IcoMoon.io -->
<svg version="1.1" xmlns="http://www.w3.org/2000/svg" width="24" height="32" viewBox="0 0 24 32">
<title>euro</title>
<path d="M24 1.719l-0.875 3.906q-2.563-2.125-5.813-2.125-4.406 0-6.938 2.531t-3.031 5.688h14.406l-0.563 2.844h-14.188l-0.031 0.813 0.031 1.969h13.594l-0.563 2.844h-12.594q0.813 4.281 3.5 6.281 2.656 2.031 6 2.031 3.969 0 6.188-2.094v4.375q-2.594 1.219-5.813 1.219-11.656 0-14.063-11.813h-3.25l0.625-2.844h2.188q-0.063-0.531-0.063-1.906v-0.875h-2.75l0.625-2.844h2.469q1.094-5.844 5.063-8.781 4-2.938 9.25-2.938 3.906 0 6.594 1.719z"></path>
</svg>
