<!-- Generated by IcoMoon.io -->
<svg version="1.1" xmlns="http://www.w3.org/2000/svg" width="32" height="32" viewBox="0 0 32 32">
<title>exclamation-triangle</title>
<path d="M18.281 24.563v-3.406q0-0.25-0.156-0.406-0.188-0.188-0.406-0.188h-3.438q-0.219 0-0.406 0.188-0.156 0.156-0.156 0.406v3.406q0 0.25 0.156 0.406 0.188 0.188 0.406 0.188h3.438q0.219 0 0.406-0.188 0.156-0.156 0.156-0.406v0zM18.25 17.875l0.313-8.188q0-0.219-0.156-0.344-0.25-0.188-0.438-0.188h-3.938q-0.188 0-0.438 0.188-0.156 0.125-0.156 0.375l0.281 8.156q0 0.188 0.188 0.281 0.188 0.125 0.438 0.125h3.313q0.25 0 0.406-0.125 0.156-0.094 0.188-0.281v0zM18 1.188l13.719 25.156q0.625 1.125-0.031 2.25-0.313 0.5-0.844 0.813t-1.125 0.313h-27.438q-0.594 0-1.125-0.313t-0.844-0.813q-0.656-1.125-0.031-2.25l13.719-25.156q0.313-0.531 0.844-0.875 0.531-0.313 1.156-0.313t1.156 0.313q0.531 0.344 0.844 0.875v0z"></path>
</svg>
