<!-- Generated by IcoMoon.io -->
<svg version="1.1" xmlns="http://www.w3.org/2000/svg" width="32" height="32" viewBox="0 0 32 32">
<title>exclamation-circle</title>
<path d="M16 2.281q3.719 0 6.875 1.844t5 5 1.844 6.875-1.844 6.875-5 5-6.875 1.844-6.875-1.844-5-5-1.844-6.875 1.844-6.875 5-5 6.875-1.844zM18.281 24.563v-3.406q0-0.25-0.156-0.406-0.156-0.188-0.406-0.188h-3.406q-0.25 0-0.406 0.188-0.188 0.188-0.188 0.406v3.406q0 0.219 0.188 0.406 0.156 0.188 0.406 0.188h3.406q0.25 0 0.406-0.188 0.156-0.156 0.156-0.406v0zM18.25 18.406l0.313-11.094q0-0.219-0.156-0.313-0.188-0.156-0.438-0.156h-3.938q-0.25 0-0.438 0.156-0.156 0.094-0.156 0.313l0.281 11.094q0 0.188 0.188 0.313t0.438 0.125h3.313q0.25 0 0.406-0.125t0.188-0.313v0z"></path>
</svg>
