<!-- Generated by IcoMoon.io -->
<svg version="1.1" xmlns="http://www.w3.org/2000/svg" width="32" height="32" viewBox="0 0 32 32">
<title>exclamation</title>
<path d="M19.438 22.281v4q0 0.469-0.344 0.813t-0.813 0.344h-4.563q-0.469 0-0.813-0.344t-0.344-0.813v-4q0-0.469 0.344-0.813 0.344-0.313 0.813-0.313h4.563q0.469 0 0.813 0.313 0.344 0.344 0.344 0.813v0zM19.969 3.438l-0.5 13.719q-0.031 0.438-0.375 0.781t-0.813 0.344h-4.563q-0.469 0-0.813-0.344t-0.375-0.781l-0.5-13.719q0-0.469 0.313-0.813 0.344-0.344 0.813-0.344h5.688q0.469 0 0.813 0.344 0.313 0.344 0.313 0.813v0z"></path>
</svg>
