<!-- Generated by IcoMoon.io -->
<svg version="1.1" xmlns="http://www.w3.org/2000/svg" width="32" height="32" viewBox="0 0 32 32">
<title>expand</title>
<path d="M15.781 18.844q0 0.25-0.188 0.438l-5.938 5.906 2.563 2.594q0.344 0.313 0.344 0.781t-0.344 0.813q-0.313 0.344-0.781 0.344h-8q-0.469 0-0.813-0.344t-0.344-0.813v-8q0-0.469 0.344-0.781 0.344-0.344 0.813-0.344t0.781 0.344l2.594 2.563 5.906-5.938q0.188-0.188 0.438-0.188 0.219 0 0.406 0.188l2.031 2.031q0.188 0.188 0.188 0.406v0zM29.719 3.438v8q0 0.469-0.344 0.781-0.344 0.344-0.813 0.344t-0.781-0.344l-2.594-2.563-5.906 5.938q-0.188 0.188-0.438 0.188-0.219 0-0.406-0.188l-2.031-2.031q-0.188-0.188-0.188-0.406 0-0.25 0.188-0.438l5.938-5.906-2.563-2.594q-0.344-0.313-0.344-0.781t0.344-0.813q0.313-0.344 0.781-0.344h8q0.469 0 0.813 0.344t0.344 0.813v0z"></path>
</svg>
