<!-- Generated by IcoMoon.io -->
<svg version="1.1" xmlns="http://www.w3.org/2000/svg" width="32" height="32" viewBox="0 0 32 32">
<title>external-link-square</title>
<path d="M25.156 16.563v-8.563q0-0.469-0.344-0.813t-0.813-0.344h-8.563q-0.75 0-1.063 0.719t0.25 1.25l2.563 2.563-9.531 9.531q-0.344 0.344-0.344 0.813t0.344 0.813l1.813 1.813q0.344 0.344 0.813 0.344t0.813-0.344l9.531-9.531 2.563 2.563q0.344 0.344 0.813 0.344 0.219 0 0.438-0.094 0.719-0.313 0.719-1.063v0zM29.719 7.438v17.125q0 2.125-1.5 3.656-1.531 1.5-3.656 1.5h-17.125q-2.125 0-3.656-1.5-1.5-1.531-1.5-3.656v-17.125q0-2.125 1.5-3.656 1.531-1.5 3.656-1.5h17.125q2.125 0 3.656 1.5 1.5 1.531 1.5 3.656v0z"></path>
</svg>
