<!-- Generated by IcoMoon.io -->
<svg version="1.1" xmlns="http://www.w3.org/2000/svg" width="32" height="32" viewBox="0 0 32 32">
<title>external-link</title>
<path d="M25.156 16.563v5.719q0 2.125-1.531 3.625-1.5 1.531-3.625 1.531h-14.844q-2.125 0-3.656-1.531-1.5-1.5-1.5-3.625v-14.844q0-2.125 1.5-3.656 1.531-1.5 3.656-1.5h12.563q0.25 0 0.406 0.156t0.156 0.406v1.156q0 0.25-0.156 0.406t-0.406 0.156h-12.563q-1.188 0-2.031 0.844t-0.844 2.031v14.844q0 1.188 0.844 2.031t2.031 0.844h14.844q1.188 0 2.031-0.844 0.813-0.844 0.813-2.031v-5.719q0-0.25 0.188-0.406 0.156-0.156 0.406-0.156h1.125q0.25 0 0.406 0.156 0.188 0.156 0.188 0.406v0zM32 1.156v9.125q0 0.469-0.344 0.813t-0.813 0.344q-0.438 0-0.781-0.344l-3.156-3.156-11.625 11.656q-0.188 0.188-0.438 0.188-0.219 0-0.406-0.188l-2.031-2.031q-0.188-0.188-0.188-0.406 0-0.25 0.188-0.438l11.656-11.625-3.156-3.156q-0.344-0.344-0.344-0.781 0-0.469 0.344-0.813t0.813-0.344h9.125q0.469 0 0.813 0.344t0.344 0.813z"></path>
</svg>
