<!-- Generated by IcoMoon.io -->
<svg version="1.1" xmlns="http://www.w3.org/2000/svg" width="32" height="32" viewBox="0 0 32 32">
<title>eye-slash</title>
<path d="M9.906 23.844l1.406-2.531q-1.563-1.125-2.438-2.844-0.875-1.688-0.875-3.625 0-2.156 1.094-4-4.094 2.094-6.813 6.313 3 4.594 7.625 6.688v0zM16.844 10.281q0-0.344-0.25-0.594t-0.594-0.25q-2.219 0-3.844 1.594-1.594 1.594-1.594 3.813 0 0.375 0.25 0.625t0.625 0.25q0.344 0 0.594-0.25t0.25-0.625q0-1.531 1.094-2.625 1.094-1.063 2.625-1.063 0.344 0 0.594-0.25t0.25-0.625v0zM23.344 6.875q0 0.125-0.031 0.156l-11.25 20.25-0.875 1.563q-0.188 0.313-0.5 0.313-0.219 0-2.406-1.25-0.281-0.188-0.281-0.5 0-0.219 0.781-1.563-2.563-1.156-4.688-3.094-2.156-1.938-3.75-4.375-0.344-0.563-0.344-1.219 0-0.688 0.344-1.25 2.75-4.188 6.813-6.625 4.031-2.438 8.844-2.438 1.594 0 3.219 0.313l0.969-1.719q0.156-0.281 0.5-0.281 0.094 0 0.313 0.094t0.563 0.281q0.313 0.156 0.594 0.313 0.25 0.188 0.563 0.344 0.281 0.156 0.344 0.219 0.281 0.156 0.281 0.469v0zM24 14.844q0 2.5-1.406 4.531-1.406 2.063-3.75 2.938l5-8.969q0.156 0.813 0.156 1.5v0zM32 17.156q0 0.625-0.344 1.219-0.719 1.156-1.969 2.594-2.656 3.063-6.188 4.75-3.531 1.719-7.5 1.719l1.313-2.375q3.781-0.313 7.031-2.438 3.219-2.125 5.375-5.469-2.063-3.219-5.031-5.25l1.125-2q1.688 1.125 3.25 2.719t2.594 3.281q0.344 0.625 0.344 1.25v0z"></path>
</svg>
