<!-- Generated by IcoMoon.io -->
<svg version="1.1" xmlns="http://www.w3.org/2000/svg" width="32" height="32" viewBox="0 0 32 32">
<title>eye</title>
<path d="M29.719 17.156q-2.719-4.219-6.813-6.313 1.094 1.844 1.094 4 0 3.313-2.344 5.656t-5.656 2.344-5.656-2.344-2.344-5.656q0-2.156 1.094-4-4.094 2.094-6.813 6.313 2.375 3.656 5.969 5.813 3.563 2.188 7.75 2.188t7.75-2.188q3.594-2.156 5.969-5.813v0zM16.844 10.281q0-0.344-0.25-0.594t-0.594-0.25q-2.219 0-3.844 1.594-1.594 1.594-1.594 3.813 0 0.375 0.25 0.625t0.625 0.25q0.344 0 0.594-0.25t0.25-0.625q0-1.531 1.094-2.625 1.094-1.063 2.625-1.063 0.344 0 0.594-0.25t0.25-0.625v0zM32 17.156q0 0.594-0.344 1.219-2.5 4.094-6.75 6.594-4.219 2.469-8.906 2.469t-8.906-2.5q-4.25-2.469-6.75-6.563-0.344-0.625-0.344-1.219 0-0.625 0.344-1.25 2.5-4.094 6.75-6.563 4.219-2.5 8.906-2.5t8.906 2.5q4.25 2.469 6.75 6.563 0.344 0.625 0.344 1.25v0z"></path>
</svg>
