<!-- Generated by IcoMoon.io -->
<svg version="1.1" xmlns="http://www.w3.org/2000/svg" width="32" height="32" viewBox="0 0 32 32">
<title>facebook-square</title>
<path d="M24.563 2.281q2.125 0 3.656 1.5 1.5 1.531 1.5 3.656v17.125q0 2.125-1.5 3.656-1.531 1.5-3.656 1.5h-3.344v-10.625h3.563l0.531-4.156h-4.094v-2.625q0-1 0.406-1.5 0.438-0.5 1.656-0.5l2.156-0.031v-3.688q-1.125-0.156-3.156-0.156-2.438 0-3.906 1.406-1.438 1.438-1.438 4.063v3.031h-3.594v4.156h3.594v10.625h-9.5q-2.125 0-3.656-1.5-1.5-1.531-1.5-3.656v-17.125q0-2.125 1.5-3.656 1.531-1.5 3.656-1.5h17.125z"></path>
</svg>
