<!-- Generated by IcoMoon.io -->
<svg version="1.1" xmlns="http://www.w3.org/2000/svg" width="32" height="32" viewBox="0 0 32 32">
<title>file-code-o</title>
<path d="M28.5 6.781q0.5 0.5 0.844 1.375 0.375 0.844 0.375 1.563v20.563q0 0.719-0.5 1.219t-1.219 0.5h-24q-0.719 0-1.219-0.5t-0.5-1.219v-28.563q0-0.719 0.5-1.219t1.219-0.5h16q0.719 0 1.563 0.344 0.875 0.375 1.375 0.875zM20.563 2.438v6.719h6.719q-0.188-0.531-0.375-0.75l-5.594-5.594q-0.219-0.219-0.75-0.375v0zM27.438 29.719v-18.281h-7.438q-0.719 0-1.219-0.5t-0.5-1.219v-7.438h-13.719v27.438h22.875zM10.844 13.719q0.156-0.188 0.375-0.219 0.25-0.031 0.438 0.094l0.906 0.688q0.219 0.156 0.219 0.375 0.031 0.25-0.094 0.438l-3.25 4.344 3.25 4.344q0.125 0.188 0.094 0.406 0 0.25-0.219 0.375l-0.906 0.688q-0.188 0.156-0.438 0.125-0.219-0.031-0.375-0.219l-4.031-5.375q-0.25-0.344 0-0.688zM25.188 19.094q0.25 0.344 0 0.688l-4.031 5.375q-0.156 0.188-0.375 0.219-0.25 0.031-0.438-0.125l-0.906-0.688q-0.219-0.125-0.219-0.375-0.031-0.219 0.094-0.406l3.25-4.344-3.25-4.344q-0.125-0.188-0.094-0.438 0-0.219 0.219-0.375l0.906-0.688q0.188-0.125 0.438-0.094 0.219 0.031 0.375 0.219zM14.094 27.313q-0.219-0.031-0.344-0.219-0.156-0.188-0.094-0.438l2.438-14.844q0.063-0.219 0.25-0.344 0.188-0.156 0.438-0.125l1.125 0.188q0.219 0.031 0.344 0.25 0.156 0.188 0.094 0.406l-2.438 14.844q-0.063 0.25-0.25 0.375t-0.438 0.094z"></path>
</svg>
