<!-- Generated by IcoMoon.io -->
<svg version="1.1" xmlns="http://www.w3.org/2000/svg" width="32" height="32" viewBox="0 0 32 32">
<title>file-movie-o</title>
<path d="M28.5 6.781q0.5 0.5 0.844 1.375 0.375 0.844 0.375 1.563v20.563q0 0.719-0.5 1.219t-1.219 0.5h-24q-0.719 0-1.219-0.5t-0.5-1.219v-28.563q0-0.719 0.5-1.219t1.219-0.5h16q0.719 0 1.563 0.344 0.875 0.375 1.375 0.875zM20.563 2.438v6.719h6.719q-0.188-0.531-0.375-0.75l-5.594-5.594q-0.219-0.219-0.75-0.375v0zM27.438 29.719v-18.281h-7.438q-0.719 0-1.219-0.5t-0.5-1.219v-7.438h-13.719v27.438h22.875zM16 13.719q0.938 0 1.594 0.688 0.688 0.656 0.688 1.594v6.844q0 0.938-0.688 1.625-0.656 0.688-1.594 0.688h-6.844q-0.938 0-1.625-0.688t-0.688-1.625v-6.844q0-0.938 0.688-1.594 0.688-0.688 1.625-0.688h6.844zM24.781 13.75q0.375 0.156 0.375 0.531v10.281q0 0.406-0.375 0.531-0.125 0.063-0.219 0.063-0.25 0-0.406-0.188l-4.719-4.75v-1.594l4.719-4.75q0.156-0.156 0.406-0.156 0.094 0 0.219 0.031v0z"></path>
</svg>
