<!-- Generated by IcoMoon.io -->
<svg version="1.1" xmlns="http://www.w3.org/2000/svg" width="32" height="32" viewBox="0 0 32 32">
<title>file-pdf-o</title>
<path d="M28.5 6.781q0.5 0.5 0.844 1.375 0.375 0.844 0.375 1.563v20.563q0 0.719-0.5 1.219t-1.219 0.5h-24q-0.719 0-1.219-0.5t-0.5-1.219v-28.563q0-0.719 0.5-1.219t1.219-0.5h16q0.719 0 1.563 0.344 0.875 0.375 1.375 0.875zM20.563 2.438v6.719h6.719q-0.188-0.531-0.375-0.75l-5.594-5.594q-0.219-0.219-0.75-0.375v0zM27.438 29.719v-18.281h-7.438q-0.719 0-1.219-0.5t-0.5-1.219v-7.438h-13.719v27.438h22.875zM18.25 19.125q0.594 0.469 1.5 1 1.063-0.125 2.094-0.125 2.625 0 3.156 0.875 0.281 0.406 0.031 0.938v0.031l-0.063 0.031v0.031q-0.094 0.656-1.25 0.656-0.875 0-2.063-0.344-1.188-0.375-2.313-0.938-3.938 0.406-7 1.469-2.75 4.688-4.313 4.688-0.281 0-0.5-0.125l-0.438-0.219q-0.031-0.031-0.125-0.094-0.156-0.188-0.094-0.656 0.156-0.688 1-1.625 0.844-0.906 2.344-1.719 0.25-0.156 0.438 0.094 0.031 0.063 0.031 0.094 0.906-1.531 1.906-3.531 1.219-2.438 1.844-4.688-0.406-1.438-0.531-2.844-0.125-1.375 0.125-2.281 0.188-0.688 0.75-0.688h0.375q0.406 0 0.625 0.25 0.313 0.375 0.156 1.219-0.031 0.094-0.063 0.156 0.031 0.031 0.031 0.125v0.531q-0.063 2.219-0.25 3.438 0.969 2.938 2.594 4.25v0zM7.969 26.469q0.938-0.438 2.438-2.813-0.906 0.688-1.563 1.5-0.656 0.781-0.875 1.313v0zM15.063 10.031q-0.25 0.75-0.031 2.375 0.031-0.125 0.125-0.813 0-0.031 0.125-0.75 0.031-0.063 0.063-0.156v-0.031q-0.031-0.031-0.031-0.063 0-0.375-0.219-0.625l-0.031 0.031v0.031zM12.844 21.844q2.438-0.969 5.094-1.438-0.031-0.031-0.25-0.188-0.188-0.156-0.281-0.25-1.344-1.188-2.25-3.125-0.5 1.531-1.5 3.5-0.531 1-0.813 1.5v0zM24.406 21.563q-0.438-0.438-2.5-0.438 1.344 0.5 2.188 0.5 0.25 0 0.344-0.031l-0.031-0.031z"></path>
</svg>
