<!-- Generated by IcoMoon.io -->
<svg version="1.1" xmlns="http://www.w3.org/2000/svg" width="32" height="32" viewBox="0 0 32 32">
<title>file-sound-o</title>
<path d="M28.5 6.781q0.5 0.5 0.844 1.375 0.375 0.844 0.375 1.563v20.563q0 0.719-0.5 1.219t-1.219 0.5h-24q-0.719 0-1.219-0.5t-0.5-1.219v-28.563q0-0.719 0.5-1.219t1.219-0.5h16q0.719 0 1.563 0.344 0.875 0.375 1.375 0.875zM20.563 2.438v6.719h6.719q-0.188-0.531-0.375-0.75l-5.594-5.594q-0.219-0.219-0.75-0.375v0zM27.438 29.719v-18.281h-7.438q-0.719 0-1.219-0.5t-0.5-1.219v-7.438h-13.719v27.438h22.875zM13.344 15.188q0.375 0.125 0.375 0.531v9.719q0 0.375-0.375 0.531-0.125 0.031-0.188 0.031-0.219 0-0.438-0.156l-2.938-3h-2.344q-0.25 0-0.406-0.156-0.188-0.156-0.188-0.406v-3.438q0-0.25 0.188-0.406 0.156-0.156 0.406-0.156h2.344l2.938-2.969q0.313-0.281 0.625-0.125v0zM20.813 27.469q0.531 0 0.875-0.406 2.313-2.844 2.313-6.5 0-3.625-2.313-6.469-0.281-0.375-0.75-0.438-0.5-0.063-0.844 0.25-0.375 0.313-0.438 0.781-0.031 0.469 0.281 0.844 1.781 2.188 1.781 5.031t-1.781 5.031q-0.313 0.375-0.281 0.875 0.063 0.469 0.438 0.75 0.313 0.25 0.719 0.25v0zM17.031 24.844q0.5 0 0.844-0.375 1.563-1.656 1.563-3.906t-1.563-3.906q-0.313-0.344-0.813-0.344-0.469-0.031-0.813 0.281-0.344 0.344-0.344 0.813-0.031 0.469 0.313 0.813 0.938 1.031 0.938 2.344 0 1.344-0.938 2.344-0.344 0.375-0.313 0.844 0 0.469 0.344 0.781t0.781 0.313v0z"></path>
</svg>
