<!-- Generated by IcoMoon.io -->
<svg version="1.1" xmlns="http://www.w3.org/2000/svg" width="32" height="32" viewBox="0 0 32 32">
<title>file-arhive-o</title>
<path d="M13.719 6.844v-2.281h-2.281v2.281h2.281zM16 9.156v-2.313h-2.281v2.313h2.281zM13.719 11.438v-2.281h-2.281v2.281h2.281zM16 13.719v-2.281h-2.281v2.281h2.281zM28.5 6.781q0.5 0.5 0.844 1.375 0.375 0.844 0.375 1.563v20.563q0 0.719-0.5 1.219t-1.219 0.5h-24q-0.719 0-1.219-0.5t-0.5-1.219v-28.563q0-0.719 0.5-1.219t1.219-0.5h16q0.719 0 1.563 0.344 0.875 0.375 1.375 0.875zM20.563 2.438v6.719h6.719q-0.188-0.531-0.375-0.75l-5.594-5.594q-0.219-0.219-0.75-0.375v0zM27.438 29.719v-18.281h-7.438q-0.719 0-1.219-0.5t-0.5-1.219v-7.438h-2.281v2.281h-2.281v-2.281h-9.156v27.438h22.875zM16.219 16.844l1.938 6.219q0.125 0.5 0.125 0.938 0 1.469-1.281 2.469-1.313 0.969-3.281 0.969-2 0-3.281-0.969-1.281-1-1.281-2.469 0-0.438 0.125-0.938 0.375-1.125 2.156-7.063v-2.281h2.281v2.281h1.406q0.406 0 0.688 0.219 0.313 0.25 0.406 0.625v0zM13.719 25.156q0.938 0 1.625-0.344 0.656-0.344 0.656-0.813t-0.656-0.813q-0.688-0.344-1.625-0.344t-1.625 0.344q-0.656 0.344-0.656 0.813t0.656 0.813q0.688 0.344 1.625 0.344v0z"></path>
</svg>
