<!-- Generated by IcoMoon.io -->
<svg version="1.1" xmlns="http://www.w3.org/2000/svg" width="32" height="32" viewBox="0 0 32 32">
<title>files-o</title>
<path d="M30.281 6.844q0.719 0 1.219 0.5t0.5 1.219v21.719q0 0.719-0.5 1.219t-1.219 0.5h-17.125q-0.719 0-1.219-0.5t-0.5-1.219v-5.125h-9.719q-0.719 0-1.219-0.5t-0.5-1.219v-12q0-0.719 0.344-1.594 0.375-0.844 0.875-1.344l7.281-7.281q0.5-0.5 1.344-0.875 0.875-0.344 1.594-0.344h7.406q0.719 0 1.219 0.5t0.5 1.219v5.844q1.219-0.719 2.281-0.719h7.438zM20.563 10.656l-5.344 5.344h5.344v-5.344zM9.156 3.813l-5.344 5.344h5.344v-5.344zM12.656 15.344l5.625-5.625v-7.438h-6.844v7.438q0 0.719-0.5 1.219t-1.219 0.5h-7.438v11.406h9.156v-4.563q0-0.719 0.344-1.563 0.375-0.875 0.875-1.375v0zM29.719 29.719v-20.563h-6.875v7.406q0 0.719-0.5 1.219t-1.188 0.5h-7.438v11.438h16z"></path>
</svg>
