<!-- Generated by IcoMoon.io -->
<svg version="1.1" xmlns="http://www.w3.org/2000/svg" width="32" height="32" viewBox="0 0 32 32">
<title>file-word-o</title>
<path d="M28.5 6.781q0.5 0.5 0.844 1.375 0.375 0.844 0.375 1.563v20.563q0 0.719-0.5 1.219t-1.219 0.5h-24q-0.719 0-1.219-0.5t-0.5-1.219v-28.563q0-0.719 0.5-1.219t1.219-0.5h16q0.719 0 1.563 0.344 0.875 0.375 1.375 0.875zM20.563 2.438v6.719h6.719q-0.188-0.531-0.375-0.75l-5.594-5.594q-0.219-0.219-0.75-0.375v0zM27.438 29.719v-18.281h-7.438q-0.719 0-1.219-0.5t-0.5-1.219v-7.438h-13.719v27.438h22.875zM6.438 13.719v1.906h1.25l2.938 11.813h2.844l2.281-8.656q0.125-0.375 0.188-0.844 0.031-0.281 0.031-0.406h0.063l0.063 0.406q0 0.063 0.063 0.375 0.031 0.281 0.094 0.469l2.281 8.656h2.844l2.938-11.813h1.25v-1.906h-5.375v1.906h1.625l-1.781 7.813q-0.094 0.375-0.125 0.844l-0.031 0.375h-0.063q0-0.063-0.031-0.125v-0.156q-0.031-0.063-0.031-0.094-0.031-0.094-0.063-0.375l-0.094-0.469-2.563-9.719h-2.063l-2.563 9.719q-0.031 0.156-0.063 0.438-0.063 0.281-0.063 0.406l-0.094 0.375h-0.063l-0.031-0.375q-0.031-0.469-0.125-0.844l-1.781-7.813h1.625v-1.906h-5.375z"></path>
</svg>
