<!-- Generated by IcoMoon.io -->
<svg version="1.1" xmlns="http://www.w3.org/2000/svg" width="32" height="32" viewBox="0 0 32 32">
<title>file-text</title>
<path d="M28.5 8.5q0.25 0.25 0.5 0.656h-8.438v-8.438q0.406 0.25 0.656 0.5zM20 11.438h9.719v18.844q0 0.719-0.5 1.219t-1.219 0.5h-24q-0.719 0-1.219-0.5t-0.5-1.219v-28.563q0-0.719 0.5-1.219t1.219-0.5h14.281v9.719q0 0.719 0.5 1.219t1.219 0.5v0zM22.844 24.563v-1.125q0-0.25-0.156-0.406-0.156-0.188-0.406-0.188h-12.563q-0.25 0-0.406 0.188-0.156 0.156-0.156 0.406v1.125q0 0.25 0.156 0.406 0.156 0.188 0.406 0.188h12.563q0.25 0 0.406-0.188 0.156-0.156 0.156-0.406v0zM22.844 20v-1.156q0-0.25-0.156-0.406t-0.406-0.156h-12.563q-0.25 0-0.406 0.156t-0.156 0.406v1.156q0 0.25 0.156 0.406t0.406 0.156h12.563q0.25 0 0.406-0.156t0.156-0.406v0zM22.844 15.438v-1.156q0-0.25-0.156-0.406t-0.406-0.156h-12.563q-0.25 0-0.406 0.156t-0.156 0.406v1.156q0 0.25 0.156 0.406t0.406 0.156h12.563q0.25 0 0.406-0.156t0.156-0.406v0z"></path>
</svg>
