<!-- Generated by IcoMoon.io -->
<svg version="1.1" xmlns="http://www.w3.org/2000/svg" width="32" height="32" viewBox="0 0 32 32">
<title>file-text-o</title>
<path d="M28.5 6.781q0.5 0.5 0.844 1.375 0.375 0.844 0.375 1.563v20.563q0 0.719-0.5 1.219t-1.219 0.5h-24q-0.719 0-1.219-0.5t-0.5-1.219v-28.563q0-0.719 0.5-1.219t1.219-0.5h16q0.719 0 1.563 0.344 0.875 0.375 1.375 0.875zM20.563 2.438v6.719h6.719q-0.188-0.531-0.375-0.75l-5.594-5.594q-0.219-0.219-0.75-0.375v0zM27.438 29.719v-18.281h-7.438q-0.719 0-1.219-0.5t-0.5-1.219v-7.438h-13.719v27.438h22.875zM9.156 14.281q0-0.25 0.156-0.406t0.406-0.156h12.563q0.25 0 0.406 0.156t0.156 0.406v1.156q0 0.25-0.156 0.406t-0.406 0.156h-12.563q-0.25 0-0.406-0.156t-0.156-0.406v-1.156zM22.281 18.281q0.25 0 0.406 0.156t0.156 0.406v1.156q0 0.25-0.156 0.406t-0.406 0.156h-12.563q-0.25 0-0.406-0.156t-0.156-0.406v-1.156q0-0.25 0.156-0.406t0.406-0.156h12.563zM22.281 22.844q0.25 0 0.406 0.188 0.156 0.156 0.156 0.406v1.125q0 0.25-0.156 0.406-0.156 0.188-0.406 0.188h-12.563q-0.25 0-0.406-0.188-0.156-0.156-0.156-0.406v-1.125q0-0.25 0.156-0.406 0.156-0.188 0.406-0.188h12.563z"></path>
</svg>
