<!-- Generated by IcoMoon.io -->
<svg version="1.1" xmlns="http://www.w3.org/2000/svg" width="32" height="32" viewBox="0 0 32 32">
<title>flag</title>
<path d="M5.719 4.563q0 1.281-1.156 1.969v22.625q0 0.219-0.156 0.375-0.188 0.188-0.406 0.188h-1.156q-0.219 0-0.375-0.188-0.188-0.156-0.188-0.375v-22.625q-1.125-0.688-1.125-1.969 0-0.938 0.656-1.594 0.656-0.688 1.625-0.688 0.938 0 1.594 0.688 0.688 0.656 0.688 1.594v0zM32 5.719v13.625q0 0.438-0.219 0.688t-0.719 0.5q-3.844 2.063-6.594 2.063-1.063 0-2.188-0.406-1.125-0.375-1.938-0.844t-2.063-0.875q-1.25-0.375-2.563-0.375-3.406 0-8.281 2.594-0.281 0.156-0.594 0.156-0.438 0-0.781-0.313-0.344-0.344-0.344-0.813v-13.25q0-0.563 0.563-1 0.375-0.25 1.406-0.75 4.219-2.156 7.5-2.156 1.906 0 3.594 0.531 1.656 0.5 3.906 1.563 0.656 0.344 1.563 0.344 0.969 0 2.094-0.375t1.969-0.844 1.563-0.844q0.75-0.375 0.969-0.375 0.469 0 0.813 0.344t0.344 0.813v0z"></path>
</svg>
