<!-- Generated by IcoMoon.io -->
<svg version="1.1" xmlns="http://www.w3.org/2000/svg" width="32" height="32" viewBox="0 0 32 32">
<title>flag-o</title>
<path d="M29.719 18.656v-11q-3.031 1.625-5.469 1.625-1.469 0-2.594-0.563-1.781-0.875-3.281-1.375t-3.188-0.5q-3.094 0-7.188 2.281v10.688q4.375-2 7.719-2 1 0 1.875 0.125 0.844 0.125 1.75 0.469 0.875 0.313 1.375 0.563 0.469 0.219 1.469 0.688l0.5 0.25q0.781 0.406 1.781 0.406 2.156 0 5.25-1.656v0zM5.719 4.563q0 0.625-0.313 1.156-0.313 0.5-0.844 0.813v22.625q0 0.25-0.156 0.406t-0.406 0.156h-1.156q-0.25 0-0.406-0.156t-0.156-0.406v-22.625q-0.5-0.313-0.813-0.813-0.313-0.531-0.313-1.156 0-0.938 0.656-1.594 0.656-0.688 1.625-0.688 0.938 0 1.594 0.688 0.688 0.656 0.688 1.594v0zM32 5.719v13.625q0 0.688-0.625 1-0.188 0.094-0.313 0.188-3.875 2.063-6.594 2.063-1.563 0-2.813-0.625l-0.5-0.25q-1.125-0.594-1.75-0.875-0.625-0.25-1.625-0.5t-2.063-0.25q-1.813 0-4.188 0.781t-4.094 1.813q-0.25 0.156-0.594 0.156-0.281 0-0.563-0.125-0.563-0.344-0.563-1v-13.25q0-0.625 0.563-1 0.625-0.375 1.375-0.75 0.781-0.375 2.063-0.938 1.25-0.531 2.719-0.875t2.75-0.344q2 0 3.75 0.563 1.719 0.563 3.719 1.531 0.688 0.344 1.594 0.344 2.188 0 5.531-2 0.406-0.219 0.563-0.313 0.563-0.281 1.094 0.031 0.563 0.375 0.563 1v0z"></path>
</svg>
