<!-- Generated by IcoMoon.io -->
<svg version="1.1" xmlns="http://www.w3.org/2000/svg" width="32" height="32" viewBox="0 0 32 32">
<title>folder-o</title>
<path d="M28.563 23.438v-12.594q0-0.688-0.5-1.188t-1.219-0.5h-12.563q-0.719 0-1.219-0.5t-0.5-1.219v-1.156q0-0.719-0.5-1.219t-1.219-0.5h-5.688q-0.719 0-1.219 0.5t-0.5 1.219v17.156q0 0.719 0.5 1.219t1.219 0.5h21.688q0.719 0 1.219-0.5t0.5-1.219zM30.844 10.844v12.594q0 1.625-1.156 2.813-1.188 1.188-2.844 1.188h-21.688q-1.656 0-2.844-1.188-1.156-1.188-1.156-2.813v-17.156q0-1.625 1.156-2.813 1.188-1.188 2.844-1.188h5.688q1.656 0 2.844 1.188 1.156 1.188 1.156 2.813v0.563h12q1.656 0 2.844 1.188 1.156 1.188 1.156 2.813v0z"></path>
</svg>
