<!-- Generated by IcoMoon.io -->
<svg version="1.1" xmlns="http://www.w3.org/2000/svg" width="37" height="32" viewBox="0 0 37 32">
<title>folder-open</title>
<path d="M34.688 17q0 0.563-0.531 1.188l-6 7.063q-0.781 0.906-2.156 1.531-1.406 0.656-2.563 0.656h-19.438q-0.594 0-1.094-0.25-0.469-0.219-0.469-0.75 0-0.563 0.563-1.188l6-7.063q0.781-0.906 2.156-1.563 1.375-0.625 2.563-0.625h19.438q0.594 0 1.063 0.219 0.469 0.25 0.469 0.781zM28.563 10.844v2.875h-14.844q-1.688 0-3.531 0.844t-2.906 2.125l-6.125 7.188v-17.594q0-1.625 1.156-2.813 1.188-1.188 2.844-1.188h5.688q1.656 0 2.844 1.188 1.156 1.188 1.156 2.813v0.563h9.719q1.656 0 2.844 1.188 1.156 1.188 1.156 2.813v0z"></path>
</svg>
