<!-- Generated by IcoMoon.io -->
<svg version="1.1" xmlns="http://www.w3.org/2000/svg" width="32" height="32" viewBox="0 0 32 32">
<title>genderless</title>
<path d="M22.844 17.156q0-3.313-2.344-5.656t-5.656-2.344q-3.281 0-5.625 2.344-2.375 2.344-2.375 5.656 0 3.281 2.375 5.625 2.344 2.375 5.625 2.375 3.313 0 5.656-2.375 2.344-2.344 2.344-5.625zM25.156 17.156q0 2.063-0.813 3.969t-2.219 3.281q-1.375 1.406-3.281 2.219t-4 0.813q-2.063 0-3.969-0.813t-3.281-2.219q-1.406-1.375-2.219-3.281t-0.813-3.969q0-2.094 0.813-4t2.219-3.281q1.375-1.406 3.281-2.219t3.969-0.813q2.094 0 4 0.813t3.281 2.219q1.406 1.375 2.219 3.281t0.813 4v0z"></path>
</svg>
