<!-- Generated by IcoMoon.io -->
<svg version="1.1" xmlns="http://www.w3.org/2000/svg" width="37" height="32" viewBox="0 0 37 32">
<title>group</title>
<path d="M11.719 16q-2.875 0.094-4.719 2.281h-2.406q-1.438 0-2.438-0.719t-1-2.125q0-6.281 2.188-6.281 0.125 0 0.781 0.375 0.688 0.375 1.75 0.75t2.125 0.375q1.188 0 2.375-0.406-0.094 0.656-0.094 1.188 0 2.469 1.438 4.563v0zM30.844 27.375q0 2.156-1.281 3.375-1.313 1.25-3.469 1.25h-15.625q-2.156 0-3.438-1.25-1.313-1.219-1.313-3.375 0-0.938 0.063-1.844t0.25-1.938q0.188-1.063 0.469-1.938 0.281-0.906 0.781-1.75 0.469-0.844 1.094-1.438 0.625-0.625 1.531-0.969t2-0.344q0.156 0 0.75 0.375t1.313 0.844 1.906 0.875q1.188 0.375 2.406 0.375t2.406-0.375q1.219-0.406 1.906-0.875 0.719-0.469 1.313-0.844t0.781-0.375q1.094 0 1.969 0.344 0.906 0.344 1.531 0.969 0.625 0.594 1.125 1.438 0.469 0.844 0.75 1.75 0.281 0.875 0.469 1.938 0.188 1.031 0.25 1.938t0.063 1.844v0zM12.563 4.563q0 1.906-1.344 3.25-1.313 1.344-3.219 1.344t-3.219-1.344q-1.344-1.344-1.344-3.25 0-1.875 1.344-3.219 1.313-1.344 3.219-1.344t3.219 1.344q1.344 1.344 1.344 3.219v0zM25.156 11.438q0 2.844-2.031 4.844-2 2-4.844 2t-4.844-2-2-4.844 2-4.844q2-2.031 4.844-2.031t4.844 2.031q2.031 2 2.031 4.844v0zM35.438 15.438q0 1.406-1 2.125t-2.469 0.719h-2.406q-1.844-2.188-4.719-2.281 1.438-2.094 1.438-4.563 0-0.531-0.094-1.188 1.188 0.406 2.375 0.406 1.063 0 2.125-0.375 1.094-0.375 1.75-0.75t0.781-0.375q2.219 0 2.219 6.281v0zM33.156 4.563q0 1.906-1.344 3.25t-3.25 1.344q-1.875 0-3.219-1.344t-1.344-3.25q0-1.875 1.344-3.219t3.219-1.344q1.906 0 3.25 1.344t1.344 3.219z"></path>
</svg>
