<!-- Generated by IcoMoon.io -->
<svg version="1.1" xmlns="http://www.w3.org/2000/svg" width="41" height="32" viewBox="0 0 41 32">
<title>handshake-o</title>
<path d="M3.438 20.563q0.719 0 1-0.563t0-1.156q-0.281-0.563-1-0.563t-1 0.563q-0.281 0.594 0 1.156t1 0.563v0zM29.719 19.531q-0.156-0.219-0.688-0.875-0.5-0.688-0.719-0.969-0.25-0.313-0.688-0.875-0.438-0.594-0.75-0.969t-0.719-0.813q-0.438-0.469-0.813-0.875l-2.25 2.5q-1.469 1.656-3.719 1.625-2.219-0.031-3.656-1.75-1.031-1.219-1-2.813 0-1.594 1.031-2.813l3.156-3.688q-0.375-0.188-0.906-0.281t-0.844-0.094q-0.344-0.031-1 0h-0.875q-1.656 0-2.844 1.188l-2.813 2.813h-2.781v9.719h0.781t0.344 0.031 0.375 0.094q0.125 0.031 0.313 0.156 0.188 0.094 0.313 0.219l5.313 5.219q2.063 2 4.063 2 1.375 0 2.219-0.844 1.031 0.344 2.031-0.156 0.969-0.5 1.281-1.5 1.313 0.094 2.281-0.813 0.344-0.313 0.625-0.813 0.281-0.469 0.25-0.875 0.188 0.156 0.781 0.156 0.75 0 1.375-0.375 0.594-0.375 0.875-0.938t0.219-1.281q-0.063-0.688-0.563-1.313v0zM32.563 20.563h1.719v-9.125h-1.656l-2.813-3.219q-1.156-1.375-3-1.375h-3q-1.594 0-2.594 1.219l-3.75 4.344q-0.5 0.563-0.5 1.313t0.5 1.344q0.75 0.906 1.969 0.938 1.188 0.031 1.969-0.875l3.438-3.906q0.469-0.406 0.969-0.375t0.844 0.5q0.313 0.438 0.156 1 0.281 0.344 1 1.125t1.063 1.219q0.531 0.625 1.469 1.875 0.969 1.25 1.156 1.5 0.938 1.188 1.063 2.5v0zM37.719 20.563q0.719 0 1-0.563t0-1.156q-0.281-0.563-1-0.563t-1 0.563q-0.281 0.594 0 1.156t1 0.563v0zM41.156 10.281v11.438q0 0.469-0.344 0.813-0.344 0.313-0.813 0.313h-7.75q-0.469 1.188-1.469 1.906-0.969 0.75-2.219 0.938-0.594 0.844-1.438 1.438t-1.844 0.813q-0.75 0.969-1.875 1.469-1.094 0.5-2.281 0.438-1.063 0.594-2.25 0.688-1.188 0.125-2.281-0.25-1.094-0.344-2.094-0.938-0.969-0.625-1.844-1.438l-5.125-5.063h-6.375q-0.469 0-0.813-0.313-0.344-0.344-0.344-0.813v-12q0-0.469 0.344-0.813t0.813-0.344h7.5l0.844-0.844q0.594-0.625 0.844-0.875t0.781-0.688q0.531-0.469 0.906-0.688 0.375-0.188 0.906-0.438t1.125-0.375q0.563-0.094 1.219-0.094h2.063q1.781 0 3.25 1 1.469-1 3.219-1h3q0.625 0 1.188 0.125 0.563 0.094 1 0.25t0.938 0.469q0.469 0.313 0.781 0.563 0.313 0.219 0.781 0.688 0.438 0.5 0.688 0.75 0.25 0.281 0.719 0.875 0.5 0.563 0.75 0.875h6.344q0.469 0 0.813 0.313 0.344 0.344 0.344 0.813v0z"></path>
</svg>
