<!-- Generated by IcoMoon.io -->
<svg version="1.1" xmlns="http://www.w3.org/2000/svg" width="32" height="32" viewBox="0 0 32 32">
<title>hanger</title>
<path d="M30.063 21.313q0-0.031-0.031-0.047t-0.063-0.016h-0.031l-5.938-3.031q-0.156-0.094-0.344-0.141t-0.375-0.047q-0.656 0-1.125 0.469t-0.469 1.125q0 0.469 0.234 0.844t0.641 0.563v0l5.875 3q0.5 0.344 0.516 0.781t-0.047 0.594q-0.031 0.156-0.281 0.531t-0.906 0.375h-23.156q-0.656 0-0.906-0.375t-0.281-0.531q-0.063-0.156-0.047-0.594t0.516-0.781l13.094-6.656q0.031-0.031 0.063-0.047l0.094-0.047q0.031-0.031 0.047-0.063t0.047-0.031l0.172-0.172t0.141-0.172v-0.031q0.031-0.031 0.063-0.109t0.063-0.141v0q0-0.063 0.016-0.094t0.016-0.063q0.031-0.031 0.031-0.078t0.031-0.078v-2.875q1.563-0.5 2.578-1.844t1.016-3.063q0-2.125-1.516-3.641t-3.641-1.516q-2.156 0-3.656 1.516t-1.5 3.641v0q0 0.656 0.453 1.125t1.109 0.469q0.688 0 1.141-0.469t0.453-1.125v0q0-0.813 0.578-1.391t1.422-0.578q0.813 0 1.391 0.578t0.578 1.391-0.578 1.391-1.391 0.578q-0.656 0-1.125 0.469t-0.469 1.125v0 3l-12.219 6.219q-0.031 0-0.063 0.031t-0.063 0.031v0q-0.938 0.594-1.5 1.578t-0.563 2.141q0 0.344 0.047 0.656t0.141 0.625l-0.031-0.031q0.406 1.406 1.578 2.297t2.641 0.891h23.188q1.5 0 2.672-0.875t1.578-2.313q0.094-0.281 0.141-0.594t0.047-0.656q0-1.156-0.563-2.141t-1.5-1.578h-0.031z"></path>
</svg>
