<!-- Generated by IcoMoon.io -->
<svg version="1.1" xmlns="http://www.w3.org/2000/svg" width="32" height="32" viewBox="0 0 32 32">
<title>home</title>
<path d="M26.281 17.719v8.563q0 0.469-0.344 0.813t-0.781 0.344h-6.875v-6.875h-4.563v6.875h-6.875q-0.438 0-0.781-0.344t-0.344-0.813v-8.688l10.281-8.438 10.281 8.438v0.125zM30.281 16.469l-1.125 1.344q-0.125 0.156-0.375 0.188h-0.063q-0.219 0-0.375-0.125l-12.344-10.313-12.344 10.313q-0.219 0.156-0.438 0.125-0.25-0.031-0.375-0.188l-1.125-1.344q-0.125-0.156-0.125-0.406 0.031-0.25 0.219-0.375l12.844-10.719q0.563-0.438 1.344-0.438t1.344 0.438l4.375 3.656v-3.469q0-0.25 0.156-0.438 0.156-0.156 0.406-0.156h3.438q0.25 0 0.406 0.156 0.156 0.188 0.156 0.438v7.281l3.906 3.25q0.188 0.125 0.219 0.375 0 0.25-0.125 0.406v0z"></path>
</svg>
