<!-- Generated by IcoMoon.io -->
<svg version="1.1" xmlns="http://www.w3.org/2000/svg" width="32" height="32" viewBox="0 0 32 32">
<title>hourglass-1</title>
<path d="M27.429 2.286q0 4.661-1.902 8.241t-4.759 5.473q2.857 1.893 4.759 5.473t1.902 8.241h1.714q0.25 0 0.411 0.161t0.161 0.411v1.143q0 0.25-0.161 0.411t-0.411 0.161h-26.286q-0.25 0-0.411-0.161t-0.161-0.411v-1.143q0-0.25 0.161-0.411t0.411-0.161h1.714q0-4.661 1.902-8.241t4.759-5.473q-2.857-1.893-4.759-5.473t-1.902-8.241h-1.714q-0.25 0-0.411-0.161t-0.161-0.411v-1.143q0-0.25 0.161-0.411t0.411-0.161h26.286q0.25 0 0.411 0.161t0.161 0.411v1.143q0 0.25-0.161 0.411t-0.411 0.161h-1.714zM25.143 2.286h-18.286q0 1.179 0.161 2.286h17.964q0.161-1.089 0.161-2.286zM25.143 29.714q0-2.321-0.607-4.455t-1.616-3.714-2.259-2.714-2.607-1.688h-4.107q-1.357 0.554-2.607 1.688t-2.259 2.714-1.616 3.714-0.607 4.455h18.286z"></path>
</svg>
