<!-- Generated by IcoMoon.io -->
<svg version="1.1" xmlns="http://www.w3.org/2000/svg" width="32" height="32" viewBox="0 0 32 32">
<title>hourglass-3</title>
<path d="M27.429 2.286q0 4.661-1.902 8.241t-4.759 5.473q2.857 1.893 4.759 5.473t1.902 8.241h1.714q0.25 0 0.411 0.161t0.161 0.411v1.143q0 0.25-0.161 0.411t-0.411 0.161h-26.286q-0.25 0-0.411-0.161t-0.161-0.411v-1.143q0-0.25 0.161-0.411t0.411-0.161h1.714q0-4.661 1.902-8.241t4.759-5.473q-2.857-1.893-4.759-5.473t-1.902-8.241h-1.714q-0.25 0-0.411-0.161t-0.161-0.411v-1.143q0-0.25 0.161-0.411t0.411-0.161h26.286q0.25 0 0.411 0.161t0.161 0.411v1.143q0 0.25-0.161 0.411t-0.411 0.161h-1.714zM17.893 14.929q1.375-0.518 2.661-1.652t2.313-2.723 1.652-3.75 0.625-4.518h-18.286q0 2.357 0.625 4.518t1.652 3.75 2.313 2.723 2.661 1.652q0.339 0.125 0.545 0.42t0.205 0.652-0.205 0.652-0.545 0.42q-2.446 0.911-4.357 3.5h12.5q-1.911-2.589-4.357-3.5-0.339-0.125-0.545-0.42t-0.205-0.652 0.205-0.652 0.545-0.42z"></path>
</svg>
