<!-- Generated by IcoMoon.io -->
<svg version="1.1" xmlns="http://www.w3.org/2000/svg" width="32" height="32" viewBox="0 0 32 32">
<title>house</title>
<path d="M28.938 30.063h-25.563l0.063-14.063 12.719-13.406 12.813 12.906q0.719 0.844 1.344 0.266t-0.094-1.453v0l-4.063-4.219v-5.063l-1.625-0.125 0.25 4.25-7.375-8.156q-0.031 0-0.031-0.016v-0.016q-0.031-0.031-0.063-0.047t-0.063-0.047l-0.063-0.063t-0.094-0.063q-0.031-0.031-0.063-0.047t-0.094-0.016l-0.063-0.063t-0.094-0.031q-0.031-0.031-0.078-0.031t-0.078-0.031q-0.063 0-0.094-0.016t-0.063-0.016q-0.063-0.031-0.109-0.031h-0.516t-0.094 0.031q-0.031 0-0.078 0.016t-0.109 0.016q-0.031 0.031-0.063 0.031t-0.094 0.031q-0.031 0-0.078 0.031t-0.078 0.063q-0.031 0-0.078 0.016t-0.078 0.047l-0.063 0.063t-0.094 0.063q0 0.031-0.031 0.047t-0.063 0.047l-0.031 0.031h-0.031l-12.781 13.313q-0.25 0.219-0.391 0.547t-0.141 0.703v0 0 0 15.063q0 0.75 0.531 1.297t1.313 0.547v0h25.594q0.75 0 1.281-0.547t0.531-1.297v0-8.219q0-0.75-0.828-0.75t-0.891 0.813l-0.063 7.594zM12.281 24.656l-0.031-7.531 7.656 0.188 0.125 7.313-7.75 0.031zM12.094 15.031q-0.813 0-1.375 0.563t-0.563 1.375v0 7.813q0 0.781 0.563 1.359t1.375 0.578v0h7.813q0.813 0 1.375-0.578t0.563-1.359v0-7.813q0-0.813-0.563-1.375t-1.375-0.563v0h-7.813zM23.813 10.281l0.031-1.031q0.031-1.063 0.063-2.328t0.063-2.328v-1.031z"></path>
</svg>
