<!-- Generated by IcoMoon.io -->
<svg version="1.1" xmlns="http://www.w3.org/2000/svg" width="37" height="32" viewBox="0 0 37 32">
<title>image</title>
<path d="M12.563 10.281q0 1.438-1 2.438t-2.406 1q-1.438 0-2.438-1t-1-2.438 1-2.438 2.438-1q1.406 0 2.406 1t1 2.438zM30.844 17.156v8h-25.125v-3.438l5.719-5.719 2.844 2.844 9.156-9.125zM32.563 4.563h-28.563q-0.219 0-0.406 0.188-0.156 0.156-0.156 0.406v21.688q0 0.25 0.156 0.406 0.188 0.188 0.406 0.188h28.563q0.25 0 0.406-0.188 0.188-0.156 0.188-0.406v-21.688q0-0.25-0.188-0.406-0.156-0.188-0.406-0.188zM35.438 5.156v21.688q0 1.188-0.844 2.031t-2.031 0.844h-28.563q-1.188 0-2.031-0.844-0.813-0.844-0.813-2.031v-21.688q0-1.188 0.813-2.031 0.844-0.844 2.031-0.844h28.563q1.188 0 2.031 0.844t0.844 2.031z"></path>
</svg>
