<!-- Generated by IcoMoon.io -->
<svg version="1.1" xmlns="http://www.w3.org/2000/svg" width="32" height="32" viewBox="0 0 32 32">
<title>info</title>
<path d="M21.719 24v2.281q0 0.469-0.344 0.813t-0.813 0.344h-9.125q-0.469 0-0.813-0.344t-0.344-0.813v-2.281q0-0.469 0.344-0.813t0.813-0.344h1.125v-6.844h-1.125q-0.469 0-0.813-0.344t-0.344-0.813v-2.281q0-0.469 0.344-0.781 0.344-0.344 0.813-0.344h6.844q0.469 0 0.813 0.344 0.344 0.313 0.344 0.781v10.281h1.125q0.469 0 0.813 0.344t0.344 0.813zM19.438 3.438v3.406q0 0.469-0.344 0.813t-0.813 0.344h-4.563q-0.469 0-0.813-0.344t-0.344-0.813v-3.406q0-0.469 0.344-0.813t0.813-0.344h4.563q0.469 0 0.813 0.344t0.344 0.813v0z"></path>
</svg>
