<!-- Generated by IcoMoon.io -->
<svg version="1.1" xmlns="http://www.w3.org/2000/svg" width="32" height="32" viewBox="0 0 32 32">
<title>info-circle</title>
<path d="M20.563 24.563v-2.844q0-0.25-0.156-0.406t-0.406-0.156h-1.719v-9.156q0-0.25-0.156-0.406t-0.406-0.156h-5.719q-0.25 0-0.406 0.156t-0.156 0.406v2.844q0 0.25 0.156 0.438 0.156 0.156 0.406 0.156h1.719v5.719h-1.719q-0.25 0-0.406 0.156t-0.156 0.406v2.844q0 0.25 0.156 0.406 0.156 0.188 0.406 0.188h8q0.25 0 0.406-0.188 0.156-0.156 0.156-0.406v0zM18.281 8.563v-2.844q0-0.25-0.156-0.406t-0.406-0.156h-3.438q-0.25 0-0.406 0.156t-0.156 0.406v2.844q0 0.25 0.156 0.406 0.156 0.188 0.406 0.188h3.438q0.25 0 0.406-0.188 0.156-0.156 0.156-0.406v0zM29.719 16q0 3.719-1.844 6.875t-5 5-6.875 1.844-6.875-1.844-5-5-1.844-6.875 1.844-6.875 5-5 6.875-1.844 6.875 1.844 5 5 1.844 6.875z"></path>
</svg>
