<!-- Generated by IcoMoon.io -->
<svg version="1.1" xmlns="http://www.w3.org/2000/svg" width="32" height="32" viewBox="0 0 32 32">
<title>key</title>
<path d="M16.063 8.688q0-1.406-1-2.406t-2.406-1q-1.438 0-2.438 1t-1 2.406q0 0.75 0.344 1.5-0.75-0.344-1.5-0.344-1.406 0-2.406 1t-1 2.438q0 1.406 1 2.406t2.406 1q1.438 0 2.438-1t1-2.406q0-0.75-0.344-1.5 0.75 0.344 1.5 0.344 1.406 0 2.406-1t1-2.438zM31.281 21.281q0 0.281-0.875 1.156t-1.188 0.875q-0.156 0-0.5-0.281t-0.656-0.594q-0.313-0.281-0.688-0.719-0.375-0.406-0.438-0.438l-1.719 1.688 3.938 3.938q0.5 0.5 0.5 1.219 0 0.75-0.719 1.438-0.688 0.719-1.438 0.719-0.719 0-1.219-0.5l-11.969-12q-3.156 2.344-6.531 2.344-2.906 0-4.719-1.844-1.844-1.813-1.844-4.719 0-2.875 1.688-5.594 1.719-2.75 4.438-4.438t5.594-1.688q2.906 0 4.75 1.813 1.813 1.844 1.813 4.75 0 3.375-2.344 6.531l6.344 6.344 1.719-1.719q-0.063-0.063-0.469-0.438-0.406-0.406-0.719-0.688-0.281-0.313-0.594-0.656-0.281-0.344-0.281-0.5 0-0.313 0.875-1.188t1.188-0.875q0.219 0 0.406 0.188 0.125 0.094 0.813 0.781 0.719 0.688 1.469 1.406l1.563 1.563q0.781 0.781 1.281 1.375 0.531 0.594 0.531 0.75v0z"></path>
</svg>
