<!-- Generated by IcoMoon.io -->
<svg version="1.1" xmlns="http://www.w3.org/2000/svg" width="30" height="32" viewBox="0 0 30 32">
<title>layers</title>
<path d="M0.64 9.438c-0.157-0.086-0.282-0.215-0.362-0.371l-0.002-0.005c-0.082-0.152-0.13-0.333-0.13-0.526 0-0.002 0-0.003 0-0.005v0c0-0 0-0 0-0 0-0.377 0.21-0.705 0.519-0.873l0.005-0.003 13.98-7.53c0.118-0.077 0.262-0.123 0.417-0.126h0.001c0.146 0 0.286 0.040 0.422 0.126l13.834 7.53c0.155 0.084 0.279 0.206 0.362 0.355l0.002 0.005c0.081 0.152 0.129 0.332 0.129 0.523s-0.048 0.371-0.132 0.529l0.003-0.006c-0.078 0.156-0.192 0.283-0.332 0.374l-0.004 0.002-14.004 8.094c-0.057 0.041-0.127 0.069-0.202 0.078l-0.002 0c-0.070 0.010-0.151 0.016-0.234 0.016h-0c-0.001 0-0.002 0-0.003 0-0.077 0-0.151-0.012-0.221-0.033l0.005 0.001c-0.068-0.020-0.14-0.042-0.22-0.062l-13.832-8.094zM15.056 2.124l-11.97 6.47 11.824 6.906 11.97-6.906-11.824-6.468zM29.152 15c0.154 0.084 0.28 0.208 0.378 0.376 0.089 0.142 0.143 0.315 0.146 0.499v0.001c0 0 0 0 0 0.001 0 0.194-0.049 0.376-0.135 0.535l0.003-0.006c-0.082 0.161-0.207 0.29-0.36 0.374l-0.005 0.002-13.98 8.092c-0.061 0.035-0.133 0.067-0.207 0.091l-0.009 0.003c-0.068 0.018-0.146 0.029-0.226 0.029s-0.158-0.011-0.232-0.030l0.006 0.001c-0.089-0.024-0.167-0.055-0.24-0.095l0.006 0.003-13.832-8.096c-0.143-0.093-0.257-0.22-0.332-0.371l-0.002-0.005c-0.081-0.152-0.129-0.332-0.129-0.523s0.048-0.371 0.132-0.529l-0.003 0.006c0.085-0.154 0.209-0.276 0.359-0.358l0.005-0.002 2.94-1.562 1.98 1.156-2.474 1.344 11.822 6.906 11.97-6.906-2.33-1.28 1.98-1.158 2.768 1.5zM29.152 22c0.154 0.084 0.28 0.208 0.378 0.376 0.089 0.142 0.143 0.315 0.146 0.499v0.001c0 0 0 0 0 0 0 0.194-0.049 0.376-0.135 0.535l0.003-0.006c-0.082 0.161-0.207 0.29-0.36 0.374l-0.005 0.002-13.98 8.092c-0.061 0.035-0.133 0.067-0.207 0.091l-0.009 0.003c-0.068 0.018-0.146 0.029-0.226 0.029s-0.158-0.011-0.232-0.030l0.006 0.001c-0.089-0.024-0.167-0.055-0.24-0.095l0.006 0.003-13.832-8.096c-0.143-0.093-0.257-0.22-0.332-0.371l-0.002-0.005c-0.081-0.152-0.129-0.332-0.129-0.523s0.048-0.371 0.132-0.529l-0.003 0.006c0.085-0.154 0.209-0.276 0.359-0.358l0.005-0.002 2.766-1.344 1.98 1.156-2.3 1.126 11.822 6.906 11.97-6.906-2.184-1.156 1.98-1.158 2.62 1.376z"></path>
</svg>
