<!-- Generated by IcoMoon.io -->
<svg version="1.1" xmlns="http://www.w3.org/2000/svg" width="32" height="32" viewBox="0 0 32 32">
<title>leaf</title>
<path d="M26.375 2.563q-0.156-0.531-0.609-0.875t-1.047-0.344h-0.25q-5.25 0.813-9.063 1.906t-6.375 2.594-4 3.438q-1.406 1.938-1.844 4.438-0.281 1.719 0.031 3.219 0.281 1.531 0.891 2.781t1.359 2.219 1.344 1.563q-0.469 1.094-0.969 2.453t-0.906 2.797l-0.125 0.375q-0.031 0.125-0.047 0.234t-0.016 0.266q0 0.688 0.5 1.203t1.219 0.516q0.594 0 1.047-0.344t0.609-0.875v0q0.531-1.781 1.094-3.297t1.125-2.828q0.063-0.094 0.125-0.219t0.094-0.25v0q1.188-2.563 2.313-4.219 1.125-1.688 2.016-2.672t1.453-1.391 0.594-0.438q0.406-0.219 0.672-0.625t0.266-0.906q0-0.719-0.516-1.219t-1.234-0.5q-0.219 0-0.422 0.047t-0.359 0.141v0q-0.063 0.031-0.688 0.438t-1.578 1.359-2.172 2.547-2.5 4.031q-0.813-1.031-1.469-2.531t-0.344-3.281q0.219-1.313 0.969-2.594 0.719-1.281 2.531-2.484t5.031-2.266q3.188-1.094 8.344-1.969 0.375 1.438 0.719 3.406 0.313 1.969 0.406 3.984t-0.188 3.891q-0.25 1.875-1.125 3.156-1.313 2-2.781 2.844t-2.719 1.047-2.094 0.047q-0.813-0.156-0.875-0.188-0.156-0.031-0.297-0.063t-0.297-0.031q-0.563 0-1 0.313t-0.625 0.813v0.031q-0.031 0.125-0.063 0.266t-0.031 0.297q0 0.563 0.313 1t0.813 0.625h0.031q0.531 0.188 1.281 0.328t1.625 0.141q1.063 0 2.281-0.281 1.25-0.25 2.5-0.875t2.5-1.688q1.219-1.063 2.313-2.688 1.5-2.25 1.781-5.281t-0.016-5.875-0.859-5q-0.531-2.188-0.688-2.656v0z"></path>
</svg>
