<!-- Generated by IcoMoon.io -->
<svg version="1.1" xmlns="http://www.w3.org/2000/svg" width="29" height="32" viewBox="0 0 29 32">
<title>letter</title>
<path d="M28.952 2.084c0.003-0.282-0.105-0.554-0.3-0.754s-0.461-0.313-0.738-0.313h-4.586c-0.101 0-0.198 0.020-0.291 0.048h-0.885c-0.163 0-0.329 0.011-0.521 0.035h-14.45c-0.192-0.024-0.358-0.035-0.521-0.035h-0.743c-0.093-0.028-0.189-0.048-0.292-0.048h-4.586c-0.277 0-0.542 0.113-0.738 0.313s-0.303 0.472-0.301 0.754c0.004 0.366 0.142 8.404 4.608 9.469v0.049c0 0.038 0.005 0.077 0.013 0.115 0.173 4.908 3.937 9.001 8.698 9.543v8.022h-3.908c-0.287 0-0.519 0.236-0.519 0.528v1.154c0 0.292 0.232 0.528 0.519 0.528h9.988c0.287 0 0.519-0.236 0.519-0.528v-1.154c0-0.292-0.233-0.528-0.519-0.528h-3.909v-8.022c4.707-0.526 8.347-4.371 8.679-9.192 0.058-0.086 0.091-0.19 0.091-0.3v-0.195c4.548-0.984 4.687-9.121 4.691-9.489zM14.406 19.122c-4.206 0-7.627-3.482-7.627-7.762v-8.051h15.255v8.051c0 4.28-3.422 7.762-7.628 7.762zM4.587 9.286c-1.742-0.983-2.279-4.396-2.441-6.156h2.441v6.156zM24.366 9.287v-6.158h2.443c-0.16 1.761-0.694 5.177-2.443 6.158z"></path>
</svg>
