<!-- Generated by IcoMoon.io -->
<svg version="1.1" xmlns="http://www.w3.org/2000/svg" width="32" height="32" viewBox="0 0 32 32">
<title>libra</title>
<path d="M31.969 9.219v-0.125t-0.016-0.078-0.016-0.078q-0.031-0.031-0.031-0.063t-0.031-0.063q0-0.031-0.016-0.063t-0.047-0.063q0-0.031-0.016-0.063t-0.047-0.063q0-0.031-0.031-0.047t-0.063-0.047q0-0.031-0.031-0.063l-0.063-0.063q0-0.031-0.031-0.047t-0.063-0.047q-0.031 0-0.063-0.031l-0.063-0.063h-0.031q-1.344-0.875-3.125-1.594-1.781-0.688-3.828-1.188t-4.297-0.75q-2.219-0.25-4.5-0.25-1.594 0-3.125 0.125t-3.016 0.406-2.859 0.688q-1.406 0.375-2.688 0.906-0.938 0.406-1.734 0.813t-1.547 0.875l0.094-0.063-0.063 0.063q-0.188 0.125-0.313 0.281t-0.219 0.375v0q0 0.031-0.016 0.063t-0.016 0.063q-0.031 0.094-0.047 0.203t-0.016 0.203v0 0q0 0.125 0.016 0.234t0.047 0.203v0q0 0.031 0.016 0.063t0.047 0.063v0.047t0.031 0.047l5.813 11.719 0.031 0.031q0.031 0.063 0.078 0.125t0.078 0.125l0.188 0.188t0.156 0.094q0 0.031 0.016 0.031h0.047q0.063 0.063 0.125 0.078t0.156 0.047l0.016 0.016t0.047 0.016q0.094 0.031 0.188 0.047t0.188 0.016h1.5q0.75 2.281 2.688 3.672t4.25 1.391q0.438 0 0.875-0.047t0.875-0.172h0.031q1.25-0.313 2.281-1.031 1.031-0.688 1.766-1.672t1.109-2.172q0.406-1.219 0.344-2.5-0.031-0.594-0.484-1t-1.047-0.406q-0.563 0.031-0.969 0.453t-0.406 1.016v0.25q0 1.531-0.938 2.703t-2.344 1.547h-0.031q-0.25 0.063-0.516 0.094t-0.547 0.031q-1.5 0-2.672-0.938t-1.547-2.344v-0.031q-0.063-0.25-0.094-0.516t-0.031-0.547q0-1.156 0.531-2.109t1.438-1.547v0q0.313-0.188 0.5-0.516t0.188-0.703q0-0.594-0.422-1.031t-1.047-0.438q-0.219 0-0.422 0.063t-0.359 0.188v0q-1.375 0.875-2.25 2.281t-1.031 3.063v0.031h-0.344l-4.781-9.656q0.375-0.219 0.781-0.406t0.813-0.344q0.813-0.344 1.766-0.656t1.922-0.531l0.188-0.031 0.156 0.875q0.094 0.5 0.5 0.844t0.938 0.344q0.594 0 1.016-0.438t0.422-1.031v-0.141t-0.031-0.141v0l-0.156-0.813q0.625-0.063 1.344-0.125t1.469-0.094h0.031v0.531q0 0.625 0.438 1.047t1.031 0.422 1.016-0.422 0.422-1.047v0-0.5q0.719 0.063 1.422 0.125t1.391 0.156l-0.094 0.5q0 0.063-0.016 0.141t-0.016 0.141q0 0.625 0.422 1.047t1.047 0.422q0.5 0 0.906-0.328t0.5-0.828v0l0.125-0.594q1.594 0.344 3 0.828t2.563 1.078l-4.563 10.5q-0.063 0.156-0.094 0.297t-0.031 0.297q0 0.594 0.422 1.031t1.016 0.438q0.469 0 0.828-0.25t0.516-0.625v0l5.094-11.75 0.047-0.094t0.016-0.094q0-0.031 0.016-0.047t0.016-0.047v-0.094t0.031-0.063v-0.219t-0.031-0.063v0zM18.344 12.406l-3.906 7.25q-0.063 0.156-0.109 0.328t-0.047 0.359q0 0.625 0.422 1.047t1.016 0.422q0.406 0 0.75-0.219t0.531-0.531v-0.031l3.906-7.25q0.094-0.156 0.141-0.328t0.047-0.359q0-0.625-0.422-1.047t-1.047-0.422q-0.406 0-0.75 0.219t-0.531 0.563v0 0z"></path>
</svg>
