<!-- Generated by IcoMoon.io -->
<svg version="1.1" xmlns="http://www.w3.org/2000/svg" width="32" height="32" viewBox="0 0 32 32">
<title>list-ul</title>
<path d="M6.844 25.156q0 1.406-1 2.406t-2.406 1q-1.438 0-2.438-1t-1-2.406q0-1.438 1-2.438t2.438-1q1.406 0 2.406 1t1 2.438v0zM6.844 16q0 1.438-1 2.438t-2.406 1q-1.438 0-2.438-1t-1-2.438 1-2.438 2.438-1q1.406 0 2.406 1t1 2.438v0zM32 23.438v3.406q0 0.25-0.156 0.406-0.188 0.188-0.406 0.188h-21.719q-0.25 0-0.406-0.188-0.156-0.156-0.156-0.406v-3.406q0-0.25 0.156-0.406 0.156-0.188 0.406-0.188h21.719q0.219 0 0.406 0.188 0.156 0.156 0.156 0.406v0zM6.844 6.844q0 1.438-1 2.438t-2.406 1q-1.438 0-2.438-1t-1-2.438q0-1.406 1-2.406t2.438-1q1.406 0 2.406 1t1 2.406v0zM32 14.281v3.438q0 0.219-0.156 0.406-0.188 0.156-0.406 0.156h-21.719q-0.25 0-0.406-0.156-0.156-0.188-0.156-0.406v-3.438q0-0.219 0.156-0.406 0.156-0.156 0.406-0.156h21.719q0.219 0 0.406 0.156 0.156 0.188 0.156 0.406v0zM32 5.156v3.406q0 0.25-0.156 0.406-0.188 0.188-0.406 0.188h-21.719q-0.25 0-0.406-0.188-0.156-0.156-0.156-0.406v-3.406q0-0.25 0.156-0.406 0.156-0.188 0.406-0.188h21.719q0.219 0 0.406 0.188 0.156 0.156 0.156 0.406v0z"></path>
</svg>
