<!-- Generated by IcoMoon.io -->
<svg version="1.1" xmlns="http://www.w3.org/2000/svg" width="32" height="32" viewBox="0 0 32 32">
<title>list-alt</title>
<path d="M6.844 21.156v1.125q0 0.25-0.156 0.406t-0.406 0.156h-1.125q-0.25 0-0.406-0.156-0.188-0.156-0.188-0.406v-1.125q0-0.25 0.188-0.406 0.156-0.188 0.406-0.188h1.125q0.25 0 0.406 0.188 0.156 0.156 0.156 0.406zM6.844 16.563v1.156q0 0.219-0.156 0.406-0.156 0.156-0.406 0.156h-1.125q-0.25 0-0.406-0.156-0.188-0.188-0.188-0.406v-1.156q0-0.219 0.188-0.406 0.156-0.156 0.406-0.156h1.125q0.25 0 0.406 0.156 0.156 0.188 0.156 0.406zM6.844 12v1.156q0 0.219-0.156 0.375-0.156 0.188-0.406 0.188h-1.125q-0.25 0-0.406-0.188-0.188-0.156-0.188-0.375v-1.156q0-0.219 0.188-0.406 0.156-0.156 0.406-0.156h1.125q0.25 0 0.406 0.156 0.156 0.188 0.156 0.406zM27.438 21.156v1.125q0 0.25-0.188 0.406-0.156 0.156-0.406 0.156h-17.125q-0.25 0-0.406-0.156t-0.156-0.406v-1.125q0-0.25 0.156-0.406 0.156-0.188 0.406-0.188h17.125q0.25 0 0.406 0.188 0.188 0.156 0.188 0.406zM27.438 16.563v1.156q0 0.219-0.188 0.406-0.156 0.156-0.406 0.156h-17.125q-0.25 0-0.406-0.156-0.156-0.188-0.156-0.406v-1.156q0-0.219 0.156-0.406 0.156-0.156 0.406-0.156h17.125q0.25 0 0.406 0.156 0.188 0.188 0.188 0.406zM27.438 12v1.156q0 0.219-0.188 0.375-0.156 0.188-0.406 0.188h-17.125q-0.25 0-0.406-0.188-0.156-0.156-0.156-0.375v-1.156q0-0.219 0.156-0.406 0.156-0.156 0.406-0.156h17.125q0.25 0 0.406 0.156 0.188 0.188 0.188 0.406zM29.719 24.563v-14.844q0-0.25-0.188-0.406-0.156-0.156-0.375-0.156h-26.313q-0.219 0-0.375 0.156-0.188 0.156-0.188 0.406v14.844q0 0.25 0.188 0.406 0.156 0.188 0.375 0.188h26.313q0.219 0 0.375-0.188 0.188-0.156 0.188-0.406zM32 5.156v19.406q0 1.188-0.844 2.031t-2 0.844h-26.313q-1.156 0-2-0.844t-0.844-2.031v-19.406q0-1.188 0.844-2.031t2-0.844h26.313q1.156 0 2 0.844t0.844 2.031z"></path>
</svg>
