<!-- Generated by IcoMoon.io -->
<svg version="1.1" xmlns="http://www.w3.org/2000/svg" width="32" height="32" viewBox="0 0 32 32">
<title>list</title>
<path d="M4.563 23.438v3.406q0 0.25-0.156 0.406-0.188 0.188-0.406 0.188h-3.438q-0.219 0-0.406-0.188-0.156-0.156-0.156-0.406v-3.406q0-0.25 0.156-0.406 0.188-0.188 0.406-0.188h3.438q0.219 0 0.406 0.188 0.156 0.156 0.156 0.406v0zM4.563 16.563v3.438q0 0.219-0.156 0.406-0.188 0.156-0.406 0.156h-3.438q-0.219 0-0.406-0.156-0.156-0.188-0.156-0.406v-3.438q0-0.219 0.156-0.406 0.188-0.156 0.406-0.156h3.438q0.219 0 0.406 0.156 0.156 0.188 0.156 0.406v0zM4.563 9.719v3.438q0 0.219-0.156 0.375-0.188 0.188-0.406 0.188h-3.438q-0.219 0-0.406-0.188-0.156-0.156-0.156-0.375v-3.438q0-0.25 0.156-0.406 0.188-0.156 0.406-0.156h3.438q0.219 0 0.406 0.156 0.156 0.156 0.156 0.406zM32 23.438v3.406q0 0.25-0.156 0.406-0.188 0.188-0.406 0.188h-24q-0.25 0-0.406-0.188-0.188-0.156-0.188-0.406v-3.406q0-0.25 0.188-0.406 0.156-0.188 0.406-0.188h24q0.219 0 0.406 0.188 0.156 0.156 0.156 0.406v0zM4.563 2.844v3.438q0 0.25-0.156 0.406-0.188 0.156-0.406 0.156h-3.438q-0.219 0-0.406-0.156-0.156-0.156-0.156-0.406v-3.438q0-0.219 0.156-0.375 0.188-0.188 0.406-0.188h3.438q0.219 0 0.406 0.188 0.156 0.156 0.156 0.375zM32 16.563v3.438q0 0.219-0.156 0.406-0.188 0.156-0.406 0.156h-24q-0.25 0-0.406-0.156-0.188-0.188-0.188-0.406v-3.438q0-0.219 0.188-0.406 0.156-0.156 0.406-0.156h24q0.219 0 0.406 0.156 0.156 0.188 0.156 0.406v0zM32 9.719v3.438q0 0.219-0.156 0.375-0.188 0.188-0.406 0.188h-24q-0.25 0-0.406-0.188-0.188-0.156-0.188-0.375v-3.438q0-0.25 0.188-0.406 0.156-0.156 0.406-0.156h24q0.219 0 0.406 0.156 0.156 0.156 0.156 0.406zM32 2.844v3.438q0 0.25-0.156 0.406-0.188 0.156-0.406 0.156h-24q-0.25 0-0.406-0.156-0.188-0.156-0.188-0.406v-3.438q0-0.219 0.188-0.375 0.156-0.188 0.406-0.188h24q0.219 0 0.406 0.188 0.156 0.156 0.156 0.375z"></path>
</svg>
