<!-- Generated by IcoMoon.io -->
<svg version="1.1" xmlns="http://www.w3.org/2000/svg" width="32" height="32" viewBox="0 0 32 32">
<title>list-ol</title>
<path d="M6.813 28.938q0 1.406-0.969 2.25-1 0.813-2.438 0.813-1.875 0-3.063-1.188l1-1.563q0.875 0.813 1.906 0.813 0.531 0 0.906-0.281 0.375-0.25 0.375-0.75 0-1.125-1.875-1l-0.469-1q0.156-0.188 0.594-0.781t0.75-0.969q0.313-0.344 0.656-0.688v0h-0.844q-0.594 0.031-0.875 0.031v0.938h-1.906v-2.719h5.969v1.594l-1.719 2.031q0.906 0.219 1.469 0.875 0.531 0.688 0.531 1.594v0zM6.844 17.719v2.844h-6.469q-0.094-0.625-0.094-0.969 0-0.906 0.406-1.656t1-1.219q0.594-0.438 1.188-0.844 0.594-0.375 1-0.781 0.438-0.375 0.438-0.781 0-0.469-0.281-0.688-0.25-0.25-0.688-0.25-0.813 0-1.438 1.031l-1.531-1.063q0.438-0.906 1.281-1.406t1.875-0.5q1.313 0 2.188 0.719 0.906 0.75 0.906 2.031 0 0.875-0.594 1.625-0.625 0.75-1.344 1.156-0.75 0.406-1.344 0.906-0.625 0.469-0.656 0.938h2.281v-1.094h1.875zM32 23.438v3.406q0 0.25-0.156 0.406-0.188 0.188-0.406 0.188h-21.719q-0.25 0-0.406-0.188-0.156-0.156-0.156-0.406v-3.406q0-0.25 0.156-0.406 0.156-0.188 0.406-0.188h21.719q0.219 0 0.406 0.188 0.156 0.156 0.156 0.406zM6.844 7.375v1.781h-5.969v-1.781h1.906v-2.156q0.031-1.438 0.031-2.188v-0.219h-0.031q-0.156 0.313-0.906 0.969l-1.281-1.344 2.438-2.281h1.906v7.219h1.906zM32 14.281v3.438q0 0.219-0.156 0.406-0.188 0.156-0.406 0.156h-21.719q-0.25 0-0.406-0.156-0.156-0.188-0.156-0.406v-3.438q0-0.25 0.156-0.406t0.406-0.156h21.719q0.219 0 0.406 0.156 0.156 0.188 0.156 0.406v0zM32 5.156v3.406q0 0.25-0.156 0.406-0.188 0.188-0.406 0.188h-21.719q-0.25 0-0.406-0.188-0.156-0.156-0.156-0.406v-3.406q0-0.25 0.156-0.406 0.156-0.188 0.406-0.188h21.719q0.219 0 0.406 0.188 0.156 0.156 0.156 0.406v0z"></path>
</svg>
