<!-- Generated by IcoMoon.io -->
<svg version="1.1" xmlns="http://www.w3.org/2000/svg" width="32" height="32" viewBox="0 0 32 32">
<title>low-vision</title>
<path d="M5.969 24.219q-0.031 0-0.094-0.031-1.531-1.031-3-2.594t-2.5-3.219q-0.375-0.531-0.375-1.219 0-0.188 0.031-0.344 0.031-0.188 0.063-0.344 0.063-0.125 0.125-0.313 0.094-0.188 0.156-0.281t0.188-0.313q0.125-0.188 0.188-0.25 0.063-0.094 0.219-0.281 0.156-0.219 0.188-0.25 3.281-4.5 8.063-6.531-1.938-3.531-1.938-3.781 0-0.313 0.281-0.5 2.094-1.156 2.281-1.156 0.344 0 0.5 0.281l2.219 4.094q1.656-0.344 3.438-0.344 4.75 0 8.875 2.469 4.156 2.469 6.781 6.594 0.344 0.563 0.344 1.25 0 0.656-0.344 1.219-1.625 2.531-3.906 4.531t-4.969 3.125q1.938 3.531 1.938 3.781 0 0.344-0.281 0.5-2.094 1.156-2.281 1.156-0.344 0-0.5-0.281l-2.219-4.094-1.156-2.125-7.938-14.656 0.125-0.125q-1.031 0.438-1.75 0.844 0.063 0.094 2.25 4.188 2.219 4.094 4.344 8 2.125 3.938 2.125 4 0 0.125-0.156 0.156-0.219 0.063-1.281 0.063-1.031 0-1.063-0.125l-8.156-15.031q-0.688 0.5-1.469 1.219 0.438 0.781 3.844 7.031 3.375 6.25 3.375 6.313 0 0.188-0.188 0.188-0.25 0-1.469-0.375-1.219-0.406-1.313-0.5l-1.875-3.531-4-7.375q-0.781 0.938-1.406 1.906 0.031 0.031 0.313 0.438 0.313 0.375 0.438 0.594l3.125 5.844q0 0.188-0.188 0.188v0zM20.813 22.406l0.875 1.625q4.875-2 8.031-6.875-3.219-4.969-8.188-6.969 1.188 1.156 1.813 2.656 0.656 1.5 0.656 3.156 0 1.906-0.844 3.594t-2.344 2.813v0zM15.156 11.438q0 0.344 0.25 0.594t0.594 0.25q1.531 0 2.625 1.094t1.094 2.625q0 0.344 0.25 0.594t0.594 0.25q0.375 0 0.625-0.25t0.25-0.594q0-2.25-1.594-3.844t-3.844-1.594q-0.344 0-0.594 0.25t-0.25 0.625v0zM21.688 10.281l-0.156-0.094 0.125 0.125z"></path>
</svg>
