<!-- Generated by IcoMoon.io -->
<svg version="1.1" xmlns="http://www.w3.org/2000/svg" width="32" height="32" viewBox="0 0 32 32">
<title>map-marker</title>
<path d="M20.563 11.438q0-1.906-1.344-3.25-1.313-1.344-3.219-1.344t-3.219 1.344q-1.344 1.344-1.344 3.25 0 1.875 1.344 3.219 1.313 1.344 3.219 1.344t3.219-1.344q1.344-1.344 1.344-3.219zM25.156 11.438q0 1.938-0.594 3.188l-6.5 13.813q-0.281 0.594-0.844 0.938t-1.219 0.344-1.219-0.344-0.813-0.938l-6.531-13.813q-0.594-1.25-0.594-3.188 0-3.781 2.688-6.469t6.469-2.688 6.469 2.688 2.688 6.469v0z"></path>
</svg>
