<!-- Generated by IcoMoon.io -->
<svg version="1.1" xmlns="http://www.w3.org/2000/svg" width="32" height="32" viewBox="0 0 32 32">
<title>minus-square-o</title>
<path d="M24 14.281v1.156q0 0.25-0.156 0.406t-0.406 0.156h-14.875q-0.25 0-0.406-0.156t-0.156-0.406v-1.156q0-0.25 0.156-0.406t0.406-0.156h14.875q0.25 0 0.406 0.156t0.156 0.406v0zM26.281 22.281v-14.844q0-1.188-0.844-2.031t-2-0.844h-14.875q-1.156 0-2 0.844t-0.844 2.031v14.844q0 1.188 0.844 2.031t2 0.844h14.875q1.156 0 2-0.844t0.844-2.031zM28.563 7.438v14.844q0 2.125-1.5 3.625-1.5 1.531-3.625 1.531h-14.875q-2.125 0-3.625-1.531-1.5-1.5-1.5-3.625v-14.844q0-2.125 1.5-3.656 1.5-1.5 3.625-1.5h14.875q2.125 0 3.625 1.5 1.5 1.531 1.5 3.656v0z"></path>
</svg>
