<!-- Generated by IcoMoon.io -->
<svg version="1.1" xmlns="http://www.w3.org/2000/svg" width="37" height="32" viewBox="0 0 37 32">
<title>my-orders</title>
<path d="M34.453 2.677c-0.377-0.762-1.342-1.096-2.158-0.744-0.817 0.35-1.174 1.252-0.799 2.013 1.208 2.444 1.82 5.059 1.82 7.77 0 2.667-0.594 5.243-1.762 7.654-0.371 0.763-0.008 1.662 0.812 2.007 0.217 0.092 0.445 0.136 0.67 0.136 0.621 0 1.213-0.332 1.484-0.892 1.361-2.806 2.052-5.803 2.052-8.904 0-3.152-0.712-6.194-2.118-9.040zM9.639 2.268c-4.916 0-9.219 3.494-9.609 8.154-0.426 5.095 3.674 9.364 8.881 9.588l3.227 8.363c0.533 1.381 2.002 2.304 3.528 2.066 2.054-0.32 3.195-2.293 2.515-4.055l-2.451-6.353h5.801c2.239 0 4.074 1.067 5.417 2.132 0.363 0.288 0.915 0.029 0.915-0.421v-21.209c0-0.456-0.555-0.696-0.925-0.407-1.368 1.069-3.192 2.143-5.576 2.143h-11.724z"></path>
</svg>
