<!-- Generated by IcoMoon.io -->
<svg version="1.1" xmlns="http://www.w3.org/2000/svg" width="32" height="32" viewBox="0 0 32 32">
<title>paperclip</title>
<path d="M28.5 24.719q0 2.094-1.406 3.5-1.406 1.438-3.5 1.438-2.406 0-4.188-1.813l-13.875-13.844q-2.031-2.063-2.031-4.844 0-2.844 1.969-4.813 1.969-2 4.813-2 2.813 0 4.875 2.031l10.781 10.813q0.188 0.188 0.188 0.406 0 0.281-0.531 0.813-0.563 0.563-0.844 0.563-0.219 0-0.406-0.188l-10.813-10.844q-1.438-1.375-3.25-1.375-1.875 0-3.188 1.344t-1.313 3.25q0 1.875 1.375 3.219l13.844 13.875q1.125 1.125 2.594 1.125 1.125 0 1.875-0.75t0.75-1.906q0-1.438-1.125-2.563l-10.375-10.375q-0.438-0.438-1.063-0.438-0.5 0-0.844 0.344t-0.344 0.844q0 0.563 0.438 1.063l7.313 7.313q0.188 0.188 0.188 0.406 0 0.281-0.563 0.844-0.531 0.531-0.813 0.531-0.219 0-0.406-0.156l-7.313-7.344q-1.125-1.094-1.125-2.656 0-1.469 1-2.469 1.031-1.031 2.5-1.031 1.563 0 2.656 1.125l10.375 10.375q1.781 1.75 1.781 4.188v0z"></path>
</svg>
