<!-- Generated by IcoMoon.io -->
<svg version="1.1" xmlns="http://www.w3.org/2000/svg" width="32" height="32" viewBox="0 0 32 32">
<title>pause</title>
<path d="M29.719 3.438v25.125q0 0.469-0.344 0.813t-0.813 0.344h-9.125q-0.469 0-0.813-0.344t-0.344-0.813v-25.125q0-0.469 0.344-0.813t0.813-0.344h9.125q0.469 0 0.813 0.344t0.344 0.813v0zM13.719 3.438v25.125q0 0.469-0.344 0.813t-0.813 0.344h-9.125q-0.469 0-0.813-0.344t-0.344-0.813v-25.125q0-0.469 0.344-0.813t0.813-0.344h9.125q0.469 0 0.813 0.344t0.344 0.813v0z"></path>
</svg>
