<!-- Generated by IcoMoon.io -->
<svg version="1.1" xmlns="http://www.w3.org/2000/svg" width="34" height="32" viewBox="0 0 34 32">
<title>payment-conditions</title>
<path d="M6.832 13.999c-0.535-1.225-0.832-2.577-0.832-3.999 0-5.523 4.477-10 10-10s10 4.477 10 10c0 1.375-0.277 2.685-0.779 3.877l6.329 3.024c1.011 0.483 1.011 1.923-0 2.406l-2.88 1.376 2.88 1.551c1.011 0.483 1.011 1.923-0 2.406l-14.821 7.081c-0.364 0.174-0.786 0.174-1.15 0l-14.821-7.081c-1.011-0.483-1.011-1.923-0-2.406l2.93-1.527-2.93-1.4c-1.011-0.483-1.011-1.923-0-2.406l6.073-2.902zM8.225 16.289l-3.799 1.815 11.728 5.603 11.728-5.603-4.022-1.922c-1.831 2.325-4.671 3.817-7.86 3.817-3.14 0-5.942-1.447-7.775-3.711zM6.915 22.249l-2.489 1.189 11.728 5.603 11.728-5.603-2.846-1.018-8.307 3.969c-0.364 0.174-0.786 0.174-1.15 0l-8.665-4.14zM10.667 13.92c1.399 0.959 2.986 1.526 4.76 1.698v1.715h1.613v-1.698c1.282-0.1 2.319-0.446 3.109-1.037s1.185-1.347 1.185-2.267c0-0.931-0.34-1.676-1.020-2.234s-1.778-1.001-3.293-1.33v-3.255c0.933 0.167 1.833 0.533 2.701 1.096l1.117-1.615c-1.133-0.725-2.399-1.16-3.798-1.305v-1.021h-1.613v0.987c-1.256 0.084-2.276 0.423-3.060 1.017s-1.175 1.348-1.175 2.263c0 0.954 0.337 1.7 1.010 2.238s1.755 0.975 3.245 1.309v3.355c-1.133-0.145-2.302-0.636-3.507-1.473l-1.273 1.556zM13.333 6.619c0-0.355 0.115-0.649 0.345-0.883s0.559-0.368 0.988-0.403v2.667c-0.51-0.167-0.86-0.357-1.049-0.569s-0.284-0.483-0.284-0.813zM17.333 13.333v-2.667c0.506 0.163 0.855 0.35 1.046 0.561s0.287 0.486 0.287 0.827c0 0.369-0.117 0.666-0.35 0.891s-0.561 0.355-0.983 0.388z"></path>
</svg>
