<!-- Generated by IcoMoon.io -->
<svg version="1.1" xmlns="http://www.w3.org/2000/svg" width="32" height="32" viewBox="0 0 32 32">
<title>pencil-square-o</title>
<path d="M15.844 21.156l2.094-2.094-2.719-2.719-2.063 2.094v1h1.688v1.719h1zM23.719 8.281q-0.281-0.281-0.594 0.031l-6.25 6.25q-0.313 0.281-0.031 0.594 0.313 0.281 0.594-0.031l6.25-6.25q0.313-0.313 0.031-0.594zM25.156 18.906v3.375q0 2.125-1.531 3.625-1.5 1.531-3.625 1.531h-14.844q-2.125 0-3.656-1.531-1.5-1.5-1.5-3.625v-14.844q0-2.125 1.5-3.656 1.531-1.5 3.656-1.5h14.844q1.125 0 2.094 0.438 0.25 0.125 0.313 0.438 0.063 0.281-0.156 0.5l-0.875 0.875q-0.25 0.25-0.563 0.156-0.406-0.125-0.813-0.125h-14.844q-1.188 0-2.031 0.844t-0.844 2.031v14.844q0 1.188 0.844 2.031t2.031 0.844h14.844q1.188 0 2.031-0.844 0.813-0.844 0.813-2.031v-2.25q0-0.219 0.188-0.375l1.125-1.156q0.281-0.281 0.625-0.125 0.375 0.156 0.375 0.531v0zM23.438 5.719l5.125 5.125-12 12h-5.125v-5.125zM31.344 8.063l-1.625 1.656-5.156-5.156 1.656-1.625q0.5-0.5 1.219-0.5t1.219 0.5l2.688 2.719q0.5 0.5 0.5 1.188 0 0.719-0.5 1.219v0z"></path>
</svg>
