<!-- Generated by IcoMoon.io -->
<svg version="1.1" xmlns="http://www.w3.org/2000/svg" width="32" height="32" viewBox="0 0 32 32">
<title>pencil</title>
<path d="M8.781 27.438l1.625-1.625-4.219-4.219-1.625 1.625v1.938h2.281v2.281h1.938zM18.094 10.844q0-0.375-0.375-0.375-0.188 0-0.313 0.125l-9.688 9.688q-0.125 0.125-0.125 0.281 0 0.406 0.406 0.406 0.188 0 0.313-0.125l9.656-9.688q0.125-0.125 0.125-0.313v0zM17.156 7.438l7.406 7.406-14.844 14.875h-7.438v-7.438zM29.344 9.156q0 0.938-0.656 1.594l-2.969 2.969-7.438-7.438 2.969-2.938q0.656-0.688 1.594-0.688 0.969 0 1.625 0.688l4.219 4.188q0.656 0.688 0.656 1.625v0z"></path>
</svg>
