<!-- Generated by IcoMoon.io -->
<svg version="1.1" xmlns="http://www.w3.org/2000/svg" width="32" height="32" viewBox="0 0 32 32">
<title>pencil-square</title>
<path d="M9.5 19.781l2.719 2.719-0.938 0.938h-1v-1.719h-1.719v-1zM16.906 12.813q0.25 0.25-0.063 0.531l-5.188 5.219q-0.313 0.281-0.563 0.031-0.25-0.219 0.063-0.531l5.188-5.188q0.313-0.313 0.563-0.063v0zM12 25.156l9.719-9.719-5.156-5.156-9.719 9.719v5.156h5.156zM22.844 14.281l1.656-1.625q0.5-0.5 0.5-1.219t-0.5-1.219l-2.719-2.719q-0.5-0.5-1.219-0.5t-1.219 0.5l-1.625 1.656zM29.719 7.438v17.125q0 2.125-1.5 3.656-1.531 1.5-3.656 1.5h-17.125q-2.125 0-3.656-1.5-1.5-1.531-1.5-3.656v-17.125q0-2.125 1.5-3.656 1.531-1.5 3.656-1.5h17.125q2.125 0 3.656 1.5 1.5 1.531 1.5 3.656v0z"></path>
</svg>
