<!-- Generated by IcoMoon.io -->
<svg version="1.1" xmlns="http://www.w3.org/2000/svg" width="32" height="32" viewBox="0 0 32 32">
<title>percent</title>
<path d="M25.156 22.844q0-0.906-0.688-1.594t-1.625-0.688q-0.906 0-1.594 0.688t-0.688 1.594q0 0.938 0.688 1.625t1.594 0.688q0.938 0 1.625-0.688t0.688-1.625v0zM11.438 9.156q0-0.938-0.688-1.625t-1.594-0.688q-0.938 0-1.625 0.688t-0.688 1.625q0 0.906 0.688 1.594t1.625 0.688q0.906 0 1.594-0.688t0.688-1.594zM29.719 22.844q0 2.844-2 4.875-2.031 2-4.875 2-2.813 0-4.844-2-2-2.031-2-4.875 0-2.813 2-4.844 2.031-2 4.844-2 2.844 0 4.875 2 2 2.031 2 4.844v0zM28 3.438q0 0.344-0.219 0.656l-18.875 25.156q-0.344 0.469-0.906 0.469h-2.844q-0.469 0-0.813-0.344t-0.344-0.813q0-0.344 0.219-0.656l18.875-25.156q0.344-0.469 0.906-0.469h2.844q0.469 0 0.813 0.344t0.344 0.813v0zM16 9.156q0 2.813-2 4.844-2.031 2-4.844 2-2.844 0-4.875-2-2-2.031-2-4.844 0-2.844 2-4.875 2.031-2 4.875-2 2.813 0 4.844 2 2 2.031 2 4.875z"></path>
</svg>
