<!-- Generated by IcoMoon.io -->
<svg version="1.1" xmlns="http://www.w3.org/2000/svg" width="32" height="32" viewBox="0 0 32 32">
<title>phone</title>
<path d="M28.563 22.156q0 0.469-0.156 1.25-0.188 0.781-0.375 1.219-0.375 0.906-2.188 1.906-1.688 0.906-3.313 0.906-0.5 0-0.969-0.063t-1.031-0.219q-0.563-0.188-0.813-0.281-0.281-0.094-1-0.344-0.719-0.281-0.875-0.344-1.75-0.625-3.125-1.469-2.281-1.406-4.719-3.875-2.438-2.438-3.844-4.688-0.875-1.375-1.5-3.125-0.063-0.188-0.313-0.875-0.281-0.719-0.375-1t-0.25-0.844-0.219-1.031-0.063-0.938q0-1.656 0.906-3.313 1-1.813 1.875-2.188 0.469-0.188 1.25-0.375 0.75-0.188 1.25-0.188 0.25 0 0.375 0.063 0.313 0.094 0.938 1.344 0.188 0.344 0.531 0.969t0.625 1.125q0.281 0.531 0.563 0.969 0.063 0.063 0.313 0.438t0.375 0.656q0.125 0.25 0.125 0.5 0 0.344-0.5 0.875-0.5 0.563-1.094 1-0.625 0.438-1.125 0.938t-0.5 0.813q0 0.188 0.094 0.406 0.094 0.25 0.156 0.375t0.25 0.438q0.188 0.281 0.188 0.344 1.375 2.438 3.125 4.188t4.188 3.094q0.031 0.031 0.344 0.219 0.281 0.188 0.406 0.25t0.375 0.156 0.406 0.094q0.313 0 0.813-0.531 0.5-0.5 0.969-1.094 0.438-0.594 0.969-1.125 0.531-0.5 0.906-0.5 0.25 0 0.5 0.125t0.625 0.375q0.375 0.281 0.438 0.313 0.469 0.281 0.969 0.563t1.125 0.625 0.969 0.531q1.25 0.625 1.375 0.969 0.031 0.125 0.031 0.375v0z"></path>
</svg>
