<!-- Generated by IcoMoon.io -->
<svg version="1.1" xmlns="http://www.w3.org/2000/svg" width="32" height="32" viewBox="0 0 32 32">
<title>phone-o</title>
<path d="M15.813 16.688l-0.25-0.25q-0.063-0.063-0.547-0.609t-1.391-1.547l-0.125-0.125q-0.656-0.75-0.906-1.141t-0.25-0.734q0-0.438 0.266-0.969t0.797-1.219q0.438-0.625 0.453-1.391t-0.453-1.703q-0.313-0.594-0.891-1.438t-1.359-1.875l-0.125-0.156q-0.469-0.531-0.938-0.781t-1-0.25q-0.375 0-0.844 0.172t-0.969 0.484l-0.063 0.063-0.156 0.125q-0.688 0.438-1.125 0.953t-0.625 1.078q-0.375 1.156-0.063 2.703t1.344 3.484q1.281 2.25 2.719 4.188t3.094 3.656v0q1.281 1.313 2.703 2.531t2.922 2.281l0.125 0.094q1.938 1.438 3.563 2.141t2.906 0.703q0.5 0 0.891-0.016t0.609-0.047q0.188-0.031 0.469-0.156t0.656-0.344 0.766-0.563 0.797-0.844q0.906-1.094 0.922-2.016t-0.891-1.797q-0.469-0.469-1.172-0.984t-1.609-1.047q-0.875-0.5-1.594-0.75t-1.25-0.25h-0.063q-0.219 0-0.422 0.063t-0.359 0.188v0q-1.031 0.625-1.641 0.922t-0.984 0.297q-0.313 0-0.641-0.188t-0.828-0.625q-0.375-0.344-0.938-0.891t-1.313-1.297l-0.125-0.125h-0.094zM16.906 15.375l0.281 0.281q0.75 0.75 1.281 1.266t0.906 0.828q0.219 0.219 0.359 0.328t0.016 0.109q0.031 0 0.5-0.266t1.219-0.703q0.344-0.25 0.766-0.391t0.922-0.141h0.063q0.781 0 1.703 0.313t1.984 0.938q0.969 0.563 1.766 1.141t1.359 1.141q1.344 1.344 1.359 2.906t-1.328 3.125q-0.5 0.594-0.984 1.016t-0.984 0.734-0.922 0.484-0.828 0.234q-0.313 0.031-0.734 0.047t-0.984 0.016q-1.594 0-3.469-0.781t-3.969-2.344q-1.656-1.188-3.141-2.453t-2.828-2.641v-0.031q-1.719-1.781-3.219-3.781t-2.75-4.188l-0.094-0.188q-1.188-2.219-1.547-4.109t0.141-3.391q0.25-0.875 0.859-1.594t1.516-1.313l0.125-0.094q0.781-0.5 1.484-0.766t1.359-0.266q0.938 0 1.719 0.422t1.438 1.172l0.125 0.156q0.906 1.156 1.516 2.063t0.984 1.594q0.656 1.344 0.625 2.563t-0.781 2.25q-0.344 0.469-0.531 0.781t-0.188 0.406q0-0.094 0.016-0.063t0.047 0.063q0.125 0.156 0.281 0.359t0.375 0.422l0.094 0.125q0.719 0.781 1.172 1.297t0.641 0.703q0.094 0.063 0.156 0.109t0.125 0.109v0 0z"></path>
</svg>
