<!-- Generated by IcoMoon.io -->
<svg version="1.1" xmlns="http://www.w3.org/2000/svg" width="32" height="32" viewBox="0 0 32 32">
<title>phone-square</title>
<path d="M25.156 21.313q0-0.219-0.063-0.281-0.031-0.094-0.313-0.313-0.281-0.188-0.719-0.438t-0.844-0.469q-0.406-0.25-0.813-0.469-0.406-0.188-0.5-0.25t-0.344-0.25q-0.25-0.156-0.469-0.25-0.188-0.094-0.375-0.094-0.25 0-0.625 0.375-0.406 0.344-0.719 0.781t-0.688 0.813-0.594 0.375q-0.125 0-0.313-0.063-0.156-0.063-0.25-0.125l-0.313-0.156q-0.188-0.125-0.25-0.156-1.781-1-3.031-2.25-1.281-1.281-2.281-3.063-0.031-0.063-0.156-0.25l-0.156-0.313q-0.063-0.094-0.125-0.25-0.063-0.188-0.063-0.313 0-0.219 0.375-0.594t0.813-0.688 0.781-0.719q0.375-0.375 0.375-0.625 0-0.188-0.094-0.375-0.094-0.219-0.25-0.469-0.188-0.25-0.25-0.344t-0.25-0.5q-0.219-0.406-0.469-0.813-0.219-0.406-0.469-0.844t-0.438-0.719q-0.219-0.281-0.313-0.313-0.063-0.063-0.281-0.063-0.844 0-1.781 0.406-0.844 0.375-1.438 1.688-0.625 1.313-0.625 2.344 0 0.281 0.063 0.594 0.031 0.313 0.094 0.531 0.031 0.25 0.156 0.594 0.125 0.375 0.188 0.531t0.219 0.594 0.188 0.531q1.063 2.938 3.875 5.719 2.781 2.813 5.719 3.875 0.094 0.031 0.531 0.188t0.594 0.219 0.531 0.188q0.344 0.125 0.594 0.156 0.219 0.063 0.531 0.094 0.313 0.063 0.594 0.063 1.031 0 2.344-0.625 1.313-0.594 1.688-1.438 0.406-0.938 0.406-1.781v0zM29.719 7.438v17.125q0 2.125-1.5 3.656-1.531 1.5-3.656 1.5h-17.125q-2.125 0-3.656-1.5-1.5-1.531-1.5-3.656v-17.125q0-2.125 1.5-3.656 1.531-1.5 3.656-1.5h17.125q2.125 0 3.656 1.5 1.5 1.531 1.5 3.656v0z"></path>
</svg>
