<!-- Generated by IcoMoon.io -->
<svg version="1.1" xmlns="http://www.w3.org/2000/svg" width="32" height="32" viewBox="0 0 32 32">
<title>pie</title>
<path d="M14.229 26.52l-1.428 5.48c-7.337-1.288-12.8-8.060-12.8-16s5.463-14.712 12.8-16l1.039 5.552c-4.855 0.999-8.506 5.297-8.506 10.448 0 5.288 3.847 9.676 8.895 10.52zM17.852 5.493l1.517-5.395c7.24 1.303 12.632 8.155 12.632 16.189 0 1.515-0.195 3.022-0.581 4.488l-5.204-1.695c0.294-0.975 0.452-2.010 0.452-3.081 0-5.26-3.807-9.63-8.815-10.507zM17.812 26.513c2.882-0.493 5.37-2.143 6.968-4.455l5.62 3.303c-2.665 3.541-6.688 5.925-11.2 6.639l-1.388-5.487z"></path>
</svg>
