<!-- Generated by IcoMoon.io -->
<svg version="1.1" xmlns="http://www.w3.org/2000/svg" width="33" height="32" viewBox="0 0 33 32">
<title>play1</title>
<path d="M16.438 31.906q-3.406 0-6.375-1.25-3-1.25-5.234-3.422t-3.547-5.078q-1.281-2.906-1.281-6.188 0-2.969 1.063-5.656 1.094-2.688 2.984-4.797t4.484-3.516 5.594-1.844q0.531-0.063 0.922 0.234t0.453 0.766q0.063 0.5-0.234 0.891t-0.797 0.453q-2.563 0.344-4.781 1.563-2.188 1.188-3.813 2.984t-2.531 4.109q-0.906 2.281-0.906 4.813 0 2.813 1.094 5.281t3 4.313 4.469 2.938q2.531 1.063 5.438 1.063t5.469-1.063q2.531-1.094 4.438-2.938t3.031-4.313q1.094-2.469 1.094-5.281 0-2.531-0.906-4.813-0.938-2.281-2.531-4.078t-3.813-3.016q-2.188-1.188-4.75-1.563-0.5-0.063-0.797-0.453t-0.234-0.859q0.063-0.5 0.469-0.797t0.906-0.203q3 0.406 5.594 1.813 2.563 1.406 4.453 3.531t2.953 4.813q1.094 2.656 1.094 5.625 0 3.281-1.313 6.188-1.281 2.906-3.516 5.078t-5.234 3.422-6.406 1.25v0zM13.438 24h-0.031q-0.281 0-0.531-0.141t-0.438-0.359v0q-0.281-0.375-0.203-0.859t0.484-0.766l7.906-5.625-6-4.25v5.938q0 0.5-0.344 0.844t-0.844 0.344q-0.531 0-0.875-0.344t-0.344-0.844v-8.25q0-0.313 0.172-0.609t0.484-0.422q0.125-0.063 0.266-0.094t0.297-0.031q0.188 0 0.375 0.047t0.344 0.172h-0.031l9.281 6.563q0.219 0.156 0.359 0.406t0.141 0.531v0q0 0.281-0.125 0.531t-0.375 0.438l-9.281 6.563q-0.125 0.094-0.313 0.156t-0.375 0.063v0 0 0 0z"></path>
</svg>
