<!-- Generated by IcoMoon.io -->
<svg version="1.1" xmlns="http://www.w3.org/2000/svg" width="32" height="32" viewBox="0 0 32 32">
<title>play-circle-o</title>
<path d="M23.438 16q0 0.656-0.594 0.969l-9.688 5.719q-0.281 0.156-0.594 0.156-0.281 0-0.563-0.125-0.563-0.344-0.563-1v-11.438q0-0.656 0.563-1 0.594-0.313 1.156 0.031l9.688 5.719q0.594 0.313 0.594 0.969v0zM25.719 16q0-2.656-1.313-4.875t-3.531-3.531-4.875-1.313-4.875 1.313-3.531 3.531-1.313 4.875 1.313 4.875 3.531 3.531 4.875 1.313 4.875-1.313 3.531-3.531 1.313-4.875zM29.719 16q0 3.719-1.844 6.875t-5 5-6.875 1.844-6.875-1.844-5-5-1.844-6.875 1.844-6.875 5-5 6.875-1.844 6.875 1.844 5 5 1.844 6.875z"></path>
</svg>
