<!-- Generated by IcoMoon.io -->
<svg version="1.1" xmlns="http://www.w3.org/2000/svg" width="32" height="32" viewBox="0 0 32 32">
<title>plus-square</title>
<path d="M25.156 17.156v-2.313q0-0.438-0.344-0.781t-0.813-0.344h-5.719v-5.719q0-0.469-0.344-0.813t-0.781-0.344h-2.313q-0.438 0-0.781 0.344t-0.344 0.813v5.719h-5.719q-0.469 0-0.813 0.344t-0.344 0.781v2.313q0 0.438 0.344 0.781t0.813 0.344h5.719v5.719q0 0.469 0.344 0.813t0.781 0.344h2.313q0.438 0 0.781-0.344t0.344-0.813v-5.719h5.719q0.469 0 0.813-0.344t0.344-0.781v0zM29.719 7.438v17.125q0 2.125-1.5 3.656-1.531 1.5-3.656 1.5h-17.125q-2.125 0-3.656-1.5-1.5-1.531-1.5-3.656v-17.125q0-2.125 1.5-3.656 1.531-1.5 3.656-1.5h17.125q2.125 0 3.656 1.5 1.5 1.531 1.5 3.656v0z"></path>
</svg>
