<!-- Generated by IcoMoon.io -->
<svg version="1.1" xmlns="http://www.w3.org/2000/svg" width="32" height="32" viewBox="0 0 32 32">
<title>plus-circle</title>
<path d="M24 17.156v-2.313q0-0.438-0.344-0.781t-0.813-0.344h-4.563v-4.563q0-0.469-0.344-0.813t-0.781-0.344h-2.313q-0.438 0-0.781 0.344t-0.344 0.813v4.563h-4.563q-0.469 0-0.813 0.344t-0.344 0.781v2.313q0 0.438 0.344 0.781t0.813 0.344h4.563v4.563q0 0.469 0.344 0.813t0.781 0.344h2.313q0.438 0 0.781-0.344t0.344-0.813v-4.563h4.563q0.469 0 0.813-0.344t0.344-0.781v0zM29.719 16q0 3.719-1.844 6.875t-5 5-6.875 1.844-6.875-1.844-5-5-1.844-6.875 1.844-6.875 5-5 6.875-1.844 6.875 1.844 5 5 1.844 6.875z"></path>
</svg>
