<!-- Generated by IcoMoon.io -->
<svg version="1.1" xmlns="http://www.w3.org/2000/svg" width="32" height="32" viewBox="0 0 32 32">
<title>point</title>
<path d="M3.563 12.438q1.469 0 2.516 1.047t1.047 2.516-1.047 2.516-2.516 1.047-2.516-1.047-1.047-2.516 1.047-2.516 2.516-1.047zM16 12.438q1.469 0 2.516 1.047t1.047 2.516-1.047 2.516-2.516 1.047-2.516-1.047-1.047-2.516 1.047-2.516 2.516-1.047zM28.438 12.438q1.469 0 2.516 1.047t1.047 2.516-1.047 2.516-2.516 1.047-2.516-1.047-1.047-2.516 1.047-2.516 2.516-1.047z"></path>
</svg>
