<!-- Generated by IcoMoon.io -->
<svg version="1.1" xmlns="http://www.w3.org/2000/svg" width="32" height="32" viewBox="0 0 32 32">
<title>polygraphy</title>
<path d="M29.625 19.188q0.719 0 1.234 0.516t0.516 1.266v0 7q0 0.75-0.516 1.266t-1.234 0.516-1.234-0.516-0.516-1.266v0-5.25h-22.844v3.5h13.156q0.75 0 1.266 0.516t0.516 1.234q0 0.75-0.516 1.266t-1.266 0.516v0h-14.938q-0.719 0-1.234-0.516t-0.516-1.266v0-7q0-0.75 0.516-1.266t1.234-0.516v0-15.813q0-0.719 0.516-1.234t1.266-0.516v0h22.844q0.719 0 1.234 0.516t0.516 1.234v0 10.563q0 0.719-0.516 1.234t-1.234 0.516q-0.75 0-1.266-0.516t-0.516-1.234v0-8.813h-19.313v14.063h22.844zM25.969 27.313q0.031 0.094 0.063 0.172t0.031 0.141q0.031 0.094 0.031 0.188v0.188q0 0.344-0.141 0.672t-0.359 0.547v0l-0.125 0.125t-0.156 0.094q-0.063 0.063-0.141 0.094t-0.172 0.063q-0.063 0.031-0.141 0.063t-0.172 0.063q-0.094 0-0.172 0.016t-0.172 0.016-0.172-0.016-0.172-0.016q-0.094-0.031-0.172-0.063t-0.172-0.063q-0.063-0.031-0.141-0.063t-0.141-0.094q-0.094-0.031-0.156-0.094l-0.125-0.125q-0.219-0.219-0.359-0.547t-0.141-0.672v-0.188t0.031-0.188v0q0.031-0.156 0.094-0.328t0.188-0.297h-0.031q0.094-0.125 0.219-0.25t0.281-0.219v0q0.063-0.063 0.141-0.109t0.141-0.078q0.094-0.031 0.172-0.047t0.172-0.047q0.438-0.063 0.859 0.063t0.734 0.406q0.063 0.094 0.109 0.156t0.109 0.125q0.031 0.094 0.078 0.156t0.078 0.156v0z"></path>
</svg>
