<!-- Generated by IcoMoon.io -->
<svg version="1.1" xmlns="http://www.w3.org/2000/svg" width="32" height="32" viewBox="0 0 32 32">
<title>polygraphy_2</title>
<path d="M11.563 24q-0.375 0-0.641 0.266t-0.266 0.609q0 0.375 0.266 0.641t0.641 0.266v0h4.438q0.375 0 0.625-0.266t0.25-0.641q0-0.344-0.25-0.609t-0.625-0.266v0h-4.438zM21.344 20.438q0-0.375-0.266-0.625t-0.641-0.25v0h-8.875q-0.375 0-0.641 0.25t-0.266 0.625 0.266 0.641 0.641 0.266v0h8.875q0.375 0 0.641-0.266t0.266-0.641v0zM17.406 6.75q-0.25 0.25-0.391 0.563t-0.141 0.688q0 0.094 0.016 0.188t0.047 0.156v0q0 0.094 0.031 0.172t0.063 0.172q0.031 0.063 0.063 0.141t0.094 0.172q0.063 0.063 0.109 0.125t0.109 0.125l0.125 0.125t0.156 0.094q0.125 0.094 0.281 0.172t0.344 0.109v0q0.094 0 0.172 0.016t0.172 0.016q0.375 0 0.703-0.141t0.578-0.391v0q0.063-0.063 0.109-0.125t0.109-0.125q0.031-0.094 0.078-0.172t0.078-0.141q0.031-0.094 0.063-0.172t0.031-0.172q0.031-0.063 0.031-0.156v-0.188q0-0.375-0.141-0.688t-0.359-0.563v0q-0.5-0.5-1.266-0.5t-1.266 0.5v0zM28.438 13.344h-24.875v-3.563h8.875q0.75 0 1.266-0.516t0.516-1.266-0.516-1.266-1.266-0.516v0h-5.313v-2.656h17.75v2.656q-0.719 0-1.234 0.516t-0.516 1.266 0.516 1.266 1.234 0.516v0h3.563v3.563zM30.219 6.219h-1.781v-4.438q0-0.75-0.516-1.266t-1.266-0.516v0h-21.313q-0.75 0-1.266 0.516t-0.516 1.266v0 4.438h-1.781q-0.75 0-1.266 0.516t-0.516 1.266v0 7.125q0 0.719 0.516 1.234t1.266 0.516v0h1.781v13.344q0 0.75 0.516 1.266t1.266 0.516v0h15.094q0.094 0 0.188-0.016t0.156-0.016 0.094-0.016 0.063-0.047q0.063 0 0.109-0.016t0.078-0.016q0.031-0.031 0.078-0.047t0.078-0.047 0.078-0.047 0.078-0.047q0.063-0.031 0.125-0.094t0.156-0.125l6.219-6.219q0.063-0.063 0.109-0.125t0.109-0.125q0-0.031 0.016-0.078t0.047-0.078 0.047-0.078 0.047-0.078q0-0.063 0.016-0.109t0.047-0.078q0-0.031 0.016-0.078t0.016-0.078q0.031-0.063 0.031-0.156v-2.844q0-0.75-0.516-1.266t-1.266-0.516q-0.719 0-1.25 0.516t-0.531 1.266v0 1.906l-5.156 5.188h-12.594v-11.563h23.094q0.75 0 1.266-0.516t0.516-1.234v0-7.125q0-0.75-0.516-1.266t-1.266-0.516v0 0z"></path>
</svg>
