<!-- Generated by IcoMoon.io -->
<svg version="1.1" xmlns="http://www.w3.org/2000/svg" width="32" height="32" viewBox="0 0 32 32">
<title>portmone</title>
<path d="M28.499 24.194h-13.111c-1.81 0-3.278-1.468-3.278-3.278v-9.833c0-1.81 1.468-3.278 3.278-3.278h13.111v-3.278h-24.583v22.944h24.583v-3.278zM3.916 1.25h24.583c1.81 0 3.278 1.468 3.278 3.278v22.944c0 1.81-1.468 3.278-3.278 3.278h-24.583c-1.81 0-3.278-1.468-3.278-3.278v-22.944c0-1.81 1.468-3.278 3.278-3.278zM15.388 11.083v9.833h13.111v-9.833h-13.111zM21.944 18.458c-1.357 0-2.458-1.101-2.458-2.458s1.101-2.458 2.458-2.458c1.357 0 2.458 1.101 2.458 2.458s-1.101 2.458-2.458 2.458zM21.944 16.819c0.452 0 0.819-0.367 0.819-0.819s-0.367-0.819-0.819-0.819c-0.452 0-0.819 0.367-0.819 0.819s0.367 0.819 0.819 0.819z"></path>
</svg>
