<!-- Generated by IcoMoon.io -->
<svg version="1.1" xmlns="http://www.w3.org/2000/svg" width="32" height="32" viewBox="0 0 32 32">
<title>print</title>
<path d="M8 27.438h16v-4.594h-16v4.594zM8 16h16v-6.844h-2.844q-0.719 0-1.219-0.5t-0.5-1.219v-2.875h-11.438v11.438zM28.563 17.156q0-0.469-0.344-0.813-0.313-0.344-0.781-0.344t-0.813 0.344-0.344 0.813q0 0.438 0.344 0.781t0.813 0.344 0.781-0.344q0.344-0.344 0.344-0.781v0zM30.844 17.156v7.406q0 0.25-0.156 0.406-0.156 0.188-0.406 0.188h-4v2.844q0 0.719-0.5 1.219t-1.219 0.5h-17.125q-0.719 0-1.219-0.5t-0.5-1.219v-2.844h-4q-0.25 0-0.406-0.188-0.156-0.156-0.156-0.406v-7.406q0-1.438 1-2.438t2.406-1h1.156v-9.719q0-0.719 0.5-1.219t1.219-0.5h12q0.719 0 1.563 0.375 0.844 0.344 1.344 0.844l2.719 2.719q0.5 0.5 0.875 1.344 0.344 0.875 0.344 1.594v4.563h1.156q1.406 0 2.406 1t1 2.438v0z"></path>
</svg>
