<!-- Generated by IcoMoon.io -->
<svg version="1.1" xmlns="http://www.w3.org/2000/svg" width="32" height="32" viewBox="0 0 32 32">
<title>prozorro</title>
<path d="M16.563 11.063q-0.281-0.281-0.563-0.531l-0.563-0.5 4.875-4.625 10.969 10.781q-1.063 1.156-2.906 3-1.813 1.844-3.563 3.625t-3.031 3.063l-1.281 1.281-11.125-10.875q1.5-1.531 3-3.078t3.031-3.078l1.063 1.094q-0.531 0.469-1.406 1.313-0.875 0.875-1.719 1.703t-1.438 1.422l-0.625 0.625 1.406 1.375q1.406 1.406 3.109 3.078t3.109 3.078l1.406 1.406 1.375-1.406q1.375-1.375 3.031-3.047t3.063-3.047l1.375-1.406-8.75-8.969zM12.156 10.969q-1.063 1.063-1.391 0.422t0.234-1.422l4.875-4.625 10.969 10.813q-1.063 1.125-2.906 3-1.813 1.844-3.563 3.609t-3.031 3.078l-1.281 1.281-11.125-10.875q1.5-1.531 3.016-3.078t3.016-3.078q0.281 0.281 0.547 0.484t0.547 0.484l-1.625 1.625t-1.703 1.688-1.328 1.313l-0.563 0.563 1.406 1.375q1.438 1.406 3.125 3.078t3.094 3.078l1.406 1.375 1.375-1.375q1.406-1.375 3.063-3.047t3.031-3.078l1.375-1.375-8.75-8.969zM7.844 11.063q-0.281-0.281-0.563-0.531t-0.531-0.5l4.875-4.625 10.969 10.781q-1.094 1.156-2.906 3-1.844 1.844-3.594 3.625t-3.031 3.063l-1.281 1.281-11.125-10.875q1.531-1.531 3.156-3.219t3.125-3.219l0.969 1.125q-0.531 0.469-1.438 1.344t-1.766 1.766-1.484 1.547l-0.625 0.656 1.406 1.375q1.406 1.406 3.094 3.078t3.094 3.078l1.406 1.406 1.406-1.406q1.375-1.375 3.031-3.047t3.031-3.047l1.375-1.406-8.75-8.969z"></path>
</svg>
