<!-- Generated by IcoMoon.io -->
<svg version="1.1" xmlns="http://www.w3.org/2000/svg" width="32" height="32" viewBox="0 0 32 32">
<title>qrcode</title>
<path d="M10.281 20.563v2.281h-2.281v-2.281h2.281zM10.281 6.844v2.313h-2.281v-2.313h2.281zM24 6.844v2.313h-2.281v-2.313h2.281zM5.719 25.125h6.844v-6.844h-6.844v6.844zM5.719 11.438h6.844v-6.875h-6.844v6.875zM19.438 11.438h6.844v-6.875h-6.844v6.875zM14.844 16v11.438h-11.406v-11.438h11.406zM24 25.156v2.281h-2.281v-2.281h2.281zM28.563 25.156v2.281h-2.281v-2.281h2.281zM28.563 16v6.844h-6.844v-2.281h-2.281v6.875h-2.281v-11.438h6.844v2.281h2.281v-2.281h2.281zM14.844 2.281v11.438h-11.406v-11.438h11.406zM28.563 2.281v11.438h-11.406v-11.438h11.406z"></path>
</svg>
