<!-- Generated by IcoMoon.io -->
<svg version="1.1" xmlns="http://www.w3.org/2000/svg" width="32" height="32" viewBox="0 0 32 32">
<title>question-circle</title>
<path d="M18.281 24.563v-3.406q0-0.25-0.156-0.438-0.156-0.156-0.406-0.156h-3.438q-0.25 0-0.406 0.156-0.156 0.188-0.156 0.438v3.406q0 0.25 0.156 0.406 0.156 0.188 0.406 0.188h3.438q0.25 0 0.406-0.188 0.156-0.156 0.156-0.406v0zM22.844 12.563q0-1.563-0.969-2.906-1-1.344-2.469-2.063-1.5-0.75-3.063-0.75-4.313 0-6.625 3.813-0.25 0.438 0.156 0.75l2.344 1.781q0.125 0.125 0.344 0.125 0.281 0 0.469-0.219 0.938-1.219 1.531-1.656 0.594-0.406 1.531-0.406 0.844 0 1.531 0.438 0.656 0.469 0.656 1.063 0 0.688-0.344 1.094-0.375 0.406-1.219 0.813-1.125 0.5-2.063 1.531-0.938 1.063-0.938 2.25v0.625q0 0.25 0.156 0.438 0.156 0.156 0.406 0.156h3.438q0.25 0 0.406-0.156 0.156-0.188 0.156-0.438 0-0.313 0.375-0.875 0.406-0.531 1-0.875 0.563-0.313 0.875-0.5 0.281-0.188 0.813-0.625 0.5-0.438 0.781-0.875 0.281-0.406 0.5-1.063 0.219-0.688 0.219-1.469v0zM29.719 16q0 3.719-1.844 6.875t-5 5-6.875 1.844-6.875-1.844-5-5-1.844-6.875 1.844-6.875 5-5 6.875-1.844 6.875 1.844 5 5 1.844 6.875z"></path>
</svg>
