<!-- Generated by IcoMoon.io -->
<svg version="1.1" xmlns="http://www.w3.org/2000/svg" width="32" height="32" viewBox="0 0 32 32">
<title>question</title>
<path d="M19.438 22.438v4.281q0 0.281-0.219 0.5t-0.5 0.219h-4.281q-0.281 0-0.5-0.219t-0.219-0.5v-4.281q0-0.281 0.219-0.5t0.5-0.219h4.281q0.281 0 0.5 0.219t0.219 0.5zM25.063 11.719q0 0.969-0.281 1.813-0.25 0.813-0.625 1.344-0.344 0.531-0.969 1.063t-1.031 0.781q-0.375 0.25-1.094 0.625-0.719 0.438-1.219 1.188t-0.5 1.188q0 0.313-0.188 0.563-0.219 0.281-0.5 0.281h-4.313q-0.25 0-0.438-0.313-0.188-0.344-0.188-0.688v-0.781q0-1.5 1.156-2.813t2.563-1.938q1.031-0.469 1.5-1 0.438-0.5 0.438-1.344 0-0.75-0.844-1.344-0.813-0.563-1.906-0.563-1.156 0-1.938 0.531-0.625 0.438-1.906 2.031-0.219 0.313-0.563 0.313-0.188 0-0.438-0.156l-2.938-2.219q-0.219-0.188-0.25-0.469-0.063-0.25 0.094-0.5 2.844-4.75 8.281-4.75 1.438 0 2.875 0.563t2.594 1.469q1.156 0.938 1.906 2.281 0.719 1.344 0.719 2.844v0z"></path>
</svg>
