<!-- Generated by IcoMoon.io -->
<svg version="1.1" xmlns="http://www.w3.org/2000/svg" width="32" height="32" viewBox="0 0 32 32">
<title>question-circle-o</title>
<path d="M18 21.438v2.844q0 0.25-0.156 0.406t-0.406 0.156h-2.875q-0.25 0-0.406-0.156t-0.156-0.406v-2.844q0-0.25 0.156-0.406 0.156-0.188 0.406-0.188h2.875q0.25 0 0.406 0.188 0.156 0.156 0.156 0.406zM22.563 12.563q0 0.906-0.25 1.625-0.281 0.719-0.813 1.219-0.563 0.531-0.938 0.781-0.375 0.281-1.063 0.656-0.563 0.313-0.844 0.5-0.25 0.188-0.438 0.438-0.219 0.25-0.219 0.5v0.563q0 0.25-0.156 0.438-0.156 0.156-0.406 0.156h-2.875q-0.25 0-0.406-0.156-0.156-0.188-0.156-0.438v-1.188q0-0.625 0.188-1.156t0.438-0.844q0.219-0.344 0.688-0.656t0.719-0.438q0.281-0.156 0.813-0.375 0.938-0.469 1.344-0.781 0.375-0.313 0.375-0.875 0-0.75-0.781-1.281-0.75-0.531-1.688-0.531-1 0-1.688 0.5-0.531 0.344-1.438 1.469-0.156 0.219-0.438 0.219-0.219 0-0.344-0.094l-1.938-1.469q-0.188-0.125-0.219-0.375-0.031-0.219 0.094-0.406 2.188-3.406 6.219-3.406 2.313 0 4.281 1.594 1.938 1.594 1.938 3.813v0zM16 4.563q-2.313 0-4.438 0.906-2.125 0.938-3.656 2.438-1.5 1.531-2.438 3.656-0.906 2.125-0.906 4.438t0.906 4.438q0.938 2.125 2.438 3.656 1.531 1.5 3.656 2.438 2.125 0.906 4.438 0.906t4.438-0.906q2.125-0.938 3.656-2.438 1.5-1.531 2.438-3.656 0.906-2.125 0.906-4.438t-0.906-4.438q-0.938-2.125-2.438-3.656-1.531-1.5-3.656-2.438-2.125-0.906-4.438-0.906zM29.719 16q0 3.719-1.844 6.875t-5 5-6.875 1.844-6.875-1.844-5-5-1.844-6.875 1.844-6.875 5-5 6.875-1.844 6.875 1.844 5 5 1.844 6.875z"></path>
</svg>
