<!-- Generated by IcoMoon.io -->
<svg version="1.1" xmlns="http://www.w3.org/2000/svg" width="32" height="32" viewBox="0 0 32 32">
<title>refresh</title>
<path d="M29.281 18.844q0 0.094-0.031 0.125-1.156 4.813-4.781 7.781-3.656 2.969-8.531 2.969-2.625 0-5.063-1-2.438-0.969-4.344-2.781l-2.313 2.281q-0.313 0.344-0.781 0.344t-0.813-0.344q-0.344-0.313-0.344-0.781v-8q0-0.469 0.344-0.813t0.813-0.344h8q0.469 0 0.781 0.344 0.344 0.344 0.344 0.813t-0.344 0.781l-2.438 2.469q1.281 1.156 2.875 1.813 1.625 0.656 3.344 0.656 2.406 0 4.469-1.188 2.063-1.156 3.313-3.188 0.188-0.313 0.938-2.094 0.156-0.406 0.563-0.406h3.406q0.25 0 0.406 0.188 0.188 0.156 0.188 0.375zM29.719 4.563v8q0 0.469-0.344 0.813t-0.813 0.344h-8q-0.469 0-0.781-0.344-0.344-0.344-0.344-0.813t0.344-0.781l2.438-2.469q-2.625-2.469-6.219-2.469-2.406 0-4.469 1.188-2.063 1.156-3.313 3.188-0.188 0.313-0.938 2.094-0.156 0.406-0.563 0.406h-3.531q-0.25 0-0.406-0.188-0.188-0.156-0.188-0.375v-0.125q1.188-4.813 4.844-7.781t8.563-2.969q2.594 0 5.063 1t4.375 2.781l2.344-2.281q0.313-0.344 0.781-0.344t0.813 0.344q0.344 0.313 0.344 0.781z"></path>
</svg>
