<!-- Generated by IcoMoon.io -->
<svg version="1.1" xmlns="http://www.w3.org/2000/svg" width="32" height="32" viewBox="0 0 32 32">
<title>reply-all</title>
<path d="M11.438 19.313v1.25q0 0.75-0.719 1.063-0.219 0.094-0.438 0.094-0.469 0-0.813-0.344l-9.125-9.156q-0.344-0.313-0.344-0.781t0.344-0.813l9.125-9.156q0.531-0.531 1.25-0.25 0.719 0.313 0.719 1.063v1.25l-7.094 7.094q-0.344 0.344-0.344 0.813t0.344 0.781zM32 20q0 1.031-0.313 2.375-0.281 1.344-0.688 2.469-0.375 1.125-0.844 2.25-0.469 1.094-0.719 1.594l-0.375 0.719q-0.125 0.313-0.5 0.313-0.094 0-0.156-0.031-0.438-0.125-0.406-0.594 0.781-7.156-1.906-10.094-1.125-1.281-3.031-1.969-1.906-0.719-4.781-0.938v4.469q0 0.75-0.688 1.063-0.25 0.094-0.438 0.094-0.5 0-0.813-0.344l-9.156-9.156q-0.344-0.313-0.344-0.781t0.344-0.813l9.156-9.156q0.5-0.531 1.25-0.25 0.688 0.313 0.688 1.063v4.688q7.344 0.5 10.688 3.938 3.031 3.094 3.031 9.094v0z"></path>
</svg>
