<!-- Generated by IcoMoon.io -->
<svg version="1.1" xmlns="http://www.w3.org/2000/svg" width="32" height="32" viewBox="0 0 32 32">
<title>reply</title>
<path d="M32 20q0 2.969-2.281 8.063-0.031 0.125-0.188 0.406-0.125 0.313-0.219 0.563-0.125 0.219-0.25 0.375-0.219 0.313-0.5 0.313-0.25 0-0.406-0.188t-0.156-0.438q0-0.156 0.031-0.469 0.063-0.313 0.063-0.438 0.094-1.219 0.094-2.188 0-1.813-0.313-3.219-0.313-1.438-0.875-2.5-0.563-1.031-1.438-1.781-0.875-0.781-1.875-1.25t-2.375-0.75-2.75-0.406q-1.375-0.094-3.125-0.094h-4v4.563q0 0.469-0.344 0.813t-0.813 0.344-0.813-0.344l-9.125-9.156q-0.344-0.313-0.344-0.781t0.344-0.813l9.125-9.156q0.344-0.313 0.813-0.313t0.813 0.313q0.344 0.344 0.344 0.813v4.563h4q12.719 0 15.625 7.219 0.938 2.375 0.938 5.938v0z"></path>
</svg>
