<!-- Generated by IcoMoon.io -->
<svg version="1.1" xmlns="http://www.w3.org/2000/svg" width="37" height="32" viewBox="0 0 37 32">
<title>retweet</title>
<path d="M24 26.857q0 0.232-0.17 0.402t-0.402 0.17h-17.143q-0.143 0-0.241-0.036t-0.161-0.125-0.098-0.143-0.054-0.205-0.018-0.205v-10.714h-3.429q-0.464 0-0.804-0.339t-0.339-0.804q0-0.429 0.268-0.732l5.714-6.857q0.339-0.393 0.875-0.393t0.875 0.393l5.714 6.857q0.268 0.304 0.268 0.732 0 0.464-0.339 0.804t-0.804 0.339h-3.429v6.857h10.286q0.286 0 0.446 0.196l2.857 3.429q0.125 0.179 0.125 0.375zM35.429 19.429q0 0.429-0.268 0.732l-5.714 6.857q-0.357 0.411-0.875 0.411t-0.875-0.411l-5.714-6.857q-0.268-0.304-0.268-0.732 0-0.464 0.339-0.804t0.804-0.339h3.429v-6.857h-10.286q-0.286 0-0.446-0.214l-2.857-3.429q-0.125-0.161-0.125-0.357 0-0.232 0.17-0.402t0.402-0.17h17.143q0.143 0 0.241 0.036t0.161 0.125 0.098 0.143 0.054 0.205 0.018 0.205v10.714h3.429q0.464 0 0.804 0.339t0.339 0.804z"></path>
</svg>
