<!-- Generated by IcoMoon.io -->
<svg version="1.1" xmlns="http://www.w3.org/2000/svg" width="32" height="32" viewBox="0 0 32 32">
<title>rotate-left</title>
<path d="M29.719 16q0 2.781-1.094 5.313t-2.938 4.375-4.375 2.938-5.313 1.094q-3.063 0-5.844-1.313-2.75-1.281-4.719-3.625-0.125-0.188-0.094-0.406 0-0.219 0.125-0.375l2.469-2.469q0.156-0.156 0.438-0.156 0.281 0.031 0.406 0.219 1.313 1.688 3.188 2.625 1.906 0.938 4.031 0.938 1.844 0 3.531-0.75 1.688-0.719 2.938-1.938 1.219-1.25 1.938-2.938 0.75-1.688 0.75-3.531t-0.75-3.531q-0.719-1.688-1.938-2.938-1.25-1.219-2.938-1.938-1.688-0.75-3.531-0.75-1.75 0-3.344 0.656-1.625 0.625-2.875 1.813l2.438 2.469q0.563 0.531 0.25 1.219-0.281 0.719-1.031 0.719h-8q-0.469 0-0.813-0.344t-0.344-0.813v-8q0-0.75 0.719-1.031 0.688-0.313 1.219 0.25l2.344 2.281q1.906-1.781 4.344-2.781 2.469-1 5.094-1 2.781 0 5.313 1.094t4.375 2.938 2.938 4.375 1.094 5.313v0z"></path>
</svg>
