<!-- Generated by IcoMoon.io -->
<svg version="1.1" xmlns="http://www.w3.org/2000/svg" width="32" height="32" viewBox="0 0 32 32">
<title>rotate-right</title>
<path d="M29.719 4.563v8q0 0.469-0.344 0.813t-0.813 0.344h-8q-0.75 0-1.031-0.719-0.313-0.688 0.25-1.219l2.438-2.469q-2.625-2.469-6.219-2.469-1.844 0-3.531 0.75-1.688 0.719-2.938 1.938-1.219 1.25-1.938 2.938-0.75 1.688-0.75 3.531t0.75 3.531q0.719 1.688 1.938 2.938 1.25 1.219 2.938 1.938 1.688 0.75 3.531 0.75 2.125 0 4.031-0.938 1.875-0.938 3.188-2.625 0.125-0.188 0.406-0.219 0.281 0 0.438 0.156l2.469 2.469q0.156 0.156 0.156 0.375t-0.125 0.406q-1.969 2.344-4.719 3.625-2.781 1.313-5.844 1.313-2.781 0-5.313-1.094t-4.375-2.938-2.938-4.375-1.094-5.313 1.094-5.313 2.938-4.375 4.375-2.938 5.313-1.094q2.625 0 5.094 1 2.438 1 4.344 2.781l2.344-2.281q0.5-0.563 1.25-0.25 0.688 0.281 0.688 1.031v0z"></path>
</svg>
