<!-- Generated by IcoMoon.io -->
<svg version="1.1" xmlns="http://www.w3.org/2000/svg" width="32" height="32" viewBox="0 0 32 32">
<title>rotate-clock</title>
<path d="M19.361 0.090h12.639l-4.988 4.758c6.16 6.117 6.16 15.93 0 22.047s-16.171 6.065-22.331-0.035c-6.177-6.117-6.177-16.052 0-22.169 3.089-3.067 7.651-4.601 11.166-4.601v3.486c-3.515 0-6.302 1.185-8.68 3.555-4.811 4.758-4.811 12.461 0 17.219s12.568 4.758 17.379 0c4.793-4.758 4.615-12.461-0.177-17.219l-5.006 4.775v-11.817zM15.975 8.994v7.544l6.1 3.692-1.255 2.148-7.459-4.509v-8.876h2.614z"></path>
</svg>
