<!-- Generated by IcoMoon.io -->
<svg version="1.1" xmlns="http://www.w3.org/2000/svg" width="32" height="32" viewBox="0 0 32 32">
<title>rub</title>
<path d="M23.188 10.094q0-1.781-1.156-2.906-1.156-1.094-3.063-1.094h-5.688v8h5.688q1.906 0 3.063-1.125 1.156-1.094 1.156-2.875v0zM27.438 10.094q0 3.438-2.281 5.625-2.25 2.188-5.813 2.188h-6.063v2.094h9q0.25 0 0.406 0.156t0.156 0.406v2.281q0 0.25-0.156 0.438-0.156 0.156-0.406 0.156h-9v3.406q0 0.25-0.188 0.438-0.156 0.156-0.406 0.156h-2.969q-0.25 0-0.406-0.156-0.156-0.188-0.156-0.438v-3.406h-4q-0.25 0-0.438-0.156-0.156-0.188-0.156-0.438v-2.281q0-0.25 0.156-0.406 0.188-0.156 0.438-0.156h4v-2.094h-4q-0.25 0-0.438-0.188-0.156-0.156-0.156-0.406v-2.656q0-0.219 0.156-0.406 0.188-0.156 0.438-0.156h4v-11.25q0-0.25 0.156-0.406t0.406-0.156h9.625q3.563 0 5.813 2.188 2.281 2.188 2.281 5.625v0z"></path>
</svg>
