<!-- Generated by IcoMoon.io -->
<svg version="1.1" xmlns="http://www.w3.org/2000/svg" width="32" height="32" viewBox="0 0 32 32">
<title>scissors</title>
<path d="M17.156 16q0.438 0 0.781 0.344t0.344 0.813q0 0.438-0.344 0.781t-0.781 0.344q-0.469 0-0.813-0.344t-0.344-0.781q0-0.469 0.344-0.813t0.813-0.344v0zM22.5 17.156l9.063 7.094q0.5 0.344 0.438 1-0.094 0.625-0.625 0.906l-2.281 1.156q-0.25 0.125-0.531 0.125t-0.531-0.156l-12.344-6.906-1.969 1.188-0.188 0.094q0.25 0.875 0.156 1.719-0.125 1.375-1 2.625-0.875 1.281-2.344 2.219-2.375 1.5-4.938 1.5-2.438 0-3.969-1.406-1.625-1.5-1.406-3.688 0.125-1.344 1-2.625t2.313-2.219q2.375-1.5 4.969-1.5 1.5 0 2.719 0.563 0.156-0.25 0.375-0.406l2.188-1.281-2.188-1.313q-0.219-0.156-0.375-0.406-1.219 0.563-2.719 0.563-2.594 0-4.969-1.5-1.438-0.938-2.313-2.219-0.875-1.25-1-2.625-0.094-1.063 0.25-2 0.375-0.969 1.156-1.688 1.5-1.406 3.969-1.406 2.563 0 4.938 1.5 1.469 0.938 2.344 2.219 0.875 1.25 1 2.625 0.094 0.875-0.156 1.75 0.063 0 0.188 0.063l1.969 1.188 12.344-6.906q0.25-0.156 0.531-0.156t0.531 0.125l2.281 1.156q0.531 0.281 0.625 0.906 0.063 0.656-0.438 1zM10.344 12.5q0.813-0.75 0.375-1.938-0.438-1.156-1.906-2.094-1.625-1.031-3.406-1.031-1.344 0-2.031 0.625-0.813 0.75-0.375 1.938t1.906 2.094q1.625 1.063 3.406 1.063 1.344 0 2.031-0.656v0zM8.813 25.813q1.469-0.906 1.906-2.094t-0.375-1.938q-0.688-0.625-2.031-0.625-1.781 0-3.406 1.031-1.469 0.906-1.906 2.094t0.375 1.938q0.688 0.625 2.031 0.625 1.781 0 3.406-1.031v0zM12 14.844l1.719 1.063v-0.219q0-0.625 0.594-1l0.25-0.125-1.406-0.844-0.469 0.469q-0.063 0.031-0.188 0.188t-0.219 0.219l-0.063 0.063t-0.063 0.031zM16 18.844l1.719 0.594 13.125-10.281-2.281-1.156-13.719 7.688v2.031l-2.844 1.719 0.156 0.125 0.125 0.125q0.063 0.063 0.188 0.219 0.125 0.125 0.219 0.188l0.469 0.469zM28.563 26.281l2.281-1.125-9.281-7.313-3.156 2.469q-0.031 0.063-0.219 0.125z"></path>
</svg>
