<!-- Generated by IcoMoon.io -->
<svg version="1.1" xmlns="http://www.w3.org/2000/svg" width="32" height="32" viewBox="0 0 32 32">
<title>search-minus</title>
<path d="M19.438 14.281v1.156q0 0.219-0.188 0.406-0.156 0.156-0.406 0.156h-10.281q-0.219 0-0.406-0.156-0.156-0.188-0.156-0.406v-1.156q0-0.219 0.156-0.406 0.188-0.156 0.406-0.156h10.281q0.25 0 0.406 0.156 0.188 0.188 0.188 0.406v0zM21.719 14.844q0-3.281-2.344-5.625-2.344-2.375-5.656-2.375t-5.656 2.375q-2.344 2.344-2.344 5.625 0 3.313 2.344 5.656t5.656 2.344 5.656-2.344 2.344-5.656zM30.844 29.719q0 0.938-0.656 1.625-0.656 0.656-1.625 0.656t-1.594-0.688l-6.125-6.094q-3.188 2.219-7.125 2.219-2.563 0-4.875-1-2.344-1-4.031-2.688t-2.688-4q-0.969-2.344-0.969-4.906 0-2.531 0.969-4.875 1-2.313 2.688-4t4.031-2.688q2.313-1 4.875-1t4.875 1q2.344 1 4.031 2.688t2.656 4q1 2.344 1 4.875 0 3.938-2.219 7.125l6.125 6.125q0.656 0.688 0.656 1.625v0z"></path>
</svg>
