<!-- Generated by IcoMoon.io -->
<svg version="1.1" xmlns="http://www.w3.org/2000/svg" width="32" height="32" viewBox="0 0 32 32">
<title>share-alt</title>
<path d="M24 18.281q2.375 0 4.031 1.688 1.688 1.656 1.688 4.031t-1.688 4.031q-1.656 1.688-4.031 1.688t-4.031-1.688q-1.688-1.656-1.688-4.031 0-0.219 0.031-0.594l-6.406-3.219q-1.656 1.531-3.906 1.531-2.375 0-4.031-1.688-1.688-1.656-1.688-4.031t1.688-4.031q1.656-1.688 4.031-1.688 2.25 0 3.906 1.531l6.406-3.219q-0.031-0.375-0.031-0.594 0-2.375 1.688-4.031 1.656-1.688 4.031-1.688t4.031 1.688q1.688 1.656 1.688 4.031t-1.688 4.031q-1.656 1.688-4.031 1.688-2.25 0-3.906-1.531l-6.406 3.219q0.031 0.375 0.031 0.594t-0.031 0.594l6.406 3.219q1.656-1.531 3.906-1.531z"></path>
</svg>
