<!-- Generated by IcoMoon.io -->
<svg version="1.1" xmlns="http://www.w3.org/2000/svg" width="32" height="32" viewBox="0 0 32 32">
<title>share-square</title>
<path d="M20.219 19.656l6.313-6.281q0.313-0.344 0.313-0.813t-0.313-0.781l-6.313-6.313q-0.531-0.531-1.219-0.25-0.719 0.313-0.719 1.063v2.875q-2.125 0-3.844 0.344-1.75 0.344-2.906 0.906-1.188 0.563-2.031 1.406-0.875 0.844-1.375 1.719-0.5 0.844-0.781 1.938-0.313 1.094-0.406 2-0.094 0.875-0.094 1.969 0 3.219 3 7.219 0.188 0.188 0.438 0.188 0.125 0 0.25-0.031 0.375-0.156 0.313-0.594-0.781-6.313 1.125-8.438 0.813-0.938 2.313-1.375 1.5-0.406 4-0.406v2.844q0 0.75 0.719 1.063 0.219 0.094 0.438 0.094 0.469 0 0.781-0.344v0zM29.719 7.438v17.125q0 2.125-1.5 3.656-1.531 1.5-3.656 1.5h-17.125q-2.125 0-3.656-1.5-1.5-1.531-1.5-3.656v-17.125q0-2.125 1.5-3.656 1.531-1.5 3.656-1.5h17.125q2.125 0 3.656 1.5 1.5 1.531 1.5 3.656v0z"></path>
</svg>
