<!-- Generated by IcoMoon.io -->
<svg version="1.1" xmlns="http://www.w3.org/2000/svg" width="32" height="32" viewBox="0 0 32 32">
<title>share-square-o</title>
<path d="M26.281 17.656v4.625q0 2.125-1.5 3.625-1.5 1.531-3.625 1.531h-14.875q-2.125 0-3.625-1.531-1.5-1.5-1.5-3.625v-14.844q0-2.125 1.5-3.656 1.5-1.5 3.625-1.5h4.563q0.219 0 0.406 0.188 0.156 0.156 0.156 0.375 0 0.5-0.469 0.594-1.375 0.469-2.375 1.063-0.156 0.063-0.281 0.063h-2q-1.188 0-2 0.844-0.844 0.844-0.844 2.031v14.844q0 1.188 0.844 2.031 0.813 0.844 2 0.844h14.875q1.156 0 2-0.844t0.844-2.031v-3.813q0-0.344 0.313-0.531 0.5-0.219 0.969-0.656 0.281-0.281 0.625-0.125 0.375 0.156 0.375 0.5v0zM30.531 8.813l-6.875 6.844q-0.313 0.344-0.813 0.344-0.188 0-0.438-0.094-0.688-0.313-0.688-1.063v-3.406h-2.875q-5.75 0-7.813 2.344-2.125 2.438-1.313 8.438 0.063 0.406-0.375 0.594-0.125 0.031-0.188 0.031-0.313 0-0.469-0.219-0.188-0.25-0.375-0.563-0.219-0.281-0.719-1.219-0.5-0.906-0.875-1.781-0.375-0.844-0.688-2.031t-0.313-2.188q0-0.875 0.063-1.625t0.25-1.594 0.5-1.563 0.844-1.469 1.219-1.313q0.688-0.594 1.688-1.094 1-0.531 2.219-0.875t2.844-0.531q1.625-0.219 3.5-0.219h2.875v-3.406q0-0.75 0.688-1.063 0.25-0.094 0.438-0.094 0.469 0 0.813 0.344l6.875 6.844q0.313 0.344 0.313 0.813t-0.313 0.813v0z"></path>
</svg>
