<!-- Generated by IcoMoon.io -->
<svg version="1.1" xmlns="http://www.w3.org/2000/svg" width="32" height="32" viewBox="0 0 32 32">
<title>share-alt-square</title>
<path d="M25.156 21.344q0-1.563-1.125-2.688t-2.688-1.125q-1.5 0-2.594 1.031l-4.313-2.156q0.031-0.281 0.031-0.406t-0.031-0.406l4.313-2.156q1.094 1.031 2.594 1.031 1.563 0 2.688-1.125t1.125-2.688-1.125-2.688-2.688-1.125-2.688 1.125-1.125 2.688q0 0.125 0.031 0.406l-4.313 2.156q-1.094-1.031-2.594-1.031-1.563 0-2.688 1.125t-1.125 2.688 1.125 2.688 2.688 1.125q1.5 0 2.594-1.031l4.313 2.156q-0.031 0.281-0.031 0.406 0 1.563 1.125 2.688t2.688 1.125 2.688-1.125 1.125-2.688v0zM29.719 7.438v17.125q0 2.125-1.5 3.656-1.531 1.5-3.656 1.5h-17.125q-2.125 0-3.656-1.5-1.5-1.531-1.5-3.656v-17.125q0-2.125 1.5-3.656 1.531-1.5 3.656-1.5h17.125q2.125 0 3.656 1.5 1.5 1.531 1.5 3.656v0z"></path>
</svg>
