<!-- Generated by IcoMoon.io -->
<svg version="1.1" xmlns="http://www.w3.org/2000/svg" width="32" height="32" viewBox="0 0 32 32">
<title>share</title>
<path d="M32 11.438q0 0.469-0.344 0.781l-9.125 9.156q-0.344 0.344-0.813 0.344t-0.813-0.344-0.344-0.813v-4.563h-4q-1.75 0-3.125 0.094-1.375 0.125-2.75 0.406t-2.375 0.75-1.875 1.25q-0.875 0.75-1.438 1.781-0.563 1.063-0.875 2.5-0.313 1.406-0.313 3.219 0 0.969 0.094 2.188 0 0.125 0.063 0.438 0.031 0.313 0.031 0.469 0 0.25-0.156 0.438t-0.406 0.188q-0.281 0-0.5-0.313-0.125-0.156-0.25-0.375-0.094-0.25-0.219-0.563-0.156-0.281-0.188-0.406-2.281-5.094-2.281-8.063 0-3.563 0.938-5.938 2.906-7.219 15.625-7.219h4v-4.563q0-0.469 0.344-0.813 0.344-0.313 0.813-0.313t0.813 0.313l9.125 9.156q0.344 0.344 0.344 0.813v0z"></path>
</svg>
