<!-- Generated by IcoMoon.io -->
<svg version="1.1" xmlns="http://www.w3.org/2000/svg" width="26" height="32" viewBox="0 0 26 32">
<title>shield</title>
<path d="M25.375 4.478c0.208 0.209 0.365 0.438 0.469 0.689s0.156 0.511 0.156 0.783v5.010c0 4.634-0.635 8.329-1.906 11.084s-2.682 4.864-4.234 6.325c-1.552 1.461-3 2.421-4.344 2.881s-2.078 0.699-2.203 0.72c-0.063 0.021-0.125 0.031-0.188 0.031h-0.344c-0.063 0-0.125-0.010-0.188-0.031-0.125-0.021-0.854-0.261-2.188-0.72s-2.771-1.419-4.313-2.881c-1.542-1.461-2.943-3.569-4.203-6.325s-1.891-6.45-1.891-11.084v-5.010c0-0.271 0.052-0.532 0.156-0.783s0.26-0.47 0.469-0.658c0.188-0.188 0.401-0.329 0.641-0.423s0.484-0.141 0.734-0.141h0.125c0.021 0 0.104 0.005 0.25 0.016s0.344 0.016 0.594 0.016c0.417 0 1-0.026 1.75-0.078s1.51-0.172 2.281-0.36c1.188-0.292 2.281-0.892 3.281-1.8s1.521-1.372 1.563-1.393c0.167-0.125 0.344-0.214 0.531-0.266s0.385-0.078 0.594-0.078c0.188 0 0.375 0.026 0.563 0.078s0.365 0.141 0.531 0.266c0.333 0.209 0.995 0.731 1.984 1.566s1.984 1.378 2.984 1.628c0.771 0.188 1.526 0.308 2.266 0.36s1.318 0.078 1.734 0.078c0.25 0 0.448-0.005 0.594-0.016s0.229-0.016 0.25-0.016h0.125c0.25 0 0.495 0.047 0.734 0.141s0.453 0.224 0.641 0.391zM24 10.957v-5.011l-0.266 0.016c-0.177 0.010-0.411 0.016-0.703 0.016-0.542 0-1.214-0.031-2.016-0.094s-1.63-0.198-2.484-0.407c-1.375-0.334-2.646-0.997-3.813-1.989l-1.75-1.488-1.703 1.488c-1.135 0.992-2.391 1.655-3.766 1.989-0.854 0.209-1.688 0.345-2.5 0.407s-1.49 0.094-2.031 0.094c-0.292 0-0.526-0.005-0.703-0.016l-0.266-0.016v5.011c0 4.28 0.568 7.679 1.703 10.195s2.391 4.427 3.766 5.732c1.375 1.305 2.635 2.151 3.781 2.537l1.719 0.579 1.719-0.579c1.146-0.386 2.411-1.232 3.797-2.537s2.651-3.215 3.797-5.732c1.146-2.516 1.719-5.914 1.719-10.195zM17.69 10.31c0.207 0.23 0.31 0.494 0.31 0.793s-0.103 0.552-0.31 0.759l-3.138 3.138 3.138 3.138c0.207 0.207 0.31 0.46 0.31 0.759s-0.103 0.563-0.31 0.793c-0.23 0.207-0.494 0.31-0.793 0.31s-0.563-0.103-0.793-0.31l-3.103-3.138-3.138 3.138c-0.207 0.207-0.466 0.31-0.776 0.31s-0.569-0.103-0.776-0.31c-0.207-0.23-0.31-0.494-0.31-0.793s0.103-0.552 0.31-0.759l3.138-3.138-3.138-3.138c-0.207-0.207-0.31-0.46-0.31-0.759s0.103-0.563 0.31-0.793c0.207-0.207 0.466-0.31 0.776-0.31s0.569 0.103 0.776 0.31l3.138 3.138 3.103-3.138c0.23-0.207 0.494-0.31 0.793-0.31s0.563 0.103 0.793 0.31z"></path>
</svg>
