<!-- Generated by IcoMoon.io -->
<svg version="1.1" xmlns="http://www.w3.org/2000/svg" width="32" height="32" viewBox="0 0 32 32">
<title>sign-in</title>
<path d="M23.438 16q0 0.469-0.344 0.813l-9.719 9.719q-0.344 0.313-0.813 0.313t-0.781-0.313q-0.344-0.344-0.344-0.813v-5.156h-8q-0.469 0-0.813-0.344-0.344-0.313-0.344-0.781v-6.875q0-0.469 0.344-0.781 0.344-0.344 0.813-0.344h8v-5.156q0-0.469 0.344-0.813 0.313-0.313 0.781-0.313t0.813 0.313l9.719 9.719q0.344 0.344 0.344 0.813v0zM29.719 9.719v12.563q0 2.125-1.5 3.625-1.531 1.531-3.656 1.531h-5.719q-0.219 0-0.375-0.188-0.188-0.156-0.188-0.406v-0.344q-0.031-0.281-0.031-0.469 0.031-0.188 0.063-0.438 0.031-0.219 0.188-0.344 0.125-0.094 0.344-0.094h5.719q1.188 0 2.031-0.844t0.844-2.031v-12.563q0-1.188-0.844-2.031t-2.031-0.844h-5.781l-0.188-0.063-0.156-0.094-0.125-0.156-0.031-0.25v-0.344q-0.031-0.281-0.031-0.469 0.031-0.188 0.063-0.438 0.031-0.219 0.188-0.344 0.125-0.125 0.344-0.125h5.719q2.125 0 3.656 1.531 1.5 1.5 1.5 3.625v0z"></path>
</svg>
