<!-- Generated by IcoMoon.io -->
<svg version="1.1" xmlns="http://www.w3.org/2000/svg" width="32" height="32" viewBox="0 0 32 32">
<title>skype</title>
<path d="M23.219 18.969q0-0.875-0.344-1.625t-0.844-1.219q-0.531-0.469-1.313-0.875t-1.469-0.594q-0.688-0.219-1.563-0.438l-1.875-0.406q-0.531-0.125-0.781-0.188t-0.625-0.219q-0.375-0.125-0.531-0.281t-0.281-0.375q-0.156-0.219-0.156-0.531 0-1.375 2.594-1.375 0.75 0 1.375 0.219 0.594 0.219 0.938 0.5 0.375 0.281 0.688 0.594t0.719 0.531 0.844 0.219q0.844 0 1.375-0.594 0.5-0.563 0.5-1.375 0-0.969-1-1.781-1-0.781-2.531-1.188t-3.25-0.406q-1.219 0-2.375 0.281-1.125 0.25-2.125 0.813t-1.594 1.563-0.594 2.313q0 1.063 0.344 1.875t1 1.375q0.656 0.531 1.438 0.844 0.75 0.344 1.813 0.594l2.625 0.625q1.594 0.406 2 0.656 0.563 0.344 0.563 1.063t-0.719 1.156q-0.719 0.469-1.875 0.469-0.906 0-1.625-0.281-0.719-0.313-1.156-0.688-0.438-0.406-0.813-0.813t-0.813-0.688q-0.469-0.281-0.969-0.281-0.906 0-1.344 0.531-0.469 0.531-0.469 1.344 0 1.625 2.188 2.813 2.156 1.156 5.188 1.156 1.313 0 2.5-0.313 1.188-0.344 2.188-0.969t1.594-1.656q0.563-1.063 0.563-2.375v0zM29.719 22.844q0 2.844-2 4.875-2.031 2-4.875 2-2.313 0-4.156-1.438-1.375 0.281-2.688 0.281-2.563 0-4.875-0.969-2.344-1-4.031-2.688t-2.688-4.031q-0.969-2.313-0.969-4.875 0-1.313 0.281-2.688-1.438-1.844-1.438-4.156 0-2.844 2-4.875 2.031-2 4.875-2 2.313 0 4.156 1.438 1.375-0.281 2.688-0.281 2.563 0 4.875 0.969 2.344 1 4.031 2.688t2.688 4.031q0.969 2.313 0.969 4.875 0 1.313-0.281 2.688 1.438 1.844 1.438 4.156v0z"></path>
</svg>
