<!-- Generated by IcoMoon.io -->
<svg version="1.1" xmlns="http://www.w3.org/2000/svg" width="32" height="32" viewBox="0 0 32 32">
<title>sliders</title>
<path d="M8.563 25.156v2.281h-6.281v-2.281h6.281zM14.844 22.844q0.469 0 0.813 0.344t0.344 0.813v4.563q0 0.469-0.344 0.813t-0.813 0.344h-4.563q-0.469 0-0.813-0.344-0.313-0.344-0.313-0.813v-4.563q0-0.469 0.313-0.813 0.344-0.344 0.813-0.344h4.563zM17.719 16v2.281h-15.438v-2.281h15.438zM6.281 6.844v2.313h-4v-2.313h4zM29.719 25.156v2.281h-13.156v-2.281h13.156zM12.563 4.563q0.469 0 0.813 0.344t0.344 0.813v4.563q0 0.469-0.344 0.813t-0.813 0.344h-4.563q-0.469 0-0.813-0.344t-0.344-0.813v-4.563q0-0.469 0.344-0.813t0.813-0.344h4.563zM24 13.719q0.469 0 0.813 0.344t0.344 0.781v4.594q0 0.469-0.344 0.781-0.344 0.344-0.813 0.344h-4.563q-0.469 0-0.813-0.344-0.344-0.313-0.344-0.781v-4.594q0-0.438 0.344-0.781t0.813-0.344h4.563zM29.719 16v2.281h-4v-2.281h4zM29.719 6.844v2.313h-15.438v-2.313h15.438z"></path>
</svg>
