<!-- Generated by IcoMoon.io -->
<svg version="1.1" xmlns="http://www.w3.org/2000/svg" width="34" height="32" viewBox="0 0 34 32">
<title>smart-sign</title>
<path d="M33.563 1.893l0.001 0.001c0.561 0.562 0.561 1.473-0.001 2.034l-17.979 17.979c-0.538 0.537-1.402 0.562-1.971 0.058l-6.473-5.754c-0.596-0.528-0.651-1.439-0.122-2.035s1.44-0.65 2.035-0.122l5.459 4.854 17.017-17.017c0.562-0.561 1.473-0.561 2.034 0.001zM29.672 11.177c0.003-0.001 0.007-0.002 0.010-0.002 0.774-0.177 1.546 0.307 1.723 1.081 1.048 4.434 0.146 9.104-2.479 12.828-5.063 7.185-14.992 8.906-22.177 3.843s-8.906-14.992-3.843-22.177c5.063-7.185 14.992-8.906 22.177-3.843 0.026 0.017 0.052 0.035 0.077 0.054 0.635 0.478 0.761 1.38 0.283 2.014s-1.38 0.761-2.014 0.283c-2.171-1.532-4.764-2.354-7.422-2.352-0.997-0.001-1.99 0.113-2.961 0.34-6.961 1.628-11.285 8.592-9.656 15.553s8.592 11.285 15.554 9.656c6.961-1.629 11.285-8.592 9.656-15.554-0.18-0.772 0.3-1.544 1.072-1.726z"></path>
</svg>
