<!-- Generated by IcoMoon.io -->
<svg version="1.1" xmlns="http://www.w3.org/2000/svg" width="32" height="32" viewBox="0 0 32 32">
<title>sort-numeric-asc</title>
<path d="M26.313 23.438q0-1.125-0.781-2.063t-1.844-0.938q-0.906 0-1.469 0.656t-0.563 1.688q0 1 0.656 1.688t1.875 0.688q0.875 0 1.5-0.5 0.625-0.469 0.625-1.219v0zM15.438 25.719q0 0.219-0.188 0.438l-5.688 5.688q-0.188 0.156-0.406 0.156t-0.438-0.156l-5.688-5.719q-0.281-0.281-0.125-0.625 0.125-0.344 0.531-0.344h3.406v-24.594q0-0.25 0.188-0.406 0.156-0.156 0.406-0.156h3.406q0.25 0 0.438 0.156 0.156 0.156 0.156 0.406v24.594h3.406q0.25 0 0.438 0.156 0.156 0.156 0.156 0.406v0zM28.813 24.469q0 1.125-0.219 2.188-0.25 1.063-0.75 2.031t-1.188 1.719q-0.719 0.719-1.781 1.156-1.031 0.438-2.281 0.438-1.094 0-1.906-0.281-0.438-0.156-0.75-0.281l0.688-2q0.281 0.125 0.563 0.188 0.656 0.219 1.344 0.219 1.5 0 2.375-1.031 0.906-1.031 1.188-2.594h-0.031q-0.375 0.406-1.094 0.656t-1.5 0.25q-1.906 0-3.094-1.281t-1.188-3.063q0-1.875 1.281-3.188t3.219-1.313q2.219 0 3.656 1.688 1.469 1.688 1.469 4.5v0zM28.281 11.688v2.031h-8.375v-2.031h3v-8.656h-0.031l-0.125 0.219q-0.156 0.219-0.469 0.563l-1.094 1.031-1.469-1.531 3.438-3.313h2.188v11.688h2.938z"></path>
</svg>
