<!-- Generated by IcoMoon.io -->
<svg version="1.1" xmlns="http://www.w3.org/2000/svg" width="32" height="32" viewBox="0 0 32 32">
<title>sort-alpha-asc</title>
<path d="M22.406 7.281h3.156l-1.281-3.875-0.219-0.844q-0.031-0.281-0.031-0.375h-0.063l-0.063 0.375-0.063 0.313t-0.125 0.531zM14.281 25.719q0 0.219-0.188 0.438l-5.688 5.688q-0.188 0.156-0.406 0.156t-0.406-0.156l-5.719-5.719q-0.281-0.281-0.125-0.625t0.531-0.344h3.438v-24.594q0-0.25 0.156-0.406t0.406-0.156h3.438q0.25 0 0.406 0.156t0.156 0.406v24.594h3.438q0.25 0 0.406 0.156t0.156 0.406v0zM29.219 27.844v4.156h-10.438v-1.594l6.594-9.469q0.219-0.313 0.375-0.469l0.188-0.156v-0.063h-0.094q-0.094 0.031-0.156 0.031-0.219 0.031-0.531 0.031h-4.125v2.063h-2.156v-4.094h10.125v1.594l-6.594 9.469q-0.094 0.125-0.375 0.469l-0.188 0.188v0.031l0.25-0.031q0.156-0.031 0.531-0.031h4.438v-2.125h2.156zM30.813 11.813v1.906h-5.156v-1.906h1.344l-0.844-2.563h-4.344l-0.844 2.563h1.344v1.906h-5.125v-1.906h1.25l4.125-11.813h2.875l4.125 11.813h1.25z"></path>
</svg>
