<!-- Generated by IcoMoon.io -->
<svg version="1.1" xmlns="http://www.w3.org/2000/svg" width="32" height="32" viewBox="0 0 32 32">
<title>sort-amount-asc</title>
<path d="M13.156 25.719q0 0.219-0.188 0.438l-5.688 5.688q-0.188 0.156-0.438 0.156-0.188 0-0.406-0.156l-5.719-5.719q-0.25-0.281-0.125-0.625 0.156-0.344 0.563-0.344h3.406v-24.594q0-0.25 0.156-0.406 0.188-0.156 0.438-0.156h3.406q0.25 0 0.406 0.156 0.188 0.156 0.188 0.406v24.594h3.406q0.25 0 0.406 0.156 0.188 0.156 0.188 0.406v0zM32 28v3.438q0 0.25-0.156 0.406t-0.406 0.156h-14.875q-0.25 0-0.406-0.156t-0.156-0.406v-3.438q0-0.25 0.156-0.406t0.406-0.156h14.875q0.25 0 0.406 0.156t0.156 0.406zM28.563 18.844v3.438q0 0.25-0.156 0.406t-0.406 0.156h-11.438q-0.25 0-0.406-0.156t-0.156-0.406v-3.438q0-0.25 0.156-0.406t0.406-0.156h11.438q0.25 0 0.406 0.156t0.156 0.406v0zM25.156 9.719v3.438q0 0.25-0.188 0.406-0.156 0.156-0.406 0.156h-8q-0.25 0-0.406-0.156t-0.156-0.406v-3.438q0-0.25 0.156-0.406t0.406-0.156h8q0.25 0 0.406 0.156 0.188 0.156 0.188 0.406v0zM21.719 0.563v3.438q0 0.25-0.156 0.406t-0.406 0.156h-4.594q-0.25 0-0.406-0.156t-0.156-0.406v-3.438q0-0.25 0.156-0.406t0.406-0.156h4.594q0.25 0 0.406 0.156t0.156 0.406z"></path>
</svg>
