<!-- Generated by IcoMoon.io -->
<svg version="1.1" xmlns="http://www.w3.org/2000/svg" width="32" height="32" viewBox="0 0 32 32">
<title>sort</title>
<path d="M25.156 19.438q0 0.469-0.344 0.781l-8 8q-0.344 0.344-0.813 0.344t-0.813-0.344l-8-8q-0.344-0.313-0.344-0.781t0.344-0.813 0.813-0.344h16q0.469 0 0.813 0.344t0.344 0.813v0zM25.156 12.563q0 0.469-0.344 0.813t-0.813 0.344h-16q-0.469 0-0.813-0.344t-0.344-0.813 0.344-0.781l8-8q0.344-0.344 0.813-0.344t0.813 0.344l8 8q0.344 0.313 0.344 0.781v0z"></path>
</svg>
