<!-- Generated by IcoMoon.io -->
<svg version="1.1" xmlns="http://www.w3.org/2000/svg" width="32" height="32" viewBox="0 0 32 32">
<title>spinner</title>
<path d="M9.406 24.906q0 0.938-0.688 1.594-0.656 0.688-1.625 0.688-0.906 0-1.594-0.688t-0.688-1.594q0-0.969 0.688-1.625 0.656-0.688 1.594-0.688 0.969 0 1.625 0.688 0.688 0.656 0.688 1.625v0zM18.281 28.563q0 0.969-0.656 1.625-0.688 0.656-1.625 0.656t-1.625-0.656q-0.656-0.656-0.656-1.625 0-0.938 0.656-1.594 0.688-0.688 1.625-0.688t1.625 0.688q0.656 0.656 0.656 1.594v0zM5.719 16q0 0.938-0.688 1.625-0.656 0.656-1.594 0.656-0.969 0-1.625-0.656-0.656-0.688-0.656-1.625t0.656-1.625q0.656-0.656 1.625-0.656 0.938 0 1.594 0.656 0.688 0.688 0.688 1.625v0zM27.188 24.906q0 0.906-0.688 1.594t-1.594 0.688q-0.969 0-1.625-0.688-0.688-0.656-0.688-1.594 0-0.969 0.688-1.625 0.656-0.688 1.625-0.688 0.938 0 1.594 0.688 0.688 0.656 0.688 1.625v0zM9.969 7.094q0 1.188-0.844 2.031t-2.031 0.844q-1.156 0-2-0.844t-0.844-2.031q0-1.156 0.844-2t2-0.844q1.188 0 2.031 0.844t0.844 2v0zM30.844 16q0 0.938-0.656 1.625-0.656 0.656-1.625 0.656-0.938 0-1.594-0.656-0.688-0.688-0.688-1.625t0.688-1.625q0.656-0.656 1.594-0.656 0.969 0 1.625 0.656 0.656 0.688 0.656 1.625v0zM19.438 3.438q0 1.406-1 2.406t-2.438 1-2.438-1-1-2.406q0-1.438 1-2.438t2.438-1 2.438 1 1 2.438v0zM28.906 7.094q0 1.688-1.188 2.844t-2.813 1.156q-1.688 0-2.844-1.156t-1.156-2.844q0-1.625 1.156-2.813t2.844-1.188q1.625 0 2.813 1.188t1.188 2.813v0z"></path>
</svg>
