<!-- Generated by IcoMoon.io -->
<svg version="1.1" xmlns="http://www.w3.org/2000/svg" width="32" height="32" viewBox="0 0 32 32">
<title>square-o</title>
<path d="M23.438 4.563h-14.875q-1.156 0-2 0.844t-0.844 2.031v14.844q0 1.188 0.844 2.031t2 0.844h14.875q1.156 0 2-0.844t0.844-2.031v-14.844q0-1.188-0.844-2.031t-2-0.844zM28.563 7.438v14.844q0 2.125-1.5 3.625-1.5 1.531-3.625 1.531h-14.875q-2.125 0-3.625-1.531-1.5-1.5-1.5-3.625v-14.844q0-2.125 1.5-3.656 1.5-1.5 3.625-1.5h14.875q2.125 0 3.625 1.5 1.5 1.531 1.5 3.656v0z"></path>
</svg>
