<!-- Generated by IcoMoon.io -->
<svg version="1.1" xmlns="http://www.w3.org/2000/svg" width="32" height="32" viewBox="0 0 32 32">
<title>star</title>
<path d="M30.844 11.563q0 0.375-0.438 0.844l-6.5 6.313 1.531 8.938q0.031 0.125 0.031 0.375 0 0.375-0.188 0.625t-0.563 0.25q-0.313 0-0.688-0.219l-8.031-4.219-8.031 4.219q-0.375 0.219-0.688 0.219-0.375 0-0.563-0.25t-0.188-0.625q0-0.125 0.031-0.375l1.531-8.938-6.5-6.313q-0.438-0.469-0.438-0.844 0-0.656 1-0.844l8.938-1.281 4.031-8.125q0.344-0.75 0.875-0.75t0.875 0.75l4.031 8.125 8.938 1.281q1 0.188 1 0.844v0z"></path>
</svg>
