<!-- Generated by IcoMoon.io -->
<svg version="1.1" xmlns="http://www.w3.org/2000/svg" width="32" height="32" viewBox="0 0 32 32">
<title>star-half-empty</title>
<path d="M22.313 17.094l4.594-4.469-7.531-1.094-0.531-1.094-2.844-5.75v17.219l1.063 0.531 5.656 3-1.063-6.344-0.219-1.156zM30.406 12.406l-6.5 6.313 1.531 8.938q0.094 0.594-0.094 0.938-0.188 0.313-0.625 0.313-0.281 0-0.688-0.219l-8.031-4.219-8.031 4.219q-0.406 0.219-0.688 0.219-0.438 0-0.625-0.313-0.188-0.344-0.094-0.938l1.531-8.938-6.5-6.313q-0.563-0.563-0.406-1.063t0.969-0.625l8.938-1.281 4.031-8.125q0.344-0.75 0.875-0.75 0.5 0 0.875 0.75l4.031 8.125 8.938 1.281q0.813 0.125 0.969 0.625t-0.406 1.063v0z"></path>
</svg>
