<!-- Generated by IcoMoon.io -->
<svg version="1.1" xmlns="http://www.w3.org/2000/svg" width="32" height="32" viewBox="0 0 32 32">
<title>sticky-note-o</title>
<path d="M27.281 22.844h-4.438v4.438q0.531-0.188 0.75-0.375l3.313-3.313q0.188-0.219 0.375-0.75v0zM22.281 20.563h5.156v-16h-22.875v22.875h16v-5.156q0-0.719 0.5-1.219t1.219-0.5v0zM29.719 4v18.281q0 0.719-0.375 1.563-0.344 0.875-0.844 1.375l-3.281 3.281q-0.5 0.5-1.375 0.844-0.844 0.375-1.563 0.375h-18.281q-0.719 0-1.219-0.5t-0.5-1.219v-24q0-0.719 0.5-1.219t1.219-0.5h24q0.719 0 1.219 0.5t0.5 1.219v0z"></path>
</svg>
