<!-- Generated by IcoMoon.io -->
<svg version="1.1" xmlns="http://www.w3.org/2000/svg" width="32" height="32" viewBox="0 0 32 32">
<title>stop-circle-o</title>
<path d="M16 2.281q3.719 0 6.875 1.844t5 5 1.844 6.875-1.844 6.875-5 5-6.875 1.844-6.875-1.844-5-5-1.844-6.875 1.844-6.875 5-5 6.875-1.844zM16 25.719q2.656 0 4.875-1.313t3.531-3.531 1.313-4.875-1.313-4.875-3.531-3.531-4.875-1.313-4.875 1.313-3.531 3.531-1.313 4.875 1.313 4.875 3.531 3.531 4.875 1.313zM10.844 21.719q-0.25 0-0.406-0.156t-0.156-0.406v-10.313q0-0.25 0.156-0.406t0.406-0.156h10.313q0.25 0 0.406 0.156t0.156 0.406v10.313q0 0.25-0.156 0.406t-0.406 0.156h-10.313z"></path>
</svg>
