<!-- Generated by IcoMoon.io -->
<svg version="1.1" xmlns="http://www.w3.org/2000/svg" width="32" height="32" viewBox="0 0 32 32">
<title>strap</title>
<path d="M16 5.531q1.781 0 3.047 1.281t1.266 3.125v14.719q0 1.531-0.563 2.875-0.563 1.313-1.547 2.313t-2.297 1.594q-1.281 0.563-2.781 0.563t-2.813-0.563q-1.281-0.594-2.266-1.594t-1.547-2.313q-0.563-1.344-0.563-2.875 0-0.594 0.422-1.016t1.016-0.422 1.016 0.422 0.422 1.016v0q0 1.844 1.266 3.156t3.047 1.313 3.047-1.313 1.266-3.156v-14.719q0-0.625-0.422-1.078t-1.016-0.453v0q-0.594 0-1.016 0.453t-0.422 1.078v14.719q0 0.594-0.422 1.016t-1.016 0.422-1.016-0.422-0.422-1.016v0-14.719q0-1.813 1.266-3.109t3.047-1.297v0 0zM24.625 12.219q0.594 0 1.016 0.422t0.422 1.016v0 11.375q0 0.594-0.422 1.016t-1.016 0.422-1.016-0.422-0.422-1.016v0-11.375q0-0.594 0.422-1.016t1.016-0.422v0zM24.656 9.063q-0.094 0.031-0.203 0.047t-0.203 0.016q-0.5 0-0.875-0.297t-0.5-0.734v0q-0.719-2.344-2.609-3.781t-4.266-1.438q-1.5 0-2.781 0.594-1.313 0.563-2.297 1.578t-1.547 2.359-0.563 2.875v8.781q0 0.594-0.422 1.016t-1.016 0.422-1.016-0.422-0.422-1.016v0-8.781q0-2.125 0.781-4 0.813-1.875 2.172-3.266t3.203-2.203q1.813-0.813 3.906-0.813 1.656 0 3.188 0.531t2.797 1.484 2.203 2.266q0.938 1.344 1.438 2.969 0.031 0.094 0.047 0.203t0.016 0.234q0 0.469-0.281 0.844t-0.75 0.531v0 0z"></path>
</svg>
