<!-- Generated by IcoMoon.io -->
<svg version="1.1" xmlns="http://www.w3.org/2000/svg" width="32" height="32" viewBox="0 0 32 32">
<title>table</title>
<path d="M10.281 24.563v-3.406q0-0.25-0.156-0.438-0.156-0.156-0.406-0.156h-5.719q-0.25 0-0.406 0.156-0.156 0.188-0.156 0.438v3.406q0 0.25 0.156 0.406 0.156 0.188 0.406 0.188h5.719q0.25 0 0.406-0.188 0.156-0.156 0.156-0.406v0zM10.281 17.719v-3.438q0-0.25-0.156-0.406t-0.406-0.156h-5.719q-0.25 0-0.406 0.156t-0.156 0.406v3.438q0 0.25 0.156 0.406t0.406 0.156h5.719q0.25 0 0.406-0.156t0.156-0.406zM19.438 24.563v-3.406q0-0.25-0.156-0.438-0.188-0.156-0.438-0.156h-5.688q-0.25 0-0.438 0.156-0.156 0.188-0.156 0.438v3.406q0 0.25 0.156 0.406 0.188 0.188 0.438 0.188h5.688q0.25 0 0.438-0.188 0.156-0.156 0.156-0.406v0zM10.281 10.844v-3.406q0-0.25-0.156-0.406-0.156-0.188-0.406-0.188h-5.719q-0.25 0-0.406 0.188-0.156 0.156-0.156 0.406v3.406q0 0.25 0.156 0.438 0.156 0.156 0.406 0.156h5.719q0.25 0 0.406-0.156 0.156-0.188 0.156-0.438zM19.438 17.719v-3.438q0-0.25-0.156-0.406-0.188-0.156-0.438-0.156h-5.688q-0.25 0-0.438 0.156-0.156 0.156-0.156 0.406v3.438q0 0.25 0.156 0.406 0.188 0.156 0.438 0.156h5.688q0.25 0 0.438-0.156 0.156-0.156 0.156-0.406zM28.563 24.563v-3.406q0-0.25-0.156-0.438-0.156-0.156-0.406-0.156h-5.719q-0.25 0-0.406 0.156-0.156 0.188-0.156 0.438v3.406q0 0.25 0.156 0.406 0.156 0.188 0.406 0.188h5.719q0.25 0 0.406-0.188 0.156-0.156 0.156-0.406v0zM19.438 10.844v-3.406q0-0.25-0.156-0.406-0.188-0.188-0.438-0.188h-5.688q-0.25 0-0.438 0.188-0.156 0.156-0.156 0.406v3.406q0 0.25 0.156 0.438 0.188 0.156 0.438 0.156h5.688q0.25 0 0.438-0.156 0.156-0.188 0.156-0.438zM28.563 17.719v-3.438q0-0.25-0.156-0.406t-0.406-0.156h-5.719q-0.25 0-0.406 0.156t-0.156 0.406v3.438q0 0.25 0.156 0.406t0.406 0.156h5.719q0.25 0 0.406-0.156t0.156-0.406zM28.563 10.844v-3.406q0-0.25-0.156-0.406-0.156-0.188-0.406-0.188h-5.719q-0.25 0-0.406 0.188-0.156 0.156-0.156 0.406v3.406q0 0.25 0.156 0.438 0.156 0.156 0.406 0.156h5.719q0.25 0 0.406-0.156 0.156-0.188 0.156-0.438zM30.844 5.156v19.406q0 1.188-0.813 2.031-0.844 0.844-2.031 0.844h-24q-1.188 0-2.031-0.844-0.813-0.844-0.813-2.031v-19.406q0-1.188 0.813-2.031 0.844-0.844 2.031-0.844h24q1.188 0 2.031 0.844 0.813 0.844 0.813 2.031z"></path>
</svg>
