<!-- Generated by IcoMoon.io -->
<svg version="1.1" xmlns="http://www.w3.org/2000/svg" width="32" height="32" viewBox="0 0 32 32">
<title>tag</title>
<path d="M10.281 8q0-0.938-0.656-1.625-0.688-0.656-1.625-0.656t-1.625 0.656q-0.656 0.688-0.656 1.625t0.656 1.625q0.688 0.656 1.625 0.656t1.625-0.656q0.656-0.688 0.656-1.625zM29.344 18.281q0 0.938-0.656 1.625l-8.781 8.781q-0.688 0.656-1.625 0.656t-1.594-0.656l-12.781-12.781q-0.688-0.688-1.156-1.813-0.469-1.156-0.469-2.094v-7.438q0-0.906 0.688-1.594t1.594-0.688h7.438q0.938 0 2.094 0.469 1.125 0.469 1.813 1.156l12.781 12.75q0.656 0.688 0.656 1.625v0z"></path>
</svg>
