<!-- Generated by IcoMoon.io -->
<svg version="1.1" xmlns="http://www.w3.org/2000/svg" width="37" height="32" viewBox="0 0 37 32">
<title>tags</title>
<path d="M9.156 8q0-0.938-0.688-1.625-0.656-0.656-1.625-0.656-0.938 0-1.594 0.656-0.688 0.688-0.688 1.625t0.688 1.625q0.656 0.656 1.594 0.656 0.969 0 1.625-0.656 0.688-0.688 0.688-1.625zM28.188 18.281q0 0.938-0.656 1.625l-8.75 8.781q-0.719 0.656-1.625 0.656-0.969 0-1.625-0.656l-12.75-12.781q-0.688-0.688-1.156-1.813-0.469-1.156-0.469-2.094v-7.438q0-0.906 0.656-1.594 0.688-0.688 1.625-0.688h7.406q0.969 0 2.094 0.469 1.156 0.469 1.844 1.156l12.75 12.75q0.656 0.688 0.656 1.625v0zM35.063 18.281q0 0.938-0.656 1.625l-8.781 8.781q-0.688 0.656-1.625 0.656-0.656 0-1.063-0.25t-0.938-0.813l8.406-8.375q0.656-0.688 0.656-1.625t-0.656-1.625l-12.781-12.75q-0.688-0.688-1.813-1.156-1.156-0.469-2.094-0.469h4q0.938 0 2.094 0.469 1.125 0.469 1.813 1.156l12.781 12.75q0.656 0.688 0.656 1.625v0z"></path>
</svg>
