<!-- Generated by IcoMoon.io -->
<svg version="1.1" xmlns="http://www.w3.org/2000/svg" width="32" height="32" viewBox="0 0 32 32">
<title>tap</title>
<path d="M2.125 24.531q0.063 0.031 0.109 0.078l0.109 0.109q0.188 0.188 0.313 0.453t0.125 0.578q0 0.156-0.031 0.297t-0.094 0.266v0l-0.125 0.25t-0.078 0.125-0.109 0.094l-0.109 0.109t-0.109 0.078v0q-0.063 0.031-0.125 0.078t-0.125 0.078-0.141 0.047-0.141 0.016q-0.063 0.031-0.141 0.031h-0.141q-0.313 0-0.578-0.109t-0.453-0.328v0q-0.063-0.031-0.109-0.094t-0.078-0.125v0q-0.031-0.063-0.078-0.125t-0.078-0.125-0.047-0.125-0.016-0.125v-0.031q-0.031-0.063-0.031-0.125v-0.156q0-0.313 0.109-0.578t0.328-0.453v0q0.25-0.25 0.609-0.359t0.703-0.047q0.063 0 0.141 0.031t0.141 0.063l0.25 0.125zM17.344 11.625q0 0.625-0.422 1.047t-1.047 0.422v0q-1.844 0-3.141 1.313t-1.297 3.156v0q0 0.594-0.438 1.031t-1.031 0.438v0q-0.063 0-0.125-0.016t-0.125-0.016v0q-0.031 0-0.094 0.016t-0.125 0.016h-6.719v2.156q0 0.625-0.438 1.047t-1.031 0.422q-0.625 0-1.047-0.422t-0.422-1.047v0-3.625q0-0.625 0.422-1.047t1.047-0.422v0h7.313q0.469-2.188 2.031-3.75t3.719-2.031h0.031v-3.125h-4q-0.594 0-1.031-0.438t-0.438-1.031q0-0.625 0.438-1.047t1.031-0.422v0h10.938q0.625 0 1.047 0.422t0.422 1.047q0 0.594-0.422 1.031t-1.047 0.438v0h-4v4.438zM30.375 16.094q0.594 0 1.031 0.422t0.438 1.047q0 0.594-0.438 1.031t-1.031 0.438v0h-7.25q-0.25 1.25-0.906 2.344t-1.625 1.875-2.156 1.25q-1.219 0.438-2.563 0.438-0.594 0-1.031-0.422t-0.438-1.047q0-0.594 0.438-1.031t1.031-0.438v0q1.844 0 3.156-1.297t1.313-3.141v0q0-0.625 0.422-1.047t1.047-0.422v0h0.109t0.109 0.031q0.063-0.031 0.109-0.031h8.234z"></path>
</svg>
