<!-- Generated by IcoMoon.io -->
<svg version="1.1" xmlns="http://www.w3.org/2000/svg" width="32" height="32" viewBox="0 0 32 32">
<title>target</title>
<path d="M16.656-0.094q0.594 0 1.016 0.422t0.422 1.016v6.125q0 0.594-0.422 1.016t-1.016 0.422-1.016-0.422-0.422-1.016v0 0 0-6.125q0-0.594 0.422-1.016t1.016-0.422v0 0 0 0zM16.656 22.906q0.594 0 1.016 0.422t0.422 1.016v6.125q0 0.594-0.422 1.016t-1.016 0.422-1.016-0.422-0.422-1.016v0 0 0-6.125q0-0.594 0.422-1.016t1.016-0.422v0 0 0 0zM29.688 14.438q0.625 0 1.031 0.422t0.406 1.016-0.406 1.016-1.031 0.422v0 0h-6.125q-0.594 0-1.016-0.422t-0.422-1.016v0 0 0q0-0.563 0.391-0.969t0.953-0.469v0h6.219zM5.594 17.313h-3.5q-0.563-0.031-0.969-0.438t-0.406-1 0.406-1 0.969-0.438h6.219q0.563 0.031 0.969 0.453t0.406 0.984v0q0 0.594-0.422 1.016t-1.016 0.422h-2.656zM12.656 2q0.031 0 0.063-0.031t0.063-0.031v0q0.25-0.094 0.5-0.141t0.5-0.109v2.625l-0.031 0.031q-1.469 0.406-2.813 1.219t-2.469 1.938-1.969 2.531q-0.844 1.375-1.281 2.969h-2.781q0.5-2.25 1.656-4.094 1.156-1.875 2.609-3.266t3.016-2.328 2.938-1.313v0zM6.625 13q0.438-1.313 1.156-2.469t1.656-2.109 2.031-1.672 2.313-1.156v2.75q-1.594 0.75-2.703 1.969t-1.703 2.688h-2.75zM25.719 13q-0.969-1.906-2.594-3.203t-3.563-1.828v-2.688q1.625 0.375 3 1.156 1.406 0.75 2.547 1.797t1.984 2.266 1.375 2.5h-2.75zM9.156 18.813q0.594 1.531 1.797 2.813t2.828 1.969v2.688q-1.219-0.375-2.344-1.031-1.125-0.625-2.078-1.563t-1.703-2.156-1.188-2.719h2.688zM19.656 27.563q1.531-0.469 2.813-1.313 1.313-0.875 2.281-2.016t1.625-2.547q0.625-1.375 0.844-2.875h2.688q-0.25 2.125-1.156 3.938-0.906 1.844-2.203 3.266t-2.859 2.422q-1.563 0.969-3.094 1.406-0.25 0.094-0.516 0.156t-0.516 0.094v-2.531h0.094zM5.188 19.438q0.531 1.75 1.406 3.125 0.844 1.375 1.984 2.406t2.453 1.719q1.344 0.656 2.75 1v2.531q-1.594-0.313-3.031-0.969-1.469-0.656-2.75-1.594t-2.344-2.156q-1.094-1.219-1.844-2.688-0.313-0.594-0.578-1.281t-0.484-1.438l-0.031-0.125q-0.063-0.219-0.141-0.5t-0.141-0.563v-0.094h2.594q0.031 0.156 0.078 0.313t0.078 0.313v0zM19.563 26.281v-2.5q1.406-0.719 2.016-1.438t0.641-0.781q0.156-0.25 0.422-0.406t0.578-0.156q0.156 0 0.297 0.047t0.266 0.109v0q0.406 0.25 0.531 0.703t-0.094 0.859q-0.031 0.063-1.078 1.313t-3.516 2.219h-0.031t-0.031 0.031v0zM25.969 7.094q-2.281-1.844-4.078-2.406t-2.203-0.625h-0.125v-2.656h0.156q0.031 0 2.391 0.547t5.516 3.078q0.438 0.344 0.5 0.891t-0.281 0.984q-0.188 0.219-0.453 0.359t-0.578 0.141q-0.25 0-0.469-0.078t-0.375-0.234v0 0z"></path>
</svg>
