<!-- Generated by IcoMoon.io -->
<svg version="1.1" xmlns="http://www.w3.org/2000/svg" width="32" height="32" viewBox="0 0 32 32">
<title>tasks</title>
<path d="M18.281 25.156h11.438v-2.313h-11.438v2.313zM11.438 16h18.281v-2.281h-18.281v2.281zM22.844 6.844h6.875v-2.281h-6.875v2.281zM32 21.719v4.563q0 0.469-0.344 0.813t-0.813 0.344h-29.688q-0.469 0-0.813-0.344t-0.344-0.813v-4.563q0-0.469 0.344-0.813t0.813-0.344h29.688q0.469 0 0.813 0.344t0.344 0.813zM32 12.563v4.594q0 0.438-0.344 0.781t-0.813 0.344h-29.688q-0.469 0-0.813-0.344t-0.344-0.781v-4.594q0-0.469 0.344-0.781 0.344-0.344 0.813-0.344h29.688q0.469 0 0.813 0.344 0.344 0.313 0.344 0.781zM32 3.438v4.563q0 0.469-0.344 0.813t-0.813 0.344h-29.688q-0.469 0-0.813-0.344t-0.344-0.813v-4.563q0-0.469 0.344-0.813t0.813-0.344h29.688q0.469 0 0.813 0.344t0.344 0.813v0z"></path>
</svg>
