<!-- Generated by IcoMoon.io -->
<svg version="1.1" xmlns="http://www.w3.org/2000/svg" width="32" height="32" viewBox="0 0 32 32">
<title>telegram</title>
<path d="M21.219 23.344l2.625-12.375q0.188-0.781-0.188-1.125-0.344-0.344-0.906-0.125l-15.438 5.938q-0.5 0.188-0.688 0.438t-0.063 0.5q0.156 0.219 0.594 0.344l3.938 1.219 9.156-5.75q0.375-0.25 0.563-0.125 0.125 0.094-0.063 0.281l-7.406 6.688-0.281 4.063q0.406 0 0.781-0.375l1.938-1.875 4 2.969q1.156 0.625 1.438-0.688v0zM32 16q0 3.25-1.281 6.219-1.25 2.969-3.406 5.094-2.125 2.156-5.094 3.406-2.969 1.281-6.219 1.281t-6.219-1.281q-2.969-1.25-5.094-3.406-2.156-2.125-3.406-5.094-1.281-2.969-1.281-6.219t1.281-6.219q1.25-2.969 3.406-5.094 2.125-2.156 5.094-3.406 2.969-1.281 6.219-1.281t6.219 1.281q2.969 1.25 5.094 3.406 2.156 2.125 3.406 5.094 1.281 2.969 1.281 6.219z"></path>
</svg>
