<!-- Generated by IcoMoon.io -->
<svg version="1.1" xmlns="http://www.w3.org/2000/svg" width="32" height="32" viewBox="0 0 32 32">
<title>th-large</title>
<path d="M14.844 18.281v6.875q0 0.906-0.656 1.594-0.688 0.688-1.625 0.688h-9.125q-0.938 0-1.625-0.688-0.656-0.688-0.656-1.594v-6.875q0-0.938 0.656-1.594 0.688-0.688 1.625-0.688h9.125q0.938 0 1.625 0.688 0.656 0.656 0.656 1.594v0zM14.844 4.563v6.875q0 0.906-0.656 1.594-0.688 0.688-1.625 0.688h-9.125q-0.938 0-1.625-0.688-0.656-0.688-0.656-1.594v-6.875q0-0.906 0.656-1.594 0.688-0.688 1.625-0.688h9.125q0.938 0 1.625 0.688 0.656 0.688 0.656 1.594v0zM30.844 18.281v6.875q0 0.906-0.656 1.594-0.688 0.688-1.625 0.688h-9.125q-0.938 0-1.625-0.688-0.656-0.688-0.656-1.594v-6.875q0-0.938 0.656-1.594 0.688-0.688 1.625-0.688h9.125q0.938 0 1.625 0.688 0.656 0.656 0.656 1.594v0zM30.844 4.563v6.875q0 0.906-0.656 1.594-0.688 0.688-1.625 0.688h-9.125q-0.938 0-1.625-0.688-0.656-0.688-0.656-1.594v-6.875q0-0.906 0.656-1.594 0.688-0.688 1.625-0.688h9.125q0.938 0 1.625 0.688 0.656 0.688 0.656 1.594v0z"></path>
</svg>
