<!-- Generated by IcoMoon.io -->
<svg version="1.1" xmlns="http://www.w3.org/2000/svg" width="32" height="32" viewBox="0 0 32 32">
<title>th-list</title>
<path d="M9.156 22.281v3.438q0 0.719-0.5 1.219t-1.219 0.5h-5.719q-0.719 0-1.219-0.5t-0.5-1.219v-3.438q0-0.719 0.5-1.219t1.219-0.5h5.719q0.719 0 1.219 0.5t0.5 1.219zM9.156 13.156v3.406q0 0.719-0.5 1.219t-1.219 0.5h-5.719q-0.719 0-1.219-0.5t-0.5-1.219v-3.406q0-0.719 0.5-1.219t1.219-0.5h5.719q0.719 0 1.219 0.5t0.5 1.219zM32 22.281v3.438q0 0.719-0.5 1.219t-1.219 0.5h-17.125q-0.719 0-1.219-0.5t-0.5-1.219v-3.438q0-0.719 0.5-1.219t1.219-0.5h17.125q0.719 0 1.219 0.5t0.5 1.219zM9.156 4v3.438q0 0.719-0.5 1.219t-1.219 0.5h-5.719q-0.719 0-1.219-0.5t-0.5-1.219v-3.438q0-0.719 0.5-1.219t1.219-0.5h5.719q0.719 0 1.219 0.5t0.5 1.219zM32 13.156v3.406q0 0.719-0.5 1.219t-1.219 0.5h-17.125q-0.719 0-1.219-0.5t-0.5-1.219v-3.406q0-0.719 0.5-1.219t1.219-0.5h17.125q0.719 0 1.219 0.5t0.5 1.219zM32 4v3.438q0 0.719-0.5 1.219t-1.219 0.5h-17.125q-0.719 0-1.219-0.5t-0.5-1.219v-3.438q0-0.719 0.5-1.219t1.219-0.5h17.125q0.719 0 1.219 0.5t0.5 1.219z"></path>
</svg>
