<!-- Generated by IcoMoon.io -->
<svg version="1.1" xmlns="http://www.w3.org/2000/svg" width="32" height="32" viewBox="0 0 32 32">
<title>thumbs-up</title>
<path d="M5.719 24q0-0.469-0.344-0.813t-0.813-0.344-0.813 0.344q-0.313 0.344-0.313 0.813t0.313 0.813q0.344 0.344 0.813 0.344t0.813-0.344 0.344-0.813zM8.563 14.844v11.438q0 0.469-0.344 0.813-0.313 0.344-0.781 0.344h-5.156q-0.469 0-0.813-0.344-0.313-0.344-0.313-0.813v-11.438q0-0.438 0.313-0.781 0.344-0.344 0.813-0.344h5.156q0.469 0 0.781 0.344 0.344 0.344 0.344 0.781v0zM29.719 14.844q0 1.563-1 2.688 0.281 0.781 0.281 1.344 0.063 1.344-0.781 2.438 0.313 1 0 2.094-0.25 1.031-0.938 1.688 0.156 2-0.875 3.219-1.156 1.375-3.531 1.406h-2.313q-1.156 0-2.563-0.281t-2.156-0.531q-0.781-0.219-2.156-0.688-2.219-0.781-2.844-0.781-0.438-0.031-0.781-0.344-0.344-0.344-0.344-0.813v-11.438q0-0.438 0.313-0.781t0.781-0.375q0.406-0.031 1.344-1.031 0.938-1.031 1.813-2.188 1.219-1.531 1.813-2.125 0.313-0.313 0.531-0.875 0.25-0.531 0.313-0.844 0.094-0.344 0.25-1.094 0.125-0.688 0.219-1.094 0.094-0.375 0.344-0.906 0.25-0.563 0.625-0.906 0.344-0.344 0.781-0.344 0.844 0 1.5 0.188 0.625 0.188 1.063 0.469 0.406 0.281 0.719 0.719 0.281 0.438 0.406 0.813 0.156 0.344 0.219 0.875 0.094 0.563 0.094 0.813v0.688q0 0.688-0.156 1.375t-0.344 1.063q-0.156 0.406-0.5 1-0.031 0.125-0.156 0.313-0.125 0.219-0.219 0.406-0.063 0.188-0.125 0.438h4.938q1.406 0 2.406 1 1.031 1.031 1.031 2.406v0z"></path>
</svg>
