<!-- Generated by IcoMoon.io -->
<svg version="1.1" xmlns="http://www.w3.org/2000/svg" width="32" height="32" viewBox="0 0 32 32">
<title>thumbs-o-up</title>
<path d="M6.844 24q0-0.469-0.313-0.813-0.344-0.344-0.813-0.344t-0.813 0.344-0.344 0.813 0.344 0.813 0.813 0.344 0.813-0.344q0.313-0.344 0.313-0.813zM27.438 13.719q0-0.906-0.719-1.594-0.688-0.688-1.563-0.688h-6.313q0-1.031 0.875-2.844 0.844-1.813 0.844-2.875 0-1.75-0.563-2.594t-2.281-0.844q-0.469 0.469-0.688 1.531-0.219 1.031-0.531 2.219-0.344 1.188-1.063 1.969-0.406 0.406-1.375 1.625-0.094 0.094-0.406 0.531-0.344 0.438-0.563 0.75-0.25 0.281-0.625 0.75-0.406 0.469-0.719 0.781t-0.688 0.625q-0.375 0.344-0.719 0.5t-0.625 0.156h-0.563v11.438h0.563q0.219 0 0.563 0.031 0.313 0.063 0.594 0.125 0.25 0.063 0.656 0.188 0.438 0.156 0.625 0.219 0.219 0.063 0.656 0.219 0.406 0.156 0.5 0.188 3.781 1.313 6.125 1.313h2.156q3.438 0 3.438-3 0-0.469-0.094-1 0.531-0.281 0.844-0.938t0.313-1.313-0.313-1.219q0.938-0.906 0.938-2.125 0-0.438-0.188-1-0.188-0.531-0.438-0.844 0.563-0.031 0.938-0.844 0.406-0.813 0.406-1.438v0zM29.719 13.688q0 1.594-0.875 2.906 0.156 0.594 0.156 1.25 0 1.375-0.688 2.563 0.063 0.375 0.063 0.781 0 1.781-1.063 3.156 0 2.5-1.531 3.938t-4.063 1.438h-2.281q-1.719 0-3.406-0.406-1.656-0.406-3.844-1.156-2.094-0.719-2.469-0.719h-5.156q-0.938 0-1.594-0.688-0.688-0.656-0.688-1.594v-11.438q0-0.938 0.688-1.625 0.656-0.656 1.594-0.656h4.906q0.625-0.438 2.438-2.781 1.031-1.344 1.906-2.281 0.438-0.438 0.656-1.531 0.188-1.063 0.531-2.25t1.094-1.938q0.719-0.656 1.625-0.656 1.5 0 2.688 0.594 1.188 0.563 1.813 1.813 0.625 1.219 0.625 3.313 0 1.656-0.844 3.438h3.156q1.844 0 3.188 1.344 1.375 1.344 1.375 3.188v0z"></path>
</svg>
