<!-- Generated by IcoMoon.io -->
<svg version="1.1" xmlns="http://www.w3.org/2000/svg" width="32" height="32" viewBox="0 0 32 32">
<title>thumbs-o-down</title>
<path d="M6.844 8q0-0.469-0.313-0.813-0.344-0.344-0.813-0.344t-0.813 0.344-0.344 0.813 0.344 0.813 0.813 0.344 0.813-0.344q0.313-0.344 0.313-0.813zM27.438 18.281q0-0.625-0.406-1.438-0.375-0.813-0.938-0.844 0.25-0.313 0.438-0.844 0.188-0.563 0.188-1 0-1.219-0.938-2.125 0.313-0.563 0.313-1.219t-0.313-1.313-0.844-0.938q0.094-0.531 0.094-1 0-1.531-0.875-2.25-0.875-0.75-2.438-0.75h-2.281q-2.344 0-6.125 1.313-0.094 0.031-0.5 0.188-0.438 0.156-0.656 0.219-0.188 0.063-0.625 0.219-0.406 0.125-0.656 0.188-0.281 0.063-0.594 0.125-0.344 0.031-0.563 0.031h-0.563v11.438h0.563q0.281 0 0.625 0.156t0.719 0.5q0.375 0.313 0.688 0.625t0.719 0.781q0.375 0.469 0.625 0.75 0.219 0.313 0.563 0.75 0.313 0.438 0.406 0.531 0.969 1.219 1.375 1.625 0.719 0.781 1.063 1.969 0.313 1.188 0.531 2.219 0.219 1.063 0.688 1.531 1.719 0 2.281-0.844t0.563-2.594q0-1.063-0.844-2.875-0.875-1.813-0.875-2.844h6.313q0.875 0 1.563-0.688 0.719-0.688 0.719-1.594v0zM29.719 18.313q0 1.844-1.375 3.188-1.344 1.344-3.188 1.344h-3.156q0.844 1.781 0.844 3.438 0 2.125-0.625 3.313-0.625 1.25-1.813 1.813-1.188 0.594-2.688 0.594-0.906 0-1.625-0.656-0.594-0.594-0.938-1.469-0.375-0.875-0.469-1.625-0.094-0.719-0.313-1.5t-0.563-1.156q-0.844-0.875-1.906-2.25-1.813-2.344-2.438-2.781h-4.906q-0.938 0-1.594-0.656-0.688-0.688-0.688-1.625v-11.438q0-0.938 0.688-1.594 0.656-0.688 1.594-0.688h5.156q0.375 0 2.469-0.719 2.281-0.781 3.969-1.156 1.688-0.406 3.563-0.406h2q2.5 0 4.063 1.406 1.531 1.406 1.531 3.875v0.094q1.063 1.375 1.063 3.156 0 0.406-0.063 0.781 0.688 1.188 0.688 2.563 0 0.656-0.156 1.25 0.875 1.281 0.875 2.906v0z"></path>
</svg>
