<!-- Generated by IcoMoon.io -->
<svg version="1.1" xmlns="http://www.w3.org/2000/svg" width="32" height="32" viewBox="0 0 32 32">
<title>thumbs-down</title>
<path d="M5.719 10.281q0 0.469-0.344 0.813t-0.813 0.344-0.813-0.344q-0.313-0.344-0.313-0.813t0.313-0.813q0.344-0.313 0.813-0.313t0.813 0.313q0.344 0.344 0.344 0.813zM8.563 19.438v-11.438q0-0.469-0.344-0.813-0.313-0.344-0.781-0.344h-5.156q-0.469 0-0.813 0.344-0.313 0.344-0.313 0.813v11.438q0 0.469 0.313 0.781 0.344 0.344 0.813 0.344h5.156q0.469 0 0.781-0.344 0.344-0.313 0.344-0.781v0zM28.719 16.781q1 1.063 1 2.656-0.031 1.375-1.031 2.406-1 1-2.406 1h-4.938q0.063 0.25 0.125 0.438 0.094 0.188 0.219 0.406t0.156 0.313q0.344 0.656 0.5 1.031 0.156 0.344 0.344 1.031 0.156 0.688 0.156 1.375v0.688t-0.094 0.813q-0.063 0.531-0.219 0.875-0.125 0.375-0.406 0.813-0.313 0.438-0.719 0.719-0.438 0.281-1.063 0.469-0.656 0.188-1.5 0.188-0.438 0-0.781-0.344-0.375-0.344-0.625-0.875-0.25-0.563-0.344-0.938-0.094-0.406-0.219-1.094-0.156-0.75-0.25-1.094-0.063-0.313-0.313-0.844-0.219-0.531-0.531-0.875-0.594-0.594-1.813-2.125-0.875-1.156-1.813-2.156-0.938-1.031-1.344-1.063-0.469-0.031-0.781-0.375-0.313-0.313-0.313-0.781v-11.438q0-0.469 0.344-0.781 0.344-0.344 0.781-0.375 0.625 0 2.844-0.781 1.375-0.469 2.156-0.688 0.75-0.25 2.156-0.531t2.563-0.281h2.313q2.375 0.031 3.531 1.406 1.031 1.219 0.875 3.219 0.688 0.656 0.938 1.688 0.313 1.094 0 2.094 0.844 1.094 0.781 2.438 0 0.563-0.281 1.375v0z"></path>
</svg>
