<!-- Generated by IcoMoon.io -->
<svg version="1.1" xmlns="http://www.w3.org/2000/svg" width="32" height="32" viewBox="0 0 32 32">
<title>thumb-tack</title>
<path d="M14.281 15.438v-8q0-0.25-0.156-0.406-0.156-0.188-0.406-0.188t-0.406 0.188q-0.156 0.156-0.156 0.406v8q0 0.25 0.156 0.406t0.406 0.156 0.406-0.156 0.156-0.406v0zM26.281 21.719q0 0.469-0.344 0.813-0.344 0.313-0.781 0.313h-7.688l-0.906 8.625q-0.031 0.219-0.188 0.375t-0.344 0.156h-0.031q-0.469 0-0.563-0.469l-1.375-8.688h-7.219q-0.438 0-0.781-0.313-0.344-0.344-0.344-0.813 0-2.188 1.406-3.969 1.406-1.75 3.156-1.75v-9.156q-0.938 0-1.594-0.656-0.688-0.688-0.688-1.625 0-0.906 0.688-1.594 0.656-0.688 1.594-0.688h11.438q0.938 0 1.594 0.688 0.688 0.688 0.688 1.594 0 0.938-0.688 1.625-0.656 0.656-1.594 0.656v9.156q1.75 0 3.156 1.75 1.406 1.781 1.406 3.969v0z"></path>
</svg>
