<!-- Generated by IcoMoon.io -->
<svg version="1.1" xmlns="http://www.w3.org/2000/svg" width="32" height="32" viewBox="0 0 32 32">
<title>times</title>
<path d="M26.594 23.594q0 0.719-0.5 1.219l-2.406 2.438q-0.5 0.5-1.219 0.5t-1.219-0.5l-5.25-5.25-5.25 5.25q-0.5 0.5-1.219 0.5t-1.219-0.5l-2.406-2.438q-0.5-0.5-0.5-1.219 0-0.688 0.5-1.188l5.25-5.25-5.25-5.25q-0.5-0.5-0.5-1.219t0.5-1.219l2.406-2.438q0.5-0.5 1.219-0.5t1.219 0.5l5.25 5.25 5.25-5.25q0.5-0.5 1.219-0.5t1.219 0.5l2.406 2.438q0.5 0.5 0.5 1.219t-0.5 1.219l-5.25 5.25 5.25 5.25q0.5 0.5 0.5 1.188v0z"></path>
</svg>
