<!-- Generated by IcoMoon.io -->
<svg version="1.1" xmlns="http://www.w3.org/2000/svg" width="32" height="32" viewBox="0 0 32 32">
<title>times-rectangle-o</title>
<path d="M22.438 19.844l-2.594 2.594q-0.188 0.188-0.406 0.188-0.25 0-0.406-0.188l-3.031-3-3.031 3q-0.156 0.188-0.406 0.188-0.219 0-0.406-0.188l-2.594-2.594q-0.188-0.188-0.188-0.406 0-0.25 0.188-0.406l3-3.031-3-3.031q-0.188-0.156-0.188-0.406 0-0.219 0.188-0.406l2.594-2.594q0.188-0.188 0.406-0.188 0.25 0 0.406 0.188l3.031 3 3.031-3q0.156-0.188 0.406-0.188 0.219 0 0.406 0.188l2.594 2.594q0.188 0.188 0.188 0.406 0 0.25-0.188 0.406l-3 3.031 3 3.031q0.188 0.156 0.188 0.406 0 0.219-0.188 0.406zM4.563 25.156h22.875v-18.313h-22.875v18.313zM32 5.156v21.688q0 1.188-0.844 2.031t-2 0.844h-26.313q-1.156 0-2-0.844t-0.844-2.031v-21.688q0-1.188 0.844-2.031t2-0.844h26.313q1.156 0 2 0.844t0.844 2.031z"></path>
</svg>
