<!-- Generated by IcoMoon.io -->
<svg version="1.1" xmlns="http://www.w3.org/2000/svg" width="32" height="32" viewBox="0 0 32 32">
<title>times-rectangle</title>
<path d="M20.969 23.594l2.625-2.625q0.188-0.156 0.188-0.406 0-0.219-0.188-0.406l-4.156-4.156 4.156-4.156q0.188-0.188 0.188-0.406 0-0.25-0.188-0.406l-2.625-2.625q-0.156-0.188-0.406-0.188-0.219 0-0.406 0.188l-4.156 4.156-4.156-4.156q-0.188-0.188-0.406-0.188-0.25 0-0.406 0.188l-2.625 2.625q-0.188 0.156-0.188 0.406 0 0.219 0.188 0.406l4.156 4.156-4.156 4.156q-0.188 0.188-0.188 0.406 0 0.25 0.188 0.406l2.625 2.625q0.156 0.188 0.406 0.188 0.219 0 0.406-0.188l4.156-4.156 4.156 4.156q0.188 0.188 0.406 0.188 0.25 0 0.406-0.188zM32 5.156v21.688q0 1.188-0.844 2.031t-2 0.844h-26.313q-1.156 0-2-0.844t-0.844-2.031v-21.688q0-1.188 0.844-2.031t2-0.844h26.313q1.156 0 2 0.844t0.844 2.031z"></path>
</svg>
