<!-- Generated by IcoMoon.io -->
<svg version="1.1" xmlns="http://www.w3.org/2000/svg" width="32" height="32" viewBox="0 0 32 32">
<title>times-circle-o</title>
<path d="M21.875 19.281l-2.594 2.594q-0.188 0.188-0.438 0.188-0.219 0-0.406-0.188l-2.438-2.438-2.438 2.438q-0.188 0.188-0.406 0.188-0.25 0-0.438-0.188l-2.594-2.594q-0.188-0.188-0.188-0.438 0-0.219 0.188-0.406l2.438-2.438-2.438-2.438q-0.188-0.188-0.188-0.406 0-0.25 0.188-0.438l2.594-2.594q0.188-0.188 0.438-0.188 0.219 0 0.406 0.188l2.438 2.438 2.438-2.438q0.188-0.188 0.406-0.188 0.25 0 0.438 0.188l2.594 2.594q0.188 0.188 0.188 0.438 0 0.219-0.188 0.406l-2.438 2.438 2.438 2.438q0.188 0.188 0.188 0.406 0 0.25-0.188 0.438zM25.719 16q0-2.656-1.313-4.875t-3.531-3.531-4.875-1.313-4.875 1.313-3.531 3.531-1.313 4.875 1.313 4.875 3.531 3.531 4.875 1.313 4.875-1.313 3.531-3.531 1.313-4.875zM29.719 16q0 3.719-1.844 6.875t-5 5-6.875 1.844-6.875-1.844-5-5-1.844-6.875 1.844-6.875 5-5 6.875-1.844 6.875 1.844 5 5 1.844 6.875z"></path>
</svg>
