<!-- Generated by IcoMoon.io -->
<svg version="1.1" xmlns="http://www.w3.org/2000/svg" width="32" height="32" viewBox="0 0 32 32">
<title>times-circle</title>
<path d="M22.813 20.031q0-0.469-0.344-0.813l-3.25-3.219 3.25-3.219q0.344-0.344 0.344-0.813 0-0.5-0.344-0.813l-1.625-1.625q-0.313-0.344-0.813-0.344-0.469 0-0.813 0.344l-3.219 3.25-3.219-3.25q-0.344-0.344-0.813-0.344-0.5 0-0.813 0.344l-1.625 1.625q-0.344 0.313-0.344 0.813 0 0.469 0.344 0.813l3.25 3.219-3.25 3.219q-0.344 0.344-0.344 0.813 0 0.5 0.344 0.813l1.625 1.625q0.313 0.344 0.813 0.344 0.469 0 0.813-0.344l3.219-3.25 3.219 3.25q0.344 0.344 0.813 0.344 0.5 0 0.813-0.344l1.625-1.625q0.344-0.313 0.344-0.813zM29.719 16q0 3.719-1.844 6.875t-5 5-6.875 1.844-6.875-1.844-5-5-1.844-6.875 1.844-6.875 5-5 6.875-1.844 6.875 1.844 5 5 1.844 6.875z"></path>
</svg>
