<!-- Generated by IcoMoon.io -->
<svg version="1.1" xmlns="http://www.w3.org/2000/svg" width="32" height="32" viewBox="0 0 32 32">
<title>toggle-down</title>
<path d="M22.719 12.063q0.344 0.625-0.063 1.156l-5.719 8q-0.344 0.5-0.938 0.5t-0.938-0.5l-5.719-8q-0.406-0.531-0.063-1.156 0.281-0.625 1-0.625h11.438q0.719 0 1 0.625zM25.156 24.563v-17.125q0-0.25-0.188-0.406-0.156-0.188-0.406-0.188h-17.125q-0.25 0-0.406 0.188-0.188 0.156-0.188 0.406v17.125q0 0.25 0.188 0.406 0.156 0.188 0.406 0.188h17.125q0.25 0 0.406-0.188 0.188-0.156 0.188-0.406zM29.719 7.438v17.125q0 2.125-1.5 3.656-1.531 1.5-3.656 1.5h-17.125q-2.125 0-3.656-1.5-1.5-1.531-1.5-3.656v-17.125q0-2.125 1.5-3.656 1.531-1.5 3.656-1.5h17.125q2.125 0 3.656 1.5 1.5 1.531 1.5 3.656v0z"></path>
</svg>
