<!-- Generated by IcoMoon.io -->
<svg version="1.1" xmlns="http://www.w3.org/2000/svg" width="37" height="32" viewBox="0 0 37 32">
<title>toggle-on</title>
<path d="M0 16q0-2.313 0.906-4.438t2.438-3.656q1.531-1.5 3.656-2.438 2.094-0.906 4.438-0.906h13.719q2.313 0 4.438 0.906 2.094 0.938 3.625 2.438 1.531 1.531 2.438 3.656t0.906 4.438-0.906 4.438-2.438 3.656q-1.531 1.5-3.625 2.438-2.125 0.906-4.438 0.906h-13.719q-2.344 0-4.438-0.906-2.125-0.938-3.656-2.438-1.531-1.531-2.438-3.656t-0.906-4.438zM25.156 25.156q1.844 0 3.531-0.75 1.688-0.719 2.906-1.938 1.25-1.25 1.969-2.938t0.719-3.531-0.719-3.531-1.969-2.938q-1.219-1.219-2.906-1.938-1.688-0.75-3.531-0.75-1.875 0-3.563 0.75-1.688 0.719-2.906 1.938-1.25 1.25-1.969 2.938t-0.719 3.531 0.719 3.531 1.969 2.938q1.219 1.219 2.906 1.938 1.688 0.75 3.563 0.75z"></path>
</svg>
