<!-- Generated by IcoMoon.io -->
<svg version="1.1" xmlns="http://www.w3.org/2000/svg" width="32" height="32" viewBox="0 0 32 32">
<title>trash</title>
<path d="M12.563 24.563v-12.563q0-0.25-0.156-0.406t-0.406-0.156h-1.156q-0.25 0-0.406 0.156t-0.156 0.406v12.563q0 0.25 0.156 0.406 0.156 0.188 0.406 0.188h1.156q0.25 0 0.406-0.188 0.156-0.156 0.156-0.406v0zM17.156 24.563v-12.563q0-0.25-0.188-0.406-0.156-0.156-0.406-0.156h-1.125q-0.25 0-0.406 0.156-0.188 0.156-0.188 0.406v12.563q0 0.25 0.188 0.406 0.156 0.188 0.406 0.188h1.125q0.25 0 0.406-0.188 0.188-0.156 0.188-0.406v0zM21.719 24.563v-12.563q0-0.25-0.156-0.406t-0.406-0.156h-1.156q-0.25 0-0.406 0.156t-0.156 0.406v12.563q0 0.25 0.156 0.406 0.156 0.188 0.406 0.188h1.156q0.25 0 0.406-0.188 0.156-0.156 0.156-0.406v0zM12 6.844h8l-0.844-2.063q-0.125-0.188-0.313-0.219h-5.656q-0.188 0.031-0.313 0.219zM28.563 7.438v1.125q0 0.25-0.156 0.406-0.156 0.188-0.406 0.188h-1.719v16.906q0 1.5-0.844 2.563-0.844 1.094-2 1.094h-14.875q-1.156 0-2-1.063-0.844-1.031-0.844-2.5v-17h-1.719q-0.25 0-0.406-0.188-0.156-0.156-0.156-0.406v-1.125q0-0.25 0.156-0.406 0.156-0.188 0.406-0.188h5.531l1.25-2.969q0.25-0.656 0.938-1.125 0.719-0.469 1.438-0.469h5.688q0.719 0 1.438 0.469 0.688 0.469 0.938 1.125l1.25 2.969h5.531q0.25 0 0.406 0.188 0.156 0.156 0.156 0.406v0z"></path>
</svg>
