<!-- Generated by IcoMoon.io -->
<svg version="1.1" xmlns="http://www.w3.org/2000/svg" width="20" height="32" viewBox="0 0 20 32">
<title>uah</title>
<path d="M7.844 29.781q-0.813-0.188-1.5-0.469t-1.375-0.75q-1.5-1-2.266-2.344t-0.922-3.188q-0.063-0.938 0.125-1.844t0.719-2.094q0.031-0.063-0.141-0.094t-0.641-0.031h-0.813v-1.625h2.938l0.438-0.469q0.188-0.219 0.609-0.563t0.828-0.656l0.969-0.719-5.781-0.063v-1.531h8.313l1.156-0.781q1.719-1.188 2.516-1.984t1.141-1.734q0.219-0.594 0.203-1.531t-0.266-1.5q-0.719-1.594-2.688-2t-3.781 0.656q-1.188 0.688-2.281 2.219t-1.563 3.156l-0.219 0.813h-0.469q-0.25 0-0.344-0.031t-0.094-0.125 0.109-1.359 0.266-2.953l0.406-4.125h0.406q0.281 0 0.375 0.063t0.25 0.406q0.25 0.5 0.563 0.688t0.719 0.125q0.188-0.031 0.672-0.172t1.016-0.328q0.5-0.156 1.109-0.328t0.953-0.266q1.344-0.313 2.656-0.125 1.313 0.219 2.391 0.875t1.859 1.688 1.094 2.344q0.156 0.688 0.156 1.781t-0.156 1.688q-0.156 0.563-0.422 1.156t-0.578 1.063q-0.125 0.188-0.203 0.359l-0.078 0.172q0 0.031 0.219 0.063t0.531 0.031h0.781v1.531h-3.219l-3.594 2.406 6.813 0.063v1.625h-9.406l-0.844 0.906q-1.031 1.063-1.469 2.109t-0.375 2.266q0.063 0.969 0.344 1.547t0.969 1.297q0.719 0.719 1.297 0.984t1.609 0.297q1.219 0.063 2.375-0.344t2.172-1.234 1.859-2.016q0.813-1.219 1.375-2.719l0.281-0.781 0.406-0.031q0.219 0 0.328 0.016t0.109 0.078-0.188 1.344q-0.156 1.281-0.344 2.813t-0.375 2.813q-0.156 1.313-0.188 1.406-0.031 0.156-0.109 0.188t-0.359 0.031q-0.313-0.031-0.391-0.094t-0.141-0.313q-0.094-0.375-0.359-0.594t-0.672-0.219q-0.188 0-0.844 0.156t-1.406 0.344q-0.75 0.219-1.453 0.406t-0.953 0.219q-0.594 0.094-1.547 0.078t-1.609-0.141v0z"></path>
</svg>
