<!-- Generated by IcoMoon.io -->
<svg version="1.1" xmlns="http://www.w3.org/2000/svg" width="32" height="32" viewBox="0 0 32 32">
<title>unlock</title>
<path d="M30.844 10.281v4.563q0 0.469-0.313 0.813-0.344 0.344-0.813 0.344h-1.156q-0.469 0-0.781-0.344-0.344-0.344-0.344-0.813v-4.563q0-1.875-1.344-3.219t-3.25-1.344q-1.875 0-3.219 1.344t-1.344 3.219v3.438h1.719q0.719 0 1.219 0.5t0.5 1.219v10.281q0 0.719-0.5 1.219t-1.219 0.5h-17.156q-0.688 0-1.188-0.5t-0.5-1.219v-10.281q0-0.719 0.5-1.219t1.188-0.5h12v-3.438q0-3.313 2.375-5.656 2.344-2.344 5.625-2.344 3.313 0 5.656 2.344t2.344 5.656v0z"></path>
</svg>
