<!-- Generated by IcoMoon.io -->
<svg version="1.1" xmlns="http://www.w3.org/2000/svg" width="32" height="32" viewBox="0 0 32 32">
<title>unlock-alt</title>
<path d="M24.563 13.719q0.719 0 1.219 0.5t0.5 1.219v10.281q0 0.719-0.5 1.219t-1.219 0.5h-17.125q-0.719 0-1.219-0.5t-0.5-1.219v-10.281q0-0.719 0.5-1.219t1.219-0.5h0.563v-5.719q0-3.313 2.344-5.656t5.656-2.344 5.656 2.344 2.344 5.656q0 0.469-0.344 0.813t-0.813 0.344h-1.125q-0.469 0-0.813-0.344t-0.344-0.813q0-1.906-1.344-3.219-1.313-1.344-3.219-1.344t-3.219 1.344q-1.344 1.313-1.344 3.219v5.719h13.125z"></path>
</svg>
