<!-- Generated by IcoMoon.io -->
<svg version="1.1" xmlns="http://www.w3.org/2000/svg" width="32" height="32" viewBox="0 0 32 32">
<title>upload</title>
<path d="M24 26.281q0-0.469-0.344-0.813-0.344-0.313-0.813-0.313-0.438 0-0.781 0.313-0.344 0.344-0.344 0.813t0.344 0.813 0.781 0.344q0.469 0 0.813-0.344t0.344-0.813zM28.563 26.281q0-0.469-0.344-0.813-0.313-0.313-0.781-0.313t-0.813 0.313q-0.344 0.344-0.344 0.813t0.344 0.813 0.813 0.344 0.781-0.344q0.344-0.344 0.344-0.813v0zM30.844 22.281v5.719q0 0.719-0.5 1.219t-1.188 0.5h-26.313q-0.688 0-1.188-0.5t-0.5-1.219v-5.719q0-0.719 0.5-1.219t1.188-0.5h7.625q0.375 1 1.281 1.656 0.875 0.625 1.969 0.625h4.563q1.094 0 1.969-0.625 0.906-0.656 1.281-1.656h7.625q0.688 0 1.188 0.5t0.5 1.219v0zM25.063 10.719q-0.313 0.719-1.063 0.719h-4.563v8q0 0.469-0.344 0.781-0.344 0.344-0.813 0.344h-4.563q-0.469 0-0.813-0.344-0.344-0.313-0.344-0.781v-8h-4.563q-0.75 0-1.063-0.719-0.281-0.688 0.25-1.25l8-8q0.344-0.313 0.813-0.313t0.813 0.313l8 8q0.531 0.563 0.25 1.25v0z"></path>
</svg>
