<!-- Generated by IcoMoon.io -->
<svg version="1.1" xmlns="http://www.w3.org/2000/svg" width="32" height="32" viewBox="0 0 32 32">
<title>user-circle-o</title>
<path d="M16 0q3.25 0 6.219 1.281 2.969 1.25 5.094 3.406 2.156 2.125 3.406 5.094 1.281 2.969 1.281 6.219 0 3.219-1.25 6.188-1.281 2.969-3.406 5.125-2.156 2.125-5.125 3.406-2.938 1.281-6.219 1.281t-6.219-1.281q-2.969-1.25-5.125-3.406-2.125-2.156-3.375-5.094-1.281-2.969-1.281-6.219t1.281-6.219q1.25-2.969 3.406-5.094 2.125-2.156 5.094-3.406 2.969-1.281 6.219-1.281v0zM27.063 24.125q2.656-3.656 2.656-8.125 0-2.781-1.094-5.313t-2.938-4.375-4.375-2.938-5.313-1.094-5.313 1.094-4.375 2.938-2.938 4.375-1.094 5.313q0 4.469 2.656 8.125 1.188-5.844 5.469-5.844 2.344 2.281 5.594 2.281t5.594-2.281q4.281 0 5.469 5.844v0zM22.844 12.563q0-2.844-2-4.844t-4.844-2-4.844 2-2 4.844 2 4.844q2 2.031 4.844 2.031t4.844-2.031q2-2 2-4.844v0z"></path>
</svg>
