<!-- Generated by IcoMoon.io -->
<svg version="1.1" xmlns="http://www.w3.org/2000/svg" width="37" height="32" viewBox="0 0 37 32">
<title>user-plus</title>
<path d="M12.563 16q-2.844 0-4.844-2-2-2.031-2-4.844 0-2.844 2-4.875 2-2 4.844-2t4.844 2q2.031 2.031 2.031 4.875 0 2.813-2.031 4.844-2 2-4.844 2v0zM29.719 18.281h6.281q0.219 0 0.406 0.188 0.156 0.156 0.156 0.375v3.438q0 0.25-0.156 0.406-0.188 0.156-0.406 0.156h-6.281v6.313q0 0.219-0.188 0.375-0.156 0.188-0.375 0.188h-3.438q-0.25 0-0.406-0.188-0.156-0.156-0.156-0.375v-6.313h-6.313q-0.219 0-0.375-0.156-0.188-0.156-0.188-0.406v-3.438q0-0.219 0.188-0.375 0.156-0.188 0.375-0.188h6.313v-6.281q0-0.219 0.156-0.406 0.156-0.156 0.406-0.156h3.438q0.219 0 0.375 0.156 0.188 0.188 0.188 0.406v6.281zM16.563 22.281q0 0.938 0.688 1.625 0.688 0.656 1.594 0.656h4.594v4.25q-1.219 0.906-3.063 0.906h-15.594q-2.188 0-3.469-1.25-1.313-1.219-1.313-3.375 0-0.938 0.063-1.844t0.25-1.969q0.188-1.031 0.469-1.938 0.281-0.875 0.781-1.719 0.469-0.844 1.094-1.469 0.625-0.594 1.531-0.938 0.906-0.375 2-0.375 0.344 0 0.688 0.313 1.406 1.094 2.75 1.625 1.344 0.563 2.938 0.563t2.938-0.563q1.344-0.531 2.781-1.625 0.344-0.313 0.688-0.313 2.344 0 3.875 1.719h-4q-0.906 0-1.594 0.688t-0.688 1.594v3.438z"></path>
</svg>
