<!-- Generated by IcoMoon.io -->
<svg version="1.1" xmlns="http://www.w3.org/2000/svg" width="37" height="32" viewBox="0 0 37 32">
<title>user-times</title>
<path d="M12.563 16q-2.844 0-4.844-2-2-2.031-2-4.844 0-2.844 2-4.875 2-2 4.844-2t4.844 2q2.031 2.031 2.031 4.875 0 2.813-2.031 4.844-2 2-4.844 2v0zM31.813 21.719l4.438 4.438q0.156 0.156 0.156 0.406t-0.156 0.406l-2.438 2.438q-0.156 0.156-0.375 0.156-0.25 0-0.406-0.156l-4.469-4.469-4.438 4.469q-0.156 0.156-0.406 0.156t-0.406-0.156l-2.406-2.438q-0.188-0.156-0.188-0.406t0.188-0.406l4.438-4.438-4.438-4.438q-0.188-0.188-0.188-0.438 0-0.219 0.188-0.375l2.406-2.438q0.156-0.156 0.406-0.156t0.406 0.156l4.438 4.438 4.469-4.438q0.156-0.156 0.406-0.156 0.219 0 0.375 0.156l2.438 2.438q0.156 0.156 0.156 0.375 0 0.25-0.156 0.438zM22.906 21.719l-3.219 3.219q-0.656 0.656-0.656 1.625t0.656 1.625l1.469 1.469q-0.375 0.063-0.781 0.063h-15.594q-2.188 0-3.469-1.25-1.313-1.219-1.313-3.375 0-0.938 0.063-1.844t0.25-1.969q0.188-1.031 0.469-1.938 0.281-0.875 0.781-1.719 0.469-0.844 1.094-1.469 0.625-0.594 1.531-0.938 0.906-0.375 2-0.375 0.344 0 0.688 0.313 2.75 2.188 5.688 2.188 2.969 0 5.719-2.188 0.344-0.313 0.688-0.313 0.5 0 1 0.125-0.5 0.469-0.719 0.875-0.219 0.438-0.219 1 0 0.969 0.656 1.625z"></path>
</svg>
