<!-- Generated by IcoMoon.io -->
<svg version="1.1" xmlns="http://www.w3.org/2000/svg" width="32" height="32" viewBox="0 0 32 32">
<title>user-o</title>
<path d="M23.719 14q0.844 0.25 1.625 0.688 0.75 0.406 1.563 1.281 0.844 0.875 1.438 2.063t0.969 3.094q0.406 1.875 0.406 4.219 0 2.75-1.781 4.688-1.781 1.969-4.313 1.969h-15.25q-2.531 0-4.313-1.969-1.781-1.938-1.781-4.688 0-2.344 0.406-4.219 0.375-1.906 0.969-3.094t1.438-2.063q0.813-0.875 1.563-1.281 0.781-0.438 1.625-0.688-1.438-2.219-1.438-4.844 0-1.875 0.75-3.563 0.719-1.688 1.938-2.906 1.25-1.25 2.938-1.969t3.531-0.719 3.531 0.719 2.938 1.969q1.219 1.219 1.938 2.906 0.75 1.688 0.75 3.563 0 2.625-1.438 4.844v0zM16 2.281q-2.844 0-4.844 2-2 2.031-2 4.875 0 2.813 2 4.844 2 2 4.844 2t4.844-2q2-2.031 2-4.844 0-2.844-2-4.875-2-2-4.844-2zM23.625 29.719q1.563 0 2.688-1.281t1.125-3.094q0-4.281-1.406-6.75-1.406-2.438-4.031-2.563-2.594 2.25-6 2.25t-6-2.25q-2.625 0.125-4.031 2.563-1.406 2.469-1.406 6.75 0 1.813 1.125 3.094t2.688 1.281h15.25z"></path>
</svg>
