<!-- Generated by IcoMoon.io -->
<svg version="1.1" xmlns="http://www.w3.org/2000/svg" width="32" height="32" viewBox="0 0 32 32">
<title>user-secret</title>
<path d="M12.563 27.438l1.719-8-1.719-2.281-2.281-1.156zM17.156 27.438l2.281-11.438-2.281 1.156-1.719 2.281zM20 9.406q-0.031-0.094-0.063-0.125-0.188-0.125-1.719-0.125-1.25 0-3 0.313-0.125 0.063-0.375 0.063t-0.375-0.063q-1.719-0.313-2.969-0.313-1.531 0-1.719 0.125-0.031 0.031-0.063 0.125 0.031 0.313 0.063 0.469 0.031 0.063 0.125 0.125 0.125 0.063 0.156 0.188 0.031 0.063 0.125 0.344 0.094 0.313 0.125 0.375t0.125 0.313q0.125 0.219 0.156 0.313 0.063 0.063 0.156 0.25 0.125 0.156 0.219 0.219t0.25 0.188q0.156 0.094 0.313 0.125t0.375 0.094q0.188 0.031 0.438 0.031 0.625 0 1.063-0.219 0.406-0.25 0.563-0.563 0.188-0.313 0.25-0.594 0.094-0.313 0.219-0.531t0.313-0.219h0.219q0.188 0 0.313 0.219t0.188 0.531q0.094 0.281 0.281 0.594 0.156 0.313 0.563 0.563 0.406 0.219 1.063 0.219 0.219 0 0.438-0.031 0.219-0.063 0.375-0.094t0.313-0.125q0.156-0.125 0.25-0.188t0.219-0.219q0.094-0.188 0.156-0.25 0.031-0.094 0.156-0.313 0.094-0.25 0.125-0.313t0.125-0.375q0.094-0.281 0.125-0.344 0.031-0.125 0.125-0.188 0.125-0.063 0.156-0.125 0.031-0.156 0.063-0.469v0zM27.438 25.094q0 2.156-1.313 3.375-1.313 1.25-3.469 1.25h-15.594q-2.156 0-3.469-1.25-1.313-1.219-1.313-3.375 0-1.094 0.094-2.125 0.063-1 0.344-2.219 0.25-1.219 0.656-2.219 0.406-0.969 1.125-1.844t1.688-1.344l-1.625-3.906h3.844q-0.406-1.156-0.406-2.281 0-0.219 0.031-0.594-3.469-0.719-3.469-1.719t3.75-1.75q0.313-1.125 0.938-2.406 0.594-1.281 1.25-2.031 0.563-0.656 1.344-0.656 0.563 0 1.5 0.563 0.969 0.531 1.5 0.531 0.563 0 1.5-0.531 0.969-0.563 1.5-0.563 0.813 0 1.375 0.656 0.625 0.75 1.25 2.031t0.938 2.406q3.75 0.75 3.75 1.75t-3.469 1.719q0.125 1.469-0.375 2.875h3.844l-1.469 4q1.125 0.594 1.906 1.719 0.813 1.156 1.188 2.563 0.375 1.438 0.5 2.719 0.156 1.281 0.156 2.656v0z"></path>
</svg>
