<!-- Generated by IcoMoon.io -->
<svg version="1.1" xmlns="http://www.w3.org/2000/svg" width="36" height="32" viewBox="0 0 36 32">
<title>user-left</title>
<path d="M12.468 14.961c-9.974 0-9.974-14.961 0-14.961s9.974 14.961 0 14.961zM12.468 11.636c5.541 0 5.541-8.312 0-8.312s-5.541 8.312 0 8.312zM24.935 30.338v1.662h-24.935v-1.662c0-9.181 4.289-14.13 12.468-14.13s12.468 4.949 12.468 14.13zM3.378 28.675h18.179c-0.421-6.284-3.346-9.143-9.090-9.143s-8.669 2.859-9.090 9.143z"></path>
<path d="M28.169 12.416l4.299-4.299-2.351-2.351c-2.87 2.872-5.744 5.739-8.611 8.614 2.866 2.875 5.74 5.743 8.611 8.614l2.351-2.351-4.904-4.904h8.229v-3.325z"></path>
</svg>
