<!-- Generated by IcoMoon.io -->
<svg version="1.1" xmlns="http://www.w3.org/2000/svg" width="32" height="32" viewBox="0 0 32 32">
<title>user-circle</title>
<path d="M27.188 23.906q-0.375-2.75-1.563-4.594-1.156-1.844-3.281-2.125-1.188 1.344-2.844 2.063-1.656 0.75-3.5 0.75t-3.5-0.75q-1.656-0.719-2.844-2.063-2.125 0.281-3.281 2.125-1.188 1.844-1.563 4.594 1.875 2.688 4.844 4.25 2.938 1.563 6.344 1.563t6.344-1.563q2.969-1.563 4.844-4.25v0zM22.844 11.438q0-2.844-2-4.844-2-2.031-4.844-2.031t-4.844 2.031q-2 2-2 4.844t2 4.844 4.844 2 4.844-2 2-4.844v0zM32 16q0 3.25-1.281 6.219-1.25 2.938-3.375 5.094-2.156 2.156-5.125 3.406-2.938 1.281-6.219 1.281-3.25 0-6.219-1.281-2.969-1.25-5.094-3.406-2.156-2.125-3.406-5.094-1.281-2.969-1.281-6.219t1.281-6.219q1.25-2.969 3.406-5.094 2.125-2.156 5.094-3.406 2.969-1.281 6.219-1.281t6.219 1.281q2.969 1.25 5.094 3.406 2.156 2.125 3.406 5.094 1.281 2.969 1.281 6.219z"></path>
</svg>
