<!-- Generated by IcoMoon.io -->
<svg version="1.1" xmlns="http://www.w3.org/2000/svg" width="32" height="32" viewBox="0 0 32 32">
<title>user</title>
<path d="M27.438 24.969q0 1.969-1.125 3.344-1.125 1.406-2.688 1.406h-15.25q-1.563 0-2.688-1.406-1.125-1.375-1.125-3.344 0-1.5 0.156-2.844t0.563-2.719 1.063-2.344q0.625-0.969 1.656-1.594 1.063-0.625 2.406-0.625 2.344 2.313 5.594 2.313t5.594-2.313q1.344 0 2.406 0.625 1.031 0.625 1.656 1.594 0.656 0.969 1.063 2.344t0.563 2.719 0.156 2.844v0zM22.844 9.156q0 2.813-2 4.844-2 2-4.844 2t-4.844-2q-2-2.031-2-4.844 0-2.844 2-4.875 2-2 4.844-2t4.844 2q2 2.031 2 4.875v0z"></path>
</svg>
