<!-- Generated by IcoMoon.io -->
<svg version="1.1" xmlns="http://www.w3.org/2000/svg" width="32" height="32" viewBox="0 0 32 32">
<title>vcard-o</title>
<path d="M19.5 11.5q0 1.906-1.375 3.281-1.344 1.344-3.281 1.344-1.906 0-3.25-1.344-1.375-1.375-1.375-3.281 0-1.938 1.375-3.281 1.344-1.375 3.25-1.375 1.938 0 3.281 1.375 1.375 1.344 1.375 3.281zM18.656 15.438q0.813 0 1.469 0.281 0.656 0.313 1.063 0.875 0.406 0.531 0.719 1.188 0.281 0.656 0.406 1.438 0.156 0.813 0.219 1.469 0.063 0.688 0.063 1.406 0 1.219-0.719 2.125-0.688 0.938-1.875 0.938h-10.281q-1.188 0-1.875-0.938-0.719-0.906-0.719-2.125 0-0.844 0.094-1.656 0.063-0.813 0.313-1.75 0.25-0.969 0.656-1.656t1.125-1.125q0.719-0.469 1.656-0.469h0.094q0.125 0.063 0.594 0.344 0.438 0.281 0.625 0.375t0.594 0.313q0.406 0.188 0.656 0.281l0.625 0.156q0.375 0.063 0.688 0.063 0.344 0 0.719-0.063l0.625-0.156q0.25-0.094 0.656-0.281 0.406-0.219 0.594-0.313t0.625-0.375q0.469-0.281 0.594-0.344v0zM30.844 10.844q0 0.25-0.156 0.406-0.156 0.188-0.406 0.188h-1.719v2.281h1.719q0.25 0 0.406 0.156 0.156 0.188 0.156 0.406v3.438q0 0.219-0.156 0.406-0.156 0.156-0.406 0.156h-1.719v2.281h1.719q0.25 0 0.406 0.188 0.156 0.156 0.156 0.406v3.406q0 0.25-0.156 0.406-0.156 0.188-0.406 0.188h-1.719v4q0 1.156-0.844 2-0.813 0.844-2 0.844h-21.719q-1.188 0-2.031-0.844-0.813-0.844-0.813-2v-26.313q0-1.156 0.813-2 0.844-0.844 2.031-0.844h21.719q1.188 0 2 0.844 0.844 0.844 0.844 2v4h1.719q0.25 0 0.406 0.188 0.156 0.156 0.156 0.406v3.406zM26.281 29.156v-26.313q0-0.219-0.156-0.375-0.188-0.188-0.406-0.188h-21.719q-0.219 0-0.406 0.188-0.156 0.156-0.156 0.375v26.313q0 0.219 0.156 0.375 0.188 0.188 0.406 0.188h21.719q0.219 0 0.406-0.188 0.156-0.156 0.156-0.375z"></path>
</svg>
