<!-- Generated by IcoMoon.io -->
<svg version="1.1" xmlns="http://www.w3.org/2000/svg" width="32" height="32" viewBox="0 0 32 32">
<title>vcard</title>
<path d="M22.594 22.094q0-1-0.094-1.906-0.094-0.875-0.375-1.781t-0.719-1.531q-0.438-0.656-1.125-1.031-0.719-0.406-1.625-0.406-0.125 0.063-0.625 0.344-0.469 0.313-0.75 0.438-0.25 0.156-0.719 0.375t-0.875 0.313q-0.406 0.063-0.844 0.063-0.406 0-0.813-0.063-0.438-0.094-0.875-0.313-0.469-0.219-0.719-0.375-0.281-0.125-0.781-0.438-0.469-0.281-0.594-0.344-0.906 0-1.625 0.406-0.719 0.375-1.125 1.031-0.438 0.625-0.719 1.531t-0.375 1.781q-0.094 0.906-0.094 1.906 0 1.313 0.75 2.188t1.844 0.875h10.281q1.094 0 1.844-0.875t0.75-2.188v0zM19.5 11.5q0-1.938-1.375-3.281-1.344-1.375-3.281-1.375-1.906 0-3.25 1.375-1.375 1.344-1.375 3.281 0 1.906 1.375 3.281 1.344 1.344 3.25 1.344 1.938 0 3.281-1.344 1.375-1.375 1.375-3.281zM30.844 21.156v3.406q0 0.25-0.156 0.406-0.156 0.188-0.406 0.188h-1.719v4q0 1.156-0.844 2-0.813 0.844-2 0.844h-21.719q-1.188 0-2.031-0.844-0.813-0.844-0.813-2v-26.313q0-1.156 0.813-2 0.844-0.844 2.031-0.844h21.719q1.188 0 2 0.844 0.844 0.844 0.844 2v4h1.719q0.25 0 0.406 0.188 0.156 0.156 0.156 0.406v3.406q0 0.25-0.156 0.438-0.156 0.156-0.406 0.156h-1.719v2.281h1.719q0.25 0 0.406 0.156t0.156 0.406v3.438q0 0.25-0.156 0.406t-0.406 0.156h-1.719v2.281h1.719q0.25 0 0.406 0.156 0.156 0.188 0.156 0.438v0z"></path>
</svg>
