<!-- Generated by IcoMoon.io -->
<svg version="1.1" xmlns="http://www.w3.org/2000/svg" width="27" height="32" viewBox="0 0 27 32">
<title>vertical-lines</title>
<path d="M13.333 4c1.473 0 2.667 1.194 2.667 2.667v21.333c0 1.473-1.194 2.667-2.667 2.667s-2.667-1.194-2.667-2.667v-21.333c0-1.473 1.194-2.667 2.667-2.667z"></path>
<path d="M24 0c1.473 0 2.667 1.194 2.667 2.667v26.667c0 1.473-1.194 2.667-2.667 2.667s-2.667-1.194-2.667-2.667v-26.667c0-1.473 1.194-2.667 2.667-2.667z"></path>
<path d="M2.667 6.667c1.473 0 2.667 1.194 2.667 2.667v16c0 1.473-1.194 2.667-2.667 2.667s-2.667-1.194-2.667-2.667v-16c0-1.473 1.194-2.667 2.667-2.667z"></path>
</svg>
