<!-- Generated by IcoMoon.io -->
<svg version="1.1" xmlns="http://www.w3.org/2000/svg" width="32" height="32" viewBox="0 0 32 32">
<title>viber</title>
<path d="M17.188 18.313l0.328-0.016t0.547-0.297l0.594-0.75q0.219-0.281 0.688-0.406t0.969 0.156q0.688 0.406 1.484 0.953t1.391 1.109q0.344 0.281 0.406 0.672t-0.156 0.828v0q-0.25 0.406-0.547 0.797t-0.703 0.734v0.031q-0.438 0.344-0.938 0.531t-1.063 0v-0.031q-0.969-0.25-2.938-1.297t-3.469-2.234q-1.188-0.938-2.219-2.156t-1.828-2.469-1.328-2.406q-0.563-1.156-0.781-2h-0.031q-0.188-0.563 0-1.063t0.531-0.938v0q0.375-0.406 0.75-0.719t0.781-0.531h0.031q0.438-0.219 0.828-0.156t0.672 0.406q0.344 0.375 0.953 1.188t1.078 1.656q0.281 0.531 0.172 1t-0.391 0.688l-0.75 0.594q-0.281 0.219-0.313 0.547l-0.031 0.328 1.078 2.234t4.203 3.016v0zM23.719 14.844q-0.156 0-0.281-0.125t-0.125-0.281q0-1.844-0.547-3.281t-1.609-2.5q-1.094-1.031-2.438-1.563t-2.938-0.563q-0.156 0-0.281-0.109t-0.125-0.297q0-0.156 0.125-0.281t0.281-0.125v0q1.75 0.031 3.25 0.625t2.688 1.75 1.797 2.75 0.609 3.594q0 0.156-0.109 0.281t-0.266 0.125h-0.031zM21.594 14v0q-0.156 0-0.281-0.125t-0.125-0.281q0.031-1.031-0.266-1.891t-0.922-1.547-1.5-1.063-2.031-0.469q-0.156 0-0.266-0.125t-0.109-0.313q0-0.156 0.125-0.266t0.313-0.109q1.281 0.125 2.313 0.563t1.75 1.25q0.719 0.781 1.078 1.797t0.328 2.203q0 0.156-0.109 0.266t-0.297 0.109v0zM19.531 13.313q-0.156 0-0.281-0.109t-0.125-0.266q-0.063-1.031-0.563-1.547t-1.469-0.578q-0.188 0-0.297-0.125t-0.078-0.313q0-0.156 0.125-0.266t0.281-0.109q1.313 0.063 2.031 0.797t0.781 2.078q0 0.188-0.109 0.313t-0.266 0.125h-0.031zM28.625 17.938q-0.313 2.438-1.219 3.813-0.938 1.406-1.984 2.125t-1.984 0.938-1.25 0.313q-0.281 0.094-2.609 0.5t-5.609 0.219l-0.531 0.625q-0.5 0.625-1.203 1.453t-1.422 1.641-1.094 1.219q-0.125 0.094-0.25 0.156t-0.219 0.031q-0.156-0.031-0.188-0.188t-0.031-0.375v-5.344q-2.375-0.656-3.594-2.125-1.219-1.438-1.75-3.172t-0.563-3.516v-3.063q0.063-2.594 0.641-4.688t2.047-3.531q1.281-1.188 3.125-1.75 1.813-0.563 3.484-0.781t2.859-0.188l1.156 0.031q4.563 0.031 6.844 1.016t2.813 1.453q0.813 0.719 1.438 1.906 0.625 1.219 0.969 2.891t0.375 3.766q0.063 2.125-0.25 4.625v0zM27.75 3.125q-0.313-0.281-1.063-0.781-0.781-0.531-2.141-1.031t-3.328-0.906q-1.969-0.375-4.625-0.375l-1.406-0.031q-1.375-0.031-3.344 0.234t-4.125 0.953-3.688 2.094q-0.875 0.875-1.469 1.906-0.594 1.063-0.953 2.297t-0.547 2.641-0.219 2.969 0.063 3.656q0.063 2.094 0.75 4.141t2.188 3.734q1.5 1.719 4.313 2.531v0 3.219l0.078 0.688t0.734 0.875q0.781 0.25 1.344-0.344t1.313-1.406q0.406-0.438 0.922-1.016t0.922-1.078q1.938 0.156 3.594 0.094 1.688-0.063 2.938-0.219t2.063-0.344q0.781-0.188 0.938-0.219 0.406-0.156 1.531-0.438 1.156-0.313 2.438-1.219t2.406-2.594q1.125-1.719 1.5-4.625 0.344-3.031 0.281-5.5-0.063-2.438-0.484-4.359t-1.172-3.297q-0.75-1.406-1.75-2.25z"></path>
</svg>
