<!-- Generated by IcoMoon.io -->
<svg version="1.1" xmlns="http://www.w3.org/2000/svg" width="37" height="32" viewBox="0 0 37 32">
<title>wechat</title>
<path d="M10.344 8.219q0-0.719-0.438-1.156-0.438-0.469-1.188-0.469t-1.344 0.469-0.594 1.156q0 0.719 0.594 1.156 0.594 0.469 1.344 0.469t1.188-0.438 0.438-1.188v0zM23.625 17.281q0-0.5-0.469-0.875-0.438-0.406-1.156-0.406-0.469 0-0.875 0.406t-0.406 0.875q0 0.5 0.406 0.906t0.875 0.406q0.719 0 1.156-0.406 0.469-0.375 0.469-0.906v0zM19.406 8.219q0-0.719-0.438-1.156-0.438-0.469-1.156-0.469-0.781 0-1.375 0.469t-0.594 1.156q0 0.719 0.594 1.156 0.594 0.469 1.375 0.469 0.719 0 1.156-0.438t0.438-1.188v0zM30.75 17.281q0-0.5-0.469-0.875-0.469-0.406-1.156-0.406-0.469 0-0.875 0.406t-0.406 0.875q0 0.5 0.406 0.906t0.875 0.406q0.688 0 1.156-0.406 0.469-0.375 0.469-0.906v0zM26 10.188q-0.563-0.063-1.25-0.063-3.031 0-5.563 1.375t-3.969 3.719q-1.469 2.344-1.469 5.125 0 1.406 0.406 2.719-0.625 0.063-1.219 0.063-0.469 0-0.875-0.031-0.438-0.031-1-0.125-0.531-0.063-0.781-0.125-0.25-0.031-0.969-0.188-0.75-0.125-0.906-0.188l-4.5 2.281 1.281-3.906q-5.188-3.625-5.188-8.75 0-3 1.75-5.531 1.719-2.531 4.719-4 2.969-1.469 6.469-1.469 3.156 0 5.938 1.188 2.813 1.188 4.688 3.25 1.875 2.094 2.438 4.656v0zM36.563 20.219q0 2.094-1.219 4-1.219 1.875-3.313 3.438l1 3.25-3.563-1.969q-2.688 0.656-3.906 0.656-3 0-5.531-1.25-2.563-1.25-4-3.406-1.469-2.156-1.469-4.719t1.469-4.719q1.438-2.156 4-3.406 2.531-1.281 5.531-1.281 2.875 0 5.406 1.281 2.563 1.25 4.063 3.406 1.531 2.188 1.531 4.719v0z"></path>
</svg>
