<!-- Generated by IcoMoon.io -->
<svg version="1.1" xmlns="http://www.w3.org/2000/svg" width="32" height="32" viewBox="0 0 32 32">
<title>whatsapp</title>
<path d="M19.875 17.406q0.219 0 1.75 0.781 1.5 0.781 1.594 0.938 0.031 0.094 0.031 0.281 0 0.563-0.313 1.344-0.281 0.688-1.25 1.156-1 0.5-1.844 0.5-1 0-3.375-1.125-1.75-0.813-3.031-2.094-1.281-1.313-2.656-3.313-1.281-1.906-1.25-3.469v-0.125q0.031-1.625 1.313-2.844 0.438-0.375 0.938-0.375 0.094 0 0.313 0.031h0.344q0.344 0 0.469 0.125t0.281 0.5q0.125 0.344 0.594 1.563 0.438 1.219 0.438 1.344 0 0.375-0.625 1.031t-0.625 0.813q0 0.125 0.094 0.281 0.625 1.313 1.844 2.438 1 0.969 2.688 1.813 0.219 0.125 0.375 0.125 0.281 0 0.969-0.875 0.719-0.844 0.938-0.844v0zM16.25 26.844q2.281 0 4.344-0.875 2.094-0.906 3.594-2.406t2.375-3.563q0.906-2.094 0.906-4.344 0-2.281-0.906-4.375-0.875-2.063-2.375-3.563t-3.594-2.406q-2.063-0.875-4.344-0.875t-4.344 0.875q-2.094 0.906-3.594 2.406t-2.375 3.563q-0.906 2.094-0.906 4.375 0 3.625 2.156 6.563l-1.406 4.156 4.313-1.375q2.813 1.844 6.156 1.844v0zM16.25 2.188q2.719 0 5.219 1.063t4.313 2.875q1.781 1.813 2.875 4.281 1.063 2.5 1.063 5.25 0 2.719-1.063 5.219-1.094 2.469-2.875 4.281-1.813 1.813-4.313 2.875t-5.219 1.063q-3.469 0-6.531-1.656l-7.438 2.375 2.438-7.219q-1.938-3.188-1.938-6.938 0-2.75 1.063-5.25 1.094-2.469 2.875-4.281 1.813-1.813 4.313-2.875t5.219-1.063v0z"></path>
</svg>
