<!-- Generated by IcoMoon.io -->
<svg version="1.1" xmlns="http://www.w3.org/2000/svg" width="32" height="32" viewBox="0 0 32 32">
<title>wrench</title>
<path d="M8 26.281q0-0.469-0.344-0.813-0.344-0.313-0.813-0.313-0.438 0-0.781 0.313-0.344 0.344-0.344 0.813t0.344 0.813 0.781 0.344q0.469 0 0.813-0.344t0.344-0.813zM19.5 18.781l-12.188 12.188q-0.656 0.656-1.594 0.656t-1.625-0.656l-1.906-1.938q-0.656-0.625-0.656-1.594t0.656-1.625l12.156-12.156q0.719 1.75 2.063 3.094t3.094 2.031v0zM30.813 11.031q0 0.688-0.406 1.875-0.844 2.406-2.938 3.875-2.094 1.5-4.625 1.5-3.281 0-5.625-2.344-2.375-2.344-2.375-5.656t2.375-5.656q2.344-2.344 5.625-2.344 1.063 0 2.188 0.313 1.125 0.281 1.906 0.813 0.281 0.188 0.281 0.5t-0.281 0.5l-5.219 3.031v4l3.438 1.906q0.094-0.063 1.406-0.875 1.344-0.813 2.438-1.438t1.25-0.625q0.281 0 0.406 0.156 0.156 0.188 0.156 0.469v0z"></path>
</svg>
