<?xml version="1.0" standalone="no"?>
<!DOCTYPE svg PUBLIC "-//W3C//DTD SVG 1.1//EN" "http://www.w3.org/Graphics/SVG/1.1/DTD/svg11.dtd" >
<svg xmlns="http://www.w3.org/2000/svg">
<defs>
  <font id="SmarttenderFont" horiz-adv-x="1343.75">
    <font-face font-family="SmarttenderFont"
      units-per-em="1000" ascent="0.5"
      descent="0" />
    <missing-glyph horiz-adv-x="0" />
    <glyph glyph-name="500px"
      unicode="&#xEA49;"
      horiz-adv-x="1000" d="M853.25 136.71875L849.90625 133.375Q786.84375 70.3125 705.375 35.71875Q619.4375 0 528.46875 0Q436.4062500000001 0 351.5625000000001 35.71875Q268.9687500000001 70.875 207.0312500000001 133.375Q143.9687500000001 195.875 109.3750000000001 277.34375Q85.9375000000001 334.8125 79.2500000000001 382.8125Q77.0312500000001 398.4375 106.03125 402.90625Q134.5000000000001 407.375 137.2812500000001 391.75Q137.8437500000001 391.1875 137.8437500000001 389.53125Q147.875 339.3125 163.5 300.8125Q191.40625 231.6250000000001 248.3125000000001 174.6875000000001Q303.0000000000001 120.0000000000001 374.4375000000001 89.8750000000001Q448.0937500000001 58.6250000000001 528.46875 58.6250000000001Q608.28125 58.6250000000001 682.5000000000001 89.8750000000001Q753.9375000000001 120.5625000000001 808.0625000000001 174.6875000000001L811.4062500000001 178.0312500000001Q817.0000000000001 183.625 825.3437500000001 181.3750000000001Q832.0312500000001 179.6875000000001 843.7500000000001 169.09375Q863.8437500000001 148.4375 853.2500000000001 136.71875zM589.84375 479.90625L553 443.0625L588.15625 407.90625Q599.875 396.1875 584.25 380.5625Q574.7500000000001 371.0625000000001 566.40625 371.0625000000001Q560.8125 371.0625000000001 555.8125 376.65625L521.2187500000001 410.6875L484.3750000000001 373.84375Q481.5937500000001 371.0625000000001 476.0000000000001 371.0625000000001Q467.625 371.0625000000001 458.6875 380.0000000000001L457.5625000000001 381.1250000000001Q447.5312500000001 389.5000000000003 447.5312500000001 397.3125000000003Q447.5312500000001 401.2187500000003 452.0000000000001 406.8125000000001L488.8437500000001 443.0937500000003L452.0000000000001 479.9375000000001Q443.0625000000001 488.8750000000002 459.8125000000001 505.0625000000001Q469.8437500000001 515.0937500000001 477.1250000000001 515.0937500000001Q480.4687500000001 515.0937500000001 484.3750000000001 512.3125000000001L520.65625 475.4687500000001L556.9375000000001 511.7500000000001Q566.9687500000001 521.2500000000001 583.7187500000001 504.5000000000001Q598.78125 489.4375000000001 589.8437500000001 479.9375000000001zM852.6875 448.09375Q852.6875 382.25 827.03125 320.875Q801.90625 262.28125 756.71875 217.09375Q712.0625 172.4375 652.375 146.78125T525.15625 121.1249999999999T397.9375 146.78125T293.59375 217.09375Q247.84375 262.8437499999999 223.84375 320.875Q215.46875 339.28125 215.46875 343.1875H214.90625Q209.875 358.25 238.90625 367.75Q266.8125 376.6875000000001 272.375 361.0625000000001Q293.03125 305.8125 326.5 267.8750000000001H327.0625V458.15625Q328.75 534.0625 383.96875 587.625Q442.5625 645.09375 525.15625 645.09375Q607.1875 645.09375 665.21875 587.625T723.25 448.6875000000001Q723.25 366.6562500000001 664.9375 308.6250000000001T525.15625 250.5937500000003Q492.78125 250.5937500000003 462.65625 259.5312500000003Q447.03125 265.6562500000003 455.40625 293.5625000000003Q464.34375 322.0312500000003 479.96875 317.5625000000003L487.78125 315.8750000000003Q495.59375 314.1875000000004 506.1875 312.5312500000003T522.9375 310.8437500000004Q580.96875 310.8437500000004 621.1562500000001 350.7500000000004T661.3437500000001 448.1250000000004Q661.3437500000001 504.5000000000003 621.1562500000001 543.5625000000003Q581.53125 583.1875000000003 523.5000000000001 583.1875000000003Q463.7812500000001 583.1875000000003 424.1562500000001 538.5312500000003Q388.4375000000001 498.3437500000003 388.4375000000001 449.2500000000004V218.7812500000004Q449.8125000000001 181.4062500000004 523.46875 181.4062500000004Q577.03125 181.4062500000004 626.71875 201.7812500000004T713.78125 259.5312500000004T771.53125 346.0312500000004T791.90625 448.1562500000004Q791.90625 558.6562500000003 713.21875 637.3437500000005Q635.09375 715.4687500000005 524.03125 715.4687500000005Q412.4375 715.4687500000005 334.3125 637.3437500000005Q304.75 607.7812500000005 291.34375 588.7812500000003L290.21875 587.6562500000005Q285.75 581.5312500000005 282.96875 579.0000000000005T270.96875 573.6875000000005T249.46875 575.3750000000005Q237.75 578.1562500000005 229.09375 584.5937500000005T220.4375 599.3750000000005V978.8437500000005Q220.4375 987.2187500000005 226.3125 993.6250000000005T241.65625 1000.0312500000005H731.0625Q747.8125 1000.0312500000005 747.8125 969.3437500000005T731.0625 938.6562500000005H278.5V669.1250000000005H279.0625Q301.375 692.5625000000005 335.96875 716.0000000000005T396.25 750.0312500000005Q457.0625 775.6875000000005 525.15625 775.6875000000005Q592.6875 775.6875000000005 652.3749999999999 750.0312500000005T756.7187499999999 679.7187500000005Q801.9062499999999 634.5312500000005 827.0312499999999 575.9375000000005Q852.6874999999999 513.4375000000005 852.6874999999999 448.1562500000005zM835.375 772.3125Q840.40625 767.84375 840.40625 762.28125T837.34375 752.25T828.125 740.53125Q813.625 726.03125 806.375 726.03125Q801.3437499999999 726.03125 797.4374999999999 729.9375Q738.2812499999999 780.71875 681.9374999999999 804.15625Q610.4999999999998 835.40625 527.9062499999998 835.40625Q453.6874999999998 835.40625 381.6874999999998 808.0625Q366.6249999999999 802.46875 356.5624999999998 828.71875Q351.5312499999998 842.65625 352.0937499999998 849.9375Q353.7812499999998 858.875 361.0312499999998 861.09375Q433.5624999999997 892.90625 527.8749999999998 892.90625Q619.4062499999997 892.90625 704.2187499999998 857.1875Q780.6562499999998 824.8125 835.3437499999998 772.375z" />
    <glyph glyph-name="500px-1"
      unicode="&#x35;&#x30;&#x30;&#x70;&#x78;"
      horiz-adv-x="1000" d="M853.25 136.71875L849.90625 133.375Q786.84375 70.3125 705.375 35.71875Q619.4375 0 528.46875 0Q436.4062500000001 0 351.5625000000001 35.71875Q268.9687500000001 70.875 207.0312500000001 133.375Q143.9687500000001 195.875 109.3750000000001 277.34375Q85.9375000000001 334.8125 79.2500000000001 382.8125Q77.0312500000001 398.4375 106.03125 402.90625Q134.5000000000001 407.375 137.2812500000001 391.75Q137.8437500000001 391.1875 137.8437500000001 389.53125Q147.875 339.3125 163.5 300.8125Q191.40625 231.6250000000001 248.3125000000001 174.6875000000001Q303.0000000000001 120.0000000000001 374.4375000000001 89.8750000000001Q448.0937500000001 58.6250000000001 528.46875 58.6250000000001Q608.28125 58.6250000000001 682.5000000000001 89.8750000000001Q753.9375000000001 120.5625000000001 808.0625000000001 174.6875000000001L811.4062500000001 178.0312500000001Q817.0000000000001 183.625 825.3437500000001 181.3750000000001Q832.0312500000001 179.6875000000001 843.7500000000001 169.09375Q863.8437500000001 148.4375 853.2500000000001 136.71875zM589.84375 479.90625L553 443.0625L588.15625 407.90625Q599.875 396.1875 584.25 380.5625Q574.7500000000001 371.0625000000001 566.40625 371.0625000000001Q560.8125 371.0625000000001 555.8125 376.65625L521.2187500000001 410.6875L484.3750000000001 373.84375Q481.5937500000001 371.0625000000001 476.0000000000001 371.0625000000001Q467.625 371.0625000000001 458.6875 380.0000000000001L457.5625000000001 381.1250000000001Q447.5312500000001 389.5000000000003 447.5312500000001 397.3125000000003Q447.5312500000001 401.2187500000003 452.0000000000001 406.8125000000001L488.8437500000001 443.0937500000003L452.0000000000001 479.9375000000001Q443.0625000000001 488.8750000000002 459.8125000000001 505.0625000000001Q469.8437500000001 515.0937500000001 477.1250000000001 515.0937500000001Q480.4687500000001 515.0937500000001 484.3750000000001 512.3125000000001L520.65625 475.4687500000001L556.9375000000001 511.7500000000001Q566.9687500000001 521.2500000000001 583.7187500000001 504.5000000000001Q598.78125 489.4375000000001 589.8437500000001 479.9375000000001zM852.6875 448.09375Q852.6875 382.25 827.03125 320.875Q801.90625 262.28125 756.71875 217.09375Q712.0625 172.4375 652.375 146.78125T525.15625 121.1249999999999T397.9375 146.78125T293.59375 217.09375Q247.84375 262.8437499999999 223.84375 320.875Q215.46875 339.28125 215.46875 343.1875H214.90625Q209.875 358.25 238.90625 367.75Q266.8125 376.6875000000001 272.375 361.0625000000001Q293.03125 305.8125 326.5 267.8750000000001H327.0625V458.15625Q328.75 534.0625 383.96875 587.625Q442.5625 645.09375 525.15625 645.09375Q607.1875 645.09375 665.21875 587.625T723.25 448.6875000000001Q723.25 366.6562500000001 664.9375 308.6250000000001T525.15625 250.5937500000003Q492.78125 250.5937500000003 462.65625 259.5312500000003Q447.03125 265.6562500000003 455.40625 293.5625000000003Q464.34375 322.0312500000003 479.96875 317.5625000000003L487.78125 315.8750000000003Q495.59375 314.1875000000004 506.1875 312.5312500000003T522.9375 310.8437500000004Q580.96875 310.8437500000004 621.1562500000001 350.7500000000004T661.3437500000001 448.1250000000004Q661.3437500000001 504.5000000000003 621.1562500000001 543.5625000000003Q581.53125 583.1875000000003 523.5000000000001 583.1875000000003Q463.7812500000001 583.1875000000003 424.1562500000001 538.5312500000003Q388.4375000000001 498.3437500000003 388.4375000000001 449.2500000000004V218.7812500000004Q449.8125000000001 181.4062500000004 523.46875 181.4062500000004Q577.03125 181.4062500000004 626.71875 201.7812500000004T713.78125 259.5312500000004T771.53125 346.0312500000004T791.90625 448.1562500000004Q791.90625 558.6562500000003 713.21875 637.3437500000005Q635.09375 715.4687500000005 524.03125 715.4687500000005Q412.4375 715.4687500000005 334.3125 637.3437500000005Q304.75 607.7812500000005 291.34375 588.7812500000003L290.21875 587.6562500000005Q285.75 581.5312500000005 282.96875 579.0000000000005T270.96875 573.6875000000005T249.46875 575.3750000000005Q237.75 578.1562500000005 229.09375 584.5937500000005T220.4375 599.3750000000005V978.8437500000005Q220.4375 987.2187500000005 226.3125 993.6250000000005T241.65625 1000.0312500000005H731.0625Q747.8125 1000.0312500000005 747.8125 969.3437500000005T731.0625 938.6562500000005H278.5V669.1250000000005H279.0625Q301.375 692.5625000000005 335.96875 716.0000000000005T396.25 750.0312500000005Q457.0625 775.6875000000005 525.15625 775.6875000000005Q592.6875 775.6875000000005 652.3749999999999 750.0312500000005T756.7187499999999 679.7187500000005Q801.9062499999999 634.5312500000005 827.0312499999999 575.9375000000005Q852.6874999999999 513.4375000000005 852.6874999999999 448.1562500000005zM835.375 772.3125Q840.40625 767.84375 840.40625 762.28125T837.34375 752.25T828.125 740.53125Q813.625 726.03125 806.375 726.03125Q801.3437499999999 726.03125 797.4374999999999 729.9375Q738.2812499999999 780.71875 681.9374999999999 804.15625Q610.4999999999998 835.40625 527.9062499999998 835.40625Q453.6874999999998 835.40625 381.6874999999998 808.0625Q366.6249999999999 802.46875 356.5624999999998 828.71875Q351.5312499999998 842.65625 352.0937499999998 849.9375Q353.7812499999998 858.875 361.0312499999998 861.09375Q433.5624999999997 892.90625 527.8749999999998 892.90625Q619.4062499999997 892.90625 704.2187499999998 857.1875Q780.6562499999998 824.8125 835.3437499999998 772.375z" />
    <glyph glyph-name="address-card-o"
      unicode="&#xEA42;"
      horiz-adv-x="1156.25" d="M571.28125 369.125Q571.28125 333.0000000000001 550.78125 309.5625000000001T500 286.1250000000001H213.875Q184.5625 286.1250000000001 163.09375 309.5625000000001Q142.59375 333.0000000000001 142.59375 369.125Q142.59375 404.28125 147.46875 434.5625000000001Q153.34375 463.875 164.0625 492.1875000000001Q175.78125 519.5312500000001 198.25 535.1562500000001Q220.71875 551.7500000000001 251.96875 551.7500000000001Q255.875 548.8125000000002 268.5625 541.0000000000002Q282.25 533.1875000000002 290.0625 529.2812500000002L309.59375 519.5000000000001Q322.28125 513.6250000000001 334 511.6875000000001Q345.71875 508.7500000000002 357.4375 508.7500000000002T380.875 511.6875000000001Q392.59375 513.6562500000002 404.3125 519.5000000000001Q417.0000000000001 525.3750000000002 424.8125000000001 529.2812500000002L445.3125000000001 541.0000000000002T461.9062500000001 551.7500000000001Q494.1250000000001 551.7500000000001 516.5937500000001 535.1562500000001Q538.09375 519.5312500000001 549.8125 492.1875000000001Q561.53125 463.8750000000001 566.40625 434.5625000000001Q571.28125 404.28125 571.28125 369.125V369.125zM483.40625 659.1875Q483.40625 606.4375 446.28125 569.34375T357.40625 532.21875Q304.65625 532.21875 267.5625 569.34375T230.4375 659.1875T267.5625 749.03125T357.40625 786.15625Q409.15625 786.15625 446.28125 749.03125T483.40625 659.1875zM1000 411.125V375Q1000 367.1875 995.125 362.3125T982.4375000000002 357.4375000000001H661.1562500000001Q653.3437500000001 357.4375000000001 647.4687500000001 362.3125Q642.5937500000002 367.1875 642.5937500000002 375V411.125Q642.5937500000002 418.9375 647.4687500000001 423.8124999999999Q653.3437500000001 428.6874999999999 661.1562500000001 428.6874999999999H982.4375000000002Q990.2500000000002 428.6874999999999 995.125 423.8124999999999T1000 411.125zM1000 551.75V520.5Q1000 511.71875 994.125 505.8437500000001T979.46875 499.9687500000001H663.0625Q654.28125 499.9687500000001 648.40625 505.8437500000001T642.53125 520.5V551.75Q642.53125 559.5625 648.40625 565.4375000000001T663.0625 571.3125000000001H979.46875Q988.25 571.3125000000001 994.125 565.4375000000001T1000 551.75zM1000 696.28125V661.125Q1000 653.3125 995.125 647.4375Q990.2500000000002 642.5625 982.4375000000002 642.5625H661.1562500000001Q653.3437500000001 642.5625 647.4687500000001 647.4375Q642.5937500000002 653.3125 642.5937500000002 661.125V696.28125Q642.5937500000002 704.09375 647.4687500000001 708.96875Q653.3437500000001 713.84375 661.1562500000001 713.84375H982.4375000000002Q990.2500000000002 713.84375 995.125 708.96875T1000 696.28125zM1071.28125 161.125V838.8749999999999Q1071.28125 846.6874999999999 1066.40625 851.5624999999999Q1060.53125 857.4374999999999 1053.71875 857.4374999999999H88.875Q82.03125 857.4374999999999 77.15625 851.5624999999999Q71.28125 846.6874999999999 71.28125 838.8749999999999V161.125Q71.28125 153.3125 77.15625 148.4375Q82.03125 142.5625 88.875 142.5625H286.15625V196.2812500000001Q286.15625 204.0937500000001 291.03125 208.96875T303.7187500000001 213.84375H338.8750000000001Q346.6875000000001 213.84375 352.5625000000001 208.96875Q357.4375000000001 204.0937500000001 357.4375000000001 196.2812500000001V142.5625H786.1562500000001V196.2812500000001Q786.1562500000001 204.0937500000001 791.0312500000001 208.96875T803.71875 213.84375H838.875Q846.6875 213.84375 852.5625 208.96875Q857.4375 204.0937500000001 857.4375 196.2812500000001V142.5625H1053.71875Q1060.5625 142.5625 1066.40625 148.4375Q1071.28125 153.3125 1071.28125 161.125V161.125zM1142.59375 838.875V161.1250000000001Q1142.59375 124.0000000000001 1116.21875 97.6562500000001Q1090.8125 71.2812500000001 1053.71875 71.2812500000001H88.875Q52.75 71.2812500000001 26.375 97.6562500000001T0 161.1250000000001V838.875Q0 876 26.375 902.34375T88.875 928.71875H1053.71875Q1090.84375 928.71875 1116.21875 902.34375Q1142.59375 875.96875 1142.59375 838.875z" />
    <glyph glyph-name="address-card-o-1"
      unicode="&#x61;&#x64;&#x64;&#x72;&#x65;&#x73;&#x73;&#x2D;&#x63;&#x61;&#x72;&#x64;&#x2D;&#x6F;"
      horiz-adv-x="1156.25" d="M571.28125 369.125Q571.28125 333.0000000000001 550.78125 309.5625000000001T500 286.1250000000001H213.875Q184.5625 286.1250000000001 163.09375 309.5625000000001Q142.59375 333.0000000000001 142.59375 369.125Q142.59375 404.28125 147.46875 434.5625000000001Q153.34375 463.875 164.0625 492.1875000000001Q175.78125 519.5312500000001 198.25 535.1562500000001Q220.71875 551.7500000000001 251.96875 551.7500000000001Q255.875 548.8125000000002 268.5625 541.0000000000002Q282.25 533.1875000000002 290.0625 529.2812500000002L309.59375 519.5000000000001Q322.28125 513.6250000000001 334 511.6875000000001Q345.71875 508.7500000000002 357.4375 508.7500000000002T380.875 511.6875000000001Q392.59375 513.6562500000002 404.3125 519.5000000000001Q417.0000000000001 525.3750000000002 424.8125000000001 529.2812500000002L445.3125000000001 541.0000000000002T461.9062500000001 551.7500000000001Q494.1250000000001 551.7500000000001 516.5937500000001 535.1562500000001Q538.09375 519.5312500000001 549.8125 492.1875000000001Q561.53125 463.8750000000001 566.40625 434.5625000000001Q571.28125 404.28125 571.28125 369.125V369.125zM483.40625 659.1875Q483.40625 606.4375 446.28125 569.34375T357.40625 532.21875Q304.65625 532.21875 267.5625 569.34375T230.4375 659.1875T267.5625 749.03125T357.40625 786.15625Q409.15625 786.15625 446.28125 749.03125T483.40625 659.1875zM1000 411.125V375Q1000 367.1875 995.125 362.3125T982.4375000000002 357.4375000000001H661.1562500000001Q653.3437500000001 357.4375000000001 647.4687500000001 362.3125Q642.5937500000002 367.1875 642.5937500000002 375V411.125Q642.5937500000002 418.9375 647.4687500000001 423.8124999999999Q653.3437500000001 428.6874999999999 661.1562500000001 428.6874999999999H982.4375000000002Q990.2500000000002 428.6874999999999 995.125 423.8124999999999T1000 411.125zM1000 551.75V520.5Q1000 511.71875 994.125 505.8437500000001T979.46875 499.9687500000001H663.0625Q654.28125 499.9687500000001 648.40625 505.8437500000001T642.53125 520.5V551.75Q642.53125 559.5625 648.40625 565.4375000000001T663.0625 571.3125000000001H979.46875Q988.25 571.3125000000001 994.125 565.4375000000001T1000 551.75zM1000 696.28125V661.125Q1000 653.3125 995.125 647.4375Q990.2500000000002 642.5625 982.4375000000002 642.5625H661.1562500000001Q653.3437500000001 642.5625 647.4687500000001 647.4375Q642.5937500000002 653.3125 642.5937500000002 661.125V696.28125Q642.5937500000002 704.09375 647.4687500000001 708.96875Q653.3437500000001 713.84375 661.1562500000001 713.84375H982.4375000000002Q990.2500000000002 713.84375 995.125 708.96875T1000 696.28125zM1071.28125 161.125V838.8749999999999Q1071.28125 846.6874999999999 1066.40625 851.5624999999999Q1060.53125 857.4374999999999 1053.71875 857.4374999999999H88.875Q82.03125 857.4374999999999 77.15625 851.5624999999999Q71.28125 846.6874999999999 71.28125 838.8749999999999V161.125Q71.28125 153.3125 77.15625 148.4375Q82.03125 142.5625 88.875 142.5625H286.15625V196.2812500000001Q286.15625 204.0937500000001 291.03125 208.96875T303.7187500000001 213.84375H338.8750000000001Q346.6875000000001 213.84375 352.5625000000001 208.96875Q357.4375000000001 204.0937500000001 357.4375000000001 196.2812500000001V142.5625H786.1562500000001V196.2812500000001Q786.1562500000001 204.0937500000001 791.0312500000001 208.96875T803.71875 213.84375H838.875Q846.6875 213.84375 852.5625 208.96875Q857.4375 204.0937500000001 857.4375 196.2812500000001V142.5625H1053.71875Q1060.5625 142.5625 1066.40625 148.4375Q1071.28125 153.3125 1071.28125 161.125V161.125zM1142.59375 838.875V161.1250000000001Q1142.59375 124.0000000000001 1116.21875 97.6562500000001Q1090.8125 71.2812500000001 1053.71875 71.2812500000001H88.875Q52.75 71.2812500000001 26.375 97.6562500000001T0 161.1250000000001V838.875Q0 876 26.375 902.34375T88.875 928.71875H1053.71875Q1090.84375 928.71875 1116.21875 902.34375Q1142.59375 875.96875 1142.59375 838.875z" />
    <glyph glyph-name="address-card"
      unicode="&#xEA41;"
      horiz-adv-x="1156.25" d="M571.28125 369.125Q571.28125 404.28125 566.40625 434.5625000000001Q561.53125 463.875 549.8125 492.1875000000001Q538.09375 519.5312500000001 516.5937500000001 535.1562500000001Q494.1250000000001 551.7500000000001 461.9062500000001 551.7500000000001Q458.9687500000001 548.8125000000002 445.3125000000001 541.0000000000002L424.8125000000001 529.2812500000002Q417.0000000000001 525.3750000000002 404.3125 519.5000000000001Q392.59375 513.6250000000001 380.875 511.6875000000001Q369.15625 508.7500000000002 357.4375 508.7500000000002T334 511.6875000000001Q322.28125 513.6562500000002 309.59375 519.5000000000001L290.0625 529.2812500000002T268.5625 541.0000000000002Q255.875 548.8125000000002 251.96875 551.7500000000001Q220.71875 551.7500000000001 198.25 535.1562500000001Q175.78125 519.5312500000001 164.0625 492.1875000000001Q153.3125 463.8750000000001 147.46875 434.5625000000001Q142.59375 404.28125 142.59375 369.125Q142.59375 333.0000000000001 163.09375 309.5625000000001Q184.59375 286.1250000000001 213.875 286.1250000000001H500Q530.28125 286.1250000000001 550.78125 309.5625000000001T571.28125 369.125V369.125zM483.40625 659.1875Q483.40625 711.9375 446.28125 749.03125T357.40625 786.15625Q304.65625 786.15625 267.5625 749.03125T230.4375 659.1875T267.5625 569.34375T357.40625 532.21875Q409.15625 532.21875 446.28125 569.34375T483.40625 659.1875zM1000 375V411.125Q1000 418.9375 995.125 423.8124999999999T982.4375000000002 428.6874999999999H661.1562500000001Q653.3437500000001 428.6874999999999 647.4687500000001 423.8124999999999Q642.5937500000002 418.9375 642.5937500000002 411.125V375Q642.5937500000002 367.1875 647.4687500000001 362.3125Q653.3437500000001 357.4375000000001 661.1562500000001 357.4375000000001H982.4375000000002Q990.2500000000002 357.4375000000001 995.125 362.3125T1000 375zM1000 520.5V551.75Q1000 559.5625 994.125 565.4375T979.46875 571.3125H663.0625Q654.28125 571.3125 648.40625 565.4375T642.53125 551.75V520.5Q642.53125 511.71875 648.40625 505.8437500000001T663.0625 499.9687500000001H979.46875Q988.25 499.9687500000001 994.125 505.8437500000001T1000 520.5zM1000 661.125V696.28125Q1000 704.09375 995.125 708.96875T982.4375000000002 713.84375H661.1562500000001Q653.3437500000001 713.84375 647.4687500000001 708.96875Q642.5937500000002 704.09375 642.5937500000002 696.28125V661.125Q642.5937500000002 653.3125 647.4687500000001 647.4375Q653.3437500000001 642.5625 661.1562500000001 642.5625H982.4375000000002Q990.2500000000002 642.5625 995.125 647.4375Q1000 653.3125 1000 661.125zM1142.59375 838.875V161.1250000000001Q1142.59375 124.0000000000001 1116.21875 97.6562500000001Q1090.8125 71.2812500000001 1053.71875 71.2812500000001H857.4375000000001V125.0000000000001Q857.4375000000001 132.8125000000001 852.5625000000001 137.6875000000001Q846.6875000000001 142.5625 838.8750000000001 142.5625H803.7187500000001Q795.9062500000001 142.5625 791.0312500000002 137.6875000000001T786.1562500000002 125.0000000000001V71.2812500000001H357.4375000000003V125.0000000000001Q357.4375000000003 132.8125000000001 352.5625000000003 137.6875000000001Q346.6875000000003 142.5625 338.8750000000003 142.5625H303.7187500000003Q295.9062500000003 142.5625 291.0312500000002 137.6875000000001T286.1562500000002 125.0000000000001V71.2812500000001H88.8750000000002Q52.7500000000002 71.2812500000001 26.3750000000002 97.6562500000001T2e-13 161.1250000000001V838.875Q2e-13 876 26.3750000000002 902.34375T88.8750000000002 928.71875H1053.7187500000002Q1090.8437500000002 928.71875 1116.2187500000002 902.34375Q1142.5937500000002 875.96875 1142.5937500000002 838.875V838.875z" />
    <glyph glyph-name="address-card-1"
      unicode="&#x61;&#x64;&#x64;&#x72;&#x65;&#x73;&#x73;&#x2D;&#x63;&#x61;&#x72;&#x64;"
      horiz-adv-x="1156.25" d="M571.28125 369.125Q571.28125 404.28125 566.40625 434.5625000000001Q561.53125 463.875 549.8125 492.1875000000001Q538.09375 519.5312500000001 516.5937500000001 535.1562500000001Q494.1250000000001 551.7500000000001 461.9062500000001 551.7500000000001Q458.9687500000001 548.8125000000002 445.3125000000001 541.0000000000002L424.8125000000001 529.2812500000002Q417.0000000000001 525.3750000000002 404.3125 519.5000000000001Q392.59375 513.6250000000001 380.875 511.6875000000001Q369.15625 508.7500000000002 357.4375 508.7500000000002T334 511.6875000000001Q322.28125 513.6562500000002 309.59375 519.5000000000001L290.0625 529.2812500000002T268.5625 541.0000000000002Q255.875 548.8125000000002 251.96875 551.7500000000001Q220.71875 551.7500000000001 198.25 535.1562500000001Q175.78125 519.5312500000001 164.0625 492.1875000000001Q153.3125 463.8750000000001 147.46875 434.5625000000001Q142.59375 404.28125 142.59375 369.125Q142.59375 333.0000000000001 163.09375 309.5625000000001Q184.59375 286.1250000000001 213.875 286.1250000000001H500Q530.28125 286.1250000000001 550.78125 309.5625000000001T571.28125 369.125V369.125zM483.40625 659.1875Q483.40625 711.9375 446.28125 749.03125T357.40625 786.15625Q304.65625 786.15625 267.5625 749.03125T230.4375 659.1875T267.5625 569.34375T357.40625 532.21875Q409.15625 532.21875 446.28125 569.34375T483.40625 659.1875zM1000 375V411.125Q1000 418.9375 995.125 423.8124999999999T982.4375000000002 428.6874999999999H661.1562500000001Q653.3437500000001 428.6874999999999 647.4687500000001 423.8124999999999Q642.5937500000002 418.9375 642.5937500000002 411.125V375Q642.5937500000002 367.1875 647.4687500000001 362.3125Q653.3437500000001 357.4375000000001 661.1562500000001 357.4375000000001H982.4375000000002Q990.2500000000002 357.4375000000001 995.125 362.3125T1000 375zM1000 520.5V551.75Q1000 559.5625 994.125 565.4375T979.46875 571.3125H663.0625Q654.28125 571.3125 648.40625 565.4375T642.53125 551.75V520.5Q642.53125 511.71875 648.40625 505.8437500000001T663.0625 499.9687500000001H979.46875Q988.25 499.9687500000001 994.125 505.8437500000001T1000 520.5zM1000 661.125V696.28125Q1000 704.09375 995.125 708.96875T982.4375000000002 713.84375H661.1562500000001Q653.3437500000001 713.84375 647.4687500000001 708.96875Q642.5937500000002 704.09375 642.5937500000002 696.28125V661.125Q642.5937500000002 653.3125 647.4687500000001 647.4375Q653.3437500000001 642.5625 661.1562500000001 642.5625H982.4375000000002Q990.2500000000002 642.5625 995.125 647.4375Q1000 653.3125 1000 661.125zM1142.59375 838.875V161.1250000000001Q1142.59375 124.0000000000001 1116.21875 97.6562500000001Q1090.8125 71.2812500000001 1053.71875 71.2812500000001H857.4375000000001V125.0000000000001Q857.4375000000001 132.8125000000001 852.5625000000001 137.6875000000001Q846.6875000000001 142.5625 838.8750000000001 142.5625H803.7187500000001Q795.9062500000001 142.5625 791.0312500000002 137.6875000000001T786.1562500000002 125.0000000000001V71.2812500000001H357.4375000000003V125.0000000000001Q357.4375000000003 132.8125000000001 352.5625000000003 137.6875000000001Q346.6875000000003 142.5625 338.8750000000003 142.5625H303.7187500000003Q295.9062500000003 142.5625 291.0312500000003 137.6875000000001T286.1562500000003 125.0000000000001V71.2812500000001H88.8750000000002Q52.7500000000002 71.2812500000001 26.3750000000002 97.6562500000001T2e-13 161.1250000000001V838.875Q2e-13 876 26.3750000000002 902.34375T88.8750000000002 928.71875H1053.7187500000002Q1090.8437500000002 928.71875 1116.2187500000002 902.34375Q1142.5937500000002 875.96875 1142.5937500000002 838.875V838.875z" />
    <glyph glyph-name="align-center"
      unicode="&#xE929;"
      horiz-adv-x="1000" d="M1000 250V178.71875Q1000 164.0625 989.25 153.3125000000001T963.84375 142.5625H36.09375Q21.4375 142.5625 10.6875 153.3125000000001T-0.0625 178.71875V250Q-0.0625 264.65625 10.6875 275.40625T36.09375 286.15625H963.84375Q978.5 286.15625 989.25 275.40625T1000 250zM786.125 463.875V392.5937500000001Q786.125 377.9375 775.3749999999999 368.1875000000001Q764.6249999999999 357.4375000000001 749.96875 357.4375000000001H249.96875Q235.3125 357.4375000000001 224.5625 368.1875000000001Q213.8125 377.9687500000001 213.8125 392.5937500000001V463.875Q213.8125 478.5312500000001 224.5625 489.28125T249.96875 500.03125H749.96875Q764.625 500.03125 775.3749999999999 489.28125T786.125 463.875V463.875zM928.71875 678.71875V607.4375Q928.71875 592.78125 917.96875 582.03125T892.5625 571.28125H107.40625Q92.75 571.28125 82 582.03125T71.25 607.4375V678.71875Q71.25 693.375 82 704.125Q92.75 713.90625 107.40625 713.90625H892.5625Q907.2187500000002 713.90625 917.96875 704.125Q928.71875 693.375 928.71875 678.71875zM713.875 892.5625V821.28125Q713.875 806.625 704.0937500000001 795.875Q693.34375 786.09375 678.6875000000001 786.09375H321.2500000000001Q306.5937500000001 786.09375 295.8437500000001 795.875Q286.0625000000001 806.625 286.0625000000001 821.28125V892.5625Q286.0625000000001 907.21875 295.8437500000001 917.96875Q306.5937500000001 928.71875 321.2500000000001 928.71875H678.6875000000001Q693.3437500000001 928.71875 704.0937500000001 917.96875Q713.875 907.21875 713.875 892.5625V892.5625z" />
    <glyph glyph-name="align-center-1"
      unicode="&#x61;&#x6C;&#x69;&#x67;&#x6E;&#x2D;&#x63;&#x65;&#x6E;&#x74;&#x65;&#x72;"
      horiz-adv-x="1000" d="M1000 250V178.71875Q1000 164.0625 989.25 153.3125000000001T963.84375 142.5625H36.09375Q21.4375 142.5625 10.6875 153.3125000000001T-0.0625 178.71875V250Q-0.0625 264.65625 10.6875 275.40625T36.09375 286.15625H963.84375Q978.5 286.15625 989.25 275.40625T1000 250zM786.125 463.875V392.5937500000001Q786.125 377.9375 775.3749999999999 368.1875000000001Q764.6249999999999 357.4375000000001 749.96875 357.4375000000001H249.96875Q235.3125 357.4375000000001 224.5625 368.1875000000001Q213.8125 377.9687500000001 213.8125 392.5937500000001V463.875Q213.8125 478.5312500000001 224.5625 489.28125T249.96875 500.03125H749.96875Q764.625 500.03125 775.3749999999999 489.28125T786.125 463.875V463.875zM928.71875 678.71875V607.4375Q928.71875 592.78125 917.96875 582.03125T892.5625 571.28125H107.40625Q92.75 571.28125 82 582.03125T71.25 607.4375V678.71875Q71.25 693.375 82 704.125Q92.75 713.90625 107.40625 713.90625H892.5625Q907.2187500000002 713.90625 917.96875 704.125Q928.71875 693.375 928.71875 678.71875zM713.875 892.5625V821.28125Q713.875 806.625 704.0937500000001 795.875Q693.34375 786.09375 678.6875000000001 786.09375H321.2500000000001Q306.5937500000001 786.09375 295.8437500000001 795.875Q286.0625000000001 806.625 286.0625000000001 821.28125V892.5625Q286.0625000000001 907.21875 295.8437500000001 917.96875Q306.5937500000001 928.71875 321.2500000000001 928.71875H678.6875000000001Q693.3437500000001 928.71875 704.0937500000001 917.96875Q713.875 907.21875 713.875 892.5625V892.5625z" />
    <glyph glyph-name="align-justify"
      unicode="&#xE92A;"
      horiz-adv-x="1000" d="M1000 250V178.71875Q1000 164.0625 989.25 153.3125000000001T963.84375 142.5625H36.09375Q21.4375 142.5625 10.6875 153.3125000000001T-0.0625 178.71875V250Q-0.0625 264.65625 10.6875 275.40625T36.09375 286.15625H963.84375Q978.5 286.15625 989.25 275.40625T1000 250zM1000 463.875V392.5937500000001Q1000 377.9375 989.25 368.1875000000001Q978.4999999999998 357.4375000000001 963.84375 357.4375000000001H36.09375Q21.4375 357.4375000000001 10.6875 368.1875000000001Q-0.0625 377.9687500000001 -0.0625 392.5937500000001V463.875Q-0.0625 478.5312500000001 10.6875 489.28125T36.09375 500.03125H963.84375Q978.5 500.03125 989.25 489.28125T1000 463.875V463.875zM1000 678.71875V607.4375Q1000 592.78125 989.25 582.03125T963.84375 571.28125H36.09375Q21.4375 571.28125 10.6875 582.03125T-0.0625 607.4375V678.71875Q-0.0625 693.375 10.6875 704.125Q21.4375 713.90625 36.09375 713.90625H963.84375Q978.5 713.90625 989.25 704.125Q1000 693.375 1000 678.71875zM1000 892.5625V821.28125Q1000 806.625 989.25 795.875Q978.4999999999998 786.09375 963.84375 786.09375H36.09375Q21.4375 786.09375 10.6875 795.875Q-0.0625 806.625 -0.0625 821.28125V892.5625Q-0.0625 907.21875 10.6875 917.96875T36.09375 928.71875H963.84375Q978.5 928.71875 989.25 917.96875T1000 892.5625z" />
    <glyph glyph-name="align-justify-1"
      unicode="&#x61;&#x6C;&#x69;&#x67;&#x6E;&#x2D;&#x6A;&#x75;&#x73;&#x74;&#x69;&#x66;&#x79;"
      horiz-adv-x="1000" d="M1000 250V178.71875Q1000 164.0625 989.25 153.3125000000001T963.84375 142.5625H36.09375Q21.4375 142.5625 10.6875 153.3125000000001T-0.0625 178.71875V250Q-0.0625 264.65625 10.6875 275.40625T36.09375 286.15625H963.84375Q978.5 286.15625 989.25 275.40625T1000 250zM1000 463.875V392.5937500000001Q1000 377.9375 989.25 368.1875000000001Q978.4999999999998 357.4375000000001 963.84375 357.4375000000001H36.09375Q21.4375 357.4375000000001 10.6875 368.1875000000001Q-0.0625 377.9687500000001 -0.0625 392.5937500000001V463.875Q-0.0625 478.5312500000001 10.6875 489.28125T36.09375 500.03125H963.84375Q978.5 500.03125 989.25 489.28125T1000 463.875V463.875zM1000 678.71875V607.4375Q1000 592.78125 989.25 582.03125T963.84375 571.28125H36.09375Q21.4375 571.28125 10.6875 582.03125T-0.0625 607.4375V678.71875Q-0.0625 693.375 10.6875 704.125Q21.4375 713.90625 36.09375 713.90625H963.84375Q978.5 713.90625 989.25 704.125Q1000 693.375 1000 678.71875zM1000 892.5625V821.28125Q1000 806.625 989.25 795.875Q978.4999999999998 786.09375 963.84375 786.09375H36.09375Q21.4375 786.09375 10.6875 795.875Q-0.0625 806.625 -0.0625 821.28125V892.5625Q-0.0625 907.21875 10.6875 917.96875T36.09375 928.71875H963.84375Q978.5 928.71875 989.25 917.96875T1000 892.5625z" />
    <glyph glyph-name="align-left"
      unicode="&#xE92B;"
      horiz-adv-x="1000" d="M1000 250V178.71875Q1000 164.0625 989.25 153.3125000000001T963.84375 142.5625H36.09375Q21.4375 142.5625 10.6875 153.3125000000001T-0.0625 178.71875V250Q-0.0625 264.65625 10.6875 275.40625T36.09375 286.15625H963.84375Q978.5 286.15625 989.25 275.40625T1000 250zM786.125 463.875V392.5937500000001Q786.125 377.9375 775.3749999999999 368.1875000000001Q764.6249999999999 357.4375000000001 749.96875 357.4375000000001H36.0937499999999Q21.4374999999999 357.4375000000001 10.6874999999999 368.1875000000001Q-0.0625000000001 377.9687500000001 -0.0625000000001 392.5937500000001V463.875Q-0.0625000000001 478.5312500000001 10.6874999999999 489.28125T36.0937499999999 500.03125H749.96875Q764.625 500.03125 775.3749999999999 489.28125T786.125 463.875V463.875zM928.71875 678.71875V607.4375Q928.71875 592.78125 917.96875 582.03125T892.5625 571.28125H36.1250000000001Q21.4687500000001 571.28125 10.7187500000001 582.03125T-0.0312499999999 607.4375V678.71875Q-0.0312499999999 693.375 10.7187500000001 704.125Q21.4687500000001 713.90625 36.1250000000001 713.90625H892.5625Q907.2187500000002 713.90625 917.96875 704.125Q928.71875 693.375 928.71875 678.71875zM713.875 892.5625V821.28125Q713.875 806.625 704.0937500000001 795.875Q693.34375 786.09375 678.6875000000001 786.09375H36.0937500000002Q21.4375000000001 786.09375 10.6875000000001 795.875Q-0.0624999999999 806.625 -0.0624999999999 821.28125V892.5625Q-0.0624999999999 907.21875 10.6875000000001 917.96875T36.0937500000002 928.71875H678.6875000000001Q693.3437500000001 928.71875 704.0937500000001 917.96875Q713.875 907.21875 713.875 892.5625V892.5625z" />
    <glyph glyph-name="align-left-1"
      unicode="&#x61;&#x6C;&#x69;&#x67;&#x6E;&#x2D;&#x6C;&#x65;&#x66;&#x74;"
      horiz-adv-x="1000" d="M1000 250V178.71875Q1000 164.0625 989.25 153.3125000000001T963.84375 142.5625H36.09375Q21.4375 142.5625 10.6875 153.3125000000001T-0.0625 178.71875V250Q-0.0625 264.65625 10.6875 275.40625T36.09375 286.15625H963.84375Q978.5 286.15625 989.25 275.40625T1000 250zM786.125 463.875V392.5937500000001Q786.125 377.9375 775.3749999999999 368.1875000000001Q764.6249999999999 357.4375000000001 749.96875 357.4375000000001H36.0937499999999Q21.4374999999999 357.4375000000001 10.6874999999999 368.1875000000001Q-0.0625000000001 377.9687500000001 -0.0625000000001 392.5937500000001V463.875Q-0.0625000000001 478.5312500000001 10.6874999999999 489.28125T36.0937499999999 500.03125H749.96875Q764.625 500.03125 775.3749999999999 489.28125T786.125 463.875V463.875zM928.71875 678.71875V607.4375Q928.71875 592.78125 917.96875 582.03125T892.5625 571.28125H36.1250000000001Q21.4687500000001 571.28125 10.7187500000001 582.03125T-0.0312499999999 607.4375V678.71875Q-0.0312499999999 693.375 10.7187500000001 704.125Q21.4687500000001 713.90625 36.1250000000001 713.90625H892.5625Q907.2187500000002 713.90625 917.96875 704.125Q928.71875 693.375 928.71875 678.71875zM713.875 892.5625V821.28125Q713.875 806.625 704.0937500000001 795.875Q693.34375 786.09375 678.6875000000001 786.09375H36.0937500000002Q21.4375000000001 786.09375 10.6875000000001 795.875Q-0.0624999999999 806.625 -0.0624999999999 821.28125V892.5625Q-0.0624999999999 907.21875 10.6875000000001 917.96875T36.0937500000002 928.71875H678.6875000000001Q693.3437500000001 928.71875 704.0937500000001 917.96875Q713.875 907.21875 713.875 892.5625V892.5625z" />
    <glyph glyph-name="align-right"
      unicode="&#xE92C;"
      horiz-adv-x="1000" d="M1000 250V178.71875Q1000 164.0625 989.25 153.3125000000001T963.84375 142.5625H36.09375Q21.4375 142.5625 10.6875 153.3125000000001T-0.0625 178.71875V250Q-0.0625 264.65625 10.6875 275.40625T36.09375 286.15625H963.84375Q978.5 286.15625 989.25 275.40625T1000 250zM1000 463.875V392.5937500000001Q1000 377.9375 989.25 368.1875000000001Q978.4999999999998 357.4375000000001 963.84375 357.4375000000001H249.96875Q235.3125 357.4375000000001 224.5625 368.1875000000001Q213.8125 377.9687500000001 213.8125 392.5937500000001V463.875Q213.8125 478.5312500000001 224.5625 489.28125T249.96875 500.03125H963.84375Q978.5 500.03125 989.25 489.28125T1000 463.875V463.875zM1000 678.71875V607.4375Q1000 592.78125 989.25 582.03125T963.84375 571.28125H107.40625Q92.75 571.28125 82 582.03125T71.25 607.4375V678.71875Q71.25 693.375 82 704.125Q92.75 713.90625 107.40625 713.90625H963.84375Q978.5 713.90625 989.25 704.125Q1000 693.375 1000 678.71875zM1000 892.5625V821.28125Q1000 806.625 989.25 795.875Q978.4999999999998 786.09375 963.84375 786.09375H321.2500000000001Q306.5937500000001 786.09375 295.84375 795.875Q286.0625 806.625 286.0625 821.28125V892.5625Q286.0625 907.21875 295.84375 917.96875Q306.59375 928.71875 321.2500000000001 928.71875H963.84375Q978.5 928.71875 989.25 917.96875T1000 892.5625z" />
    <glyph glyph-name="align-right-1"
      unicode="&#x61;&#x6C;&#x69;&#x67;&#x6E;&#x2D;&#x72;&#x69;&#x67;&#x68;&#x74;"
      horiz-adv-x="1000" d="M1000 250V178.71875Q1000 164.0625 989.25 153.3125000000001T963.84375 142.5625H36.09375Q21.4375 142.5625 10.6875 153.3125000000001T-0.0625 178.71875V250Q-0.0625 264.65625 10.6875 275.40625T36.09375 286.15625H963.84375Q978.5 286.15625 989.25 275.40625T1000 250zM1000 463.875V392.5937500000001Q1000 377.9375 989.25 368.1875000000001Q978.4999999999998 357.4375000000001 963.84375 357.4375000000001H249.96875Q235.3125 357.4375000000001 224.5625 368.1875000000001Q213.8125 377.9687500000001 213.8125 392.5937500000001V463.875Q213.8125 478.5312500000001 224.5625 489.28125T249.96875 500.03125H963.84375Q978.5 500.03125 989.25 489.28125T1000 463.875V463.875zM1000 678.71875V607.4375Q1000 592.78125 989.25 582.03125T963.84375 571.28125H107.40625Q92.75 571.28125 82 582.03125T71.25 607.4375V678.71875Q71.25 693.375 82 704.125Q92.75 713.90625 107.40625 713.90625H963.84375Q978.5 713.90625 989.25 704.125Q1000 693.375 1000 678.71875zM1000 892.5625V821.28125Q1000 806.625 989.25 795.875Q978.4999999999998 786.09375 963.84375 786.09375H321.2500000000001Q306.5937500000001 786.09375 295.84375 795.875Q286.0625 806.625 286.0625 821.28125V892.5625Q286.0625 907.21875 295.84375 917.96875Q306.59375 928.71875 321.2500000000001 928.71875H963.84375Q978.5 928.71875 989.25 917.96875T1000 892.5625z" />
    <glyph glyph-name="angle-double-down"
      unicode="&#xE92D;"
      horiz-adv-x="1000" d="M778.3125 517.5625Q778.3125 510.71875 772.4375 504.8749999999999L512.65625 245.0937499999999Q506.7812500000001 239.2187499999999 499.96875 239.2187499999999T487.28125 245.0937499999999L227.5 504.8749999999999Q221.625 510.7499999999999 221.625 517.5625Q221.625 525.375 227.5 530.25L254.84375 558.5625Q260.71875 564.4375 267.53125 564.4375Q275.34375 564.4375 280.21875 558.5625L499.9375000000001 338.84375L719.65625 558.5625Q724.53125 564.4375 732.34375 564.4375Q739.1875 564.4375 745.0312499999999 558.5625L772.3749999999999 530.25Q778.2499999999999 525.375 778.2499999999999 517.5625V517.5625zM778.3125 732.40625Q778.3125 724.59375 772.4375 719.71875L512.65625 458.9687499999999Q506.7812500000001 454.09375 499.96875 454.09375T487.28125 458.9687499999999L227.5 719.7187499999999Q221.625 724.59375 221.625 732.40625Q221.625 739.2499999999999 227.5 745.09375L254.84375 772.4375Q260.71875 778.3125 267.53125 778.3125Q275.34375 778.3125 280.21875 772.4375L499.9375000000001 553.6875L719.65625 772.4375Q724.53125 778.3125 732.34375 778.3125Q739.1875 778.3125 745.0312499999999 772.4375L772.3749999999999 745.09375Q778.2499999999999 739.21875 778.2499999999999 732.40625V732.40625z" />
    <glyph glyph-name="angle-double-down-1"
      unicode="&#x61;&#x6E;&#x67;&#x6C;&#x65;&#x2D;&#x64;&#x6F;&#x75;&#x62;&#x6C;&#x65;&#x2D;&#x64;&#x6F;&#x77;&#x6E;"
      horiz-adv-x="1000" d="M778.3125 517.5625Q778.3125 510.71875 772.4375 504.8749999999999L512.65625 245.0937499999999Q506.7812500000001 239.2187499999999 499.96875 239.2187499999999T487.28125 245.0937499999999L227.5 504.8749999999999Q221.625 510.7499999999999 221.625 517.5625Q221.625 525.375 227.5 530.25L254.84375 558.5625Q260.71875 564.4375 267.53125 564.4375Q275.34375 564.4375 280.21875 558.5625L499.9375000000001 338.84375L719.65625 558.5625Q724.53125 564.4375 732.34375 564.4375Q739.1875 564.4375 745.0312499999999 558.5625L772.3749999999999 530.25Q778.2499999999999 525.375 778.2499999999999 517.5625V517.5625zM778.3125 732.40625Q778.3125 724.59375 772.4375 719.71875L512.65625 458.9687499999999Q506.7812500000001 454.09375 499.96875 454.09375T487.28125 458.9687499999999L227.5 719.7187499999999Q221.625 724.59375 221.625 732.40625Q221.625 739.2499999999999 227.5 745.09375L254.84375 772.4375Q260.71875 778.3125 267.53125 778.3125Q275.34375 778.3125 280.21875 772.4375L499.9375000000001 553.6875L719.65625 772.4375Q724.53125 778.3125 732.34375 778.3125Q739.1875 778.3125 745.0312499999999 772.4375L772.3749999999999 745.09375Q778.2499999999999 739.21875 778.2499999999999 732.40625V732.40625z" />
    <glyph glyph-name="angle-double-left"
      unicode="&#xE92E;"
      horiz-adv-x="1000" d="M564.46875 232.40625Q564.46875 224.59375 558.59375 219.7187500000001L530.28125 191.4062500000001Q525.4062500000001 185.5312500000001 517.5937500000001 185.5312500000001Q510.7500000000001 185.5312500000001 504.9062500000001 191.4062500000001L245.1250000000001 451.1875000000001Q239.2500000000001 457.0625 239.2500000000001 463.875Q239.2500000000001 471.6875 245.1250000000001 477.5625L504.9062500000001 737.34375Q510.7812500000001 743.21875 517.5937500000001 743.21875Q525.4062500000001 743.21875 530.28125 737.34375L558.59375 709.03125Q564.46875 704.15625 564.46875 696.34375Q564.46875 689.5 558.59375 683.65625L338.8750000000001 463.9375L558.59375 245.1875Q564.46875 239.3125 564.46875 232.5V232.5zM778.3125 232.40625Q778.3125 224.59375 772.4375 219.7187500000001L745.09375 191.4062500000001Q739.21875 185.5312500000001 732.40625 185.5312500000001Q724.59375 185.5312500000001 719.7187500000001 191.4062500000001L458.9687500000001 451.1875000000001Q454.0937500000001 457.0625 454.0937500000001 463.875Q454.0937500000001 471.6875 458.9687500000001 477.5625L719.7187500000001 737.34375Q724.59375 743.21875 732.40625 743.21875Q739.2500000000001 743.21875 745.09375 737.34375L772.4375 709.03125Q778.3125 704.15625 778.3125 696.34375Q778.3125 689.5 772.4375 683.65625L553.6875 463.9375L772.4375 245.1875Q778.3125 239.3125 778.3125 232.5V232.5z" />
    <glyph glyph-name="angle-double-left-1"
      unicode="&#x61;&#x6E;&#x67;&#x6C;&#x65;&#x2D;&#x64;&#x6F;&#x75;&#x62;&#x6C;&#x65;&#x2D;&#x6C;&#x65;&#x66;&#x74;"
      horiz-adv-x="1000" d="M564.46875 232.40625Q564.46875 224.59375 558.59375 219.7187500000001L530.28125 191.4062500000001Q525.4062500000001 185.5312500000001 517.5937500000001 185.5312500000001Q510.7500000000001 185.5312500000001 504.9062500000001 191.4062500000001L245.1250000000001 451.1875000000001Q239.2500000000001 457.0625 239.2500000000001 463.875Q239.2500000000001 471.6875 245.1250000000001 477.5625L504.9062500000001 737.34375Q510.7812500000001 743.21875 517.5937500000001 743.21875Q525.4062500000001 743.21875 530.28125 737.34375L558.59375 709.03125Q564.46875 704.15625 564.46875 696.34375Q564.46875 689.5 558.59375 683.65625L338.8750000000001 463.9375L558.59375 245.1875Q564.46875 239.3125 564.46875 232.5V232.5zM778.3125 232.40625Q778.3125 224.59375 772.4375 219.7187500000001L745.09375 191.4062500000001Q739.21875 185.5312500000001 732.40625 185.5312500000001Q724.59375 185.5312500000001 719.7187500000001 191.4062500000001L458.9687500000001 451.1875000000001Q454.0937500000001 457.0625 454.0937500000001 463.875Q454.0937500000001 471.6875 458.9687500000001 477.5625L719.7187500000001 737.34375Q724.59375 743.21875 732.40625 743.21875Q739.2500000000001 743.21875 745.09375 737.34375L772.4375 709.03125Q778.3125 704.15625 778.3125 696.34375Q778.3125 689.5 772.4375 683.65625L553.6875 463.9375L772.4375 245.1875Q778.3125 239.3125 778.3125 232.5V232.5z" />
    <glyph glyph-name="angle-double-right"
      unicode="&#xE92F;"
      horiz-adv-x="1000" d="M545.90625 463.875Q545.90625 457.03125 541.0312500000001 451.1875000000001L280.2812500000001 191.40625Q275.4062500000001 185.53125 267.5937500000001 185.53125Q260.7500000000001 185.53125 254.9062500000001 191.40625L227.5625000000001 219.71875Q221.6875000000001 224.5937499999999 221.6875000000001 232.4062499999999Q221.6875000000001 239.25 227.5625000000001 245.0937499999999L446.3125000000001 463.8437499999999L227.5625000000001 683.5624999999998Q221.6875000000001 689.4374999999999 221.6875000000001 696.2499999999999Q221.6875000000001 704.0624999999999 227.5625000000001 708.9374999999999L254.9062500000001 737.2499999999999Q260.7812500000001 743.125 267.5937500000001 743.125Q275.4062500000001 743.125 280.2812500000001 737.2499999999999L541.0312500000001 477.4687499999999Q545.90625 471.5937499999999 545.90625 463.7812499999999V463.7812499999999zM760.75 463.875Q760.75 457.03125 754.8750000000001 451.1875000000001L495.0937500000001 191.40625Q489.2187500000001 185.53125 482.4062500000001 185.53125Q474.5937500000001 185.53125 469.71875 191.40625L441.40625 219.71875Q435.53125 224.5937499999999 435.53125 232.4062499999999Q435.53125 239.25 441.40625 245.0937499999999L661.125 463.8437499999999L441.40625 683.5624999999998Q435.53125 689.4374999999999 435.53125 696.2499999999999Q435.53125 704.0624999999999 441.40625 708.9374999999999L469.71875 737.2499999999999Q474.5937500000001 743.125 482.4062500000001 743.125Q489.25 743.125 495.0937500000001 737.2499999999999L754.8750000000001 477.4687499999999Q760.75 471.5937499999999 760.75 463.7812499999999V463.7812499999999z" />
    <glyph glyph-name="angle-double-right-1"
      unicode="&#x61;&#x6E;&#x67;&#x6C;&#x65;&#x2D;&#x64;&#x6F;&#x75;&#x62;&#x6C;&#x65;&#x2D;&#x72;&#x69;&#x67;&#x68;&#x74;"
      horiz-adv-x="1000" d="M545.90625 463.875Q545.90625 457.03125 541.0312500000001 451.1875000000001L280.2812500000001 191.40625Q275.4062500000001 185.53125 267.5937500000001 185.53125Q260.7500000000001 185.53125 254.9062500000001 191.40625L227.5625000000001 219.71875Q221.6875000000001 224.5937499999999 221.6875000000001 232.4062499999999Q221.6875000000001 239.25 227.5625000000001 245.0937499999999L446.3125000000001 463.8437499999999L227.5625000000001 683.5624999999998Q221.6875000000001 689.4374999999999 221.6875000000001 696.2499999999999Q221.6875000000001 704.0624999999999 227.5625000000001 708.9374999999999L254.9062500000001 737.2499999999999Q260.7812500000001 743.125 267.5937500000001 743.125Q275.4062500000001 743.125 280.2812500000001 737.2499999999999L541.0312500000001 477.4687499999999Q545.90625 471.5937499999999 545.90625 463.7812499999999V463.7812499999999zM760.75 463.875Q760.75 457.03125 754.8750000000001 451.1875000000001L495.0937500000001 191.40625Q489.2187500000001 185.53125 482.4062500000001 185.53125Q474.5937500000001 185.53125 469.71875 191.40625L441.40625 219.71875Q435.53125 224.5937499999999 435.53125 232.4062499999999Q435.53125 239.25 441.40625 245.0937499999999L661.125 463.8437499999999L441.40625 683.5624999999998Q435.53125 689.4374999999999 435.53125 696.2499999999999Q435.53125 704.0624999999999 441.40625 708.9374999999999L469.71875 737.2499999999999Q474.5937500000001 743.125 482.4062500000001 743.125Q489.25 743.125 495.0937500000001 737.2499999999999L754.8750000000001 477.4687499999999Q760.75 471.5937499999999 760.75 463.7812499999999V463.7812499999999z" />
    <glyph glyph-name="angle-double-up"
      unicode="&#xE930;"
      horiz-adv-x="1000" d="M778.3125 267.5625Q778.3125 260.71875 772.4375 254.8750000000001L745.09375 227.5312500000001Q739.21875 221.6562500000001 732.40625 221.6562500000001Q724.59375 221.6562500000001 719.7187500000001 227.5312500000001L500.0000000000001 446.2812500000001L280.2812500000002 227.5312500000001Q275.4062500000001 221.6562500000001 267.5937500000001 221.6562500000001Q260.7500000000002 221.6562500000001 254.9062500000001 227.5312500000001L227.5625000000001 254.8750000000001Q221.6875000000001 260.75 221.6875000000001 267.5625Q221.6875000000001 275.375 227.5625000000001 280.25L487.3437500000001 541Q493.2187500000002 545.875 500.0312500000002 545.875T512.7187500000001 541L772.5000000000002 280.25Q778.3750000000001 275.375 778.3750000000001 267.5625V267.5625zM778.3125 482.40625Q778.3125 474.59375 772.4375 469.7187500000001L745.09375 441.4062500000001Q739.21875 435.5312500000001 732.40625 435.5312500000001Q724.59375 435.5312500000001 719.7187500000001 441.4062500000001L500.0000000000001 661.125L280.2812500000002 441.4062500000001Q275.4062500000001 435.5312500000001 267.5937500000001 435.5312500000001Q260.7500000000002 435.5312500000001 254.9062500000001 441.4062500000001L227.5625000000001 469.7187500000001Q221.6875000000001 474.59375 221.6875000000001 482.40625Q221.6875000000001 489.2500000000001 227.5625000000001 495.09375L487.3437500000001 754.875Q493.2187500000002 760.75 500.0312500000002 760.75T512.7187500000001 754.875L772.5000000000002 495.09375Q778.3750000000001 489.2187500000001 778.3750000000001 482.40625V482.40625z" />
    <glyph glyph-name="angle-double-up-1"
      unicode="&#x61;&#x6E;&#x67;&#x6C;&#x65;&#x2D;&#x64;&#x6F;&#x75;&#x62;&#x6C;&#x65;&#x2D;&#x75;&#x70;"
      horiz-adv-x="1000" d="M778.3125 267.5625Q778.3125 260.71875 772.4375 254.8750000000001L745.09375 227.5312500000001Q739.21875 221.6562500000001 732.40625 221.6562500000001Q724.59375 221.6562500000001 719.7187500000001 227.5312500000001L500.0000000000001 446.2812500000001L280.2812500000003 227.5312500000001Q275.4062500000001 221.6562500000001 267.5937500000001 221.6562500000001Q260.7500000000003 221.6562500000001 254.9062500000001 227.5312500000001L227.5625000000001 254.8750000000001Q221.6875000000001 260.75 221.6875000000001 267.5625Q221.6875000000001 275.375 227.5625000000001 280.25L487.3437500000001 541Q493.2187500000002 545.875 500.0312500000002 545.875T512.7187500000001 541L772.5000000000002 280.25Q778.3750000000001 275.375 778.3750000000001 267.5625V267.5625zM778.3125 482.40625Q778.3125 474.59375 772.4375 469.7187500000001L745.09375 441.4062500000001Q739.21875 435.5312500000001 732.40625 435.5312500000001Q724.59375 435.5312500000001 719.7187500000001 441.4062500000001L500.0000000000001 661.125L280.2812500000003 441.4062500000001Q275.4062500000001 435.5312500000001 267.5937500000001 435.5312500000001Q260.7500000000003 435.5312500000001 254.9062500000001 441.4062500000001L227.5625000000001 469.7187500000001Q221.6875000000001 474.59375 221.6875000000001 482.40625Q221.6875000000001 489.2500000000001 227.5625000000001 495.09375L487.3437500000001 754.875Q493.2187500000002 760.75 500.0312500000002 760.75T512.7187500000001 754.875L772.5000000000002 495.09375Q778.3750000000001 489.2187500000001 778.3750000000001 482.40625V482.40625z" />
    <glyph glyph-name="angle-down"
      unicode="&#xE931;"
      horiz-adv-x="1000" d="M778.3125 588.875Q778.3125 582.03125 772.4375 576.1875L512.65625 316.40625Q506.7812500000001 310.53125 499.96875 310.53125T487.28125 316.40625L227.5 576.1875Q221.625 582.0625 221.625 588.875Q221.625 596.6875 227.5 602.5625L254.84375 629.90625Q260.71875 635.78125 267.53125 635.78125Q275.34375 635.78125 280.21875 629.90625L499.9375000000001 411.1562500000001L719.65625 629.9062500000001Q724.53125 635.7812500000001 732.34375 635.7812500000001Q739.1875 635.7812500000001 745.0312499999999 629.9062500000001L772.3749999999999 602.5625000000001Q778.2499999999999 596.6875000000001 778.2499999999999 588.8750000000001V588.8750000000001z" />
    <glyph glyph-name="angle-down-1"
      unicode="&#x61;&#x6E;&#x67;&#x6C;&#x65;&#x2D;&#x64;&#x6F;&#x77;&#x6E;"
      horiz-adv-x="1000" d="M778.3125 588.875Q778.3125 582.03125 772.4375 576.1875L512.65625 316.40625Q506.7812500000001 310.53125 499.96875 310.53125T487.28125 316.40625L227.5 576.1875Q221.625 582.0625 221.625 588.875Q221.625 596.6875 227.5 602.5625L254.84375 629.90625Q260.71875 635.78125 267.53125 635.78125Q275.34375 635.78125 280.21875 629.90625L499.9375000000001 411.1562500000001L719.65625 629.9062500000001Q724.53125 635.7812500000001 732.34375 635.7812500000001Q739.1875 635.7812500000001 745.0312499999999 629.9062500000001L772.3749999999999 602.5625000000001Q778.2499999999999 596.6875000000001 778.2499999999999 588.8750000000001V588.8750000000001z" />
    <glyph glyph-name="angle-left"
      unicode="&#xE932;"
      horiz-adv-x="1000" d="M670.90625 696.28125Q670.90625 689.4375 666.0312500000001 683.59375L446.3125000000001 463.875L666.0312500000001 245.125Q670.90625 239.2500000000001 670.90625 232.4375000000001Q670.90625 224.6250000000001 666.0312500000001 219.7500000000001L637.7187500000001 191.4375000000001Q631.8437500000001 185.5625000000002 625.0312500000001 185.5625000000002T612.3437500000002 191.4375000000001L352.5625000000002 451.2187500000002Q346.6875000000002 457.0937500000002 346.6875000000002 463.9062500000002Q346.6875000000002 471.7187500000002 352.5625000000002 477.5937500000001L612.3437500000002 737.3750000000002Q618.2187500000001 743.2500000000002 625.0312500000001 743.2500000000002T637.7187500000001 737.3750000000002L666.0312500000001 709.0625000000002Q670.90625 704.1875000000001 670.90625 696.3750000000001V696.3750000000001z" />
    <glyph glyph-name="angle-left-1"
      unicode="&#x61;&#x6E;&#x67;&#x6C;&#x65;&#x2D;&#x6C;&#x65;&#x66;&#x74;"
      horiz-adv-x="1000" d="M670.90625 696.28125Q670.90625 689.4375 666.0312500000001 683.59375L446.3125000000001 463.875L666.0312500000001 245.125Q670.90625 239.2500000000001 670.90625 232.4375000000001Q670.90625 224.6250000000001 666.0312500000001 219.7500000000001L637.7187500000001 191.4375000000001Q631.8437500000001 185.5625000000002 625.0312500000001 185.5625000000002T612.3437500000002 191.4375000000001L352.5625000000003 451.2187500000002Q346.6875000000003 457.0937500000002 346.6875000000003 463.9062500000002Q346.6875000000003 471.7187500000002 352.5625000000003 477.5937500000001L612.3437500000002 737.3750000000002Q618.2187500000001 743.2500000000002 625.0312500000001 743.2500000000002T637.7187500000001 737.3750000000002L666.0312500000001 709.0625000000002Q670.90625 704.1875000000001 670.90625 696.3750000000001V696.3750000000001z" />
    <glyph glyph-name="angle-right"
      unicode="&#xE933;"
      horiz-adv-x="1000" d="M653.3125 463.875Q653.3125 457.03125 647.4375 451.1875000000001L387.65625 191.40625Q381.78125 185.53125 374.96875 185.53125T362.28125 191.40625L333.96875 219.71875Q329.0937499999999 224.5937499999999 329.0937499999999 232.4062499999999Q329.0937499999999 239.25 333.96875 245.0937499999999L553.6874999999999 463.8437499999999L333.96875 683.5624999999998Q329.0937499999999 689.4374999999999 329.0937499999999 696.2499999999999Q329.0937499999999 704.0624999999999 333.96875 708.9374999999999L362.28125 737.2499999999999Q368.15625 743.125 374.96875 743.125T387.65625 737.2499999999999L647.4375 477.4687499999999Q653.3125 471.5937499999999 653.3125 463.7812499999999V463.7812499999999z" />
    <glyph glyph-name="angle-right-1"
      unicode="&#x61;&#x6E;&#x67;&#x6C;&#x65;&#x2D;&#x72;&#x69;&#x67;&#x68;&#x74;"
      horiz-adv-x="1000" d="M653.3125 463.875Q653.3125 457.03125 647.4375 451.1875000000001L387.65625 191.40625Q381.78125 185.53125 374.96875 185.53125T362.28125 191.40625L333.96875 219.71875Q329.0937499999999 224.5937499999999 329.0937499999999 232.4062499999999Q329.0937499999999 239.25 333.96875 245.0937499999999L553.6874999999999 463.8437499999999L333.96875 683.5624999999998Q329.0937499999999 689.4374999999999 329.0937499999999 696.2499999999999Q329.0937499999999 704.0624999999999 333.96875 708.9374999999999L362.28125 737.2499999999999Q368.15625 743.125 374.96875 743.125T387.65625 737.2499999999999L647.4375 477.4687499999999Q653.3125 471.5937499999999 653.3125 463.7812499999999V463.7812499999999z" />
    <glyph glyph-name="angle-up"
      unicode="&#xE934;"
      horiz-adv-x="1000" d="M778.3125 338.875Q778.3125 332.03125 772.4375 326.1875000000001L745.09375 298.8437500000001Q739.21875 292.9687500000001 732.40625 292.9687500000001Q724.59375 292.9687500000001 719.7187500000001 298.8437500000001L500.0000000000001 517.59375L280.2812500000002 298.8437500000001Q275.4062500000001 292.9687500000001 267.5937500000001 292.9687500000001Q260.7500000000002 292.9687500000001 254.9062500000001 298.8437500000001L227.5625000000001 326.1875000000001Q221.6875000000001 332.0625 221.6875000000001 338.875Q221.6875000000001 346.6875 227.5625000000001 352.5625L487.3437500000001 612.34375Q493.2187500000002 618.21875 500.0312500000002 618.21875T512.7187500000001 612.34375L772.5000000000002 352.5625Q778.3750000000001 346.6875 778.3750000000001 338.875V338.875z" />
    <glyph glyph-name="angle-up-1"
      unicode="&#x61;&#x6E;&#x67;&#x6C;&#x65;&#x2D;&#x75;&#x70;"
      horiz-adv-x="1000" d="M778.3125 338.875Q778.3125 332.03125 772.4375 326.1875000000001L745.09375 298.8437500000001Q739.21875 292.9687500000001 732.40625 292.9687500000001Q724.59375 292.9687500000001 719.7187500000001 298.8437500000001L500.0000000000001 517.59375L280.2812500000003 298.8437500000001Q275.4062500000001 292.9687500000001 267.5937500000001 292.9687500000001Q260.7500000000003 292.9687500000001 254.9062500000001 298.8437500000001L227.5625000000001 326.1875000000001Q221.6875000000001 332.0625 221.6875000000001 338.875Q221.6875000000001 346.6875 227.5625000000001 352.5625L487.3437500000001 612.34375Q493.2187500000002 618.21875 500.0312500000002 618.21875T512.7187500000001 612.34375L772.5000000000002 352.5625Q778.3750000000001 346.6875 778.3750000000001 338.875V338.875z" />
    <glyph glyph-name="apple"
      unicode="&#xE916;"
      horiz-adv-x="1000" d="M619.15625 234.375Q626 228.5 633.3125 226.0625T648.4375 223.6250000000001Q657.21875 223.6250000000001 665.03125 226.5625000000001T679.6875 236.3437500000001Q705.09375 263.6875000000001 721.6875 298.8437500000001Q737.3125 334.96875 743.65625 373.0625000000001T746.09375 449.25T726.5625 518.59375Q720.6875 529.34375 710.9375 535.6875T688.46875 542.03125Q670.875 542.03125 658.6875 529.34375T646.4687499999999 499.0624999999999Q646.4687499999999 494.1875 647.4374999999999 489.7812499999999T650.3749999999999 480.4999999999999V480.4999999999999Q667.9687499999999 446.3124999999999 660.6249999999999 389.1874999999999T618.15625 294.9374999999999Q612.28125 289.0624999999999 609.375 281.2499999999999T606.4375 265.6249999999999Q606.4375 256.8437499999999 609.84375 248.5312499999999T619.125 234.3749999999999V234.3749999999999V234.3749999999999zM648.4375 708H634.75Q660.15625 764.65625 654.7812500000001 829.09375T610.3437500000001 944.34375Q604.4687500000001 952.15625 595.6875 956.5625T576.15625 960.96875H572.25Q571.2812500000001 960.96875 570.2812500000001 961.46875T568.3125000000001 961.96875Q524.3750000000001 961.96875 487.2500000000001 944.375T423.7812500000001 893.59375Q392.5312500000001 853.5625 383.2500000000001 798.375T387.6562500000001 682.65625Q391.5625000000001 668.96875 402.7812500000001 659.71875T429.6250000000001 650.4375H434.0312500000001T439.4062500000001 651.40625V651.40625Q453.0937500000001 655.3125 462.3437500000001 666.53125T471.6250000000001 692.40625Q471.6250000000001 695.34375 471.1250000000001 697.78125T470.6250000000001 702.1875V702.1875Q460.8437500000001 744.1875 465.7500000000001 780.3125T490.1562500000001 840.875Q501.8750000000001 855.53125 518.0000000000001 864.3125T553.6562500000002 875.0625Q579.0625000000001 829.15625 567.8125000000001 773.5T513.6250000000002 684.625Q505.8125000000002 678.75 501.4062500000003 669.96875T497.0000000000003 651.40625V644.5625000000001Q497.0000000000003 626.96875 509.2187500000003 614.7812500000001T539.0000000000002 602.5625000000001Q547.7812500000002 602.5625000000001 555.5937500000002 605.9687500000001T569.2812500000002 615.2500000000001V615.2500000000001L591.2500000000001 619.6562500000001T648.3750000000001 623.0625000000001Q650.3437500000001 623.0625000000001 677.6875000000001 620.1250000000002Q704.0625000000001 617.1875000000002 735.3125000000001 599.1250000000001T791.9687500000001 542.0000000000002Q817.3750000000001 503.9062500000002 817.3750000000001 432.6250000000001Q817.3750000000001 340.8125000000003 789.0625000000001 279.3125000000003Q761.7187500000001 216.8125000000002 723.6250000000001 179.2187500000002T646.46875 125.0312500000001T584.9375 108.4375000000002Q576.15625 108.4375000000002 572.25 109.9062500000002T561.5 114.3125000000001Q551.71875 119.1875000000001 537.5625 124.0937500000001T500.9374999999999 128.9687500000001Q477.4999999999999 128.9687500000001 463.8124999999999 123.5937500000001T441.34375 114.3125Q435.4687499999999 111.375 431.5624999999999 109.9062500000001T420.8125 108.4375000000001Q400.3124999999999 108.4375000000001 363.1875 125.03125Q327.0625 141.625 291.40625 180.2187500000001T230.3749999999999 281.2812500000001Q203.9999999999999 344.7500000000001 203.9999999999999 437.5312500000001Q203.9999999999999 498.0937500000001 239.6562499999999 528.8437500000002T301.6562499999999 559.5937500000002Q323.15625 559.5937500000002 338.28125 551.7812500000002T369.03125 533.2187500000002Q385.625 521.5000000000002 407.59375 509.7812500000002T460.8124999999999 498.0625000000002Q478.4062499999999 498.0625000000002 490.5937499999999 510.2812500000002T502.8124999999999 540.0625000000002T490.5937499999999 570.3437500000002T460.8124999999999 583.0312500000002V583.0312500000002Q450.0625 583.0312500000002 440.7812499999999 587.9062500000002T416.8437499999999 602.5625000000002Q398.28125 616.2500000000002 370.9375 630.4062500000002T301.59375 644.5625000000002Q268.375 644.5625000000002 236.15625 628.9375000000002Q203.9375 614.2812500000002 178.0625 586.9375000000002T135.59375 521.5000000000002T119 437.5000000000003Q119 328.1250000000003 151.21875 249.0312500000003Q184.4375 170.9062500000002 230.8125 121.0937500000002T328.96875 47.8437500000002Q381.71875 24.4062500000002 420.78125 24.4062500000002Q443.25 24.4062500000002 457.40625 29.2812500000001T480.34375 39.0625000000001Q486.2187500000001 42.0000000000001 489.6250000000001 43.46875T500.8437500000001 44.9375000000001T513.0625 43.46875T524.28125 39.0625000000001Q534.0625 34.1875000000001 547.71875 29.2812500000001T584.84375 24.4062500000002Q625.875 24.4062500000002 680.5625 46.8750000000002Q735.25 70.3125000000002 784.5624999999999 120.1250000000002T868.0625 247.0937500000003Q901.2812499999998 324.2500000000003 901.2812499999998 432.6562500000003Q901.2812499999998 508.8437500000002 875.875 560.5937500000002Q850.46875 613.3437500000002 812.875 646.0312500000002T730.3437500000001 693.4062500000002Q686.4062500000001 708.0625000000002 648.3125000000001 708.0625000000002V708.0625000000002z" />
    <glyph glyph-name="apple-1"
      unicode="&#x61;&#x70;&#x70;&#x6C;&#x65;"
      horiz-adv-x="1000" d="M619.15625 234.375Q626 228.5 633.3125 226.0625T648.4375 223.6250000000001Q657.21875 223.6250000000001 665.03125 226.5625000000001T679.6875 236.3437500000001Q705.09375 263.6875000000001 721.6875 298.8437500000001Q737.3125 334.96875 743.65625 373.0625000000001T746.09375 449.25T726.5625 518.59375Q720.6875 529.34375 710.9375 535.6875T688.46875 542.03125Q670.875 542.03125 658.6875 529.34375T646.4687499999999 499.0624999999999Q646.4687499999999 494.1875 647.4374999999999 489.7812499999999T650.3749999999999 480.4999999999999V480.4999999999999Q667.9687499999999 446.3124999999999 660.6249999999999 389.1874999999999T618.15625 294.9374999999999Q612.28125 289.0624999999999 609.375 281.2499999999999T606.4375 265.6249999999999Q606.4375 256.8437499999999 609.84375 248.5312499999999T619.125 234.3749999999999V234.3749999999999V234.3749999999999zM648.4375 708H634.75Q660.15625 764.65625 654.7812500000001 829.09375T610.3437500000001 944.34375Q604.4687500000001 952.15625 595.6875 956.5625T576.15625 960.96875H572.25Q571.2812500000001 960.96875 570.2812500000001 961.46875T568.3125000000001 961.96875Q524.3750000000001 961.96875 487.2500000000001 944.375T423.7812500000001 893.59375Q392.5312500000001 853.5625 383.2500000000001 798.375T387.6562500000001 682.65625Q391.5625000000001 668.96875 402.7812500000001 659.71875T429.6250000000001 650.4375H434.0312500000001T439.4062500000001 651.40625V651.40625Q453.0937500000001 655.3125 462.3437500000001 666.53125T471.6250000000001 692.40625Q471.6250000000001 695.34375 471.1250000000001 697.78125T470.6250000000001 702.1875V702.1875Q460.8437500000001 744.1875 465.7500000000001 780.3125T490.1562500000001 840.875Q501.8750000000001 855.53125 518.0000000000001 864.3125T553.6562500000002 875.0625Q579.0625000000001 829.15625 567.8125000000001 773.5T513.6250000000002 684.625Q505.8125000000002 678.75 501.4062500000003 669.96875T497.0000000000003 651.40625V644.5625000000001Q497.0000000000003 626.96875 509.2187500000003 614.7812500000001T539.0000000000002 602.5625000000001Q547.7812500000002 602.5625000000001 555.5937500000002 605.9687500000001T569.2812500000002 615.2500000000001V615.2500000000001L591.2500000000001 619.6562500000001T648.3750000000001 623.0625000000001Q650.3437500000001 623.0625000000001 677.6875000000001 620.1250000000002Q704.0625000000001 617.1875000000002 735.3125000000001 599.1250000000001T791.9687500000001 542.0000000000002Q817.3750000000001 503.9062500000002 817.3750000000001 432.6250000000001Q817.3750000000001 340.8125000000003 789.0625000000001 279.3125000000003Q761.7187500000001 216.8125000000002 723.6250000000001 179.2187500000002T646.46875 125.0312500000001T584.9375 108.4375000000002Q576.15625 108.4375000000002 572.25 109.9062500000002T561.5 114.3125000000001Q551.71875 119.1875000000001 537.5625 124.0937500000001T500.9374999999999 128.9687500000001Q477.4999999999999 128.9687500000001 463.8124999999999 123.5937500000001T441.34375 114.3125Q435.4687499999999 111.375 431.5624999999999 109.9062500000001T420.8125 108.4375000000001Q400.3124999999999 108.4375000000001 363.1875 125.03125Q327.0625 141.625 291.40625 180.2187500000001T230.3749999999999 281.2812500000001Q203.9999999999999 344.7500000000001 203.9999999999999 437.5312500000001Q203.9999999999999 498.0937500000001 239.6562499999999 528.8437500000002T301.6562499999999 559.5937500000002Q323.15625 559.5937500000002 338.28125 551.7812500000002T369.03125 533.2187500000002Q385.625 521.5000000000002 407.59375 509.7812500000002T460.8124999999999 498.0625000000002Q478.4062499999999 498.0625000000002 490.5937499999999 510.2812500000002T502.8124999999999 540.0625000000002T490.5937499999999 570.3437500000002T460.8124999999999 583.0312500000002V583.0312500000002Q450.0625 583.0312500000002 440.7812499999999 587.9062500000002T416.8437499999999 602.5625000000002Q398.28125 616.2500000000002 370.9375 630.4062500000002T301.59375 644.5625000000002Q268.375 644.5625000000002 236.15625 628.9375000000002Q203.9375 614.2812500000002 178.0625 586.9375000000002T135.59375 521.5000000000002T119 437.5000000000003Q119 328.1250000000003 151.21875 249.0312500000003Q184.4375 170.9062500000002 230.8125 121.0937500000002T328.96875 47.8437500000002Q381.71875 24.4062500000002 420.78125 24.4062500000002Q443.25 24.4062500000002 457.40625 29.2812500000001T480.34375 39.0625000000001Q486.2187500000001 42.0000000000001 489.6250000000001 43.46875T500.8437500000001 44.9375000000001T513.0625 43.46875T524.28125 39.0625000000001Q534.0625 34.1875000000001 547.71875 29.2812500000001T584.84375 24.4062500000002Q625.875 24.4062500000002 680.5625 46.8750000000002Q735.25 70.3125000000002 784.5624999999999 120.1250000000002T868.0625 247.0937500000003Q901.2812499999998 324.2500000000003 901.2812499999998 432.6562500000003Q901.2812499999998 508.8437500000002 875.875 560.5937500000002Q850.46875 613.3437500000002 812.875 646.0312500000002T730.3437500000001 693.4062500000002Q686.4062500000001 708.0625000000002 648.3125000000001 708.0625000000002V708.0625000000002z" />
    <glyph glyph-name="area-chart"
      unicode="&#xE936;"
      horiz-adv-x="1156.25" d="M1142.59375 142.5625V71.2812500000001H0V928.71875H71.28125V142.5937500000001H1142.5625zM928.71875 713.875L1071.3125 213.875H142.5937500000001V536.15625L392.5937500000001 857.4375000000001L713.875 536.15625z" />
    <glyph glyph-name="area-chart-1"
      unicode="&#x61;&#x72;&#x65;&#x61;&#x2D;&#x63;&#x68;&#x61;&#x72;&#x74;"
      horiz-adv-x="1156.25" d="M1142.59375 142.5625V71.2812500000001H0V928.71875H71.28125V142.5937500000001H1142.5625zM928.71875 713.875L1071.3125 213.875H142.5937500000001V536.15625L392.5937500000001 857.4375000000001L713.875 536.15625z" />
    <glyph glyph-name="arhive"
      unicode="&#xE935;"
      horiz-adv-x="1000" d="M607.4375 536.125Q607.4375 549.8125 596.6874999999999 560.53125T571.28125 571.28125H428.6875Q414.03125 571.28125 403.28125 560.53125T392.53125 536.125Q392.53125 521.46875 403.28125 510.71875T428.6875 499.9687499999999H571.28125Q585.9375 499.9687499999999 596.6874999999999 510.7187499999999T607.4375 536.125V536.125zM928.71875 642.5625V107.4062499999999Q928.71875 92.7499999999999 917.96875 82T892.5625 71.2499999999999H107.40625Q92.75 71.2499999999999 82 82T71.25 107.4062499999999V642.5625Q71.25 657.2187499999999 82 667.96875T107.40625 678.71875H892.5625Q907.2187500000002 678.71875 917.96875 667.96875T928.71875 642.5625zM963.875 892.5625V749.96875Q963.875 735.3125 954.0937500000002 724.5625Q943.34375 713.8125 928.6875000000002 713.8125H71.2500000000001Q56.5937500000002 713.8125 45.8437500000002 724.5625Q36.0625000000002 735.3125 36.0625000000002 749.96875V892.5625Q36.0625000000002 907.21875 45.8437500000002 917.96875Q56.5937500000002 928.71875 71.2500000000001 928.71875H928.6875000000002Q943.3437500000002 928.71875 954.0937500000002 917.96875Q963.875 907.21875 963.875 892.5625V892.5625z" />
    <glyph glyph-name="arhive-1"
      unicode="&#x61;&#x72;&#x68;&#x69;&#x76;&#x65;"
      horiz-adv-x="1000" d="M607.4375 536.125Q607.4375 549.8125 596.6874999999999 560.53125T571.28125 571.28125H428.6875Q414.03125 571.28125 403.28125 560.53125T392.53125 536.125Q392.53125 521.46875 403.28125 510.71875T428.6875 499.9687499999999H571.28125Q585.9375 499.9687499999999 596.6874999999999 510.7187499999999T607.4375 536.125V536.125zM928.71875 642.5625V107.4062499999999Q928.71875 92.7499999999999 917.96875 82T892.5625 71.2499999999999H107.40625Q92.75 71.2499999999999 82 82T71.25 107.4062499999999V642.5625Q71.25 657.2187499999999 82 667.96875T107.40625 678.71875H892.5625Q907.2187500000002 678.71875 917.96875 667.96875T928.71875 642.5625zM963.875 892.5625V749.96875Q963.875 735.3125 954.0937500000002 724.5625Q943.34375 713.8125 928.6875000000002 713.8125H71.2500000000001Q56.5937500000002 713.8125 45.8437500000002 724.5625Q36.0625000000002 735.3125 36.0625000000002 749.96875V892.5625Q36.0625000000002 907.21875 45.8437500000002 917.96875Q56.5937500000002 928.71875 71.2500000000001 928.71875H928.6875000000002Q943.3437500000002 928.71875 954.0937500000002 917.96875Q963.875 907.21875 963.875 892.5625V892.5625z" />
    <glyph glyph-name="arrow-circle-down"
      unicode="&#xE937;"
      horiz-adv-x="1000" d="M788.09375 499.0312500000001Q788.09375 514.65625 778.3125000000001 524.4375L727.5312500000001 575.21875Q716.78125 585 702.1250000000001 585Q686.5000000000001 585 676.7187500000001 575.21875L571.2500000000001 469.7500000000001V750.0312500000001Q571.2500000000001 764.6875000000001 560.5000000000001 775.4375000000001T536.0937500000001 786.1875000000001H463.8125000000001Q450.1250000000001 786.1875000000001 439.4062500000001 775.4375000000001T428.6562500000001 750.0312500000001V469.7500000000001L323.1875000000001 575.2187500000001Q312.4375000000002 585.9687500000001 297.7812500000001 585.9687500000001T272.3750000000001 575.2187500000001L221.5937500000001 524.4375000000001Q211.8125000000001 514.6562500000001 211.8125000000001 499.0312500000002Q211.8125000000001 484.3750000000001 221.5937500000001 474.6250000000002L474.5312500000001 221.6875000000002Q485.2812500000001 211.9062500000004 499.9375000000001 211.9062500000004T525.3437500000001 221.6875000000002L778.28125 474.6250000000003Q788.0625 484.4062500000002 788.0625 499.0312500000003V499.0312500000003zM928.71875 500Q928.71875 383.78125 871.09375 285.15625T714.84375 128.90625T500 71.28125T285.15625 128.90625T128.90625 285.15625T71.28125 500T128.90625 714.84375T285.15625 871.09375T500 928.71875T714.84375 871.09375T871.09375 714.84375T928.71875 500z" />
    <glyph glyph-name="arrow-circle-down-1"
      unicode="&#x61;&#x72;&#x72;&#x6F;&#x77;&#x2D;&#x63;&#x69;&#x72;&#x63;&#x6C;&#x65;&#x2D;&#x64;&#x6F;&#x77;&#x6E;"
      horiz-adv-x="1000" d="M788.09375 499.0312500000001Q788.09375 514.65625 778.3125000000001 524.4375L727.5312500000001 575.21875Q716.78125 585 702.1250000000001 585Q686.5000000000001 585 676.7187500000001 575.21875L571.2500000000001 469.7500000000001V750.0312500000001Q571.2500000000001 764.6875000000001 560.5000000000001 775.4375000000001T536.0937500000001 786.1875000000001H463.8125000000001Q450.1250000000001 786.1875000000001 439.4062500000001 775.4375000000001T428.6562500000001 750.0312500000001V469.7500000000001L323.1875000000001 575.2187500000001Q312.4375000000003 585.9687500000001 297.7812500000001 585.9687500000001T272.3750000000001 575.2187500000001L221.5937500000001 524.4375000000001Q211.8125000000001 514.6562500000001 211.8125000000001 499.0312500000002Q211.8125000000001 484.3750000000001 221.5937500000001 474.6250000000002L474.5312500000001 221.6875000000002Q485.2812500000001 211.9062500000004 499.9375000000001 211.9062500000004T525.3437500000001 221.6875000000002L778.28125 474.6250000000003Q788.0625 484.4062500000002 788.0625 499.0312500000003V499.0312500000003zM928.71875 500Q928.71875 383.78125 871.09375 285.15625T714.84375 128.90625T500 71.28125T285.15625 128.90625T128.90625 285.15625T71.28125 500T128.90625 714.84375T285.15625 871.09375T500 928.71875T714.84375 871.09375T871.09375 714.84375T928.71875 500z" />
    <glyph glyph-name="arrow-circle-left"
      unicode="&#xE938;"
      horiz-adv-x="1000" d="M786.125 463.875V536.15625Q786.125 549.84375 775.3749999999999 560.5625T749.96875 571.3125H469.6875L575.15625 676.78125Q585.9062500000001 687.53125 585.9062500000001 702.1875T575.15625 727.5937500000001L524.375 778.3750000000001Q514.5937500000001 788.1562500000001 498.96875 788.1562500000001Q484.3125000000001 788.1562500000001 474.5625 778.3750000000001L221.625 525.4375000000001Q211.84375 514.6875000000001 211.84375 500.0312500000001T221.625 474.6250000000001L474.5625 221.6875Q484.34375 211.9062500000001 498.96875 211.9062500000001Q514.59375 211.9062500000001 524.375 221.6875L575.15625 272.46875Q584.9375 283.2187500000001 584.9375 297.875Q584.9375 313.5 575.15625 323.28125L469.6875000000001 428.75H749.9687500000001Q764.6250000000001 428.75 775.375 439.5T786.1250000000001 463.90625V463.90625zM928.71875 500Q928.71875 383.78125 871.09375 285.15625T714.84375 128.90625T500 71.28125T285.15625 128.90625T128.90625 285.15625T71.28125 500T128.90625 714.84375T285.15625 871.09375T500 928.71875T714.84375 871.09375T871.09375 714.84375T928.71875 500z" />
    <glyph glyph-name="arrow-circle-left-1"
      unicode="&#x61;&#x72;&#x72;&#x6F;&#x77;&#x2D;&#x63;&#x69;&#x72;&#x63;&#x6C;&#x65;&#x2D;&#x6C;&#x65;&#x66;&#x74;"
      horiz-adv-x="1000" d="M786.125 463.875V536.15625Q786.125 549.84375 775.3749999999999 560.5625T749.96875 571.3125H469.6875L575.15625 676.78125Q585.9062500000001 687.53125 585.9062500000001 702.1875T575.15625 727.5937500000001L524.375 778.3750000000001Q514.5937500000001 788.1562500000001 498.96875 788.1562500000001Q484.3125000000001 788.1562500000001 474.5625 778.3750000000001L221.625 525.4375000000001Q211.84375 514.6875000000001 211.84375 500.0312500000001T221.625 474.6250000000001L474.5625 221.6875Q484.34375 211.9062500000001 498.96875 211.9062500000001Q514.59375 211.9062500000001 524.375 221.6875L575.15625 272.46875Q584.9375 283.2187500000001 584.9375 297.875Q584.9375 313.5 575.15625 323.28125L469.6875000000001 428.75H749.9687500000001Q764.6250000000001 428.75 775.375 439.5T786.1250000000001 463.90625V463.90625zM928.71875 500Q928.71875 383.78125 871.09375 285.15625T714.84375 128.90625T500 71.28125T285.15625 128.90625T128.90625 285.15625T71.28125 500T128.90625 714.84375T285.15625 871.09375T500 928.71875T714.84375 871.09375T871.09375 714.84375T928.71875 500z" />
    <glyph glyph-name="arrow-circle-o-down"
      unicode="&#xE93B;"
      horiz-adv-x="1000" d="M696.28125 482.40625Q696.28125 475.5625 690.40625 468.7187500000001L512.65625 290.9687500000001Q506.7812500000001 286.0937500000001 499.96875 286.0937500000001T487.28125 290.9687500000001L308.5625 469.6875000000001Q299.78125 478.4687500000001 304.65625 489.2187500000002T321.25 499.9687500000002H428.6875V696.2500000000002Q428.6875 704.0625000000002 433.5625 708.9375000000002T446.2500000000001 713.8125000000002H553.6875Q561.5 713.8125000000002 566.375 708.9375000000002T571.2499999999999 696.2500000000002V499.9687500000002H678.6874999999999Q686.4999999999999 499.9687500000002 691.3749999999999 495.0937500000002T696.2499999999998 482.4062500000002V482.4062500000002zM500 803.71875Q417 803.71875 347.65625 762.6875T237.3125 652.34375T196.28125 500T237.3125 347.65625T347.65625 237.3125T500 196.2812500000001T652.34375 237.3125T762.6875 347.65625T803.7187499999999 500T762.6875 652.34375T652.34375 762.6875T500 803.71875zM928.71875 500Q928.71875 383.78125 871.09375 285.15625T714.84375 128.90625T500 71.28125T285.15625 128.90625T128.90625 285.15625T71.28125 500T128.90625 714.84375T285.15625 871.09375T500 928.71875T714.84375 871.09375T871.09375 714.84375T928.71875 500z" />
    <glyph glyph-name="arrow-circle-o-down-1"
      unicode="&#x61;&#x72;&#x72;&#x6F;&#x77;&#x2D;&#x63;&#x69;&#x72;&#x63;&#x6C;&#x65;&#x2D;&#x6F;&#x2D;&#x64;&#x6F;&#x77;&#x6E;"
      horiz-adv-x="1000" d="M696.28125 482.40625Q696.28125 475.5625 690.40625 468.7187500000001L512.65625 290.9687500000001Q506.7812500000001 286.0937500000001 499.96875 286.0937500000001T487.28125 290.9687500000001L308.5625 469.6875000000001Q299.78125 478.4687500000001 304.65625 489.2187500000002T321.25 499.9687500000002H428.6875V696.2500000000002Q428.6875 704.0625000000002 433.5625 708.9375000000002T446.2500000000001 713.8125000000002H553.6875Q561.5 713.8125000000002 566.375 708.9375000000002T571.2499999999999 696.2500000000002V499.9687500000002H678.6874999999999Q686.4999999999999 499.9687500000002 691.3749999999999 495.0937500000002T696.2499999999998 482.4062500000002V482.4062500000002zM500 803.71875Q417 803.71875 347.65625 762.6875T237.3125 652.34375T196.28125 500T237.3125 347.65625T347.65625 237.3125T500 196.2812500000001T652.34375 237.3125T762.6875 347.65625T803.7187499999999 500T762.6875 652.34375T652.34375 762.6875T500 803.71875zM928.71875 500Q928.71875 383.78125 871.09375 285.15625T714.84375 128.90625T500 71.28125T285.15625 128.90625T128.90625 285.15625T71.28125 500T128.90625 714.84375T285.15625 871.09375T500 928.71875T714.84375 871.09375T871.09375 714.84375T928.71875 500z" />
    <glyph glyph-name="arrow-circle-o-left"
      unicode="&#xE93C;"
      horiz-adv-x="1000" d="M713.875 553.71875V446.28125Q713.875 439.4374999999999 709.0000000000001 433.59375Q704.1250000000001 428.71875 696.3125000000001 428.71875H500.0312500000002V321.2812500000001Q500.0312500000002 313.4687500000001 495.1562500000001 308.5937500000001T482.4687500000001 303.7187500000001Q475.6250000000001 303.7187500000001 468.7812500000001 309.5937500000001L291.0312500000001 487.3437500000001Q286.1562500000001 492.2187500000001 286.1562500000001 500.0312500000001T291.0312500000001 512.7187500000001L469.7500000000001 691.4375000000002Q474.6250000000001 696.3125000000002 482.4375000000001 696.3125000000002Q489.2812500000001 696.3125000000002 495.1250000000002 691.4375000000002Q500.0000000000001 685.5625000000001 500.0000000000001 678.7500000000001V571.3125000000001H696.2812500000001Q704.0937500000001 571.3125000000001 708.96875 566.4375000000001Q713.84375 560.5625 713.84375 553.75V553.75zM803.71875 500Q803.71875 583 762.6875000000001 652.34375T652.3437500000001 762.6875T500.0000000000001 803.71875T347.6562500000001 762.6875T237.3125000000001 652.34375T196.2812500000001 500T237.3125000000001 347.65625T347.6562500000001 237.3125T500.0000000000001 196.2812500000001T652.3437500000001 237.3125T762.6875000000001 347.65625T803.71875 500zM928.71875 500Q928.71875 383.78125 871.09375 285.15625T714.84375 128.90625T500 71.28125T285.15625 128.90625T128.90625 285.15625T71.28125 500T128.90625 714.84375T285.15625 871.09375T500 928.71875T714.84375 871.09375T871.09375 714.84375T928.71875 500z" />
    <glyph glyph-name="arrow-circle-o-left-1"
      unicode="&#x61;&#x72;&#x72;&#x6F;&#x77;&#x2D;&#x63;&#x69;&#x72;&#x63;&#x6C;&#x65;&#x2D;&#x6F;&#x2D;&#x6C;&#x65;&#x66;&#x74;"
      horiz-adv-x="1000" d="M713.875 553.71875V446.28125Q713.875 439.4374999999999 709.0000000000001 433.59375Q704.1250000000001 428.71875 696.3125000000001 428.71875H500.0312500000002V321.2812500000001Q500.0312500000002 313.4687500000001 495.1562500000001 308.5937500000001T482.4687500000001 303.7187500000001Q475.6250000000001 303.7187500000001 468.7812500000001 309.5937500000001L291.0312500000001 487.3437500000001Q286.1562500000001 492.2187500000001 286.1562500000001 500.0312500000001T291.0312500000001 512.7187500000001L469.7500000000001 691.4375000000002Q474.6250000000001 696.3125000000002 482.4375000000001 696.3125000000002Q489.2812500000001 696.3125000000002 495.1250000000002 691.4375000000002Q500.0000000000001 685.5625000000001 500.0000000000001 678.7500000000001V571.3125000000001H696.2812500000001Q704.0937500000001 571.3125000000001 708.96875 566.4375000000001Q713.84375 560.5625 713.84375 553.75V553.75zM803.71875 500Q803.71875 583 762.6875000000001 652.34375T652.3437500000001 762.6875T500.0000000000001 803.71875T347.6562500000001 762.6875T237.3125000000001 652.34375T196.2812500000001 500T237.3125000000001 347.65625T347.6562500000001 237.3125T500.0000000000001 196.2812500000001T652.3437500000001 237.3125T762.6875000000001 347.65625T803.71875 500zM928.71875 500Q928.71875 383.78125 871.09375 285.15625T714.84375 128.90625T500 71.28125T285.15625 128.90625T128.90625 285.15625T71.28125 500T128.90625 714.84375T285.15625 871.09375T500 928.71875T714.84375 871.09375T871.09375 714.84375T928.71875 500z" />
    <glyph glyph-name="arrow-circle-o-right"
      unicode="&#xE93D;"
      horiz-adv-x="1000" d="M713.875 500Q713.875 492.1875 709.0000000000001 487.3125L530.28125 308.59375Q525.4062500000001 303.71875 517.5937500000001 303.71875Q510.7500000000001 303.71875 504.9062500000001 308.59375Q500.0312500000002 314.46875 500.0312500000002 321.28125V428.7187499999999H303.7500000000002Q295.9375000000002 428.7187499999999 291.0625000000002 433.5937499999999Q286.1875000000002 439.4687499999999 286.1875000000002 446.2812499999999V553.7187499999999Q286.1875000000002 560.5624999999998 291.0625000000002 566.4062499999999Q295.9375000000002 571.2812499999999 303.7500000000002 571.2812499999999H500.0312500000002V678.71875Q500.0312500000002 686.53125 504.9062500000001 691.40625T517.5937500000001 696.28125Q524.4375000000001 696.28125 531.28125 690.40625L709.03125 512.65625Q713.90625 507.7812499999999 713.90625 499.9687499999999V499.9687499999999zM803.71875 500Q803.71875 583 762.6875000000001 652.34375T652.3437500000001 762.6875T500.0000000000001 803.71875T347.6562500000001 762.6875T237.3125000000001 652.34375T196.2812500000001 500T237.3125000000001 347.65625T347.6562500000001 237.3125T500.0000000000001 196.2812500000001T652.3437500000001 237.3125T762.6875000000001 347.65625T803.71875 500zM928.71875 500Q928.71875 383.78125 871.09375 285.15625T714.84375 128.90625T500 71.28125T285.15625 128.90625T128.90625 285.15625T71.28125 500T128.90625 714.84375T285.15625 871.09375T500 928.71875T714.84375 871.09375T871.09375 714.84375T928.71875 500z" />
    <glyph glyph-name="arrow-circle-o-right-1"
      unicode="&#x61;&#x72;&#x72;&#x6F;&#x77;&#x2D;&#x63;&#x69;&#x72;&#x63;&#x6C;&#x65;&#x2D;&#x6F;&#x2D;&#x72;&#x69;&#x67;&#x68;&#x74;"
      horiz-adv-x="1000" d="M713.875 500Q713.875 492.1875 709.0000000000001 487.3125L530.28125 308.59375Q525.4062500000001 303.71875 517.5937500000001 303.71875Q510.7500000000001 303.71875 504.9062500000001 308.59375Q500.0312500000002 314.46875 500.0312500000002 321.28125V428.7187499999999H303.7500000000003Q295.9375000000003 428.7187499999999 291.0625000000003 433.5937499999999Q286.1875000000003 439.4687499999999 286.1875000000003 446.2812499999999V553.7187499999999Q286.1875000000003 560.5624999999998 291.0625000000003 566.4062499999999Q295.9375000000003 571.2812499999999 303.7500000000003 571.2812499999999H500.0312500000002V678.71875Q500.0312500000002 686.53125 504.9062500000001 691.40625T517.5937500000001 696.28125Q524.4375000000001 696.28125 531.28125 690.40625L709.03125 512.65625Q713.90625 507.7812499999999 713.90625 499.9687499999999V499.9687499999999zM803.71875 500Q803.71875 583 762.6875000000001 652.34375T652.3437500000001 762.6875T500.0000000000001 803.71875T347.6562500000001 762.6875T237.3125000000001 652.34375T196.2812500000001 500T237.3125000000001 347.65625T347.6562500000001 237.3125T500.0000000000001 196.2812500000001T652.3437500000001 237.3125T762.6875000000001 347.65625T803.71875 500zM928.71875 500Q928.71875 383.78125 871.09375 285.15625T714.84375 128.90625T500 71.28125T285.15625 128.90625T128.90625 285.15625T71.28125 500T128.90625 714.84375T285.15625 871.09375T500 928.71875T714.84375 871.09375T871.09375 714.84375T928.71875 500z" />
    <glyph glyph-name="arrow-circle-o-up"
      unicode="&#xE93E;"
      horiz-adv-x="1000" d="M695.3125 510.75Q690.4375 500 678.71875 500H571.2812500000001V303.71875Q571.2812500000001 295.90625 566.4062500000001 291.0312500000001T553.7187500000001 286.1562500000001H446.2812500000001Q438.4687500000001 286.1562500000001 433.5937500000001 291.0312500000001T428.7187500000001 303.71875V500H321.2812500000001Q313.4687500000001 500 308.5937500000001 504.875T303.7187500000001 517.5625Q303.7187500000001 524.40625 309.5937500000001 531.25L487.3437500000001 709Q493.2187500000001 713.8750000000001 500.0312500000001 713.8750000000001T512.71875 709L691.4375 530.28125Q700.21875 521.5 695.34375 510.7500000000001zM500 803.71875Q417 803.71875 347.65625 762.6875T237.3125 652.34375T196.28125 500T237.3125 347.65625T347.65625 237.3125T500 196.2812500000001T652.34375 237.3125T762.6875 347.65625T803.7187499999999 500T762.6875 652.34375T652.34375 762.6875T500 803.71875zM928.71875 500Q928.71875 383.78125 871.09375 285.15625T714.84375 128.90625T500 71.28125T285.15625 128.90625T128.90625 285.15625T71.28125 500T128.90625 714.84375T285.15625 871.09375T500 928.71875T714.84375 871.09375T871.09375 714.84375T928.71875 500z" />
    <glyph glyph-name="arrow-circle-o-up-1"
      unicode="&#x61;&#x72;&#x72;&#x6F;&#x77;&#x2D;&#x63;&#x69;&#x72;&#x63;&#x6C;&#x65;&#x2D;&#x6F;&#x2D;&#x75;&#x70;"
      horiz-adv-x="1000" d="M695.3125 510.75Q690.4375 500 678.71875 500H571.2812500000001V303.71875Q571.2812500000001 295.90625 566.4062500000001 291.0312500000001T553.7187500000001 286.1562500000001H446.2812500000001Q438.4687500000001 286.1562500000001 433.5937500000001 291.0312500000001T428.7187500000001 303.71875V500H321.2812500000001Q313.4687500000001 500 308.5937500000001 504.875T303.7187500000001 517.5625Q303.7187500000001 524.40625 309.5937500000001 531.25L487.3437500000001 709Q493.2187500000001 713.8750000000001 500.0312500000001 713.8750000000001T512.71875 709L691.4375 530.28125Q700.21875 521.5 695.34375 510.7500000000001zM500 803.71875Q417 803.71875 347.65625 762.6875T237.3125 652.34375T196.28125 500T237.3125 347.65625T347.65625 237.3125T500 196.2812500000001T652.34375 237.3125T762.6875 347.65625T803.7187499999999 500T762.6875 652.34375T652.34375 762.6875T500 803.71875zM928.71875 500Q928.71875 383.78125 871.09375 285.15625T714.84375 128.90625T500 71.28125T285.15625 128.90625T128.90625 285.15625T71.28125 500T128.90625 714.84375T285.15625 871.09375T500 928.71875T714.84375 871.09375T871.09375 714.84375T928.71875 500z" />
    <glyph glyph-name="arrow-circle-right"
      unicode="&#xE939;"
      horiz-adv-x="1000" d="M788.09375 500Q788.09375 514.65625 778.3125000000001 525.40625L525.3750000000001 778.34375Q515.5937500000002 788.125 500.9687500000002 788.125Q485.3437500000002 788.125 475.5625000000002 778.34375L424.7812500000002 727.5625Q415.0000000000002 716.8125 415.0000000000002 702.15625Q415.0000000000002 686.53125 424.7812500000002 676.75L530.2500000000001 571.28125H249.9687500000002Q235.3125000000001 571.28125 224.5625000000002 560.53125T213.8125000000001 536.125V463.84375Q213.8125000000001 450.15625 224.5625000000002 439.4375T249.9687500000002 428.6875H530.2500000000001L424.7812500000001 323.21875Q414.0312500000001 312.46875 414.0312500000001 297.8125T424.7812500000001 272.4062500000001L475.5625000000001 221.6250000000001Q485.3437500000001 211.8437500000001 500.9687500000001 211.8437500000001Q515.6250000000001 211.8437500000001 525.375 221.6250000000001L778.3125 474.5625Q788.0937499999999 485.3125 788.0937499999999 499.9687499999999V499.9687499999999zM928.71875 500Q928.71875 383.78125 871.09375 285.15625T714.84375 128.90625T500 71.28125T285.15625 128.90625T128.90625 285.15625T71.28125 500T128.90625 714.84375T285.15625 871.09375T500 928.71875T714.84375 871.09375T871.09375 714.84375T928.71875 500z" />
    <glyph glyph-name="arrow-circle-right-1"
      unicode="&#x61;&#x72;&#x72;&#x6F;&#x77;&#x2D;&#x63;&#x69;&#x72;&#x63;&#x6C;&#x65;&#x2D;&#x72;&#x69;&#x67;&#x68;&#x74;"
      horiz-adv-x="1000" d="M788.09375 500Q788.09375 514.65625 778.3125000000001 525.40625L525.3750000000001 778.34375Q515.5937500000002 788.125 500.9687500000002 788.125Q485.3437500000002 788.125 475.5625000000002 778.34375L424.7812500000003 727.5625Q415.0000000000003 716.8125 415.0000000000003 702.15625Q415.0000000000003 686.53125 424.7812500000003 676.75L530.2500000000001 571.28125H249.9687500000002Q235.3125000000001 571.28125 224.5625000000002 560.53125T213.8125000000001 536.125V463.84375Q213.8125000000001 450.15625 224.5625000000002 439.4375T249.9687500000002 428.6875H530.2500000000001L424.7812500000001 323.21875Q414.0312500000001 312.46875 414.0312500000001 297.8125T424.7812500000001 272.4062500000001L475.5625000000001 221.6250000000001Q485.3437500000001 211.8437500000001 500.9687500000001 211.8437500000001Q515.6250000000001 211.8437500000001 525.375 221.6250000000001L778.3125 474.5625Q788.0937499999999 485.3125 788.0937499999999 499.9687499999999V499.9687499999999zM928.71875 500Q928.71875 383.78125 871.09375 285.15625T714.84375 128.90625T500 71.28125T285.15625 128.90625T128.90625 285.15625T71.28125 500T128.90625 714.84375T285.15625 871.09375T500 928.71875T714.84375 871.09375T871.09375 714.84375T928.71875 500z" />
    <glyph glyph-name="arrow-circle-up"
      unicode="&#xE93A;"
      horiz-adv-x="1000" d="M788.09375 500.96875Q788.09375 515.625 778.3125000000001 525.375L525.3750000000001 778.3125Q514.6250000000001 788.09375 499.9687500000001 788.09375T474.5625000000001 778.3125L221.6250000000001 525.375Q211.8437500000002 515.59375 211.8437500000002 500.96875Q211.8437500000002 485.34375 221.6250000000001 475.5625L272.4062500000001 424.78125Q283.1562500000001 415 297.8125000000002 415Q313.4375000000002 415 323.2187500000002 424.78125L428.6875000000002 530.25V249.9687500000001Q428.6875000000002 235.3125 439.4375000000002 224.5625000000001T463.8437500000002 213.8125000000001H536.1250000000002Q549.8125000000001 213.8125000000001 560.5312500000001 224.5625000000001T571.2812500000002 249.9687500000001V530.25L676.7500000000002 424.7812500000001Q687.5000000000002 414.0312500000001 702.1562500000001 414.0312500000001T727.5625000000001 424.7812500000001L778.3437500000001 475.5625000000001Q788.1250000000001 485.3437500000001 788.1250000000001 500.9687500000001V500.9687500000001zM928.71875 500Q928.71875 383.78125 871.09375 285.15625T714.84375 128.90625T500 71.28125T285.15625 128.90625T128.90625 285.15625T71.28125 500T128.90625 714.84375T285.15625 871.09375T500 928.71875T714.84375 871.09375T871.09375 714.84375T928.71875 500z" />
    <glyph glyph-name="arrow-circle-up-1"
      unicode="&#x61;&#x72;&#x72;&#x6F;&#x77;&#x2D;&#x63;&#x69;&#x72;&#x63;&#x6C;&#x65;&#x2D;&#x75;&#x70;"
      horiz-adv-x="1000" d="M788.09375 500.96875Q788.09375 515.625 778.3125000000001 525.375L525.3750000000001 778.3125Q514.6250000000001 788.09375 499.9687500000001 788.09375T474.5625000000001 778.3125L221.6250000000001 525.375Q211.8437500000002 515.59375 211.8437500000002 500.96875Q211.8437500000002 485.34375 221.6250000000001 475.5625L272.4062500000001 424.78125Q283.1562500000001 415 297.8125000000003 415Q313.4375000000003 415 323.2187500000003 424.78125L428.6875000000003 530.25V249.9687500000001Q428.6875000000003 235.3125 439.4375000000003 224.5625000000001T463.8437500000002 213.8125000000001H536.1250000000002Q549.8125000000001 213.8125000000001 560.5312500000001 224.5625000000001T571.2812500000002 249.9687500000001V530.25L676.7500000000002 424.7812500000001Q687.5000000000002 414.0312500000001 702.1562500000001 414.0312500000001T727.5625000000001 424.7812500000001L778.3437500000001 475.5625000000001Q788.1250000000001 485.3437500000001 788.1250000000001 500.9687500000001V500.9687500000001zM928.71875 500Q928.71875 383.78125 871.09375 285.15625T714.84375 128.90625T500 71.28125T285.15625 128.90625T128.90625 285.15625T71.28125 500T128.90625 714.84375T285.15625 871.09375T500 928.71875T714.84375 871.09375T871.09375 714.84375T928.71875 500z" />
    <glyph glyph-name="arrow-down"
      unicode="&#xE93F;"
      horiz-adv-x="1000" d="M934.5625 536.125Q934.5625 505.8437500000001 914.0625 485.34375L550.78125 122.0625Q529.28125 100.5625 500 100.5625T450.1875 122.0625L86.90625 485.34375Q65.40625 505.84375 65.40625 536.125Q65.40625 565.4375 86.90625 586.90625L127.9375 627.9375Q149.4375 649.4375 178.71875 649.4375T228.5312500000001 627.9375L392.59375 463.875V857.4375Q392.59375 885.75 414.0937500000001 907.25T463.90625 928.75H536.1875Q564.5 928.75 586.0000000000001 907.25T607.5 857.4375V463.875L771.5625 627.9375Q792.0625 649.4375 821.3750000000001 649.4375T872.1562500000001 627.9375L914.1562500000002 586.90625Q934.6562500000002 564.4375 934.6562500000002 536.125V536.125z" />
    <glyph glyph-name="arrow-down-1"
      unicode="&#x61;&#x72;&#x72;&#x6F;&#x77;&#x2D;&#x64;&#x6F;&#x77;&#x6E;"
      horiz-adv-x="1000" d="M934.5625 536.125Q934.5625 505.8437500000001 914.0625 485.34375L550.78125 122.0625Q529.28125 100.5625 500 100.5625T450.1875 122.0625L86.90625 485.34375Q65.40625 505.84375 65.40625 536.125Q65.40625 565.4375 86.90625 586.90625L127.9375 627.9375Q149.4375 649.4375 178.71875 649.4375T228.5312500000001 627.9375L392.59375 463.875V857.4375Q392.59375 885.75 414.0937500000001 907.25T463.90625 928.75H536.1875Q564.5 928.75 586.0000000000001 907.25T607.5 857.4375V463.875L771.5625 627.9375Q792.0625 649.4375 821.3750000000001 649.4375T872.1562500000001 627.9375L914.1562500000002 586.90625Q934.6562500000002 564.4375 934.6562500000002 536.125V536.125z" />
    <glyph glyph-name="arrow-left"
      unicode="&#xE940;"
      horiz-adv-x="1000" d="M928.71875 500V428.71875Q928.71875 399.4062500000001 910.15625 377.9375Q892.5625 357.4375000000001 863.28125 357.4375000000001H470.6875L633.78125 193.3750000000001Q655.2812499999999 172.8750000000001 655.2812499999999 142.5937500000001T633.78125 92.78125L591.7812499999999 49.8125Q571.28125 29.3125000000001 541.9687499999999 29.3125000000001T491.1874999999999 49.8125L127.9062499999999 414.0625Q107.4062499999999 434.5625 107.4062499999999 463.875T127.9062499999999 514.65625L491.1874999999999 877.9375Q512.6874999999999 899.4375 541.9687499999999 899.4375T591.7812499999999 877.9375L633.78125 836.90625Q655.2812499999999 815.40625 655.2812499999999 786.125Q655.2812499999999 755.84375 633.78125 735.34375L470.6874999999999 571.28125H863.28125Q892.59375 571.28125 910.15625 550.78125Q928.71875 529.28125 928.71875 500.0000000000001V500.0000000000001z" />
    <glyph glyph-name="arrow-left-1"
      unicode="&#x61;&#x72;&#x72;&#x6F;&#x77;&#x2D;&#x6C;&#x65;&#x66;&#x74;"
      horiz-adv-x="1000" d="M928.71875 500V428.71875Q928.71875 399.4062500000001 910.15625 377.9375Q892.5625 357.4375000000001 863.28125 357.4375000000001H470.6875L633.78125 193.3750000000001Q655.2812499999999 172.8750000000001 655.2812499999999 142.5937500000001T633.78125 92.78125L591.7812499999999 49.8125Q571.28125 29.3125000000001 541.9687499999999 29.3125000000001T491.1874999999999 49.8125L127.9062499999999 414.0625Q107.4062499999999 434.5625 107.4062499999999 463.875T127.9062499999999 514.65625L491.1874999999999 877.9375Q512.6874999999999 899.4375 541.9687499999999 899.4375T591.7812499999999 877.9375L633.78125 836.90625Q655.2812499999999 815.40625 655.2812499999999 786.125Q655.2812499999999 755.84375 633.78125 735.34375L470.6874999999999 571.28125H863.28125Q892.59375 571.28125 910.15625 550.78125Q928.71875 529.28125 928.71875 500.0000000000001V500.0000000000001z" />
    <glyph glyph-name="arrow-right"
      unicode="&#xE941;"
      horiz-adv-x="1000" d="M892.59375 463.875Q892.59375 434.5625000000001 872.09375 413.09375L508.8125 49.8125Q487.3125 29.3125000000001 458.03125 29.3125000000001Q429.71875 29.3125000000001 408.21875 49.8125L366.2187500000001 91.8125000000001Q344.71875 113.3125 344.71875 142.5937500000001Q344.71875 172.8750000000001 366.2187500000001 193.3750000000001L529.3125000000001 357.4375000000001H136.7187500000001Q107.4062500000001 357.4375000000001 89.8437500000001 377.9375Q71.2812500000001 399.4375 71.2812500000001 428.71875V500.0000000000001Q71.2812500000001 529.3125 89.8437500000001 550.78125Q107.4375 571.28125 136.7187500000001 571.28125H529.3125000000001L366.2187500000001 735.34375Q344.71875 755.84375 344.71875 786.1250000000001Q344.71875 815.4375 366.2187500000001 835.9375000000001L408.21875 877.9375000000001Q428.7187500000001 899.4375000000001 458.03125 899.4375000000001T508.8125 877.9375000000001L872.09375 514.6562500000001Q892.59375 495.1250000000001 892.59375 463.875V463.875z" />
    <glyph glyph-name="arrow-right-1"
      unicode="&#x61;&#x72;&#x72;&#x6F;&#x77;&#x2D;&#x72;&#x69;&#x67;&#x68;&#x74;"
      horiz-adv-x="1000" d="M892.59375 463.875Q892.59375 434.5625000000001 872.09375 413.09375L508.8125 49.8125Q487.3125 29.3125000000001 458.03125 29.3125000000001Q429.71875 29.3125000000001 408.21875 49.8125L366.2187500000001 91.8125000000001Q344.71875 113.3125 344.71875 142.5937500000001Q344.71875 172.8750000000001 366.2187500000001 193.3750000000001L529.3125000000001 357.4375000000001H136.7187500000001Q107.4062500000001 357.4375000000001 89.8437500000001 377.9375Q71.2812500000001 399.4375 71.2812500000001 428.71875V500.0000000000001Q71.2812500000001 529.3125 89.8437500000001 550.78125Q107.4375 571.28125 136.7187500000001 571.28125H529.3125000000001L366.2187500000001 735.34375Q344.71875 755.84375 344.71875 786.1250000000001Q344.71875 815.4375 366.2187500000001 835.9375000000001L408.21875 877.9375000000001Q428.7187500000001 899.4375000000001 458.03125 899.4375000000001T508.8125 877.9375000000001L872.09375 514.6562500000001Q892.59375 495.1250000000001 892.59375 463.875V463.875z" />
    </font>
</defs>
</svg>
